<?xml version="1.0" encoding="UTF-8" standalone="no"?>
<!DOCTYPE svg PUBLIC "-//W3C//DTD SVG 1.1//EN"
 "http://www.w3.org/Graphics/SVG/1.1/DTD/svg11.dtd">
<!-- Generated by graphviz version 2.40.1 (20161225.0304)
 -->
<!-- Title: DD Pages: 1 -->
<svg width="386pt" height="547pt"
 viewBox="0.00 0.00 385.60 547.19" xmlns="http://www.w3.org/2000/svg" xmlns:xlink="http://www.w3.org/1999/xlink">
<g id="graph0" class="graph" transform="scale(1 1) rotate(0) translate(4 543.1857)">
<title>DD</title>
<polygon fill="#ffffff" stroke="transparent" points="-4,4 -4,-543.1857 381.6,-543.1857 381.6,4 -4,4"/>
<!-- T -->
<g id="node1" class="node">
<title>T</title>
<polygon fill="none" stroke="#000000" points="193.8,-36 139.8,-36 139.8,0 193.8,0 193.8,-36"/>
<text text-anchor="middle" x="166.8" y="-14.3" font-family="Times,serif" font-size="14.00" fill="#000000">1</text>
</g>
<!-- R -->
<g id="node2" class="node">
<title>R</title>
<ellipse fill="#000000" stroke="#000000" cx="210.8" cy="-537.3857" rx="1.8" ry="1.8"/>
</g>
<!-- 0 -->
<g id="node3" class="node">
<title>0</title>
<ellipse fill="#d3d3d3" stroke="#000000" cx="210.8" cy="-479.4375" rx="20.2975" ry="20.2975"/>
<text text-anchor="middle" x="210.8" y="-475.7375" font-family="Times,serif" font-size="14.00" fill="#000000">q3</text>
</g>
<!-- R&#45;&gt;0 -->
<g id="edge1" class="edge">
<title>R&#45;&gt;0</title>
<path fill="none" stroke="#000000" d="M210.8,-535.4577C210.8,-531.2609 210.8,-520.808 210.8,-510.0526"/>
<polygon fill="#000000" stroke="#000000" points="214.3001,-509.8424 210.8,-499.8424 207.3001,-509.8424 214.3001,-509.8424"/>
</g>
<!-- 0h0 -->
<g id="node4" class="node">
<title>0h0</title>
<ellipse fill="#000000" stroke="#000000" cx="133.8" cy="-421.4893" rx="1.8" ry="1.8"/>
</g>
<!-- 0&#45;&gt;0h0 -->
<g id="edge2" class="edge">
<title>0&#45;&gt;0h0</title>
<path fill="none" stroke="#006400" d="M194.4703,-467.1482C174.693,-452.2643 143.0753,-428.4696 135.4799,-422.7535"/>
</g>
<!-- 0h1 -->
<g id="node5" class="node">
<title>0h1</title>
<ellipse fill="#000000" stroke="#000000" cx="188.8" cy="-421.4893" rx="1.8" ry="1.8"/>
</g>
<!-- 0&#45;&gt;0h1 -->
<g id="edge4" class="edge">
<title>0&#45;&gt;0h1</title>
<path fill="none" stroke="#0000ff" d="M203.5964,-460.4631C198.283,-446.4676 191.6227,-428.9243 189.4902,-423.3072"/>
</g>
<!-- 0h2 -->
<g id="node6" class="node">
<title>0h2</title>
<ellipse fill="#000000" stroke="#000000" cx="232.8" cy="-421.4893" rx="1.8" ry="1.8"/>
</g>
<!-- 0&#45;&gt;0h2 -->
<g id="edge6" class="edge">
<title>0&#45;&gt;0h2</title>
<path fill="none" stroke="#ff0000" d="M218.0036,-460.4631C223.317,-446.4676 229.9773,-428.9243 232.1098,-423.3072"/>
</g>
<!-- 0h3 -->
<g id="node7" class="node">
<title>0h3</title>
<ellipse fill="#000000" stroke="#000000" cx="298.8" cy="-421.4893" rx="1.8" ry="1.8"/>
</g>
<!-- 0&#45;&gt;0h3 -->
<g id="edge8" class="edge">
<title>0&#45;&gt;0h3</title>
<path fill="none" stroke="#ffd700" d="M227.7673,-468.2645C250.5421,-453.2672 289.0934,-427.8811 297.254,-422.5073"/>
</g>
<!-- 1 -->
<g id="node8" class="node">
<title>1</title>
<ellipse fill="#d3d3d3" stroke="#000000" cx="89.8" cy="-363.5411" rx="20.2975" ry="20.2975"/>
<text text-anchor="middle" x="89.8" y="-359.8411" font-family="Times,serif" font-size="14.00" fill="#000000">q2</text>
</g>
<!-- 0h0&#45;&gt;1 -->
<g id="edge3" class="edge">
<title>0h0&#45;&gt;1</title>
<path fill="none" stroke="#000000" d="M132.336,-419.5612C128.5196,-414.535 117.8899,-400.5356 108.2121,-387.7899"/>
<polygon fill="#000000" stroke="#000000" points="110.9059,-385.5499 102.0711,-379.7021 105.3309,-389.783 110.9059,-385.5499"/>
</g>
<!-- 2 -->
<g id="node13" class="node">
<title>2</title>
<ellipse fill="#d3d3d3" stroke="#000000" cx="177.8" cy="-363.5411" rx="20.2975" ry="20.2975"/>
<text text-anchor="middle" x="177.8" y="-359.8411" font-family="Times,serif" font-size="14.00" fill="#000000">q2</text>
</g>
<!-- 0h1&#45;&gt;2 -->
<g id="edge5" class="edge">
<title>0h1&#45;&gt;2</title>
<path fill="none" stroke="#000000" d="M188.434,-419.5612C187.6177,-415.261 185.5546,-404.3926 183.4605,-393.3607"/>
<polygon fill="#000000" stroke="#000000" points="186.8671,-392.5388 181.5635,-383.367 179.9899,-393.8443 186.8671,-392.5388"/>
</g>
<!-- 3 -->
<g id="node18" class="node">
<title>3</title>
<ellipse fill="#d3d3d3" stroke="#000000" cx="243.8" cy="-363.5411" rx="20.2975" ry="20.2975"/>
<text text-anchor="middle" x="243.8" y="-359.8411" font-family="Times,serif" font-size="14.00" fill="#000000">q2</text>
</g>
<!-- 0h2&#45;&gt;3 -->
<g id="edge7" class="edge">
<title>0h2&#45;&gt;3</title>
<path fill="none" stroke="#000000" d="M233.166,-419.5612C233.9823,-415.261 236.0454,-404.3926 238.1395,-393.3607"/>
<polygon fill="#000000" stroke="#000000" points="241.6101,-393.8443 240.0365,-383.367 234.7329,-392.5388 241.6101,-393.8443"/>
</g>
<!-- 4 -->
<g id="node23" class="node">
<title>4</title>
<ellipse fill="#d3d3d3" stroke="#000000" cx="331.8" cy="-363.5411" rx="20.2975" ry="20.2975"/>
<text text-anchor="middle" x="331.8" y="-359.8411" font-family="Times,serif" font-size="14.00" fill="#000000">q2</text>
</g>
<!-- 0h3&#45;&gt;4 -->
<g id="edge9" class="edge">
<title>0h3&#45;&gt;4</title>
<path fill="none" stroke="#000000" d="M299.898,-419.5612C302.5894,-414.8351 309.7988,-402.1753 316.6844,-390.0841"/>
<polygon fill="#000000" stroke="#000000" points="319.8993,-391.5114 321.8066,-381.0896 313.8165,-388.0473 319.8993,-391.5114"/>
</g>
<!-- 1h0 -->
<g id="node9" class="node">
<title>1h0</title>
<ellipse fill="#000000" stroke="#000000" cx="45.8" cy="-305.5928" rx="1.8" ry="1.8"/>
</g>
<!-- 1&#45;&gt;1h0 -->
<g id="edge10" class="edge">
<title>1&#45;&gt;1h0</title>
<path fill="none" stroke="#006400" d="M77.5435,-347.3993C66.5586,-332.932 51.5121,-313.1157 47.0782,-307.2763"/>
</g>
<!-- 1h1 -->
<g id="node10" class="node">
<title>1h1</title>
<ellipse fill="#ff0000" stroke="#ff0000" cx="67.8" cy="-305.5928" rx="1.8" ry="1.8"/>
</g>
<!-- 1&#45;&gt;1h1 -->
<g id="edge12" class="edge">
<title>1&#45;&gt;1h1</title>
<path fill="none" stroke="#0000ff" d="M82.5964,-344.5666C77.283,-330.5712 70.6227,-313.0278 68.4902,-307.4107"/>
</g>
<!-- 1h2 -->
<g id="node11" class="node">
<title>1h2</title>
<ellipse fill="#ff0000" stroke="#ff0000" cx="89.8" cy="-305.5928" rx="1.8" ry="1.8"/>
</g>
<!-- 1&#45;&gt;1h2 -->
<g id="edge13" class="edge">
<title>1&#45;&gt;1h2</title>
<path fill="none" stroke="#ff0000" d="M89.8,-343.2736C89.8,-329.6962 89.8,-313.3069 89.8,-307.6382"/>
</g>
<!-- 1h3 -->
<g id="node12" class="node">
<title>1h3</title>
<ellipse fill="#000000" stroke="#000000" cx="111.8" cy="-305.5928" rx="1.8" ry="1.8"/>
</g>
<!-- 1&#45;&gt;1h3 -->
<g id="edge14" class="edge">
<title>1&#45;&gt;1h3</title>
<path fill="none" stroke="#ffd700" d="M97.0036,-344.5666C102.317,-330.5712 108.9773,-313.0278 111.1098,-307.4107"/>
</g>
<!-- 5 -->
<g id="node28" class="node">
<title>5</title>
<ellipse fill="#d3d3d3" stroke="#000000" cx="56.8" cy="-247.6446" rx="20.2975" ry="20.2975"/>
<text text-anchor="middle" x="56.8" y="-243.9446" font-family="Times,serif" font-size="14.00" fill="#000000">q1</text>
</g>
<!-- 1h0&#45;&gt;5 -->
<g id="edge11" class="edge">
<title>1h0&#45;&gt;5</title>
<path fill="none" stroke="#000000" d="M46.166,-303.6648C46.9823,-299.3646 49.0454,-288.4962 51.1395,-277.4643"/>
<polygon fill="#000000" stroke="#000000" points="54.6101,-277.9479 53.0365,-267.4706 47.7329,-276.6424 54.6101,-277.9479"/>
</g>
<!-- 1h3&#45;&gt;5 -->
<g id="edge15" class="edge">
<title>1h3&#45;&gt;5</title>
<path fill="none" stroke="#000000" d="M110.4404,-304.1604C105.8903,-299.3664 90.7476,-283.4119 77.7068,-269.6721"/>
<polygon fill="#000000" stroke="#000000" points="80.1816,-267.1954 70.7588,-262.3517 75.1044,-272.0144 80.1816,-267.1954"/>
</g>
<!-- 2h0 -->
<g id="node14" class="node">
<title>2h0</title>
<ellipse fill="#000000" stroke="#000000" cx="133.8" cy="-305.5928" rx="1.8" ry="1.8"/>
</g>
<!-- 2&#45;&gt;2h0 -->
<g id="edge16" class="edge">
<title>2&#45;&gt;2h0</title>
<path fill="none" stroke="#006400" d="M165.5435,-347.3993C154.5586,-332.932 139.5121,-313.1157 135.0782,-307.2763"/>
</g>
<!-- 2h1 -->
<g id="node15" class="node">
<title>2h1</title>
<ellipse fill="#ff0000" stroke="#ff0000" cx="155.8" cy="-305.5928" rx="1.8" ry="1.8"/>
</g>
<!-- 2&#45;&gt;2h1 -->
<g id="edge18" class="edge">
<title>2&#45;&gt;2h1</title>
<path fill="none" stroke="#0000ff" d="M170.5964,-344.5666C165.283,-330.5712 158.6227,-313.0278 156.4902,-307.4107"/>
</g>
<!-- 2h2 -->
<g id="node16" class="node">
<title>2h2</title>
<ellipse fill="#ff0000" stroke="#ff0000" cx="177.8" cy="-305.5928" rx="1.8" ry="1.8"/>
</g>
<!-- 2&#45;&gt;2h2 -->
<g id="edge19" class="edge">
<title>2&#45;&gt;2h2</title>
<path fill="none" stroke="#ff0000" d="M177.8,-343.2736C177.8,-329.6962 177.8,-313.3069 177.8,-307.6382"/>
</g>
<!-- 2h3 -->
<g id="node17" class="node">
<title>2h3</title>
<ellipse fill="#000000" stroke="#000000" cx="199.8" cy="-305.5928" rx="1.8" ry="1.8"/>
</g>
<!-- 2&#45;&gt;2h3 -->
<g id="edge20" class="edge">
<title>2&#45;&gt;2h3</title>
<path fill="none" stroke="#ffd700" d="M185.0036,-344.5666C190.317,-330.5712 196.9773,-313.0278 199.1098,-307.4107"/>
</g>
<!-- 6 -->
<g id="node33" class="node">
<title>6</title>
<ellipse fill="#d3d3d3" stroke="#000000" cx="144.8" cy="-247.6446" rx="20.2975" ry="20.2975"/>
<text text-anchor="middle" x="144.8" y="-243.9446" font-family="Times,serif" font-size="14.00" fill="#000000">q1</text>
</g>
<!-- 2h0&#45;&gt;6 -->
<g id="edge17" class="edge">
<title>2h0&#45;&gt;6</title>
<path fill="none" stroke="#000000" d="M134.166,-303.6648C134.9823,-299.3646 137.0454,-288.4962 139.1395,-277.4643"/>
<polygon fill="#000000" stroke="#000000" points="142.6101,-277.9479 141.0365,-267.4706 135.7329,-276.6424 142.6101,-277.9479"/>
</g>
<!-- 2h3&#45;&gt;6 -->
<g id="edge21" class="edge">
<title>2h3&#45;&gt;6</title>
<path fill="none" stroke="#000000" d="M198.4404,-304.1604C193.8903,-299.3664 178.7476,-283.4119 165.7068,-269.6721"/>
<polygon fill="#000000" stroke="#000000" points="168.1816,-267.1954 158.7588,-262.3517 163.1044,-272.0144 168.1816,-267.1954"/>
</g>
<!-- 3h0 -->
<g id="node19" class="node">
<title>3h0</title>
<ellipse fill="#000000" stroke="#000000" cx="221.8" cy="-305.5928" rx="1.8" ry="1.8"/>
</g>
<!-- 3&#45;&gt;3h0 -->
<g id="edge22" class="edge">
<title>3&#45;&gt;3h0</title>
<path fill="none" stroke="#006400" d="M236.5964,-344.5666C231.283,-330.5712 224.6227,-313.0278 222.4902,-307.4107"/>
</g>
<!-- 3h1 -->
<g id="node20" class="node">
<title>3h1</title>
<ellipse fill="#ff0000" stroke="#ff0000" cx="243.8" cy="-305.5928" rx="1.8" ry="1.8"/>
</g>
<!-- 3&#45;&gt;3h1 -->
<g id="edge24" class="edge">
<title>3&#45;&gt;3h1</title>
<path fill="none" stroke="#0000ff" d="M243.8,-343.2736C243.8,-329.6962 243.8,-313.3069 243.8,-307.6382"/>
</g>
<!-- 3h2 -->
<g id="node21" class="node">
<title>3h2</title>
<ellipse fill="#ff0000" stroke="#ff0000" cx="265.8" cy="-305.5928" rx="1.8" ry="1.8"/>
</g>
<!-- 3&#45;&gt;3h2 -->
<g id="edge25" class="edge">
<title>3&#45;&gt;3h2</title>
<path fill="none" stroke="#ff0000" d="M251.0036,-344.5666C256.317,-330.5712 262.9773,-313.0278 265.1098,-307.4107"/>
</g>
<!-- 3h3 -->
<g id="node22" class="node">
<title>3h3</title>
<ellipse fill="#000000" stroke="#000000" cx="287.8" cy="-305.5928" rx="1.8" ry="1.8"/>
</g>
<!-- 3&#45;&gt;3h3 -->
<g id="edge26" class="edge">
<title>3&#45;&gt;3h3</title>
<path fill="none" stroke="#ffd700" d="M256.0565,-347.3993C267.0414,-332.932 282.0879,-313.1157 286.5218,-307.2763"/>
</g>
<!-- 7 -->
<g id="node38" class="node">
<title>7</title>
<ellipse fill="#d3d3d3" stroke="#000000" cx="232.8" cy="-247.6446" rx="20.2975" ry="20.2975"/>
<text text-anchor="middle" x="232.8" y="-243.9446" font-family="Times,serif" font-size="14.00" fill="#000000">q1</text>
</g>
<!-- 3h0&#45;&gt;7 -->
<g id="edge23" class="edge">
<title>3h0&#45;&gt;7</title>
<path fill="none" stroke="#000000" d="M222.166,-303.6648C222.9823,-299.3646 225.0454,-288.4962 227.1395,-277.4643"/>
<polygon fill="#000000" stroke="#000000" points="230.6101,-277.9479 229.0365,-267.4706 223.7329,-276.6424 230.6101,-277.9479"/>
</g>
<!-- 3h3&#45;&gt;7 -->
<g id="edge27" class="edge">
<title>3h3&#45;&gt;7</title>
<path fill="none" stroke="#000000" d="M286.4404,-304.1604C281.8903,-299.3664 266.7476,-283.4119 253.7068,-269.6721"/>
<polygon fill="#000000" stroke="#000000" points="256.1816,-267.1954 246.7588,-262.3517 251.1044,-272.0144 256.1816,-267.1954"/>
</g>
<!-- 4h0 -->
<g id="node24" class="node">
<title>4h0</title>
<ellipse fill="#000000" stroke="#000000" cx="309.8" cy="-305.5928" rx="1.8" ry="1.8"/>
</g>
<!-- 4&#45;&gt;4h0 -->
<g id="edge28" class="edge">
<title>4&#45;&gt;4h0</title>
<path fill="none" stroke="#006400" d="M324.5964,-344.5666C319.283,-330.5712 312.6227,-313.0278 310.4902,-307.4107"/>
</g>
<!-- 4h1 -->
<g id="node25" class="node">
<title>4h1</title>
<ellipse fill="#ff0000" stroke="#ff0000" cx="331.8" cy="-305.5928" rx="1.8" ry="1.8"/>
</g>
<!-- 4&#45;&gt;4h1 -->
<g id="edge30" class="edge">
<title>4&#45;&gt;4h1</title>
<path fill="none" stroke="#0000ff" d="M331.8,-343.2736C331.8,-329.6962 331.8,-313.3069 331.8,-307.6382"/>
</g>
<!-- 4h2 -->
<g id="node26" class="node">
<title>4h2</title>
<ellipse fill="#ff0000" stroke="#ff0000" cx="353.8" cy="-305.5928" rx="1.8" ry="1.8"/>
</g>
<!-- 4&#45;&gt;4h2 -->
<g id="edge31" class="edge">
<title>4&#45;&gt;4h2</title>
<path fill="none" stroke="#ff0000" d="M339.0036,-344.5666C344.317,-330.5712 350.9773,-313.0278 353.1098,-307.4107"/>
</g>
<!-- 4h3 -->
<g id="node27" class="node">
<title>4h3</title>
<ellipse fill="#000000" stroke="#000000" cx="375.8" cy="-305.5928" rx="1.8" ry="1.8"/>
</g>
<!-- 4&#45;&gt;4h3 -->
<g id="edge32" class="edge">
<title>4&#45;&gt;4h3</title>
<path fill="none" stroke="#ffd700" d="M344.0565,-347.3993C355.0414,-332.932 370.0879,-313.1157 374.5218,-307.2763"/>
</g>
<!-- 8 -->
<g id="node43" class="node">
<title>8</title>
<ellipse fill="#d3d3d3" stroke="#000000" cx="315.8" cy="-247.6446" rx="20.2975" ry="20.2975"/>
<text text-anchor="middle" x="315.8" y="-243.9446" font-family="Times,serif" font-size="14.00" fill="#000000">q1</text>
</g>
<!-- 4h0&#45;&gt;8 -->
<g id="edge29" class="edge">
<title>4h0&#45;&gt;8</title>
<path fill="none" stroke="#000000" d="M309.9996,-303.6648C310.4373,-299.4382 311.5319,-288.8665 312.6538,-278.0309"/>
<polygon fill="#000000" stroke="#000000" points="316.1687,-278.067 313.7173,-267.7596 309.2059,-277.346 316.1687,-278.067"/>
</g>
<!-- 4h3&#45;&gt;8 -->
<g id="edge33" class="edge">
<title>4h3&#45;&gt;8</title>
<path fill="none" stroke="#000000" d="M374.3168,-304.1604C369.2457,-299.2626 352.1133,-282.7161 337.6871,-268.7833"/>
<polygon fill="#000000" stroke="#000000" points="340.0925,-266.2406 330.4681,-261.8111 335.2296,-271.2757 340.0925,-266.2406"/>
</g>
<!-- 5h0 -->
<g id="node29" class="node">
<title>5h0</title>
<ellipse fill="#000000" stroke="#000000" cx="15.8" cy="-189.6964" rx="1.8" ry="1.8"/>
</g>
<!-- 5&#45;&gt;5h0 -->
<g id="edge34" class="edge">
<title>5&#45;&gt;5h0</title>
<path fill="none" stroke="#006400" d="M45.1607,-231.194C34.9333,-216.7389 21.0623,-197.1341 16.9774,-191.3605"/>
</g>
<!-- 5h1 -->
<g id="node30" class="node">
<title>5h1</title>
<ellipse fill="#ff0000" stroke="#ff0000" cx="37.8" cy="-189.6964" rx="1.8" ry="1.8"/>
</g>
<!-- 5&#45;&gt;5h1 -->
<g id="edge36" class="edge">
<title>5&#45;&gt;5h1</title>
<path fill="none" stroke="#0000ff" d="M50.4733,-228.3487C45.8961,-214.3889 40.2087,-197.0426 38.3888,-191.4922"/>
</g>
<!-- 5h2 -->
<g id="node31" class="node">
<title>5h2</title>
<ellipse fill="#ff0000" stroke="#ff0000" cx="59.8" cy="-189.6964" rx="1.8" ry="1.8"/>
</g>
<!-- 5&#45;&gt;5h2 -->
<g id="edge37" class="edge">
<title>5&#45;&gt;5h2</title>
<path fill="none" stroke="#ff0000" d="M57.8493,-227.3772C58.5522,-213.7998 59.4006,-197.4105 59.6941,-191.7418"/>
</g>
<!-- 5h3 -->
<g id="node32" class="node">
<title>5h3</title>
<ellipse fill="#000000" stroke="#000000" cx="81.8" cy="-189.6964" rx="1.8" ry="1.8"/>
</g>
<!-- 5&#45;&gt;5h3 -->
<g id="edge38" class="edge">
<title>5&#45;&gt;5h3</title>
<path fill="none" stroke="#ffd700" d="M64.8478,-228.9905C70.9,-214.962 78.5539,-197.2207 81.0061,-191.5365"/>
</g>
<!-- 9 -->
<g id="node48" class="node">
<title>9</title>
<ellipse fill="#d3d3d3" stroke="#000000" cx="26.8" cy="-131.7482" rx="20.2975" ry="20.2975"/>
<text text-anchor="middle" x="26.8" y="-128.0482" font-family="Times,serif" font-size="14.00" fill="#000000">q0</text>
</g>
<!-- 5h0&#45;&gt;9 -->
<g id="edge35" class="edge">
<title>5h0&#45;&gt;9</title>
<path fill="none" stroke="#000000" d="M16.166,-187.7684C16.9823,-183.4682 19.0454,-172.5998 21.1395,-161.5678"/>
<polygon fill="#000000" stroke="#000000" points="24.6101,-162.0515 23.0365,-151.5742 17.7329,-160.746 24.6101,-162.0515"/>
</g>
<!-- 5h3&#45;&gt;9 -->
<g id="edge39" class="edge">
<title>5h3&#45;&gt;9</title>
<path fill="none" stroke="#000000" d="M80.4404,-188.264C75.8903,-183.47 60.7476,-167.5155 47.7068,-153.7757"/>
<polygon fill="#000000" stroke="#000000" points="50.1816,-151.299 40.7588,-146.4553 45.1044,-156.1179 50.1816,-151.299"/>
</g>
<!-- 6h0 -->
<g id="node34" class="node">
<title>6h0</title>
<ellipse fill="#000000" stroke="#000000" cx="108.8" cy="-189.6964" rx="1.8" ry="1.8"/>
</g>
<!-- 6&#45;&gt;6h0 -->
<g id="edge40" class="edge">
<title>6&#45;&gt;6h0</title>
<path fill="none" stroke="#006400" d="M133.9988,-230.2583C125.0517,-215.8563 113.2634,-196.8811 109.7981,-191.303"/>
</g>
<!-- 6h1 -->
<g id="node35" class="node">
<title>6h1</title>
<ellipse fill="#ff0000" stroke="#ff0000" cx="130.8" cy="-189.6964" rx="1.8" ry="1.8"/>
</g>
<!-- 6&#45;&gt;6h1 -->
<g id="edge42" class="edge">
<title>6&#45;&gt;6h1</title>
<path fill="none" stroke="#0000ff" d="M140.0602,-228.026C136.6968,-214.1042 132.5535,-196.9543 131.2286,-191.4703"/>
</g>
<!-- 6h2 -->
<g id="node36" class="node">
<title>6h2</title>
<ellipse fill="#ff0000" stroke="#ff0000" cx="152.8" cy="-189.6964" rx="1.8" ry="1.8"/>
</g>
<!-- 6&#45;&gt;6h2 -->
<g id="edge43" class="edge">
<title>6&#45;&gt;6h2</title>
<path fill="none" stroke="#ff0000" d="M147.598,-227.3772C149.4724,-213.7998 151.735,-197.4105 152.5176,-191.7418"/>
</g>
<!-- 6h3 -->
<g id="node37" class="node">
<title>6h3</title>
<ellipse fill="#000000" stroke="#000000" cx="174.8" cy="-189.6964" rx="1.8" ry="1.8"/>
</g>
<!-- 6&#45;&gt;6h3 -->
<g id="edge44" class="edge">
<title>6&#45;&gt;6h3</title>
<path fill="none" stroke="#ffd700" d="M154.1277,-229.6271C161.4207,-215.54 170.8115,-197.4006 173.8242,-191.5813"/>
</g>
<!-- 10 -->
<g id="node53" class="node">
<title>10</title>
<ellipse fill="#d3d3d3" stroke="#000000" cx="119.8" cy="-131.7482" rx="20.2975" ry="20.2975"/>
<text text-anchor="middle" x="119.8" y="-128.0482" font-family="Times,serif" font-size="14.00" fill="#000000">q0</text>
</g>
<!-- 6h0&#45;&gt;10 -->
<g id="edge41" class="edge">
<title>6h0&#45;&gt;10</title>
<path fill="none" stroke="#000000" d="M109.166,-187.7684C109.9823,-183.4682 112.0454,-172.5998 114.1395,-161.5678"/>
<polygon fill="#000000" stroke="#000000" points="117.6101,-162.0515 116.0365,-151.5742 110.7329,-160.746 117.6101,-162.0515"/>
</g>
<!-- 6h3&#45;&gt;10 -->
<g id="edge45" class="edge">
<title>6h3&#45;&gt;10</title>
<path fill="none" stroke="#000000" d="M173.4404,-188.264C168.8903,-183.47 153.7476,-167.5155 140.7068,-153.7757"/>
<polygon fill="#000000" stroke="#000000" points="143.1816,-151.299 133.7588,-146.4553 138.1044,-156.1179 143.1816,-151.299"/>
</g>
<!-- 7h0 -->
<g id="node39" class="node">
<title>7h0</title>
<ellipse fill="#000000" stroke="#000000" cx="197.8" cy="-189.6964" rx="1.8" ry="1.8"/>
</g>
<!-- 7&#45;&gt;7h0 -->
<g id="edge46" class="edge">
<title>7&#45;&gt;7h0</title>
<path fill="none" stroke="#006400" d="M222.2988,-230.2583C213.6002,-215.8563 202.1395,-196.8811 198.7703,-191.303"/>
</g>
<!-- 7h1 -->
<g id="node40" class="node">
<title>7h1</title>
<ellipse fill="#ff0000" stroke="#ff0000" cx="219.8" cy="-189.6964" rx="1.8" ry="1.8"/>
</g>
<!-- 7&#45;&gt;7h1 -->
<g id="edge48" class="edge">
<title>7&#45;&gt;7h1</title>
<path fill="none" stroke="#0000ff" d="M228.3261,-227.7021C225.2708,-214.0827 221.5518,-197.5052 220.2646,-191.7674"/>
</g>
<!-- 7h2 -->
<g id="node41" class="node">
<title>7h2</title>
<ellipse fill="#ff0000" stroke="#ff0000" cx="241.8" cy="-189.6964" rx="1.8" ry="1.8"/>
</g>
<!-- 7&#45;&gt;7h2 -->
<g id="edge49" class="edge">
<title>7&#45;&gt;7h2</title>
<path fill="none" stroke="#ff0000" d="M235.8973,-227.7021C238.0125,-214.0827 240.5872,-197.5052 241.4784,-191.7674"/>
</g>
<!-- 7h3 -->
<g id="node42" class="node">
<title>7h3</title>
<ellipse fill="#000000" stroke="#000000" cx="263.8" cy="-189.6964" rx="1.8" ry="1.8"/>
</g>
<!-- 7&#45;&gt;7h3 -->
<g id="edge50" class="edge">
<title>7&#45;&gt;7h3</title>
<path fill="none" stroke="#ffd700" d="M242.4387,-229.6271C249.9747,-215.54 259.6786,-197.4006 262.7917,-191.5813"/>
</g>
<!-- 11 -->
<g id="node58" class="node">
<title>11</title>
<ellipse fill="#d3d3d3" stroke="#000000" cx="200.8" cy="-131.7482" rx="20.2975" ry="20.2975"/>
<text text-anchor="middle" x="200.8" y="-128.0482" font-family="Times,serif" font-size="14.00" fill="#000000">q0</text>
</g>
<!-- 7h0&#45;&gt;11 -->
<g id="edge47" class="edge">
<title>7h0&#45;&gt;11</title>
<path fill="none" stroke="#000000" d="M197.8998,-187.7684C198.1171,-183.5716 198.6582,-173.1187 199.215,-162.3633"/>
<polygon fill="#000000" stroke="#000000" points="202.7218,-162.3207 199.7436,-152.1531 195.7312,-161.9588 202.7218,-162.3207"/>
</g>
<!-- 7h3&#45;&gt;11 -->
<g id="edge51" class="edge">
<title>7h3&#45;&gt;11</title>
<path fill="none" stroke="#000000" d="M262.2427,-188.264C256.8857,-183.3365 238.7104,-166.6187 223.5064,-152.6338"/>
<polygon fill="#000000" stroke="#000000" points="225.6396,-149.8405 215.9101,-145.6467 220.9007,-154.9925 225.6396,-149.8405"/>
</g>
<!-- 8h0 -->
<g id="node44" class="node">
<title>8h0</title>
<ellipse fill="#000000" stroke="#000000" cx="288.8" cy="-189.6964" rx="1.8" ry="1.8"/>
</g>
<!-- 8&#45;&gt;8h0 -->
<g id="edge52" class="edge">
<title>8&#45;&gt;8h0</title>
<path fill="none" stroke="#006400" d="M307.257,-229.3095C300.7064,-215.2504 292.3476,-197.3104 289.6678,-191.5588"/>
</g>
<!-- 8h1 -->
<g id="node45" class="node">
<title>8h1</title>
<ellipse fill="#ff0000" stroke="#ff0000" cx="310.8" cy="-189.6964" rx="1.8" ry="1.8"/>
</g>
<!-- 8&#45;&gt;8h1 -->
<g id="edge54" class="edge">
<title>8&#45;&gt;8h1</title>
<path fill="none" stroke="#0000ff" d="M314.0512,-227.3772C312.8797,-213.7998 311.4656,-197.4105 310.9765,-191.7418"/>
</g>
<!-- 8h2 -->
<g id="node46" class="node">
<title>8h2</title>
<ellipse fill="#ff0000" stroke="#ff0000" cx="332.8" cy="-189.6964" rx="1.8" ry="1.8"/>
</g>
<!-- 8&#45;&gt;8h2 -->
<g id="edge55" class="edge">
<title>8&#45;&gt;8h2</title>
<path fill="none" stroke="#ff0000" d="M321.5554,-228.026C325.6396,-214.1042 330.6708,-196.9543 332.2796,-191.4703"/>
</g>
<!-- 8h3 -->
<g id="node47" class="node">
<title>8h3</title>
<ellipse fill="#000000" stroke="#000000" cx="354.8" cy="-189.6964" rx="1.8" ry="1.8"/>
</g>
<!-- 8&#45;&gt;8h3 -->
<g id="edge56" class="edge">
<title>8&#45;&gt;8h3</title>
<path fill="none" stroke="#ffd700" d="M327.0804,-230.8836C336.7989,-216.4434 349.8514,-197.0493 353.693,-191.3412"/>
</g>
<!-- 12 -->
<g id="node63" class="node">
<title>12</title>
<ellipse fill="#d3d3d3" stroke="#000000" cx="289.8" cy="-131.7482" rx="20.2975" ry="20.2975"/>
<text text-anchor="middle" x="289.8" y="-128.0482" font-family="Times,serif" font-size="14.00" fill="#000000">q0</text>
</g>
<!-- 8h0&#45;&gt;12 -->
<g id="edge53" class="edge">
<title>8h0&#45;&gt;12</title>
<path fill="none" stroke="#000000" d="M288.8333,-187.7684C288.9057,-183.5716 289.0861,-173.1187 289.2717,-162.3633"/>
<polygon fill="#000000" stroke="#000000" points="292.7747,-162.212 289.4479,-152.1531 285.7758,-162.0912 292.7747,-162.212"/>
</g>
<!-- 8h3&#45;&gt;12 -->
<g id="edge57" class="edge">
<title>8h3&#45;&gt;12</title>
<path fill="none" stroke="#000000" d="M353.1932,-188.264C347.6329,-183.3069 328.6875,-166.4168 312.944,-152.3814"/>
<polygon fill="#000000" stroke="#000000" points="314.8845,-149.4223 305.091,-145.3803 310.2262,-154.6474 314.8845,-149.4223"/>
</g>
<!-- 9h0 -->
<g id="node49" class="node">
<title>9h0</title>
<ellipse fill="#000000" stroke="#000000" cx="1.8" cy="-73.8" rx="1.8" ry="1.8"/>
</g>
<!-- 9&#45;&gt;9h0 -->
<g id="edge58" class="edge">
<title>9&#45;&gt;9h0</title>
<path fill="none" stroke="#006400" d="M18.7522,-113.0941C12.7,-99.0655 5.0461,-81.3242 2.5939,-75.6401"/>
</g>
<!-- 9h1 -->
<g id="node50" class="node">
<title>9h1</title>
<ellipse fill="#ff0000" stroke="#ff0000" cx="23.8" cy="-73.8" rx="1.8" ry="1.8"/>
</g>
<!-- 9&#45;&gt;9h1 -->
<g id="edge60" class="edge">
<title>9&#45;&gt;9h1</title>
<path fill="none" stroke="#0000ff" d="M25.7507,-111.4807C25.0478,-97.9034 24.1994,-81.5141 23.9059,-75.8454"/>
</g>
<!-- 9h2 -->
<g id="node51" class="node">
<title>9h2</title>
<ellipse fill="#ff0000" stroke="#ff0000" cx="45.8" cy="-73.8" rx="1.8" ry="1.8"/>
</g>
<!-- 9&#45;&gt;9h2 -->
<g id="edge61" class="edge">
<title>9&#45;&gt;9h2</title>
<path fill="none" stroke="#ff0000" d="M33.1267,-112.4523C37.7039,-98.4925 43.3913,-81.1462 45.2112,-75.5958"/>
</g>
<!-- 9h3 -->
<g id="node52" class="node">
<title>9h3</title>
<ellipse fill="#ff0000" stroke="#ff0000" cx="67.8" cy="-73.8" rx="1.8" ry="1.8"/>
</g>
<!-- 9&#45;&gt;9h3 -->
<g id="edge62" class="edge">
<title>9&#45;&gt;9h3</title>
<path fill="none" stroke="#ffd700" d="M38.4393,-115.2976C48.6667,-100.8424 62.5377,-81.2376 66.6226,-75.464"/>
</g>
<!-- 9h0&#45;&gt;T -->
<g id="edge59" class="edge">
<title>9h0&#45;&gt;T</title>
<path fill="none" stroke="#000000" d="M3.653,-73.1733C15.8648,-69.0436 85.6624,-45.4392 129.9174,-30.473"/>
<polygon fill="#000000" stroke="#000000" points="131.1325,-33.7569 139.4842,-27.2377 128.89,-27.1258 131.1325,-33.7569"/>
</g>
<!-- 10h0 -->
<g id="node54" class="node">
<title>10h0</title>
<ellipse fill="#ff0000" stroke="#ff0000" cx="89.8" cy="-73.8" rx="1.8" ry="1.8"/>
</g>
<!-- 10&#45;&gt;10h0 -->
<g id="edge63" class="edge">
<title>10&#45;&gt;10h0</title>
<path fill="none" stroke="#006400" d="M110.4723,-113.7307C103.1793,-99.6436 93.7885,-81.5041 90.7758,-75.6849"/>
</g>
<!-- 10h1 -->
<g id="node55" class="node">
<title>10h1</title>
<ellipse fill="#ff0000" stroke="#ff0000" cx="111.8" cy="-73.8" rx="1.8" ry="1.8"/>
</g>
<!-- 10&#45;&gt;10h1 -->
<g id="edge64" class="edge">
<title>10&#45;&gt;10h1</title>
<path fill="none" stroke="#0000ff" d="M117.002,-111.4807C115.1276,-97.9034 112.865,-81.5141 112.0824,-75.8454"/>
</g>
<!-- 10h2 -->
<g id="node56" class="node">
<title>10h2</title>
<ellipse fill="#000000" stroke="#000000" cx="133.8" cy="-73.8" rx="1.8" ry="1.8"/>
</g>
<!-- 10&#45;&gt;10h2 -->
<g id="edge65" class="edge">
<title>10&#45;&gt;10h2</title>
<path fill="none" stroke="#ff0000" d="M124.5398,-112.1296C127.9032,-98.2078 132.0465,-81.0579 133.3714,-75.5739"/>
</g>
<!-- 10h3 -->
<g id="node57" class="node">
<title>10h3</title>
<ellipse fill="#ff0000" stroke="#ff0000" cx="155.8" cy="-73.8" rx="1.8" ry="1.8"/>
</g>
<!-- 10&#45;&gt;10h3 -->
<g id="edge67" class="edge">
<title>10&#45;&gt;10h3</title>
<path fill="none" stroke="#ffd700" d="M130.6012,-114.3618C139.5483,-99.9599 151.3366,-80.9847 154.8019,-75.4065"/>
</g>
<!-- 10h2&#45;&gt;T -->
<g id="edge66" class="edge">
<title>10h2&#45;&gt;T</title>
<path fill="none" stroke="#000000" d="M134.898,-71.9434C137.4747,-67.5863 144.1929,-56.2266 150.8032,-45.0491"/>
<polygon fill="#000000" stroke="#000000" points="153.9224,-46.6504 156.0003,-36.2614 147.8972,-43.0871 153.9224,-46.6504"/>
</g>
<!-- 11h0 -->
<g id="node59" class="node">
<title>11h0</title>
<ellipse fill="#ff0000" stroke="#ff0000" cx="177.8" cy="-73.8" rx="1.8" ry="1.8"/>
</g>
<!-- 11&#45;&gt;11h0 -->
<g id="edge68" class="edge">
<title>11&#45;&gt;11h0</title>
<path fill="none" stroke="#006400" d="M193.2689,-112.7738C187.7141,-98.7784 180.751,-81.235 178.5215,-75.6179"/>
</g>
<!-- 11h1 -->
<g id="node60" class="node">
<title>11h1</title>
<ellipse fill="#000000" stroke="#000000" cx="199.8" cy="-73.8" rx="1.8" ry="1.8"/>
</g>
<!-- 11&#45;&gt;11h1 -->
<g id="edge69" class="edge">
<title>11&#45;&gt;11h1</title>
<path fill="none" stroke="#0000ff" d="M200.4502,-111.4807C200.2159,-97.9034 199.9331,-81.5141 199.8353,-75.8454"/>
</g>
<!-- 11h2 -->
<g id="node61" class="node">
<title>11h2</title>
<ellipse fill="#ff0000" stroke="#ff0000" cx="221.8" cy="-73.8" rx="1.8" ry="1.8"/>
</g>
<!-- 11&#45;&gt;11h2 -->
<g id="edge71" class="edge">
<title>11&#45;&gt;11h2</title>
<path fill="none" stroke="#ff0000" d="M207.6762,-112.7738C212.748,-98.7784 219.1056,-81.235 221.1412,-75.6179"/>
</g>
<!-- 11h3 -->
<g id="node62" class="node">
<title>11h3</title>
<ellipse fill="#ff0000" stroke="#ff0000" cx="243.8" cy="-73.8" rx="1.8" ry="1.8"/>
</g>
<!-- 11&#45;&gt;11h3 -->
<g id="edge72" class="edge">
<title>11&#45;&gt;11h3</title>
<path fill="none" stroke="#ffd700" d="M213.0071,-115.2976C223.7334,-100.8424 238.281,-81.2376 242.5652,-75.464"/>
</g>
<!-- 11h1&#45;&gt;T -->
<g id="edge70" class="edge">
<title>11h1&#45;&gt;T</title>
<path fill="none" stroke="#000000" d="M198.702,-71.9434C196.1253,-67.5863 189.4071,-56.2266 182.7968,-45.0491"/>
<polygon fill="#000000" stroke="#000000" points="185.7028,-43.0871 177.5997,-36.2614 179.6776,-46.6504 185.7028,-43.0871"/>
</g>
<!-- 12h0 -->
<g id="node64" class="node">
<title>12h0</title>
<ellipse fill="#ff0000" stroke="#ff0000" cx="265.8" cy="-73.8" rx="1.8" ry="1.8"/>
</g>
<!-- 12&#45;&gt;12h0 -->
<g id="edge73" class="edge">
<title>12&#45;&gt;12h0</title>
<path fill="none" stroke="#006400" d="M282.0741,-113.0941C276.264,-99.0655 268.9163,-81.3242 266.5621,-75.6401"/>
</g>
<!-- 12h1 -->
<g id="node65" class="node">
<title>12h1</title>
<ellipse fill="#ff0000" stroke="#ff0000" cx="287.8" cy="-73.8" rx="1.8" ry="1.8"/>
</g>
<!-- 12&#45;&gt;12h1 -->
<g id="edge74" class="edge">
<title>12&#45;&gt;12h1</title>
<path fill="none" stroke="#0000ff" d="M289.1005,-111.4807C288.6319,-97.9034 288.0662,-81.5141 287.8706,-75.8454"/>
</g>
<!-- 12h2 -->
<g id="node66" class="node">
<title>12h2</title>
<ellipse fill="#ff0000" stroke="#ff0000" cx="309.8" cy="-73.8" rx="1.8" ry="1.8"/>
</g>
<!-- 12&#45;&gt;12h2 -->
<g id="edge75" class="edge">
<title>12&#45;&gt;12h2</title>
<path fill="none" stroke="#ff0000" d="M296.4597,-112.4523C301.2778,-98.4925 307.2646,-81.1462 309.1802,-75.5958"/>
</g>
<!-- 12h3 -->
<g id="node67" class="node">
<title>12h3</title>
<ellipse fill="#000000" stroke="#000000" cx="331.8" cy="-73.8" rx="1.8" ry="1.8"/>
</g>
<!-- 12&#45;&gt;12h3 -->
<g id="edge76" class="edge">
<title>12&#45;&gt;12h3</title>
<path fill="none" stroke="#ffd700" d="M301.7232,-115.2976C312.2,-100.8424 326.4093,-81.2376 330.5939,-75.464"/>
</g>
<!-- 12h3&#45;&gt;T -->
<g id="edge77" class="edge">
<title>12h3&#45;&gt;T</title>
<path fill="none" stroke="#000000" d="M329.947,-73.1733C317.7352,-69.0436 247.9376,-45.4392 203.6826,-30.473"/>
<polygon fill="#000000" stroke="#000000" points="204.71,-27.1258 194.1158,-27.2377 202.4675,-33.7569 204.71,-27.1258"/>
</g>
</g>
</svg>
