<?xml version="1.0" encoding="UTF-8" standalone="no"?>
<!DOCTYPE svg PUBLIC "-//W3C//DTD SVG 1.1//EN"
 "http://www.w3.org/Graphics/SVG/1.1/DTD/svg11.dtd">
<!-- Generated by graphviz version 2.40.1 (20161225.0304)
 -->
<!-- Title: DD Pages: 1 -->
<svg width="342pt" height="547pt"
 viewBox="0.00 0.00 341.60 547.19" xmlns="http://www.w3.org/2000/svg" xmlns:xlink="http://www.w3.org/1999/xlink">
<g id="graph0" class="graph" transform="scale(1 1) rotate(0) translate(4 543.1857)">
<title>DD</title>
<polygon fill="#ffffff" stroke="transparent" points="-4,4 -4,-543.1857 337.6,-543.1857 337.6,4 -4,4"/>
<!-- T -->
<g id="node1" class="node">
<title>T</title>
<polygon fill="none" stroke="#000000" points="193.8,-36 139.8,-36 139.8,0 193.8,0 193.8,-36"/>
<text text-anchor="middle" x="166.8" y="-14.3" font-family="Times,serif" font-size="14.00" fill="#000000">1</text>
</g>
<!-- R -->
<g id="node2" class="node">
<title>R</title>
<ellipse fill="#000000" stroke="#000000" cx="166.8" cy="-537.3857" rx="1.8" ry="1.8"/>
</g>
<!-- 0 -->
<g id="node3" class="node">
<title>0</title>
<ellipse fill="#d3d3d3" stroke="#000000" cx="166.8" cy="-479.4375" rx="20.2975" ry="20.2975"/>
<text text-anchor="middle" x="166.8" y="-475.7375" font-family="Times,serif" font-size="14.00" fill="#000000">q3</text>
</g>
<!-- R&#45;&gt;0 -->
<g id="edge1" class="edge">
<title>R&#45;&gt;0</title>
<path fill="none" stroke="#000000" d="M166.8,-535.4577C166.8,-531.2609 166.8,-520.808 166.8,-510.0526"/>
<polygon fill="#000000" stroke="#000000" points="170.3001,-509.8424 166.8,-499.8424 163.3001,-509.8424 170.3001,-509.8424"/>
</g>
<!-- 0h0 -->
<g id="node4" class="node">
<title>0h0</title>
<ellipse fill="#000000" stroke="#000000" cx="133.8" cy="-421.4893" rx="1.8" ry="1.8"/>
</g>
<!-- 0&#45;&gt;0h0 -->
<g id="edge2" class="edge">
<title>0&#45;&gt;0h0</title>
<path fill="none" stroke="#006400" d="M156.7196,-461.7362C148.5313,-447.3575 137.844,-428.5905 134.7041,-423.0769"/>
</g>
<!-- 0h1 -->
<g id="node5" class="node">
<title>0h1</title>
<ellipse fill="#ff0000" stroke="#ff0000" cx="155.8" cy="-421.4893" rx="1.8" ry="1.8"/>
</g>
<!-- 0&#45;&gt;0h1 -->
<g id="edge4" class="edge">
<title>0&#45;&gt;0h1</title>
<path fill="none" stroke="#0000ff" d="M163.0144,-459.495C160.4291,-445.8756 157.2823,-429.298 156.1931,-423.5602"/>
</g>
<!-- 0h2 -->
<g id="node6" class="node">
<title>0h2</title>
<ellipse fill="#ff0000" stroke="#ff0000" cx="177.8" cy="-421.4893" rx="1.8" ry="1.8"/>
</g>
<!-- 0&#45;&gt;0h2 -->
<g id="edge5" class="edge">
<title>0&#45;&gt;0h2</title>
<path fill="none" stroke="#ff0000" d="M170.5856,-459.495C173.1709,-445.8756 176.3177,-429.298 177.4069,-423.5602"/>
</g>
<!-- 0h3 -->
<g id="node7" class="node">
<title>0h3</title>
<ellipse fill="#000000" stroke="#000000" cx="199.8" cy="-421.4893" rx="1.8" ry="1.8"/>
</g>
<!-- 0&#45;&gt;0h3 -->
<g id="edge6" class="edge">
<title>0&#45;&gt;0h3</title>
<path fill="none" stroke="#ffd700" d="M176.8804,-461.7362C185.0687,-447.3575 195.756,-428.5905 198.8959,-423.0769"/>
</g>
<!-- 1 -->
<g id="node8" class="node">
<title>1</title>
<ellipse fill="#d3d3d3" stroke="#000000" cx="166.8" cy="-363.5411" rx="20.2975" ry="20.2975"/>
<text text-anchor="middle" x="166.8" y="-359.8411" font-family="Times,serif" font-size="14.00" fill="#000000">q2</text>
</g>
<!-- 0h0&#45;&gt;1 -->
<g id="edge3" class="edge">
<title>0h0&#45;&gt;1</title>
<path fill="none" stroke="#000000" d="M134.898,-419.5612C137.5894,-414.8351 144.7988,-402.1753 151.6844,-390.0841"/>
<polygon fill="#000000" stroke="#000000" points="154.8993,-391.5114 156.8066,-381.0896 148.8165,-388.0473 154.8993,-391.5114"/>
</g>
<!-- 0h3&#45;&gt;1 -->
<g id="edge7" class="edge">
<title>0h3&#45;&gt;1</title>
<path fill="none" stroke="#000000" d="M198.702,-419.5612C196.0106,-414.8351 188.8012,-402.1753 181.9156,-390.0841"/>
<polygon fill="#000000" stroke="#000000" points="184.7835,-388.0473 176.7934,-381.0896 178.7007,-391.5114 184.7835,-388.0473"/>
</g>
<!-- 1h0 -->
<g id="node9" class="node">
<title>1h0</title>
<ellipse fill="#000000" stroke="#000000" cx="89.8" cy="-305.5928" rx="1.8" ry="1.8"/>
</g>
<!-- 1&#45;&gt;1h0 -->
<g id="edge8" class="edge">
<title>1&#45;&gt;1h0</title>
<path fill="none" stroke="#006400" d="M150.4703,-351.2517C130.693,-336.3678 99.0753,-312.5732 91.4799,-306.8571"/>
</g>
<!-- 1h1 -->
<g id="node10" class="node">
<title>1h1</title>
<ellipse fill="#000000" stroke="#000000" cx="144.8" cy="-305.5928" rx="1.8" ry="1.8"/>
</g>
<!-- 1&#45;&gt;1h1 -->
<g id="edge10" class="edge">
<title>1&#45;&gt;1h1</title>
<path fill="none" stroke="#0000ff" d="M159.5964,-344.5666C154.283,-330.5712 147.6227,-313.0278 145.4902,-307.4107"/>
</g>
<!-- 1h2 -->
<g id="node11" class="node">
<title>1h2</title>
<ellipse fill="#000000" stroke="#000000" cx="188.8" cy="-305.5928" rx="1.8" ry="1.8"/>
</g>
<!-- 1&#45;&gt;1h2 -->
<g id="edge12" class="edge">
<title>1&#45;&gt;1h2</title>
<path fill="none" stroke="#ff0000" d="M174.0036,-344.5666C179.317,-330.5712 185.9773,-313.0278 188.1098,-307.4107"/>
</g>
<!-- 1h3 -->
<g id="node12" class="node">
<title>1h3</title>
<ellipse fill="#000000" stroke="#000000" cx="254.8" cy="-305.5928" rx="1.8" ry="1.8"/>
</g>
<!-- 1&#45;&gt;1h3 -->
<g id="edge14" class="edge">
<title>1&#45;&gt;1h3</title>
<path fill="none" stroke="#ffd700" d="M183.7673,-352.3681C206.5421,-337.3708 245.0934,-311.9847 253.254,-306.6109"/>
</g>
<!-- 2 -->
<g id="node13" class="node">
<title>2</title>
<ellipse fill="#d3d3d3" stroke="#000000" cx="45.8" cy="-247.6446" rx="20.2975" ry="20.2975"/>
<text text-anchor="middle" x="45.8" y="-243.9446" font-family="Times,serif" font-size="14.00" fill="#000000">q1</text>
</g>
<!-- 1h0&#45;&gt;2 -->
<g id="edge9" class="edge">
<title>1h0&#45;&gt;2</title>
<path fill="none" stroke="#000000" d="M88.336,-303.6648C84.5196,-298.6386 73.8899,-284.6392 64.2121,-271.8935"/>
<polygon fill="#000000" stroke="#000000" points="66.9059,-269.6535 58.0711,-263.8057 61.3309,-273.8866 66.9059,-269.6535"/>
</g>
<!-- 3 -->
<g id="node18" class="node">
<title>3</title>
<ellipse fill="#d3d3d3" stroke="#000000" cx="133.8" cy="-247.6446" rx="20.2975" ry="20.2975"/>
<text text-anchor="middle" x="133.8" y="-243.9446" font-family="Times,serif" font-size="14.00" fill="#000000">q1</text>
</g>
<!-- 1h1&#45;&gt;3 -->
<g id="edge11" class="edge">
<title>1h1&#45;&gt;3</title>
<path fill="none" stroke="#000000" d="M144.434,-303.6648C143.6177,-299.3646 141.5546,-288.4962 139.4605,-277.4643"/>
<polygon fill="#000000" stroke="#000000" points="142.8671,-276.6424 137.5635,-267.4706 135.9899,-277.9479 142.8671,-276.6424"/>
</g>
<!-- 4 -->
<g id="node23" class="node">
<title>4</title>
<ellipse fill="#d3d3d3" stroke="#000000" cx="199.8" cy="-247.6446" rx="20.2975" ry="20.2975"/>
<text text-anchor="middle" x="199.8" y="-243.9446" font-family="Times,serif" font-size="14.00" fill="#000000">q1</text>
</g>
<!-- 1h2&#45;&gt;4 -->
<g id="edge13" class="edge">
<title>1h2&#45;&gt;4</title>
<path fill="none" stroke="#000000" d="M189.166,-303.6648C189.9823,-299.3646 192.0454,-288.4962 194.1395,-277.4643"/>
<polygon fill="#000000" stroke="#000000" points="197.6101,-277.9479 196.0365,-267.4706 190.7329,-276.6424 197.6101,-277.9479"/>
</g>
<!-- 5 -->
<g id="node28" class="node">
<title>5</title>
<ellipse fill="#d3d3d3" stroke="#000000" cx="287.8" cy="-247.6446" rx="20.2975" ry="20.2975"/>
<text text-anchor="middle" x="287.8" y="-243.9446" font-family="Times,serif" font-size="14.00" fill="#000000">q1</text>
</g>
<!-- 1h3&#45;&gt;5 -->
<g id="edge15" class="edge">
<title>1h3&#45;&gt;5</title>
<path fill="none" stroke="#000000" d="M255.898,-303.6648C258.5894,-298.9387 265.7988,-286.2789 272.6844,-274.1877"/>
<polygon fill="#000000" stroke="#000000" points="275.8993,-275.615 277.8066,-265.1932 269.8165,-272.1509 275.8993,-275.615"/>
</g>
<!-- 2h0 -->
<g id="node14" class="node">
<title>2h0</title>
<ellipse fill="#000000" stroke="#000000" cx="1.8" cy="-189.6964" rx="1.8" ry="1.8"/>
</g>
<!-- 2&#45;&gt;2h0 -->
<g id="edge16" class="edge">
<title>2&#45;&gt;2h0</title>
<path fill="none" stroke="#006400" d="M33.5435,-231.5028C22.5586,-217.0355 7.5121,-197.2192 3.0782,-191.3798"/>
</g>
<!-- 2h1 -->
<g id="node15" class="node">
<title>2h1</title>
<ellipse fill="#ff0000" stroke="#ff0000" cx="23.8" cy="-189.6964" rx="1.8" ry="1.8"/>
</g>
<!-- 2&#45;&gt;2h1 -->
<g id="edge18" class="edge">
<title>2&#45;&gt;2h1</title>
<path fill="none" stroke="#0000ff" d="M38.5964,-228.6702C33.283,-214.6748 26.6227,-197.1314 24.4902,-191.5143"/>
</g>
<!-- 2h2 -->
<g id="node16" class="node">
<title>2h2</title>
<ellipse fill="#ff0000" stroke="#ff0000" cx="45.8" cy="-189.6964" rx="1.8" ry="1.8"/>
</g>
<!-- 2&#45;&gt;2h2 -->
<g id="edge19" class="edge">
<title>2&#45;&gt;2h2</title>
<path fill="none" stroke="#ff0000" d="M45.8,-227.3772C45.8,-213.7998 45.8,-197.4105 45.8,-191.7418"/>
</g>
<!-- 2h3 -->
<g id="node17" class="node">
<title>2h3</title>
<ellipse fill="#ff0000" stroke="#ff0000" cx="67.8" cy="-189.6964" rx="1.8" ry="1.8"/>
</g>
<!-- 2&#45;&gt;2h3 -->
<g id="edge20" class="edge">
<title>2&#45;&gt;2h3</title>
<path fill="none" stroke="#ffd700" d="M53.0036,-228.6702C58.317,-214.6748 64.9773,-197.1314 67.1098,-191.5143"/>
</g>
<!-- 6 -->
<g id="node33" class="node">
<title>6</title>
<ellipse fill="#d3d3d3" stroke="#000000" cx="166.8" cy="-131.7482" rx="20.2975" ry="20.2975"/>
<text text-anchor="middle" x="166.8" y="-128.0482" font-family="Times,serif" font-size="14.00" fill="#000000">q0</text>
</g>
<!-- 2h0&#45;&gt;6 -->
<g id="edge17" class="edge">
<title>2h0&#45;&gt;6</title>
<path fill="none" stroke="#000000" d="M3.653,-189.0456C16.6329,-184.4871 94.6709,-157.08 137.9446,-141.8823"/>
<polygon fill="#000000" stroke="#000000" points="139.3551,-145.0965 147.6304,-138.4806 137.0356,-138.492 139.3551,-145.0965"/>
</g>
<!-- 3h0 -->
<g id="node19" class="node">
<title>3h0</title>
<ellipse fill="#ff0000" stroke="#ff0000" cx="89.8" cy="-189.6964" rx="1.8" ry="1.8"/>
</g>
<!-- 3&#45;&gt;3h0 -->
<g id="edge21" class="edge">
<title>3&#45;&gt;3h0</title>
<path fill="none" stroke="#006400" d="M121.5435,-231.5028C110.5586,-217.0355 95.5121,-197.2192 91.0782,-191.3798"/>
</g>
<!-- 3h1 -->
<g id="node20" class="node">
<title>3h1</title>
<ellipse fill="#ff0000" stroke="#ff0000" cx="111.8" cy="-189.6964" rx="1.8" ry="1.8"/>
</g>
<!-- 3&#45;&gt;3h1 -->
<g id="edge22" class="edge">
<title>3&#45;&gt;3h1</title>
<path fill="none" stroke="#0000ff" d="M126.5964,-228.6702C121.283,-214.6748 114.6227,-197.1314 112.4902,-191.5143"/>
</g>
<!-- 3h2 -->
<g id="node21" class="node">
<title>3h2</title>
<ellipse fill="#000000" stroke="#000000" cx="133.8" cy="-189.6964" rx="1.8" ry="1.8"/>
</g>
<!-- 3&#45;&gt;3h2 -->
<g id="edge23" class="edge">
<title>3&#45;&gt;3h2</title>
<path fill="none" stroke="#ff0000" d="M133.8,-227.3772C133.8,-213.7998 133.8,-197.4105 133.8,-191.7418"/>
</g>
<!-- 3h3 -->
<g id="node22" class="node">
<title>3h3</title>
<ellipse fill="#ff0000" stroke="#ff0000" cx="155.8" cy="-189.6964" rx="1.8" ry="1.8"/>
</g>
<!-- 3&#45;&gt;3h3 -->
<g id="edge25" class="edge">
<title>3&#45;&gt;3h3</title>
<path fill="none" stroke="#ffd700" d="M141.0036,-228.6702C146.317,-214.6748 152.9773,-197.1314 155.1098,-191.5143"/>
</g>
<!-- 3h2&#45;&gt;6 -->
<g id="edge24" class="edge">
<title>3h2&#45;&gt;6</title>
<path fill="none" stroke="#000000" d="M134.898,-187.7684C137.5894,-183.0423 144.7988,-170.3825 151.6844,-158.2913"/>
<polygon fill="#000000" stroke="#000000" points="154.8993,-159.7185 156.8066,-149.2968 148.8165,-156.2545 154.8993,-159.7185"/>
</g>
<!-- 4h0 -->
<g id="node24" class="node">
<title>4h0</title>
<ellipse fill="#ff0000" stroke="#ff0000" cx="177.8" cy="-189.6964" rx="1.8" ry="1.8"/>
</g>
<!-- 4&#45;&gt;4h0 -->
<g id="edge26" class="edge">
<title>4&#45;&gt;4h0</title>
<path fill="none" stroke="#006400" d="M192.5964,-228.6702C187.283,-214.6748 180.6227,-197.1314 178.4902,-191.5143"/>
</g>
<!-- 4h1 -->
<g id="node25" class="node">
<title>4h1</title>
<ellipse fill="#000000" stroke="#000000" cx="199.8" cy="-189.6964" rx="1.8" ry="1.8"/>
</g>
<!-- 4&#45;&gt;4h1 -->
<g id="edge27" class="edge">
<title>4&#45;&gt;4h1</title>
<path fill="none" stroke="#0000ff" d="M199.8,-227.3772C199.8,-213.7998 199.8,-197.4105 199.8,-191.7418"/>
</g>
<!-- 4h2 -->
<g id="node26" class="node">
<title>4h2</title>
<ellipse fill="#ff0000" stroke="#ff0000" cx="221.8" cy="-189.6964" rx="1.8" ry="1.8"/>
</g>
<!-- 4&#45;&gt;4h2 -->
<g id="edge29" class="edge">
<title>4&#45;&gt;4h2</title>
<path fill="none" stroke="#ff0000" d="M207.0036,-228.6702C212.317,-214.6748 218.9773,-197.1314 221.1098,-191.5143"/>
</g>
<!-- 4h3 -->
<g id="node27" class="node">
<title>4h3</title>
<ellipse fill="#ff0000" stroke="#ff0000" cx="243.8" cy="-189.6964" rx="1.8" ry="1.8"/>
</g>
<!-- 4&#45;&gt;4h3 -->
<g id="edge30" class="edge">
<title>4&#45;&gt;4h3</title>
<path fill="none" stroke="#ffd700" d="M212.0565,-231.5028C223.0414,-217.0355 238.0879,-197.2192 242.5218,-191.3798"/>
</g>
<!-- 4h1&#45;&gt;6 -->
<g id="edge28" class="edge">
<title>4h1&#45;&gt;6</title>
<path fill="none" stroke="#000000" d="M198.702,-187.7684C196.0106,-183.0423 188.8012,-170.3825 181.9156,-158.2913"/>
<polygon fill="#000000" stroke="#000000" points="184.7835,-156.2545 176.7934,-149.2968 178.7007,-159.7185 184.7835,-156.2545"/>
</g>
<!-- 5h0 -->
<g id="node29" class="node">
<title>5h0</title>
<ellipse fill="#ff0000" stroke="#ff0000" cx="265.8" cy="-189.6964" rx="1.8" ry="1.8"/>
</g>
<!-- 5&#45;&gt;5h0 -->
<g id="edge31" class="edge">
<title>5&#45;&gt;5h0</title>
<path fill="none" stroke="#006400" d="M280.5964,-228.6702C275.283,-214.6748 268.6227,-197.1314 266.4902,-191.5143"/>
</g>
<!-- 5h1 -->
<g id="node30" class="node">
<title>5h1</title>
<ellipse fill="#ff0000" stroke="#ff0000" cx="287.8" cy="-189.6964" rx="1.8" ry="1.8"/>
</g>
<!-- 5&#45;&gt;5h1 -->
<g id="edge32" class="edge">
<title>5&#45;&gt;5h1</title>
<path fill="none" stroke="#0000ff" d="M287.8,-227.3772C287.8,-213.7998 287.8,-197.4105 287.8,-191.7418"/>
</g>
<!-- 5h2 -->
<g id="node31" class="node">
<title>5h2</title>
<ellipse fill="#ff0000" stroke="#ff0000" cx="309.8" cy="-189.6964" rx="1.8" ry="1.8"/>
</g>
<!-- 5&#45;&gt;5h2 -->
<g id="edge33" class="edge">
<title>5&#45;&gt;5h2</title>
<path fill="none" stroke="#ff0000" d="M295.0036,-228.6702C300.317,-214.6748 306.9773,-197.1314 309.1098,-191.5143"/>
</g>
<!-- 5h3 -->
<g id="node32" class="node">
<title>5h3</title>
<ellipse fill="#000000" stroke="#000000" cx="331.8" cy="-189.6964" rx="1.8" ry="1.8"/>
</g>
<!-- 5&#45;&gt;5h3 -->
<g id="edge34" class="edge">
<title>5&#45;&gt;5h3</title>
<path fill="none" stroke="#ffd700" d="M300.0565,-231.5028C311.0414,-217.0355 326.0879,-197.2192 330.5218,-191.3798"/>
</g>
<!-- 5h3&#45;&gt;6 -->
<g id="edge35" class="edge">
<title>5h3&#45;&gt;6</title>
<path fill="none" stroke="#000000" d="M329.947,-189.0456C316.9671,-184.4871 238.9291,-157.08 195.6554,-141.8823"/>
<polygon fill="#000000" stroke="#000000" points="196.5644,-138.492 185.9696,-138.4806 194.2449,-145.0965 196.5644,-138.492"/>
</g>
<!-- 6h0 -->
<g id="node34" class="node">
<title>6h0</title>
<ellipse fill="#000000" stroke="#000000" cx="133.8" cy="-73.8" rx="1.8" ry="1.8"/>
</g>
<!-- 6&#45;&gt;6h0 -->
<g id="edge36" class="edge">
<title>6&#45;&gt;6h0</title>
<path fill="none" stroke="#006400" d="M156.7196,-114.047C148.5313,-99.6682 137.844,-80.9012 134.7041,-75.3876"/>
</g>
<!-- 6h1 -->
<g id="node35" class="node">
<title>6h1</title>
<ellipse fill="#ff0000" stroke="#ff0000" cx="155.8" cy="-73.8" rx="1.8" ry="1.8"/>
</g>
<!-- 6&#45;&gt;6h1 -->
<g id="edge38" class="edge">
<title>6&#45;&gt;6h1</title>
<path fill="none" stroke="#0000ff" d="M163.0144,-111.8057C160.4291,-98.1863 157.2823,-81.6087 156.1931,-75.8709"/>
</g>
<!-- 6h2 -->
<g id="node36" class="node">
<title>6h2</title>
<ellipse fill="#ff0000" stroke="#ff0000" cx="177.8" cy="-73.8" rx="1.8" ry="1.8"/>
</g>
<!-- 6&#45;&gt;6h2 -->
<g id="edge39" class="edge">
<title>6&#45;&gt;6h2</title>
<path fill="none" stroke="#ff0000" d="M170.5856,-111.8057C173.1709,-98.1863 176.3177,-81.6087 177.4069,-75.8709"/>
</g>
<!-- 6h3 -->
<g id="node37" class="node">
<title>6h3</title>
<ellipse fill="#000000" stroke="#000000" cx="199.8" cy="-73.8" rx="1.8" ry="1.8"/>
</g>
<!-- 6&#45;&gt;6h3 -->
<g id="edge40" class="edge">
<title>6&#45;&gt;6h3</title>
<path fill="none" stroke="#ffd700" d="M176.8804,-114.047C185.0687,-99.6682 195.756,-80.9012 198.8959,-75.3876"/>
</g>
<!-- 6h0&#45;&gt;T -->
<g id="edge37" class="edge">
<title>6h0&#45;&gt;T</title>
<path fill="none" stroke="#000000" d="M134.898,-71.9434C137.4747,-67.5863 144.1929,-56.2266 150.8032,-45.0491"/>
<polygon fill="#000000" stroke="#000000" points="153.9224,-46.6504 156.0003,-36.2614 147.8972,-43.0871 153.9224,-46.6504"/>
</g>
<!-- 6h3&#45;&gt;T -->
<g id="edge41" class="edge">
<title>6h3&#45;&gt;T</title>
<path fill="none" stroke="#000000" d="M198.702,-71.9434C196.1253,-67.5863 189.4071,-56.2266 182.7968,-45.0491"/>
<polygon fill="#000000" stroke="#000000" points="185.7028,-43.0871 177.5997,-36.2614 179.6776,-46.6504 185.7028,-43.0871"/>
</g>
</g>
</svg>
