<?xml version="1.0" encoding="UTF-8" standalone="no"?>
<!DOCTYPE svg PUBLIC "-//W3C//DTD SVG 1.1//EN"
 "http://www.w3.org/Graphics/SVG/1.1/DTD/svg11.dtd">
<!-- Generated by graphviz version 2.40.1 (20161225.0304)
 -->
<!-- Title: DD Pages: 1 -->
<svg width="409pt" height="663pt"
 viewBox="0.00 0.00 408.60 663.08" xmlns="http://www.w3.org/2000/svg" xmlns:xlink="http://www.w3.org/1999/xlink">
<g id="graph0" class="graph" transform="scale(1 1) rotate(0) translate(4 659.0821)">
<title>DD</title>
<polygon fill="#ffffff" stroke="transparent" points="-4,4 -4,-659.0821 404.6,-659.0821 404.6,4 -4,4"/>
<!-- T -->
<g id="node1" class="node">
<title>T</title>
<polygon fill="none" stroke="#000000" points="193.8,-36 139.8,-36 139.8,0 193.8,0 193.8,-36"/>
<text text-anchor="middle" x="166.8" y="-14.3" font-family="Times,serif" font-size="14.00" fill="#000000">1</text>
</g>
<!-- R -->
<g id="node2" class="node">
<title>R</title>
<ellipse fill="#000000" stroke="#000000" cx="233.8" cy="-653.2821" rx="1.8" ry="1.8"/>
</g>
<!-- 0 -->
<g id="node3" class="node">
<title>0</title>
<ellipse fill="#d3d3d3" stroke="#000000" cx="233.8" cy="-595.3339" rx="20.2975" ry="20.2975"/>
<text text-anchor="middle" x="233.8" y="-591.6339" font-family="Times,serif" font-size="14.00" fill="#000000">q4</text>
</g>
<!-- R&#45;&gt;0 -->
<g id="edge1" class="edge">
<title>R&#45;&gt;0</title>
<path fill="none" stroke="#000000" d="M233.8,-651.3541C233.8,-647.1573 233.8,-636.7044 233.8,-625.949"/>
<polygon fill="#000000" stroke="#000000" points="237.3001,-625.7388 233.8,-615.7388 230.3001,-625.7388 237.3001,-625.7388"/>
</g>
<!-- 0h0 -->
<g id="node4" class="node">
<title>0h0</title>
<ellipse fill="#000000" stroke="#000000" cx="156.8" cy="-537.3857" rx="1.8" ry="1.8"/>
</g>
<!-- 0&#45;&gt;0h0 -->
<g id="edge2" class="edge">
<title>0&#45;&gt;0h0</title>
<path fill="none" stroke="#006400" d="M217.4703,-583.0446C197.693,-568.1607 166.0753,-544.366 158.4799,-538.6499"/>
</g>
<!-- 0h1 -->
<g id="node5" class="node">
<title>0h1</title>
<ellipse fill="#000000" stroke="#000000" cx="211.8" cy="-537.3857" rx="1.8" ry="1.8"/>
</g>
<!-- 0&#45;&gt;0h1 -->
<g id="edge4" class="edge">
<title>0&#45;&gt;0h1</title>
<path fill="none" stroke="#0000ff" d="M226.5964,-576.3595C221.283,-562.3641 214.6227,-544.8207 212.4902,-539.2036"/>
</g>
<!-- 0h2 -->
<g id="node6" class="node">
<title>0h2</title>
<ellipse fill="#000000" stroke="#000000" cx="255.8" cy="-537.3857" rx="1.8" ry="1.8"/>
</g>
<!-- 0&#45;&gt;0h2 -->
<g id="edge6" class="edge">
<title>0&#45;&gt;0h2</title>
<path fill="none" stroke="#ff0000" d="M241.0036,-576.3595C246.317,-562.3641 252.9773,-544.8207 255.1098,-539.2036"/>
</g>
<!-- 0h3 -->
<g id="node7" class="node">
<title>0h3</title>
<ellipse fill="#000000" stroke="#000000" cx="321.8" cy="-537.3857" rx="1.8" ry="1.8"/>
</g>
<!-- 0&#45;&gt;0h3 -->
<g id="edge8" class="edge">
<title>0&#45;&gt;0h3</title>
<path fill="none" stroke="#ffd700" d="M250.7673,-584.1609C273.5421,-569.1636 312.0934,-543.7775 320.254,-538.4038"/>
</g>
<!-- 1 -->
<g id="node8" class="node">
<title>1</title>
<ellipse fill="#d3d3d3" stroke="#000000" cx="112.8" cy="-479.4375" rx="20.2975" ry="20.2975"/>
<text text-anchor="middle" x="112.8" y="-475.7375" font-family="Times,serif" font-size="14.00" fill="#000000">q3</text>
</g>
<!-- 0h0&#45;&gt;1 -->
<g id="edge3" class="edge">
<title>0h0&#45;&gt;1</title>
<path fill="none" stroke="#000000" d="M155.336,-535.4577C151.5196,-530.4314 140.8899,-516.432 131.2121,-503.6863"/>
<polygon fill="#000000" stroke="#000000" points="133.9059,-501.4463 125.0711,-495.5985 128.3309,-505.6794 133.9059,-501.4463"/>
</g>
<!-- 2 -->
<g id="node13" class="node">
<title>2</title>
<ellipse fill="#d3d3d3" stroke="#000000" cx="200.8" cy="-479.4375" rx="20.2975" ry="20.2975"/>
<text text-anchor="middle" x="200.8" y="-475.7375" font-family="Times,serif" font-size="14.00" fill="#000000">q3</text>
</g>
<!-- 0h1&#45;&gt;2 -->
<g id="edge5" class="edge">
<title>0h1&#45;&gt;2</title>
<path fill="none" stroke="#000000" d="M211.434,-535.4577C210.6177,-531.1574 208.5546,-520.2891 206.4605,-509.2571"/>
<polygon fill="#000000" stroke="#000000" points="209.8671,-508.4353 204.5635,-499.2635 202.9899,-509.7408 209.8671,-508.4353"/>
</g>
<!-- 3 -->
<g id="node18" class="node">
<title>3</title>
<ellipse fill="#d3d3d3" stroke="#000000" cx="266.8" cy="-479.4375" rx="20.2975" ry="20.2975"/>
<text text-anchor="middle" x="266.8" y="-475.7375" font-family="Times,serif" font-size="14.00" fill="#000000">q3</text>
</g>
<!-- 0h2&#45;&gt;3 -->
<g id="edge7" class="edge">
<title>0h2&#45;&gt;3</title>
<path fill="none" stroke="#000000" d="M256.166,-535.4577C256.9823,-531.1574 259.0454,-520.2891 261.1395,-509.2571"/>
<polygon fill="#000000" stroke="#000000" points="264.6101,-509.7408 263.0365,-499.2635 257.7329,-508.4353 264.6101,-509.7408"/>
</g>
<!-- 4 -->
<g id="node23" class="node">
<title>4</title>
<ellipse fill="#d3d3d3" stroke="#000000" cx="354.8" cy="-479.4375" rx="20.2975" ry="20.2975"/>
<text text-anchor="middle" x="354.8" y="-475.7375" font-family="Times,serif" font-size="14.00" fill="#000000">q3</text>
</g>
<!-- 0h3&#45;&gt;4 -->
<g id="edge9" class="edge">
<title>0h3&#45;&gt;4</title>
<path fill="none" stroke="#000000" d="M322.898,-535.4577C325.5894,-530.7315 332.7988,-518.0717 339.6844,-505.9806"/>
<polygon fill="#000000" stroke="#000000" points="342.8993,-507.4078 344.8066,-496.986 336.8165,-503.9438 342.8993,-507.4078"/>
</g>
<!-- 1h0 -->
<g id="node9" class="node">
<title>1h0</title>
<ellipse fill="#000000" stroke="#000000" cx="68.8" cy="-421.4893" rx="1.8" ry="1.8"/>
</g>
<!-- 1&#45;&gt;1h0 -->
<g id="edge10" class="edge">
<title>1&#45;&gt;1h0</title>
<path fill="none" stroke="#006400" d="M100.5435,-463.2957C89.5586,-448.8284 74.5121,-429.0121 70.0782,-423.1727"/>
</g>
<!-- 1h1 -->
<g id="node10" class="node">
<title>1h1</title>
<ellipse fill="#ff0000" stroke="#ff0000" cx="90.8" cy="-421.4893" rx="1.8" ry="1.8"/>
</g>
<!-- 1&#45;&gt;1h1 -->
<g id="edge12" class="edge">
<title>1&#45;&gt;1h1</title>
<path fill="none" stroke="#0000ff" d="M105.5964,-460.4631C100.283,-446.4676 93.6227,-428.9243 91.4902,-423.3072"/>
</g>
<!-- 1h2 -->
<g id="node11" class="node">
<title>1h2</title>
<ellipse fill="#ff0000" stroke="#ff0000" cx="112.8" cy="-421.4893" rx="1.8" ry="1.8"/>
</g>
<!-- 1&#45;&gt;1h2 -->
<g id="edge13" class="edge">
<title>1&#45;&gt;1h2</title>
<path fill="none" stroke="#ff0000" d="M112.8,-459.17C112.8,-445.5927 112.8,-429.2033 112.8,-423.5347"/>
</g>
<!-- 1h3 -->
<g id="node12" class="node">
<title>1h3</title>
<ellipse fill="#000000" stroke="#000000" cx="134.8" cy="-421.4893" rx="1.8" ry="1.8"/>
</g>
<!-- 1&#45;&gt;1h3 -->
<g id="edge14" class="edge">
<title>1&#45;&gt;1h3</title>
<path fill="none" stroke="#ffd700" d="M120.0036,-460.4631C125.317,-446.4676 131.9773,-428.9243 134.1098,-423.3072"/>
</g>
<!-- 5 -->
<g id="node28" class="node">
<title>5</title>
<ellipse fill="#d3d3d3" stroke="#000000" cx="79.8" cy="-363.5411" rx="20.2975" ry="20.2975"/>
<text text-anchor="middle" x="79.8" y="-359.8411" font-family="Times,serif" font-size="14.00" fill="#000000">q2</text>
</g>
<!-- 1h0&#45;&gt;5 -->
<g id="edge11" class="edge">
<title>1h0&#45;&gt;5</title>
<path fill="none" stroke="#000000" d="M69.166,-419.5612C69.9823,-415.261 72.0454,-404.3926 74.1395,-393.3607"/>
<polygon fill="#000000" stroke="#000000" points="77.6101,-393.8443 76.0365,-383.367 70.7329,-392.5388 77.6101,-393.8443"/>
</g>
<!-- 1h3&#45;&gt;5 -->
<g id="edge15" class="edge">
<title>1h3&#45;&gt;5</title>
<path fill="none" stroke="#000000" d="M133.4404,-420.0568C128.8903,-415.2628 113.7476,-399.3084 100.7068,-385.5686"/>
<polygon fill="#000000" stroke="#000000" points="103.1816,-383.0919 93.7588,-378.2481 98.1044,-387.9108 103.1816,-383.0919"/>
</g>
<!-- 2h0 -->
<g id="node14" class="node">
<title>2h0</title>
<ellipse fill="#000000" stroke="#000000" cx="156.8" cy="-421.4893" rx="1.8" ry="1.8"/>
</g>
<!-- 2&#45;&gt;2h0 -->
<g id="edge16" class="edge">
<title>2&#45;&gt;2h0</title>
<path fill="none" stroke="#006400" d="M188.5435,-463.2957C177.5586,-448.8284 162.5121,-429.0121 158.0782,-423.1727"/>
</g>
<!-- 2h1 -->
<g id="node15" class="node">
<title>2h1</title>
<ellipse fill="#ff0000" stroke="#ff0000" cx="178.8" cy="-421.4893" rx="1.8" ry="1.8"/>
</g>
<!-- 2&#45;&gt;2h1 -->
<g id="edge18" class="edge">
<title>2&#45;&gt;2h1</title>
<path fill="none" stroke="#0000ff" d="M193.5964,-460.4631C188.283,-446.4676 181.6227,-428.9243 179.4902,-423.3072"/>
</g>
<!-- 2h2 -->
<g id="node16" class="node">
<title>2h2</title>
<ellipse fill="#ff0000" stroke="#ff0000" cx="200.8" cy="-421.4893" rx="1.8" ry="1.8"/>
</g>
<!-- 2&#45;&gt;2h2 -->
<g id="edge19" class="edge">
<title>2&#45;&gt;2h2</title>
<path fill="none" stroke="#ff0000" d="M200.8,-459.17C200.8,-445.5927 200.8,-429.2033 200.8,-423.5347"/>
</g>
<!-- 2h3 -->
<g id="node17" class="node">
<title>2h3</title>
<ellipse fill="#000000" stroke="#000000" cx="222.8" cy="-421.4893" rx="1.8" ry="1.8"/>
</g>
<!-- 2&#45;&gt;2h3 -->
<g id="edge20" class="edge">
<title>2&#45;&gt;2h3</title>
<path fill="none" stroke="#ffd700" d="M208.0036,-460.4631C213.317,-446.4676 219.9773,-428.9243 222.1098,-423.3072"/>
</g>
<!-- 6 -->
<g id="node33" class="node">
<title>6</title>
<ellipse fill="#d3d3d3" stroke="#000000" cx="167.8" cy="-363.5411" rx="20.2975" ry="20.2975"/>
<text text-anchor="middle" x="167.8" y="-359.8411" font-family="Times,serif" font-size="14.00" fill="#000000">q2</text>
</g>
<!-- 2h0&#45;&gt;6 -->
<g id="edge17" class="edge">
<title>2h0&#45;&gt;6</title>
<path fill="none" stroke="#000000" d="M157.166,-419.5612C157.9823,-415.261 160.0454,-404.3926 162.1395,-393.3607"/>
<polygon fill="#000000" stroke="#000000" points="165.6101,-393.8443 164.0365,-383.367 158.7329,-392.5388 165.6101,-393.8443"/>
</g>
<!-- 2h3&#45;&gt;6 -->
<g id="edge21" class="edge">
<title>2h3&#45;&gt;6</title>
<path fill="none" stroke="#000000" d="M221.4404,-420.0568C216.8903,-415.2628 201.7476,-399.3084 188.7068,-385.5686"/>
<polygon fill="#000000" stroke="#000000" points="191.1816,-383.0919 181.7588,-378.2481 186.1044,-387.9108 191.1816,-383.0919"/>
</g>
<!-- 3h0 -->
<g id="node19" class="node">
<title>3h0</title>
<ellipse fill="#000000" stroke="#000000" cx="244.8" cy="-421.4893" rx="1.8" ry="1.8"/>
</g>
<!-- 3&#45;&gt;3h0 -->
<g id="edge22" class="edge">
<title>3&#45;&gt;3h0</title>
<path fill="none" stroke="#006400" d="M259.5964,-460.4631C254.283,-446.4676 247.6227,-428.9243 245.4902,-423.3072"/>
</g>
<!-- 3h1 -->
<g id="node20" class="node">
<title>3h1</title>
<ellipse fill="#ff0000" stroke="#ff0000" cx="266.8" cy="-421.4893" rx="1.8" ry="1.8"/>
</g>
<!-- 3&#45;&gt;3h1 -->
<g id="edge24" class="edge">
<title>3&#45;&gt;3h1</title>
<path fill="none" stroke="#0000ff" d="M266.8,-459.17C266.8,-445.5927 266.8,-429.2033 266.8,-423.5347"/>
</g>
<!-- 3h2 -->
<g id="node21" class="node">
<title>3h2</title>
<ellipse fill="#ff0000" stroke="#ff0000" cx="288.8" cy="-421.4893" rx="1.8" ry="1.8"/>
</g>
<!-- 3&#45;&gt;3h2 -->
<g id="edge25" class="edge">
<title>3&#45;&gt;3h2</title>
<path fill="none" stroke="#ff0000" d="M274.0036,-460.4631C279.317,-446.4676 285.9773,-428.9243 288.1098,-423.3072"/>
</g>
<!-- 3h3 -->
<g id="node22" class="node">
<title>3h3</title>
<ellipse fill="#000000" stroke="#000000" cx="310.8" cy="-421.4893" rx="1.8" ry="1.8"/>
</g>
<!-- 3&#45;&gt;3h3 -->
<g id="edge26" class="edge">
<title>3&#45;&gt;3h3</title>
<path fill="none" stroke="#ffd700" d="M279.0565,-463.2957C290.0414,-448.8284 305.0879,-429.0121 309.5218,-423.1727"/>
</g>
<!-- 7 -->
<g id="node38" class="node">
<title>7</title>
<ellipse fill="#d3d3d3" stroke="#000000" cx="255.8" cy="-363.5411" rx="20.2975" ry="20.2975"/>
<text text-anchor="middle" x="255.8" y="-359.8411" font-family="Times,serif" font-size="14.00" fill="#000000">q2</text>
</g>
<!-- 3h0&#45;&gt;7 -->
<g id="edge23" class="edge">
<title>3h0&#45;&gt;7</title>
<path fill="none" stroke="#000000" d="M245.166,-419.5612C245.9823,-415.261 248.0454,-404.3926 250.1395,-393.3607"/>
<polygon fill="#000000" stroke="#000000" points="253.6101,-393.8443 252.0365,-383.367 246.7329,-392.5388 253.6101,-393.8443"/>
</g>
<!-- 3h3&#45;&gt;7 -->
<g id="edge27" class="edge">
<title>3h3&#45;&gt;7</title>
<path fill="none" stroke="#000000" d="M309.4404,-420.0568C304.8903,-415.2628 289.7476,-399.3084 276.7068,-385.5686"/>
<polygon fill="#000000" stroke="#000000" points="279.1816,-383.0919 269.7588,-378.2481 274.1044,-387.9108 279.1816,-383.0919"/>
</g>
<!-- 4h0 -->
<g id="node24" class="node">
<title>4h0</title>
<ellipse fill="#000000" stroke="#000000" cx="332.8" cy="-421.4893" rx="1.8" ry="1.8"/>
</g>
<!-- 4&#45;&gt;4h0 -->
<g id="edge28" class="edge">
<title>4&#45;&gt;4h0</title>
<path fill="none" stroke="#006400" d="M347.5964,-460.4631C342.283,-446.4676 335.6227,-428.9243 333.4902,-423.3072"/>
</g>
<!-- 4h1 -->
<g id="node25" class="node">
<title>4h1</title>
<ellipse fill="#ff0000" stroke="#ff0000" cx="354.8" cy="-421.4893" rx="1.8" ry="1.8"/>
</g>
<!-- 4&#45;&gt;4h1 -->
<g id="edge30" class="edge">
<title>4&#45;&gt;4h1</title>
<path fill="none" stroke="#0000ff" d="M354.8,-459.17C354.8,-445.5927 354.8,-429.2033 354.8,-423.5347"/>
</g>
<!-- 4h2 -->
<g id="node26" class="node">
<title>4h2</title>
<ellipse fill="#ff0000" stroke="#ff0000" cx="376.8" cy="-421.4893" rx="1.8" ry="1.8"/>
</g>
<!-- 4&#45;&gt;4h2 -->
<g id="edge31" class="edge">
<title>4&#45;&gt;4h2</title>
<path fill="none" stroke="#ff0000" d="M362.0036,-460.4631C367.317,-446.4676 373.9773,-428.9243 376.1098,-423.3072"/>
</g>
<!-- 4h3 -->
<g id="node27" class="node">
<title>4h3</title>
<ellipse fill="#000000" stroke="#000000" cx="398.8" cy="-421.4893" rx="1.8" ry="1.8"/>
</g>
<!-- 4&#45;&gt;4h3 -->
<g id="edge32" class="edge">
<title>4&#45;&gt;4h3</title>
<path fill="none" stroke="#ffd700" d="M367.0565,-463.2957C378.0414,-448.8284 393.0879,-429.0121 397.5218,-423.1727"/>
</g>
<!-- 8 -->
<g id="node43" class="node">
<title>8</title>
<ellipse fill="#d3d3d3" stroke="#000000" cx="338.8" cy="-363.5411" rx="20.2975" ry="20.2975"/>
<text text-anchor="middle" x="338.8" y="-359.8411" font-family="Times,serif" font-size="14.00" fill="#000000">q2</text>
</g>
<!-- 4h0&#45;&gt;8 -->
<g id="edge29" class="edge">
<title>4h0&#45;&gt;8</title>
<path fill="none" stroke="#000000" d="M332.9996,-419.5612C333.4373,-415.3347 334.5319,-404.763 335.6538,-393.9273"/>
<polygon fill="#000000" stroke="#000000" points="339.1687,-393.9634 336.7173,-383.6561 332.2059,-393.2424 339.1687,-393.9634"/>
</g>
<!-- 4h3&#45;&gt;8 -->
<g id="edge33" class="edge">
<title>4h3&#45;&gt;8</title>
<path fill="none" stroke="#000000" d="M397.3168,-420.0568C392.2457,-415.1591 375.1133,-398.6125 360.6871,-384.6797"/>
<polygon fill="#000000" stroke="#000000" points="363.0925,-382.137 353.4681,-377.7075 358.2296,-387.1721 363.0925,-382.137"/>
</g>
<!-- 5h0 -->
<g id="node29" class="node">
<title>5h0</title>
<ellipse fill="#000000" stroke="#000000" cx="37.8" cy="-305.5928" rx="1.8" ry="1.8"/>
</g>
<!-- 5&#45;&gt;5h0 -->
<g id="edge34" class="edge">
<title>5&#45;&gt;5h0</title>
<path fill="none" stroke="#006400" d="M67.8768,-347.0904C57.4,-332.6353 43.1907,-313.0305 39.0061,-307.2569"/>
</g>
<!-- 5h1 -->
<g id="node30" class="node">
<title>5h1</title>
<ellipse fill="#ff0000" stroke="#ff0000" cx="59.8" cy="-305.5928" rx="1.8" ry="1.8"/>
</g>
<!-- 5&#45;&gt;5h1 -->
<g id="edge36" class="edge">
<title>5&#45;&gt;5h1</title>
<path fill="none" stroke="#0000ff" d="M73.1403,-344.2451C68.3222,-330.2853 62.3354,-312.9391 60.4198,-307.3887"/>
</g>
<!-- 5h2 -->
<g id="node31" class="node">
<title>5h2</title>
<ellipse fill="#ff0000" stroke="#ff0000" cx="81.8" cy="-305.5928" rx="1.8" ry="1.8"/>
</g>
<!-- 5&#45;&gt;5h2 -->
<g id="edge37" class="edge">
<title>5&#45;&gt;5h2</title>
<path fill="none" stroke="#ff0000" d="M80.4995,-343.2736C80.9681,-329.6962 81.5338,-313.3069 81.7294,-307.6382"/>
</g>
<!-- 5h3 -->
<g id="node32" class="node">
<title>5h3</title>
<ellipse fill="#000000" stroke="#000000" cx="103.8" cy="-305.5928" rx="1.8" ry="1.8"/>
</g>
<!-- 5&#45;&gt;5h3 -->
<g id="edge38" class="edge">
<title>5&#45;&gt;5h3</title>
<path fill="none" stroke="#ffd700" d="M87.5259,-344.8869C93.336,-330.8584 100.6837,-313.1171 103.0379,-307.4329"/>
</g>
<!-- 9 -->
<g id="node48" class="node">
<title>9</title>
<ellipse fill="#d3d3d3" stroke="#000000" cx="48.8" cy="-247.6446" rx="20.2975" ry="20.2975"/>
<text text-anchor="middle" x="48.8" y="-243.9446" font-family="Times,serif" font-size="14.00" fill="#000000">q1</text>
</g>
<!-- 5h0&#45;&gt;9 -->
<g id="edge35" class="edge">
<title>5h0&#45;&gt;9</title>
<path fill="none" stroke="#000000" d="M38.166,-303.6648C38.9823,-299.3646 41.0454,-288.4962 43.1395,-277.4643"/>
<polygon fill="#000000" stroke="#000000" points="46.6101,-277.9479 45.0365,-267.4706 39.7329,-276.6424 46.6101,-277.9479"/>
</g>
<!-- 5h3&#45;&gt;9 -->
<g id="edge39" class="edge">
<title>5h3&#45;&gt;9</title>
<path fill="none" stroke="#000000" d="M102.4404,-304.1604C97.8903,-299.3664 82.7476,-283.4119 69.7068,-269.6721"/>
<polygon fill="#000000" stroke="#000000" points="72.1816,-267.1954 62.7588,-262.3517 67.1044,-272.0144 72.1816,-267.1954"/>
</g>
<!-- 6h0 -->
<g id="node34" class="node">
<title>6h0</title>
<ellipse fill="#000000" stroke="#000000" cx="130.8" cy="-305.5928" rx="1.8" ry="1.8"/>
</g>
<!-- 6&#45;&gt;6h0 -->
<g id="edge40" class="edge">
<title>6&#45;&gt;6h0</title>
<path fill="none" stroke="#006400" d="M156.8989,-346.4681C147.6901,-332.0456 135.441,-312.8614 131.838,-307.2185"/>
</g>
<!-- 6h1 -->
<g id="node35" class="node">
<title>6h1</title>
<ellipse fill="#ff0000" stroke="#ff0000" cx="152.8" cy="-305.5928" rx="1.8" ry="1.8"/>
</g>
<!-- 6&#45;&gt;6h1 -->
<g id="edge42" class="edge">
<title>6&#45;&gt;6h1</title>
<path fill="none" stroke="#0000ff" d="M162.7217,-343.9224C159.118,-330.0006 154.6787,-312.8507 153.2592,-307.3667"/>
</g>
<!-- 6h2 -->
<g id="node36" class="node">
<title>6h2</title>
<ellipse fill="#ff0000" stroke="#ff0000" cx="174.8" cy="-305.5928" rx="1.8" ry="1.8"/>
</g>
<!-- 6&#45;&gt;6h2 -->
<g id="edge43" class="edge">
<title>6&#45;&gt;6h2</title>
<path fill="none" stroke="#ff0000" d="M170.2483,-343.2736C171.8884,-329.6962 173.8682,-313.3069 174.5529,-307.6382"/>
</g>
<!-- 6h3 -->
<g id="node37" class="node">
<title>6h3</title>
<ellipse fill="#000000" stroke="#000000" cx="196.8" cy="-305.5928" rx="1.8" ry="1.8"/>
</g>
<!-- 6&#45;&gt;6h3 -->
<g id="edge44" class="edge">
<title>6&#45;&gt;6h3</title>
<path fill="none" stroke="#ffd700" d="M176.9758,-345.2059C184.0116,-331.1468 192.9896,-313.2068 195.868,-307.4553"/>
</g>
<!-- 10 -->
<g id="node53" class="node">
<title>10</title>
<ellipse fill="#d3d3d3" stroke="#000000" cx="141.8" cy="-247.6446" rx="20.2975" ry="20.2975"/>
<text text-anchor="middle" x="141.8" y="-243.9446" font-family="Times,serif" font-size="14.00" fill="#000000">q1</text>
</g>
<!-- 6h0&#45;&gt;10 -->
<g id="edge41" class="edge">
<title>6h0&#45;&gt;10</title>
<path fill="none" stroke="#000000" d="M131.166,-303.6648C131.9823,-299.3646 134.0454,-288.4962 136.1395,-277.4643"/>
<polygon fill="#000000" stroke="#000000" points="139.6101,-277.9479 138.0365,-267.4706 132.7329,-276.6424 139.6101,-277.9479"/>
</g>
<!-- 6h3&#45;&gt;10 -->
<g id="edge45" class="edge">
<title>6h3&#45;&gt;10</title>
<path fill="none" stroke="#000000" d="M195.4404,-304.1604C190.8903,-299.3664 175.7476,-283.4119 162.7068,-269.6721"/>
<polygon fill="#000000" stroke="#000000" points="165.1816,-267.1954 155.7588,-262.3517 160.1044,-272.0144 165.1816,-267.1954"/>
</g>
<!-- 7h0 -->
<g id="node39" class="node">
<title>7h0</title>
<ellipse fill="#000000" stroke="#000000" cx="219.8" cy="-305.5928" rx="1.8" ry="1.8"/>
</g>
<!-- 7&#45;&gt;7h0 -->
<g id="edge46" class="edge">
<title>7&#45;&gt;7h0</title>
<path fill="none" stroke="#006400" d="M244.9988,-346.1547C236.0517,-331.7527 224.2634,-312.7775 220.7981,-307.1994"/>
</g>
<!-- 7h1 -->
<g id="node40" class="node">
<title>7h1</title>
<ellipse fill="#ff0000" stroke="#ff0000" cx="241.8" cy="-305.5928" rx="1.8" ry="1.8"/>
</g>
<!-- 7&#45;&gt;7h1 -->
<g id="edge48" class="edge">
<title>7&#45;&gt;7h1</title>
<path fill="none" stroke="#0000ff" d="M251.0602,-343.9224C247.6968,-330.0006 243.5535,-312.8507 242.2286,-307.3667"/>
</g>
<!-- 7h2 -->
<g id="node41" class="node">
<title>7h2</title>
<ellipse fill="#ff0000" stroke="#ff0000" cx="263.8" cy="-305.5928" rx="1.8" ry="1.8"/>
</g>
<!-- 7&#45;&gt;7h2 -->
<g id="edge49" class="edge">
<title>7&#45;&gt;7h2</title>
<path fill="none" stroke="#ff0000" d="M258.598,-343.2736C260.4724,-329.6962 262.735,-313.3069 263.5176,-307.6382"/>
</g>
<!-- 7h3 -->
<g id="node42" class="node">
<title>7h3</title>
<ellipse fill="#000000" stroke="#000000" cx="285.8" cy="-305.5928" rx="1.8" ry="1.8"/>
</g>
<!-- 7&#45;&gt;7h3 -->
<g id="edge50" class="edge">
<title>7&#45;&gt;7h3</title>
<path fill="none" stroke="#ffd700" d="M265.1277,-345.5235C272.4207,-331.4364 281.8115,-313.297 284.8242,-307.4777"/>
</g>
<!-- 11 -->
<g id="node58" class="node">
<title>11</title>
<ellipse fill="#d3d3d3" stroke="#000000" cx="222.8" cy="-247.6446" rx="20.2975" ry="20.2975"/>
<text text-anchor="middle" x="222.8" y="-243.9446" font-family="Times,serif" font-size="14.00" fill="#000000">q1</text>
</g>
<!-- 7h0&#45;&gt;11 -->
<g id="edge47" class="edge">
<title>7h0&#45;&gt;11</title>
<path fill="none" stroke="#000000" d="M219.8998,-303.6648C220.1171,-299.468 220.6582,-289.0151 221.215,-278.2598"/>
<polygon fill="#000000" stroke="#000000" points="224.7218,-278.2172 221.7436,-268.0495 217.7312,-277.8552 224.7218,-278.2172"/>
</g>
<!-- 7h3&#45;&gt;11 -->
<g id="edge51" class="edge">
<title>7h3&#45;&gt;11</title>
<path fill="none" stroke="#000000" d="M284.2427,-304.1604C278.8857,-299.233 260.7104,-282.5151 245.5064,-268.5302"/>
<polygon fill="#000000" stroke="#000000" points="247.6396,-265.7369 237.9101,-261.5431 242.9007,-270.889 247.6396,-265.7369"/>
</g>
<!-- 8h0 -->
<g id="node44" class="node">
<title>8h0</title>
<ellipse fill="#000000" stroke="#000000" cx="311.8" cy="-305.5928" rx="1.8" ry="1.8"/>
</g>
<!-- 8&#45;&gt;8h0 -->
<g id="edge52" class="edge">
<title>8&#45;&gt;8h0</title>
<path fill="none" stroke="#006400" d="M330.257,-345.2059C323.7064,-331.1468 315.3476,-313.2068 312.6678,-307.4553"/>
</g>
<!-- 8h1 -->
<g id="node45" class="node">
<title>8h1</title>
<ellipse fill="#ff0000" stroke="#ff0000" cx="333.8" cy="-305.5928" rx="1.8" ry="1.8"/>
</g>
<!-- 8&#45;&gt;8h1 -->
<g id="edge54" class="edge">
<title>8&#45;&gt;8h1</title>
<path fill="none" stroke="#0000ff" d="M337.0512,-343.2736C335.8797,-329.6962 334.4656,-313.3069 333.9765,-307.6382"/>
</g>
<!-- 8h2 -->
<g id="node46" class="node">
<title>8h2</title>
<ellipse fill="#ff0000" stroke="#ff0000" cx="355.8" cy="-305.5928" rx="1.8" ry="1.8"/>
</g>
<!-- 8&#45;&gt;8h2 -->
<g id="edge55" class="edge">
<title>8&#45;&gt;8h2</title>
<path fill="none" stroke="#ff0000" d="M344.5554,-343.9224C348.6396,-330.0006 353.6708,-312.8507 355.2796,-307.3667"/>
</g>
<!-- 8h3 -->
<g id="node47" class="node">
<title>8h3</title>
<ellipse fill="#000000" stroke="#000000" cx="377.8" cy="-305.5928" rx="1.8" ry="1.8"/>
</g>
<!-- 8&#45;&gt;8h3 -->
<g id="edge56" class="edge">
<title>8&#45;&gt;8h3</title>
<path fill="none" stroke="#ffd700" d="M350.0804,-346.78C359.7989,-332.3398 372.8514,-312.9457 376.693,-307.2376"/>
</g>
<!-- 12 -->
<g id="node63" class="node">
<title>12</title>
<ellipse fill="#d3d3d3" stroke="#000000" cx="312.8" cy="-247.6446" rx="20.2975" ry="20.2975"/>
<text text-anchor="middle" x="312.8" y="-243.9446" font-family="Times,serif" font-size="14.00" fill="#000000">q1</text>
</g>
<!-- 8h0&#45;&gt;12 -->
<g id="edge53" class="edge">
<title>8h0&#45;&gt;12</title>
<path fill="none" stroke="#000000" d="M311.8333,-303.6648C311.9057,-299.468 312.0861,-289.0151 312.2717,-278.2598"/>
<polygon fill="#000000" stroke="#000000" points="315.7747,-278.1085 312.4479,-268.0495 308.7758,-277.9876 315.7747,-278.1085"/>
</g>
<!-- 8h3&#45;&gt;12 -->
<g id="edge57" class="edge">
<title>8h3&#45;&gt;12</title>
<path fill="none" stroke="#000000" d="M376.1932,-304.1604C370.6329,-299.2033 351.6875,-282.3133 335.944,-268.2778"/>
<polygon fill="#000000" stroke="#000000" points="337.8845,-265.3187 328.091,-261.2767 333.2262,-270.5438 337.8845,-265.3187"/>
</g>
<!-- 9h0 -->
<g id="node49" class="node">
<title>9h0</title>
<ellipse fill="#000000" stroke="#000000" cx="15.8" cy="-189.6964" rx="1.8" ry="1.8"/>
</g>
<!-- 9&#45;&gt;9h0 -->
<g id="edge58" class="edge">
<title>9&#45;&gt;9h0</title>
<path fill="none" stroke="#006400" d="M38.7196,-229.9434C30.5313,-215.5646 19.844,-196.7976 16.7041,-191.284"/>
</g>
<!-- 9h1 -->
<g id="node50" class="node">
<title>9h1</title>
<ellipse fill="#ff0000" stroke="#ff0000" cx="37.8" cy="-189.6964" rx="1.8" ry="1.8"/>
</g>
<!-- 9&#45;&gt;9h1 -->
<g id="edge60" class="edge">
<title>9&#45;&gt;9h1</title>
<path fill="none" stroke="#0000ff" d="M45.0144,-227.7021C42.4291,-214.0827 39.2823,-197.5052 38.1931,-191.7674"/>
</g>
<!-- 9h2 -->
<g id="node51" class="node">
<title>9h2</title>
<ellipse fill="#ff0000" stroke="#ff0000" cx="59.8" cy="-189.6964" rx="1.8" ry="1.8"/>
</g>
<!-- 9&#45;&gt;9h2 -->
<g id="edge61" class="edge">
<title>9&#45;&gt;9h2</title>
<path fill="none" stroke="#ff0000" d="M52.5856,-227.7021C55.1709,-214.0827 58.3177,-197.5052 59.4069,-191.7674"/>
</g>
<!-- 9h3 -->
<g id="node52" class="node">
<title>9h3</title>
<ellipse fill="#000000" stroke="#000000" cx="81.8" cy="-189.6964" rx="1.8" ry="1.8"/>
</g>
<!-- 9&#45;&gt;9h3 -->
<g id="edge62" class="edge">
<title>9&#45;&gt;9h3</title>
<path fill="none" stroke="#ffd700" d="M58.8804,-229.9434C67.0687,-215.5646 77.756,-196.7976 80.8959,-191.284"/>
</g>
<!-- 13 -->
<g id="node68" class="node">
<title>13</title>
<ellipse fill="#d3d3d3" stroke="#000000" cx="26.8" cy="-131.7482" rx="20.2975" ry="20.2975"/>
<text text-anchor="middle" x="26.8" y="-128.0482" font-family="Times,serif" font-size="14.00" fill="#000000">q0</text>
</g>
<!-- 9h0&#45;&gt;13 -->
<g id="edge59" class="edge">
<title>9h0&#45;&gt;13</title>
<path fill="none" stroke="#000000" d="M16.166,-187.7684C16.9823,-183.4682 19.0454,-172.5998 21.1395,-161.5678"/>
<polygon fill="#000000" stroke="#000000" points="24.6101,-162.0515 23.0365,-151.5742 17.7329,-160.746 24.6101,-162.0515"/>
</g>
<!-- 9h3&#45;&gt;13 -->
<g id="edge63" class="edge">
<title>9h3&#45;&gt;13</title>
<path fill="none" stroke="#000000" d="M80.4404,-188.264C75.8903,-183.47 60.7476,-167.5155 47.7068,-153.7757"/>
<polygon fill="#000000" stroke="#000000" points="50.1816,-151.299 40.7588,-146.4553 45.1044,-156.1179 50.1816,-151.299"/>
</g>
<!-- 10h0 -->
<g id="node54" class="node">
<title>10h0</title>
<ellipse fill="#000000" stroke="#000000" cx="108.8" cy="-189.6964" rx="1.8" ry="1.8"/>
</g>
<!-- 10&#45;&gt;10h0 -->
<g id="edge64" class="edge">
<title>10&#45;&gt;10h0</title>
<path fill="none" stroke="#006400" d="M131.7196,-229.9434C123.5313,-215.5646 112.844,-196.7976 109.7041,-191.284"/>
</g>
<!-- 10h1 -->
<g id="node55" class="node">
<title>10h1</title>
<ellipse fill="#ff0000" stroke="#ff0000" cx="130.8" cy="-189.6964" rx="1.8" ry="1.8"/>
</g>
<!-- 10&#45;&gt;10h1 -->
<g id="edge66" class="edge">
<title>10&#45;&gt;10h1</title>
<path fill="none" stroke="#0000ff" d="M138.0144,-227.7021C135.4291,-214.0827 132.2823,-197.5052 131.1931,-191.7674"/>
</g>
<!-- 10h2 -->
<g id="node56" class="node">
<title>10h2</title>
<ellipse fill="#ff0000" stroke="#ff0000" cx="152.8" cy="-189.6964" rx="1.8" ry="1.8"/>
</g>
<!-- 10&#45;&gt;10h2 -->
<g id="edge67" class="edge">
<title>10&#45;&gt;10h2</title>
<path fill="none" stroke="#ff0000" d="M145.5856,-227.7021C148.1709,-214.0827 151.3177,-197.5052 152.4069,-191.7674"/>
</g>
<!-- 10h3 -->
<g id="node57" class="node">
<title>10h3</title>
<ellipse fill="#000000" stroke="#000000" cx="174.8" cy="-189.6964" rx="1.8" ry="1.8"/>
</g>
<!-- 10&#45;&gt;10h3 -->
<g id="edge68" class="edge">
<title>10&#45;&gt;10h3</title>
<path fill="none" stroke="#ffd700" d="M151.8804,-229.9434C160.0687,-215.5646 170.756,-196.7976 173.8959,-191.284"/>
</g>
<!-- 14 -->
<g id="node73" class="node">
<title>14</title>
<ellipse fill="#d3d3d3" stroke="#000000" cx="119.8" cy="-131.7482" rx="20.2975" ry="20.2975"/>
<text text-anchor="middle" x="119.8" y="-128.0482" font-family="Times,serif" font-size="14.00" fill="#000000">q0</text>
</g>
<!-- 10h0&#45;&gt;14 -->
<g id="edge65" class="edge">
<title>10h0&#45;&gt;14</title>
<path fill="none" stroke="#000000" d="M109.166,-187.7684C109.9823,-183.4682 112.0454,-172.5998 114.1395,-161.5678"/>
<polygon fill="#000000" stroke="#000000" points="117.6101,-162.0515 116.0365,-151.5742 110.7329,-160.746 117.6101,-162.0515"/>
</g>
<!-- 10h3&#45;&gt;14 -->
<g id="edge69" class="edge">
<title>10h3&#45;&gt;14</title>
<path fill="none" stroke="#000000" d="M173.4404,-188.264C168.8903,-183.47 153.7476,-167.5155 140.7068,-153.7757"/>
<polygon fill="#000000" stroke="#000000" points="143.1816,-151.299 133.7588,-146.4553 138.1044,-156.1179 143.1816,-151.299"/>
</g>
<!-- 11h0 -->
<g id="node59" class="node">
<title>11h0</title>
<ellipse fill="#000000" stroke="#000000" cx="198.8" cy="-189.6964" rx="1.8" ry="1.8"/>
</g>
<!-- 11&#45;&gt;11h0 -->
<g id="edge70" class="edge">
<title>11&#45;&gt;11h0</title>
<path fill="none" stroke="#006400" d="M215.0741,-228.9905C209.264,-214.962 201.9163,-197.2207 199.5621,-191.5365"/>
</g>
<!-- 11h1 -->
<g id="node60" class="node">
<title>11h1</title>
<ellipse fill="#ff0000" stroke="#ff0000" cx="220.8" cy="-189.6964" rx="1.8" ry="1.8"/>
</g>
<!-- 11&#45;&gt;11h1 -->
<g id="edge72" class="edge">
<title>11&#45;&gt;11h1</title>
<path fill="none" stroke="#0000ff" d="M222.1005,-227.3772C221.6319,-213.7998 221.0662,-197.4105 220.8706,-191.7418"/>
</g>
<!-- 11h2 -->
<g id="node61" class="node">
<title>11h2</title>
<ellipse fill="#ff0000" stroke="#ff0000" cx="242.8" cy="-189.6964" rx="1.8" ry="1.8"/>
</g>
<!-- 11&#45;&gt;11h2 -->
<g id="edge73" class="edge">
<title>11&#45;&gt;11h2</title>
<path fill="none" stroke="#ff0000" d="M229.4597,-228.3487C234.2778,-214.3889 240.2646,-197.0426 242.1802,-191.4922"/>
</g>
<!-- 11h3 -->
<g id="node62" class="node">
<title>11h3</title>
<ellipse fill="#000000" stroke="#000000" cx="264.8" cy="-189.6964" rx="1.8" ry="1.8"/>
</g>
<!-- 11&#45;&gt;11h3 -->
<g id="edge74" class="edge">
<title>11&#45;&gt;11h3</title>
<path fill="none" stroke="#ffd700" d="M234.7232,-231.194C245.2,-216.7389 259.4093,-197.1341 263.5939,-191.3605"/>
</g>
<!-- 15 -->
<g id="node78" class="node">
<title>15</title>
<ellipse fill="#d3d3d3" stroke="#000000" cx="199.8" cy="-131.7482" rx="20.2975" ry="20.2975"/>
<text text-anchor="middle" x="199.8" y="-128.0482" font-family="Times,serif" font-size="14.00" fill="#000000">q0</text>
</g>
<!-- 11h0&#45;&gt;15 -->
<g id="edge71" class="edge">
<title>11h0&#45;&gt;15</title>
<path fill="none" stroke="#000000" d="M198.8333,-187.7684C198.9057,-183.5716 199.0861,-173.1187 199.2717,-162.3633"/>
<polygon fill="#000000" stroke="#000000" points="202.7747,-162.212 199.4479,-152.1531 195.7758,-162.0912 202.7747,-162.212"/>
</g>
<!-- 11h3&#45;&gt;15 -->
<g id="edge75" class="edge">
<title>11h3&#45;&gt;15</title>
<path fill="none" stroke="#000000" d="M263.1932,-188.264C257.6329,-183.3069 238.6875,-166.4168 222.944,-152.3814"/>
<polygon fill="#000000" stroke="#000000" points="224.8845,-149.4223 215.091,-145.3803 220.2262,-154.6474 224.8845,-149.4223"/>
</g>
<!-- 12h0 -->
<g id="node64" class="node">
<title>12h0</title>
<ellipse fill="#000000" stroke="#000000" cx="288.8" cy="-189.6964" rx="1.8" ry="1.8"/>
</g>
<!-- 12&#45;&gt;12h0 -->
<g id="edge76" class="edge">
<title>12&#45;&gt;12h0</title>
<path fill="none" stroke="#006400" d="M305.0741,-228.9905C299.264,-214.962 291.9163,-197.2207 289.5621,-191.5365"/>
</g>
<!-- 12h1 -->
<g id="node65" class="node">
<title>12h1</title>
<ellipse fill="#ff0000" stroke="#ff0000" cx="310.8" cy="-189.6964" rx="1.8" ry="1.8"/>
</g>
<!-- 12&#45;&gt;12h1 -->
<g id="edge78" class="edge">
<title>12&#45;&gt;12h1</title>
<path fill="none" stroke="#0000ff" d="M312.1005,-227.3772C311.6319,-213.7998 311.0662,-197.4105 310.8706,-191.7418"/>
</g>
<!-- 12h2 -->
<g id="node66" class="node">
<title>12h2</title>
<ellipse fill="#ff0000" stroke="#ff0000" cx="332.8" cy="-189.6964" rx="1.8" ry="1.8"/>
</g>
<!-- 12&#45;&gt;12h2 -->
<g id="edge79" class="edge">
<title>12&#45;&gt;12h2</title>
<path fill="none" stroke="#ff0000" d="M319.4597,-228.3487C324.2778,-214.3889 330.2646,-197.0426 332.1802,-191.4922"/>
</g>
<!-- 12h3 -->
<g id="node67" class="node">
<title>12h3</title>
<ellipse fill="#000000" stroke="#000000" cx="354.8" cy="-189.6964" rx="1.8" ry="1.8"/>
</g>
<!-- 12&#45;&gt;12h3 -->
<g id="edge80" class="edge">
<title>12&#45;&gt;12h3</title>
<path fill="none" stroke="#ffd700" d="M324.7232,-231.194C335.2,-216.7389 349.4093,-197.1341 353.5939,-191.3605"/>
</g>
<!-- 16 -->
<g id="node83" class="node">
<title>16</title>
<ellipse fill="#d3d3d3" stroke="#000000" cx="288.8" cy="-131.7482" rx="20.2975" ry="20.2975"/>
<text text-anchor="middle" x="288.8" y="-128.0482" font-family="Times,serif" font-size="14.00" fill="#000000">q0</text>
</g>
<!-- 12h0&#45;&gt;16 -->
<g id="edge77" class="edge">
<title>12h0&#45;&gt;16</title>
<path fill="none" stroke="#000000" d="M288.8,-187.7684C288.8,-183.5716 288.8,-173.1187 288.8,-162.3633"/>
<polygon fill="#000000" stroke="#000000" points="292.3001,-162.1531 288.8,-152.1531 285.3001,-162.1531 292.3001,-162.1531"/>
</g>
<!-- 12h3&#45;&gt;16 -->
<g id="edge81" class="edge">
<title>12h3&#45;&gt;16</title>
<path fill="none" stroke="#000000" d="M353.1685,-188.264C347.4367,-183.2314 327.6972,-165.9 311.5727,-151.7427"/>
<polygon fill="#000000" stroke="#000000" points="313.8484,-149.0832 304.0246,-145.1155 309.23,-154.3434 313.8484,-149.0832"/>
</g>
<!-- 13h0 -->
<g id="node69" class="node">
<title>13h0</title>
<ellipse fill="#000000" stroke="#000000" cx="1.8" cy="-73.8" rx="1.8" ry="1.8"/>
</g>
<!-- 13&#45;&gt;13h0 -->
<g id="edge82" class="edge">
<title>13&#45;&gt;13h0</title>
<path fill="none" stroke="#006400" d="M18.7522,-113.0941C12.7,-99.0655 5.0461,-81.3242 2.5939,-75.6401"/>
</g>
<!-- 13h1 -->
<g id="node70" class="node">
<title>13h1</title>
<ellipse fill="#ff0000" stroke="#ff0000" cx="23.8" cy="-73.8" rx="1.8" ry="1.8"/>
</g>
<!-- 13&#45;&gt;13h1 -->
<g id="edge84" class="edge">
<title>13&#45;&gt;13h1</title>
<path fill="none" stroke="#0000ff" d="M25.7507,-111.4807C25.0478,-97.9034 24.1994,-81.5141 23.9059,-75.8454"/>
</g>
<!-- 13h2 -->
<g id="node71" class="node">
<title>13h2</title>
<ellipse fill="#ff0000" stroke="#ff0000" cx="45.8" cy="-73.8" rx="1.8" ry="1.8"/>
</g>
<!-- 13&#45;&gt;13h2 -->
<g id="edge85" class="edge">
<title>13&#45;&gt;13h2</title>
<path fill="none" stroke="#ff0000" d="M33.1267,-112.4523C37.7039,-98.4925 43.3913,-81.1462 45.2112,-75.5958"/>
</g>
<!-- 13h3 -->
<g id="node72" class="node">
<title>13h3</title>
<ellipse fill="#ff0000" stroke="#ff0000" cx="67.8" cy="-73.8" rx="1.8" ry="1.8"/>
</g>
<!-- 13&#45;&gt;13h3 -->
<g id="edge86" class="edge">
<title>13&#45;&gt;13h3</title>
<path fill="none" stroke="#ffd700" d="M38.4393,-115.2976C48.6667,-100.8424 62.5377,-81.2376 66.6226,-75.464"/>
</g>
<!-- 13h0&#45;&gt;T -->
<g id="edge83" class="edge">
<title>13h0&#45;&gt;T</title>
<path fill="none" stroke="#000000" d="M3.653,-73.1733C15.8648,-69.0436 85.6624,-45.4392 129.9174,-30.473"/>
<polygon fill="#000000" stroke="#000000" points="131.1325,-33.7569 139.4842,-27.2377 128.89,-27.1258 131.1325,-33.7569"/>
</g>
<!-- 14h0 -->
<g id="node74" class="node">
<title>14h0</title>
<ellipse fill="#ff0000" stroke="#ff0000" cx="89.8" cy="-73.8" rx="1.8" ry="1.8"/>
</g>
<!-- 14&#45;&gt;14h0 -->
<g id="edge87" class="edge">
<title>14&#45;&gt;14h0</title>
<path fill="none" stroke="#006400" d="M110.4723,-113.7307C103.1793,-99.6436 93.7885,-81.5041 90.7758,-75.6849"/>
</g>
<!-- 14h1 -->
<g id="node75" class="node">
<title>14h1</title>
<ellipse fill="#ff0000" stroke="#ff0000" cx="111.8" cy="-73.8" rx="1.8" ry="1.8"/>
</g>
<!-- 14&#45;&gt;14h1 -->
<g id="edge88" class="edge">
<title>14&#45;&gt;14h1</title>
<path fill="none" stroke="#0000ff" d="M117.002,-111.4807C115.1276,-97.9034 112.865,-81.5141 112.0824,-75.8454"/>
</g>
<!-- 14h2 -->
<g id="node76" class="node">
<title>14h2</title>
<ellipse fill="#000000" stroke="#000000" cx="133.8" cy="-73.8" rx="1.8" ry="1.8"/>
</g>
<!-- 14&#45;&gt;14h2 -->
<g id="edge89" class="edge">
<title>14&#45;&gt;14h2</title>
<path fill="none" stroke="#ff0000" d="M124.5398,-112.1296C127.9032,-98.2078 132.0465,-81.0579 133.3714,-75.5739"/>
</g>
<!-- 14h3 -->
<g id="node77" class="node">
<title>14h3</title>
<ellipse fill="#ff0000" stroke="#ff0000" cx="155.8" cy="-73.8" rx="1.8" ry="1.8"/>
</g>
<!-- 14&#45;&gt;14h3 -->
<g id="edge91" class="edge">
<title>14&#45;&gt;14h3</title>
<path fill="none" stroke="#ffd700" d="M130.6012,-114.3618C139.5483,-99.9599 151.3366,-80.9847 154.8019,-75.4065"/>
</g>
<!-- 14h2&#45;&gt;T -->
<g id="edge90" class="edge">
<title>14h2&#45;&gt;T</title>
<path fill="none" stroke="#000000" d="M134.898,-71.9434C137.4747,-67.5863 144.1929,-56.2266 150.8032,-45.0491"/>
<polygon fill="#000000" stroke="#000000" points="153.9224,-46.6504 156.0003,-36.2614 147.8972,-43.0871 153.9224,-46.6504"/>
</g>
<!-- 15h0 -->
<g id="node79" class="node">
<title>15h0</title>
<ellipse fill="#ff0000" stroke="#ff0000" cx="177.8" cy="-73.8" rx="1.8" ry="1.8"/>
</g>
<!-- 15&#45;&gt;15h0 -->
<g id="edge92" class="edge">
<title>15&#45;&gt;15h0</title>
<path fill="none" stroke="#006400" d="M192.5964,-112.7738C187.283,-98.7784 180.6227,-81.235 178.4902,-75.6179"/>
</g>
<!-- 15h1 -->
<g id="node80" class="node">
<title>15h1</title>
<ellipse fill="#000000" stroke="#000000" cx="199.8" cy="-73.8" rx="1.8" ry="1.8"/>
</g>
<!-- 15&#45;&gt;15h1 -->
<g id="edge93" class="edge">
<title>15&#45;&gt;15h1</title>
<path fill="none" stroke="#0000ff" d="M199.8,-111.4807C199.8,-97.9034 199.8,-81.5141 199.8,-75.8454"/>
</g>
<!-- 15h2 -->
<g id="node81" class="node">
<title>15h2</title>
<ellipse fill="#ff0000" stroke="#ff0000" cx="221.8" cy="-73.8" rx="1.8" ry="1.8"/>
</g>
<!-- 15&#45;&gt;15h2 -->
<g id="edge95" class="edge">
<title>15&#45;&gt;15h2</title>
<path fill="none" stroke="#ff0000" d="M207.0036,-112.7738C212.317,-98.7784 218.9773,-81.235 221.1098,-75.6179"/>
</g>
<!-- 15h3 -->
<g id="node82" class="node">
<title>15h3</title>
<ellipse fill="#ff0000" stroke="#ff0000" cx="243.8" cy="-73.8" rx="1.8" ry="1.8"/>
</g>
<!-- 15&#45;&gt;15h3 -->
<g id="edge96" class="edge">
<title>15&#45;&gt;15h3</title>
<path fill="none" stroke="#ffd700" d="M212.0565,-115.6064C223.0414,-101.1391 238.0879,-81.3228 242.5218,-75.4834"/>
</g>
<!-- 15h1&#45;&gt;T -->
<g id="edge94" class="edge">
<title>15h1&#45;&gt;T</title>
<path fill="none" stroke="#000000" d="M198.702,-71.9434C196.1253,-67.5863 189.4071,-56.2266 182.7968,-45.0491"/>
<polygon fill="#000000" stroke="#000000" points="185.7028,-43.0871 177.5997,-36.2614 179.6776,-46.6504 185.7028,-43.0871"/>
</g>
<!-- 16h0 -->
<g id="node84" class="node">
<title>16h0</title>
<ellipse fill="#ff0000" stroke="#ff0000" cx="265.8" cy="-73.8" rx="1.8" ry="1.8"/>
</g>
<!-- 16&#45;&gt;16h0 -->
<g id="edge97" class="edge">
<title>16&#45;&gt;16h0</title>
<path fill="none" stroke="#006400" d="M281.2689,-112.7738C275.7141,-98.7784 268.751,-81.235 266.5215,-75.6179"/>
</g>
<!-- 16h1 -->
<g id="node85" class="node">
<title>16h1</title>
<ellipse fill="#ff0000" stroke="#ff0000" cx="287.8" cy="-73.8" rx="1.8" ry="1.8"/>
</g>
<!-- 16&#45;&gt;16h1 -->
<g id="edge98" class="edge">
<title>16&#45;&gt;16h1</title>
<path fill="none" stroke="#0000ff" d="M288.4502,-111.4807C288.2159,-97.9034 287.9331,-81.5141 287.8353,-75.8454"/>
</g>
<!-- 16h2 -->
<g id="node86" class="node">
<title>16h2</title>
<ellipse fill="#ff0000" stroke="#ff0000" cx="309.8" cy="-73.8" rx="1.8" ry="1.8"/>
</g>
<!-- 16&#45;&gt;16h2 -->
<g id="edge99" class="edge">
<title>16&#45;&gt;16h2</title>
<path fill="none" stroke="#ff0000" d="M295.6762,-112.7738C300.748,-98.7784 307.1056,-81.235 309.1412,-75.6179"/>
</g>
<!-- 16h3 -->
<g id="node87" class="node">
<title>16h3</title>
<ellipse fill="#000000" stroke="#000000" cx="331.8" cy="-73.8" rx="1.8" ry="1.8"/>
</g>
<!-- 16&#45;&gt;16h3 -->
<g id="edge100" class="edge">
<title>16&#45;&gt;16h3</title>
<path fill="none" stroke="#ffd700" d="M301.0071,-115.2976C311.7334,-100.8424 326.281,-81.2376 330.5652,-75.464"/>
</g>
<!-- 16h3&#45;&gt;T -->
<g id="edge101" class="edge">
<title>16h3&#45;&gt;T</title>
<path fill="none" stroke="#000000" d="M329.947,-73.1733C317.7352,-69.0436 247.9376,-45.4392 203.6826,-30.473"/>
<polygon fill="#000000" stroke="#000000" points="204.71,-27.1258 194.1158,-27.2377 202.4675,-33.7569 204.71,-27.1258"/>
</g>
</g>
</svg>
