<?xml version="1.0" encoding="UTF-8" standalone="no"?>
<!DOCTYPE svg PUBLIC "-//W3C//DTD SVG 1.1//EN"
 "http://www.w3.org/Graphics/SVG/1.1/DTD/svg11.dtd">
<!-- Generated by graphviz version 2.40.1 (20161225.0304)
 -->
<!-- Title: DD Pages: 1 -->
<svg width="367pt" height="663pt"
 viewBox="0.00 0.00 366.60 663.08" xmlns="http://www.w3.org/2000/svg" xmlns:xlink="http://www.w3.org/1999/xlink">
<g id="graph0" class="graph" transform="scale(1 1) rotate(0) translate(4 659.0821)">
<title>DD</title>
<polygon fill="#ffffff" stroke="transparent" points="-4,4 -4,-659.0821 362.6,-659.0821 362.6,4 -4,4"/>
<!-- T -->
<g id="node1" class="node">
<title>T</title>
<polygon fill="none" stroke="#000000" points="193.8,-36 139.8,-36 139.8,0 193.8,0 193.8,-36"/>
<text text-anchor="middle" x="166.8" y="-14.3" font-family="Times,serif" font-size="14.00" fill="#000000">1</text>
</g>
<!-- R -->
<g id="node2" class="node">
<title>R</title>
<ellipse fill="#000000" stroke="#000000" cx="191.8" cy="-653.2821" rx="1.8" ry="1.8"/>
</g>
<!-- 0 -->
<g id="node3" class="node">
<title>0</title>
<ellipse fill="#d3d3d3" stroke="#000000" cx="191.8" cy="-595.3339" rx="20.2975" ry="20.2975"/>
<text text-anchor="middle" x="191.8" y="-591.6339" font-family="Times,serif" font-size="14.00" fill="#000000">q4</text>
</g>
<!-- R&#45;&gt;0 -->
<g id="edge1" class="edge">
<title>R&#45;&gt;0</title>
<path fill="none" stroke="#000000" d="M191.8,-651.3541C191.8,-647.1573 191.8,-636.7044 191.8,-625.949"/>
<polygon fill="#000000" stroke="#000000" points="195.3001,-625.7388 191.8,-615.7388 188.3001,-625.7388 195.3001,-625.7388"/>
</g>
<!-- 0h0 -->
<g id="node4" class="node">
<title>0h0</title>
<ellipse fill="#000000" stroke="#000000" cx="158.8" cy="-537.3857" rx="1.8" ry="1.8"/>
</g>
<!-- 0&#45;&gt;0h0 -->
<g id="edge2" class="edge">
<title>0&#45;&gt;0h0</title>
<path fill="none" stroke="#006400" d="M181.7196,-577.6327C173.5313,-563.2539 162.844,-544.4869 159.7041,-538.9733"/>
</g>
<!-- 0h1 -->
<g id="node5" class="node">
<title>0h1</title>
<ellipse fill="#ff0000" stroke="#ff0000" cx="180.8" cy="-537.3857" rx="1.8" ry="1.8"/>
</g>
<!-- 0&#45;&gt;0h1 -->
<g id="edge4" class="edge">
<title>0&#45;&gt;0h1</title>
<path fill="none" stroke="#0000ff" d="M188.0144,-575.3914C185.4291,-561.772 182.2823,-545.1944 181.1931,-539.4566"/>
</g>
<!-- 0h2 -->
<g id="node6" class="node">
<title>0h2</title>
<ellipse fill="#ff0000" stroke="#ff0000" cx="202.8" cy="-537.3857" rx="1.8" ry="1.8"/>
</g>
<!-- 0&#45;&gt;0h2 -->
<g id="edge5" class="edge">
<title>0&#45;&gt;0h2</title>
<path fill="none" stroke="#ff0000" d="M195.5856,-575.3914C198.1709,-561.772 201.3177,-545.1944 202.4069,-539.4566"/>
</g>
<!-- 0h3 -->
<g id="node7" class="node">
<title>0h3</title>
<ellipse fill="#000000" stroke="#000000" cx="224.8" cy="-537.3857" rx="1.8" ry="1.8"/>
</g>
<!-- 0&#45;&gt;0h3 -->
<g id="edge6" class="edge">
<title>0&#45;&gt;0h3</title>
<path fill="none" stroke="#ffd700" d="M201.8804,-577.6327C210.0687,-563.2539 220.756,-544.4869 223.8959,-538.9733"/>
</g>
<!-- 1 -->
<g id="node8" class="node">
<title>1</title>
<ellipse fill="#d3d3d3" stroke="#000000" cx="191.8" cy="-479.4375" rx="20.2975" ry="20.2975"/>
<text text-anchor="middle" x="191.8" y="-475.7375" font-family="Times,serif" font-size="14.00" fill="#000000">q3</text>
</g>
<!-- 0h0&#45;&gt;1 -->
<g id="edge3" class="edge">
<title>0h0&#45;&gt;1</title>
<path fill="none" stroke="#000000" d="M159.898,-535.4577C162.5894,-530.7315 169.7988,-518.0717 176.6844,-505.9806"/>
<polygon fill="#000000" stroke="#000000" points="179.8993,-507.4078 181.8066,-496.986 173.8165,-503.9438 179.8993,-507.4078"/>
</g>
<!-- 0h3&#45;&gt;1 -->
<g id="edge7" class="edge">
<title>0h3&#45;&gt;1</title>
<path fill="none" stroke="#000000" d="M223.702,-535.4577C221.0106,-530.7315 213.8012,-518.0717 206.9156,-505.9806"/>
<polygon fill="#000000" stroke="#000000" points="209.7835,-503.9438 201.7934,-496.986 203.7007,-507.4078 209.7835,-503.9438"/>
</g>
<!-- 1h0 -->
<g id="node9" class="node">
<title>1h0</title>
<ellipse fill="#000000" stroke="#000000" cx="114.8" cy="-421.4893" rx="1.8" ry="1.8"/>
</g>
<!-- 1&#45;&gt;1h0 -->
<g id="edge8" class="edge">
<title>1&#45;&gt;1h0</title>
<path fill="none" stroke="#006400" d="M175.4703,-467.1482C155.693,-452.2643 124.0753,-428.4696 116.4799,-422.7535"/>
</g>
<!-- 1h1 -->
<g id="node10" class="node">
<title>1h1</title>
<ellipse fill="#000000" stroke="#000000" cx="169.8" cy="-421.4893" rx="1.8" ry="1.8"/>
</g>
<!-- 1&#45;&gt;1h1 -->
<g id="edge10" class="edge">
<title>1&#45;&gt;1h1</title>
<path fill="none" stroke="#0000ff" d="M184.5964,-460.4631C179.283,-446.4676 172.6227,-428.9243 170.4902,-423.3072"/>
</g>
<!-- 1h2 -->
<g id="node11" class="node">
<title>1h2</title>
<ellipse fill="#000000" stroke="#000000" cx="213.8" cy="-421.4893" rx="1.8" ry="1.8"/>
</g>
<!-- 1&#45;&gt;1h2 -->
<g id="edge12" class="edge">
<title>1&#45;&gt;1h2</title>
<path fill="none" stroke="#ff0000" d="M199.0036,-460.4631C204.317,-446.4676 210.9773,-428.9243 213.1098,-423.3072"/>
</g>
<!-- 1h3 -->
<g id="node12" class="node">
<title>1h3</title>
<ellipse fill="#000000" stroke="#000000" cx="279.8" cy="-421.4893" rx="1.8" ry="1.8"/>
</g>
<!-- 1&#45;&gt;1h3 -->
<g id="edge14" class="edge">
<title>1&#45;&gt;1h3</title>
<path fill="none" stroke="#ffd700" d="M208.7673,-468.2645C231.5421,-453.2672 270.0934,-427.8811 278.254,-422.5073"/>
</g>
<!-- 2 -->
<g id="node13" class="node">
<title>2</title>
<ellipse fill="#d3d3d3" stroke="#000000" cx="70.8" cy="-363.5411" rx="20.2975" ry="20.2975"/>
<text text-anchor="middle" x="70.8" y="-359.8411" font-family="Times,serif" font-size="14.00" fill="#000000">q2</text>
</g>
<!-- 1h0&#45;&gt;2 -->
<g id="edge9" class="edge">
<title>1h0&#45;&gt;2</title>
<path fill="none" stroke="#000000" d="M113.336,-419.5612C109.5196,-414.535 98.8899,-400.5356 89.2121,-387.7899"/>
<polygon fill="#000000" stroke="#000000" points="91.9059,-385.5499 83.0711,-379.7021 86.3309,-389.783 91.9059,-385.5499"/>
</g>
<!-- 3 -->
<g id="node18" class="node">
<title>3</title>
<ellipse fill="#d3d3d3" stroke="#000000" cx="158.8" cy="-363.5411" rx="20.2975" ry="20.2975"/>
<text text-anchor="middle" x="158.8" y="-359.8411" font-family="Times,serif" font-size="14.00" fill="#000000">q2</text>
</g>
<!-- 1h1&#45;&gt;3 -->
<g id="edge11" class="edge">
<title>1h1&#45;&gt;3</title>
<path fill="none" stroke="#000000" d="M169.434,-419.5612C168.6177,-415.261 166.5546,-404.3926 164.4605,-393.3607"/>
<polygon fill="#000000" stroke="#000000" points="167.8671,-392.5388 162.5635,-383.367 160.9899,-393.8443 167.8671,-392.5388"/>
</g>
<!-- 4 -->
<g id="node23" class="node">
<title>4</title>
<ellipse fill="#d3d3d3" stroke="#000000" cx="224.8" cy="-363.5411" rx="20.2975" ry="20.2975"/>
<text text-anchor="middle" x="224.8" y="-359.8411" font-family="Times,serif" font-size="14.00" fill="#000000">q2</text>
</g>
<!-- 1h2&#45;&gt;4 -->
<g id="edge13" class="edge">
<title>1h2&#45;&gt;4</title>
<path fill="none" stroke="#000000" d="M214.166,-419.5612C214.9823,-415.261 217.0454,-404.3926 219.1395,-393.3607"/>
<polygon fill="#000000" stroke="#000000" points="222.6101,-393.8443 221.0365,-383.367 215.7329,-392.5388 222.6101,-393.8443"/>
</g>
<!-- 5 -->
<g id="node28" class="node">
<title>5</title>
<ellipse fill="#d3d3d3" stroke="#000000" cx="312.8" cy="-363.5411" rx="20.2975" ry="20.2975"/>
<text text-anchor="middle" x="312.8" y="-359.8411" font-family="Times,serif" font-size="14.00" fill="#000000">q2</text>
</g>
<!-- 1h3&#45;&gt;5 -->
<g id="edge15" class="edge">
<title>1h3&#45;&gt;5</title>
<path fill="none" stroke="#000000" d="M280.898,-419.5612C283.5894,-414.8351 290.7988,-402.1753 297.6844,-390.0841"/>
<polygon fill="#000000" stroke="#000000" points="300.8993,-391.5114 302.8066,-381.0896 294.8165,-388.0473 300.8993,-391.5114"/>
</g>
<!-- 2h0 -->
<g id="node14" class="node">
<title>2h0</title>
<ellipse fill="#000000" stroke="#000000" cx="26.8" cy="-305.5928" rx="1.8" ry="1.8"/>
</g>
<!-- 2&#45;&gt;2h0 -->
<g id="edge16" class="edge">
<title>2&#45;&gt;2h0</title>
<path fill="none" stroke="#006400" d="M58.5435,-347.3993C47.5586,-332.932 32.5121,-313.1157 28.0782,-307.2763"/>
</g>
<!-- 2h1 -->
<g id="node15" class="node">
<title>2h1</title>
<ellipse fill="#ff0000" stroke="#ff0000" cx="48.8" cy="-305.5928" rx="1.8" ry="1.8"/>
</g>
<!-- 2&#45;&gt;2h1 -->
<g id="edge18" class="edge">
<title>2&#45;&gt;2h1</title>
<path fill="none" stroke="#0000ff" d="M63.5964,-344.5666C58.283,-330.5712 51.6227,-313.0278 49.4902,-307.4107"/>
</g>
<!-- 2h2 -->
<g id="node16" class="node">
<title>2h2</title>
<ellipse fill="#ff0000" stroke="#ff0000" cx="70.8" cy="-305.5928" rx="1.8" ry="1.8"/>
</g>
<!-- 2&#45;&gt;2h2 -->
<g id="edge19" class="edge">
<title>2&#45;&gt;2h2</title>
<path fill="none" stroke="#ff0000" d="M70.8,-343.2736C70.8,-329.6962 70.8,-313.3069 70.8,-307.6382"/>
</g>
<!-- 2h3 -->
<g id="node17" class="node">
<title>2h3</title>
<ellipse fill="#000000" stroke="#000000" cx="92.8" cy="-305.5928" rx="1.8" ry="1.8"/>
</g>
<!-- 2&#45;&gt;2h3 -->
<g id="edge20" class="edge">
<title>2&#45;&gt;2h3</title>
<path fill="none" stroke="#ffd700" d="M78.0036,-344.5666C83.317,-330.5712 89.9773,-313.0278 92.1098,-307.4107"/>
</g>
<!-- 6 -->
<g id="node33" class="node">
<title>6</title>
<ellipse fill="#d3d3d3" stroke="#000000" cx="37.8" cy="-247.6446" rx="20.2975" ry="20.2975"/>
<text text-anchor="middle" x="37.8" y="-243.9446" font-family="Times,serif" font-size="14.00" fill="#000000">q1</text>
</g>
<!-- 2h0&#45;&gt;6 -->
<g id="edge17" class="edge">
<title>2h0&#45;&gt;6</title>
<path fill="none" stroke="#000000" d="M27.166,-303.6648C27.9823,-299.3646 30.0454,-288.4962 32.1395,-277.4643"/>
<polygon fill="#000000" stroke="#000000" points="35.6101,-277.9479 34.0365,-267.4706 28.7329,-276.6424 35.6101,-277.9479"/>
</g>
<!-- 2h3&#45;&gt;6 -->
<g id="edge21" class="edge">
<title>2h3&#45;&gt;6</title>
<path fill="none" stroke="#000000" d="M91.4404,-304.1604C86.8903,-299.3664 71.7476,-283.4119 58.7068,-269.6721"/>
<polygon fill="#000000" stroke="#000000" points="61.1816,-267.1954 51.7588,-262.3517 56.1044,-272.0144 61.1816,-267.1954"/>
</g>
<!-- 3h0 -->
<g id="node19" class="node">
<title>3h0</title>
<ellipse fill="#000000" stroke="#000000" cx="114.8" cy="-305.5928" rx="1.8" ry="1.8"/>
</g>
<!-- 3&#45;&gt;3h0 -->
<g id="edge22" class="edge">
<title>3&#45;&gt;3h0</title>
<path fill="none" stroke="#006400" d="M146.5435,-347.3993C135.5586,-332.932 120.5121,-313.1157 116.0782,-307.2763"/>
</g>
<!-- 3h1 -->
<g id="node20" class="node">
<title>3h1</title>
<ellipse fill="#ff0000" stroke="#ff0000" cx="136.8" cy="-305.5928" rx="1.8" ry="1.8"/>
</g>
<!-- 3&#45;&gt;3h1 -->
<g id="edge24" class="edge">
<title>3&#45;&gt;3h1</title>
<path fill="none" stroke="#0000ff" d="M151.5964,-344.5666C146.283,-330.5712 139.6227,-313.0278 137.4902,-307.4107"/>
</g>
<!-- 3h2 -->
<g id="node21" class="node">
<title>3h2</title>
<ellipse fill="#ff0000" stroke="#ff0000" cx="158.8" cy="-305.5928" rx="1.8" ry="1.8"/>
</g>
<!-- 3&#45;&gt;3h2 -->
<g id="edge25" class="edge">
<title>3&#45;&gt;3h2</title>
<path fill="none" stroke="#ff0000" d="M158.8,-343.2736C158.8,-329.6962 158.8,-313.3069 158.8,-307.6382"/>
</g>
<!-- 3h3 -->
<g id="node22" class="node">
<title>3h3</title>
<ellipse fill="#000000" stroke="#000000" cx="180.8" cy="-305.5928" rx="1.8" ry="1.8"/>
</g>
<!-- 3&#45;&gt;3h3 -->
<g id="edge26" class="edge">
<title>3&#45;&gt;3h3</title>
<path fill="none" stroke="#ffd700" d="M166.0036,-344.5666C171.317,-330.5712 177.9773,-313.0278 180.1098,-307.4107"/>
</g>
<!-- 7 -->
<g id="node38" class="node">
<title>7</title>
<ellipse fill="#d3d3d3" stroke="#000000" cx="125.8" cy="-247.6446" rx="20.2975" ry="20.2975"/>
<text text-anchor="middle" x="125.8" y="-243.9446" font-family="Times,serif" font-size="14.00" fill="#000000">q1</text>
</g>
<!-- 3h0&#45;&gt;7 -->
<g id="edge23" class="edge">
<title>3h0&#45;&gt;7</title>
<path fill="none" stroke="#000000" d="M115.166,-303.6648C115.9823,-299.3646 118.0454,-288.4962 120.1395,-277.4643"/>
<polygon fill="#000000" stroke="#000000" points="123.6101,-277.9479 122.0365,-267.4706 116.7329,-276.6424 123.6101,-277.9479"/>
</g>
<!-- 3h3&#45;&gt;7 -->
<g id="edge27" class="edge">
<title>3h3&#45;&gt;7</title>
<path fill="none" stroke="#000000" d="M179.4404,-304.1604C174.8903,-299.3664 159.7476,-283.4119 146.7068,-269.6721"/>
<polygon fill="#000000" stroke="#000000" points="149.1816,-267.1954 139.7588,-262.3517 144.1044,-272.0144 149.1816,-267.1954"/>
</g>
<!-- 4h0 -->
<g id="node24" class="node">
<title>4h0</title>
<ellipse fill="#000000" stroke="#000000" cx="202.8" cy="-305.5928" rx="1.8" ry="1.8"/>
</g>
<!-- 4&#45;&gt;4h0 -->
<g id="edge28" class="edge">
<title>4&#45;&gt;4h0</title>
<path fill="none" stroke="#006400" d="M217.5964,-344.5666C212.283,-330.5712 205.6227,-313.0278 203.4902,-307.4107"/>
</g>
<!-- 4h1 -->
<g id="node25" class="node">
<title>4h1</title>
<ellipse fill="#ff0000" stroke="#ff0000" cx="224.8" cy="-305.5928" rx="1.8" ry="1.8"/>
</g>
<!-- 4&#45;&gt;4h1 -->
<g id="edge30" class="edge">
<title>4&#45;&gt;4h1</title>
<path fill="none" stroke="#0000ff" d="M224.8,-343.2736C224.8,-329.6962 224.8,-313.3069 224.8,-307.6382"/>
</g>
<!-- 4h2 -->
<g id="node26" class="node">
<title>4h2</title>
<ellipse fill="#ff0000" stroke="#ff0000" cx="246.8" cy="-305.5928" rx="1.8" ry="1.8"/>
</g>
<!-- 4&#45;&gt;4h2 -->
<g id="edge31" class="edge">
<title>4&#45;&gt;4h2</title>
<path fill="none" stroke="#ff0000" d="M232.0036,-344.5666C237.317,-330.5712 243.9773,-313.0278 246.1098,-307.4107"/>
</g>
<!-- 4h3 -->
<g id="node27" class="node">
<title>4h3</title>
<ellipse fill="#000000" stroke="#000000" cx="268.8" cy="-305.5928" rx="1.8" ry="1.8"/>
</g>
<!-- 4&#45;&gt;4h3 -->
<g id="edge32" class="edge">
<title>4&#45;&gt;4h3</title>
<path fill="none" stroke="#ffd700" d="M237.0565,-347.3993C248.0414,-332.932 263.0879,-313.1157 267.5218,-307.2763"/>
</g>
<!-- 8 -->
<g id="node43" class="node">
<title>8</title>
<ellipse fill="#d3d3d3" stroke="#000000" cx="213.8" cy="-247.6446" rx="20.2975" ry="20.2975"/>
<text text-anchor="middle" x="213.8" y="-243.9446" font-family="Times,serif" font-size="14.00" fill="#000000">q1</text>
</g>
<!-- 4h0&#45;&gt;8 -->
<g id="edge29" class="edge">
<title>4h0&#45;&gt;8</title>
<path fill="none" stroke="#000000" d="M203.166,-303.6648C203.9823,-299.3646 206.0454,-288.4962 208.1395,-277.4643"/>
<polygon fill="#000000" stroke="#000000" points="211.6101,-277.9479 210.0365,-267.4706 204.7329,-276.6424 211.6101,-277.9479"/>
</g>
<!-- 4h3&#45;&gt;8 -->
<g id="edge33" class="edge">
<title>4h3&#45;&gt;8</title>
<path fill="none" stroke="#000000" d="M267.4404,-304.1604C262.8903,-299.3664 247.7476,-283.4119 234.7068,-269.6721"/>
<polygon fill="#000000" stroke="#000000" points="237.1816,-267.1954 227.7588,-262.3517 232.1044,-272.0144 237.1816,-267.1954"/>
</g>
<!-- 5h0 -->
<g id="node29" class="node">
<title>5h0</title>
<ellipse fill="#000000" stroke="#000000" cx="290.8" cy="-305.5928" rx="1.8" ry="1.8"/>
</g>
<!-- 5&#45;&gt;5h0 -->
<g id="edge34" class="edge">
<title>5&#45;&gt;5h0</title>
<path fill="none" stroke="#006400" d="M305.5964,-344.5666C300.283,-330.5712 293.6227,-313.0278 291.4902,-307.4107"/>
</g>
<!-- 5h1 -->
<g id="node30" class="node">
<title>5h1</title>
<ellipse fill="#ff0000" stroke="#ff0000" cx="312.8" cy="-305.5928" rx="1.8" ry="1.8"/>
</g>
<!-- 5&#45;&gt;5h1 -->
<g id="edge36" class="edge">
<title>5&#45;&gt;5h1</title>
<path fill="none" stroke="#0000ff" d="M312.8,-343.2736C312.8,-329.6962 312.8,-313.3069 312.8,-307.6382"/>
</g>
<!-- 5h2 -->
<g id="node31" class="node">
<title>5h2</title>
<ellipse fill="#ff0000" stroke="#ff0000" cx="334.8" cy="-305.5928" rx="1.8" ry="1.8"/>
</g>
<!-- 5&#45;&gt;5h2 -->
<g id="edge37" class="edge">
<title>5&#45;&gt;5h2</title>
<path fill="none" stroke="#ff0000" d="M320.0036,-344.5666C325.317,-330.5712 331.9773,-313.0278 334.1098,-307.4107"/>
</g>
<!-- 5h3 -->
<g id="node32" class="node">
<title>5h3</title>
<ellipse fill="#000000" stroke="#000000" cx="356.8" cy="-305.5928" rx="1.8" ry="1.8"/>
</g>
<!-- 5&#45;&gt;5h3 -->
<g id="edge38" class="edge">
<title>5&#45;&gt;5h3</title>
<path fill="none" stroke="#ffd700" d="M325.0565,-347.3993C336.0414,-332.932 351.0879,-313.1157 355.5218,-307.2763"/>
</g>
<!-- 9 -->
<g id="node48" class="node">
<title>9</title>
<ellipse fill="#d3d3d3" stroke="#000000" cx="295.8" cy="-247.6446" rx="20.2975" ry="20.2975"/>
<text text-anchor="middle" x="295.8" y="-243.9446" font-family="Times,serif" font-size="14.00" fill="#000000">q1</text>
</g>
<!-- 5h0&#45;&gt;9 -->
<g id="edge35" class="edge">
<title>5h0&#45;&gt;9</title>
<path fill="none" stroke="#000000" d="M290.9664,-303.6648C291.331,-299.4382 292.2432,-288.8665 293.1782,-278.0309"/>
<polygon fill="#000000" stroke="#000000" points="296.6917,-278.0235 294.0644,-267.7596 289.7176,-277.4217 296.6917,-278.0235"/>
</g>
<!-- 5h3&#45;&gt;9 -->
<g id="edge39" class="edge">
<title>5h3&#45;&gt;9</title>
<path fill="none" stroke="#000000" d="M355.2921,-304.1604C350.1052,-299.233 332.5069,-282.5151 317.7855,-268.5302"/>
<polygon fill="#000000" stroke="#000000" points="320.0911,-265.893 310.4304,-261.5431 315.2699,-270.9681 320.0911,-265.893"/>
</g>
<!-- 6h0 -->
<g id="node34" class="node">
<title>6h0</title>
<ellipse fill="#000000" stroke="#000000" cx="1.8" cy="-189.6964" rx="1.8" ry="1.8"/>
</g>
<!-- 6&#45;&gt;6h0 -->
<g id="edge40" class="edge">
<title>6&#45;&gt;6h0</title>
<path fill="none" stroke="#006400" d="M26.9988,-230.2583C18.0517,-215.8563 6.2634,-196.8811 2.7981,-191.303"/>
</g>
<!-- 6h1 -->
<g id="node35" class="node">
<title>6h1</title>
<ellipse fill="#ff0000" stroke="#ff0000" cx="23.8" cy="-189.6964" rx="1.8" ry="1.8"/>
</g>
<!-- 6&#45;&gt;6h1 -->
<g id="edge42" class="edge">
<title>6&#45;&gt;6h1</title>
<path fill="none" stroke="#0000ff" d="M33.0602,-228.026C29.6968,-214.1042 25.5535,-196.9543 24.2286,-191.4703"/>
</g>
<!-- 6h2 -->
<g id="node36" class="node">
<title>6h2</title>
<ellipse fill="#ff0000" stroke="#ff0000" cx="45.8" cy="-189.6964" rx="1.8" ry="1.8"/>
</g>
<!-- 6&#45;&gt;6h2 -->
<g id="edge43" class="edge">
<title>6&#45;&gt;6h2</title>
<path fill="none" stroke="#ff0000" d="M40.598,-227.3772C42.4724,-213.7998 44.735,-197.4105 45.5176,-191.7418"/>
</g>
<!-- 6h3 -->
<g id="node37" class="node">
<title>6h3</title>
<ellipse fill="#ff0000" stroke="#ff0000" cx="67.8" cy="-189.6964" rx="1.8" ry="1.8"/>
</g>
<!-- 6&#45;&gt;6h3 -->
<g id="edge44" class="edge">
<title>6&#45;&gt;6h3</title>
<path fill="none" stroke="#ffd700" d="M47.1277,-229.6271C54.4207,-215.54 63.8115,-197.4006 66.8242,-191.5813"/>
</g>
<!-- 10 -->
<g id="node53" class="node">
<title>10</title>
<ellipse fill="#d3d3d3" stroke="#000000" cx="166.8" cy="-131.7482" rx="20.2975" ry="20.2975"/>
<text text-anchor="middle" x="166.8" y="-128.0482" font-family="Times,serif" font-size="14.00" fill="#000000">q0</text>
</g>
<!-- 6h0&#45;&gt;10 -->
<g id="edge41" class="edge">
<title>6h0&#45;&gt;10</title>
<path fill="none" stroke="#000000" d="M3.653,-189.0456C16.6329,-184.4871 94.6709,-157.08 137.9446,-141.8823"/>
<polygon fill="#000000" stroke="#000000" points="139.3551,-145.0965 147.6304,-138.4806 137.0356,-138.492 139.3551,-145.0965"/>
</g>
<!-- 7h0 -->
<g id="node39" class="node">
<title>7h0</title>
<ellipse fill="#ff0000" stroke="#ff0000" cx="89.8" cy="-189.6964" rx="1.8" ry="1.8"/>
</g>
<!-- 7&#45;&gt;7h0 -->
<g id="edge45" class="edge">
<title>7&#45;&gt;7h0</title>
<path fill="none" stroke="#006400" d="M114.9988,-230.2583C106.0517,-215.8563 94.2634,-196.8811 90.7981,-191.303"/>
</g>
<!-- 7h1 -->
<g id="node40" class="node">
<title>7h1</title>
<ellipse fill="#ff0000" stroke="#ff0000" cx="111.8" cy="-189.6964" rx="1.8" ry="1.8"/>
</g>
<!-- 7&#45;&gt;7h1 -->
<g id="edge46" class="edge">
<title>7&#45;&gt;7h1</title>
<path fill="none" stroke="#0000ff" d="M121.0602,-228.026C117.6968,-214.1042 113.5535,-196.9543 112.2286,-191.4703"/>
</g>
<!-- 7h2 -->
<g id="node41" class="node">
<title>7h2</title>
<ellipse fill="#000000" stroke="#000000" cx="133.8" cy="-189.6964" rx="1.8" ry="1.8"/>
</g>
<!-- 7&#45;&gt;7h2 -->
<g id="edge47" class="edge">
<title>7&#45;&gt;7h2</title>
<path fill="none" stroke="#ff0000" d="M128.598,-227.3772C130.4724,-213.7998 132.735,-197.4105 133.5176,-191.7418"/>
</g>
<!-- 7h3 -->
<g id="node42" class="node">
<title>7h3</title>
<ellipse fill="#ff0000" stroke="#ff0000" cx="155.8" cy="-189.6964" rx="1.8" ry="1.8"/>
</g>
<!-- 7&#45;&gt;7h3 -->
<g id="edge49" class="edge">
<title>7&#45;&gt;7h3</title>
<path fill="none" stroke="#ffd700" d="M135.1277,-229.6271C142.4207,-215.54 151.8115,-197.4006 154.8242,-191.5813"/>
</g>
<!-- 7h2&#45;&gt;10 -->
<g id="edge48" class="edge">
<title>7h2&#45;&gt;10</title>
<path fill="none" stroke="#000000" d="M134.898,-187.7684C137.5894,-183.0423 144.7988,-170.3825 151.6844,-158.2913"/>
<polygon fill="#000000" stroke="#000000" points="154.8993,-159.7185 156.8066,-149.2968 148.8165,-156.2545 154.8993,-159.7185"/>
</g>
<!-- 8h0 -->
<g id="node44" class="node">
<title>8h0</title>
<ellipse fill="#ff0000" stroke="#ff0000" cx="177.8" cy="-189.6964" rx="1.8" ry="1.8"/>
</g>
<!-- 8&#45;&gt;8h0 -->
<g id="edge50" class="edge">
<title>8&#45;&gt;8h0</title>
<path fill="none" stroke="#006400" d="M202.9988,-230.2583C194.0517,-215.8563 182.2634,-196.8811 178.7981,-191.303"/>
</g>
<!-- 8h1 -->
<g id="node45" class="node">
<title>8h1</title>
<ellipse fill="#000000" stroke="#000000" cx="199.8" cy="-189.6964" rx="1.8" ry="1.8"/>
</g>
<!-- 8&#45;&gt;8h1 -->
<g id="edge51" class="edge">
<title>8&#45;&gt;8h1</title>
<path fill="none" stroke="#0000ff" d="M209.0602,-228.026C205.6968,-214.1042 201.5535,-196.9543 200.2286,-191.4703"/>
</g>
<!-- 8h2 -->
<g id="node46" class="node">
<title>8h2</title>
<ellipse fill="#ff0000" stroke="#ff0000" cx="221.8" cy="-189.6964" rx="1.8" ry="1.8"/>
</g>
<!-- 8&#45;&gt;8h2 -->
<g id="edge53" class="edge">
<title>8&#45;&gt;8h2</title>
<path fill="none" stroke="#ff0000" d="M216.598,-227.3772C218.4724,-213.7998 220.735,-197.4105 221.5176,-191.7418"/>
</g>
<!-- 8h3 -->
<g id="node47" class="node">
<title>8h3</title>
<ellipse fill="#ff0000" stroke="#ff0000" cx="243.8" cy="-189.6964" rx="1.8" ry="1.8"/>
</g>
<!-- 8&#45;&gt;8h3 -->
<g id="edge54" class="edge">
<title>8&#45;&gt;8h3</title>
<path fill="none" stroke="#ffd700" d="M223.1277,-229.6271C230.4207,-215.54 239.8115,-197.4006 242.8242,-191.5813"/>
</g>
<!-- 8h1&#45;&gt;10 -->
<g id="edge52" class="edge">
<title>8h1&#45;&gt;10</title>
<path fill="none" stroke="#000000" d="M198.702,-187.7684C196.0106,-183.0423 188.8012,-170.3825 181.9156,-158.2913"/>
<polygon fill="#000000" stroke="#000000" points="184.7835,-156.2545 176.7934,-149.2968 178.7007,-159.7185 184.7835,-156.2545"/>
</g>
<!-- 9h0 -->
<g id="node49" class="node">
<title>9h0</title>
<ellipse fill="#ff0000" stroke="#ff0000" cx="265.8" cy="-189.6964" rx="1.8" ry="1.8"/>
</g>
<!-- 9&#45;&gt;9h0 -->
<g id="edge55" class="edge">
<title>9&#45;&gt;9h0</title>
<path fill="none" stroke="#006400" d="M286.4723,-229.6271C279.1793,-215.54 269.7885,-197.4006 266.7758,-191.5813"/>
</g>
<!-- 9h1 -->
<g id="node50" class="node">
<title>9h1</title>
<ellipse fill="#ff0000" stroke="#ff0000" cx="287.8" cy="-189.6964" rx="1.8" ry="1.8"/>
</g>
<!-- 9&#45;&gt;9h1 -->
<g id="edge56" class="edge">
<title>9&#45;&gt;9h1</title>
<path fill="none" stroke="#0000ff" d="M293.002,-227.3772C291.1276,-213.7998 288.865,-197.4105 288.0824,-191.7418"/>
</g>
<!-- 9h2 -->
<g id="node51" class="node">
<title>9h2</title>
<ellipse fill="#ff0000" stroke="#ff0000" cx="309.8" cy="-189.6964" rx="1.8" ry="1.8"/>
</g>
<!-- 9&#45;&gt;9h2 -->
<g id="edge57" class="edge">
<title>9&#45;&gt;9h2</title>
<path fill="none" stroke="#ff0000" d="M300.5398,-228.026C303.9032,-214.1042 308.0465,-196.9543 309.3714,-191.4703"/>
</g>
<!-- 9h3 -->
<g id="node52" class="node">
<title>9h3</title>
<ellipse fill="#000000" stroke="#000000" cx="331.8" cy="-189.6964" rx="1.8" ry="1.8"/>
</g>
<!-- 9&#45;&gt;9h3 -->
<g id="edge58" class="edge">
<title>9&#45;&gt;9h3</title>
<path fill="none" stroke="#ffd700" d="M306.6012,-230.2583C315.5483,-215.8563 327.3366,-196.8811 330.8019,-191.303"/>
</g>
<!-- 9h3&#45;&gt;10 -->
<g id="edge59" class="edge">
<title>9h3&#45;&gt;10</title>
<path fill="none" stroke="#000000" d="M329.947,-189.0456C316.9671,-184.4871 238.9291,-157.08 195.6554,-141.8823"/>
<polygon fill="#000000" stroke="#000000" points="196.5644,-138.492 185.9696,-138.4806 194.2449,-145.0965 196.5644,-138.492"/>
</g>
<!-- 10h0 -->
<g id="node54" class="node">
<title>10h0</title>
<ellipse fill="#000000" stroke="#000000" cx="133.8" cy="-73.8" rx="1.8" ry="1.8"/>
</g>
<!-- 10&#45;&gt;10h0 -->
<g id="edge60" class="edge">
<title>10&#45;&gt;10h0</title>
<path fill="none" stroke="#006400" d="M156.7196,-114.047C148.5313,-99.6682 137.844,-80.9012 134.7041,-75.3876"/>
</g>
<!-- 10h1 -->
<g id="node55" class="node">
<title>10h1</title>
<ellipse fill="#ff0000" stroke="#ff0000" cx="155.8" cy="-73.8" rx="1.8" ry="1.8"/>
</g>
<!-- 10&#45;&gt;10h1 -->
<g id="edge62" class="edge">
<title>10&#45;&gt;10h1</title>
<path fill="none" stroke="#0000ff" d="M163.0144,-111.8057C160.4291,-98.1863 157.2823,-81.6087 156.1931,-75.8709"/>
</g>
<!-- 10h2 -->
<g id="node56" class="node">
<title>10h2</title>
<ellipse fill="#ff0000" stroke="#ff0000" cx="177.8" cy="-73.8" rx="1.8" ry="1.8"/>
</g>
<!-- 10&#45;&gt;10h2 -->
<g id="edge63" class="edge">
<title>10&#45;&gt;10h2</title>
<path fill="none" stroke="#ff0000" d="M170.5856,-111.8057C173.1709,-98.1863 176.3177,-81.6087 177.4069,-75.8709"/>
</g>
<!-- 10h3 -->
<g id="node57" class="node">
<title>10h3</title>
<ellipse fill="#000000" stroke="#000000" cx="199.8" cy="-73.8" rx="1.8" ry="1.8"/>
</g>
<!-- 10&#45;&gt;10h3 -->
<g id="edge64" class="edge">
<title>10&#45;&gt;10h3</title>
<path fill="none" stroke="#ffd700" d="M176.8804,-114.047C185.0687,-99.6682 195.756,-80.9012 198.8959,-75.3876"/>
</g>
<!-- 10h0&#45;&gt;T -->
<g id="edge61" class="edge">
<title>10h0&#45;&gt;T</title>
<path fill="none" stroke="#000000" d="M134.898,-71.9434C137.4747,-67.5863 144.1929,-56.2266 150.8032,-45.0491"/>
<polygon fill="#000000" stroke="#000000" points="153.9224,-46.6504 156.0003,-36.2614 147.8972,-43.0871 153.9224,-46.6504"/>
</g>
<!-- 10h3&#45;&gt;T -->
<g id="edge65" class="edge">
<title>10h3&#45;&gt;T</title>
<path fill="none" stroke="#000000" d="M198.702,-71.9434C196.1253,-67.5863 189.4071,-56.2266 182.7968,-45.0491"/>
<polygon fill="#000000" stroke="#000000" points="185.7028,-43.0871 177.5997,-36.2614 179.6776,-46.6504 185.7028,-43.0871"/>
</g>
</g>
</svg>
