<?xml version="1.0" encoding="UTF-8" standalone="no"?>
<!DOCTYPE svg PUBLIC "-//W3C//DTD SVG 1.1//EN"
 "http://www.w3.org/Graphics/SVG/1.1/DTD/svg11.dtd">
<!-- Generated by graphviz version 2.44.1 (20200629.0846)
 -->
<!-- Title: DD Pages: 1 -->
<svg width="572pt" height="1190pt"
 viewBox="0.00 0.00 571.80 1189.97" xmlns="http://www.w3.org/2000/svg" xmlns:xlink="http://www.w3.org/1999/xlink">
<g id="graph0" class="graph" transform="scale(1 1) rotate(0) translate(4 1185.97)">
<title>DD</title>
<polygon fill="white" stroke="transparent" points="-4,4 -4,-1185.97 567.8,-1185.97 567.8,4 -4,4"/>
<!-- T -->
<g id="node1" class="node">
<title>T</title>
<polygon fill="none" stroke="black" points="221.8,-36 167.8,-36 167.8,0 221.8,0 221.8,-36"/>
<text text-anchor="middle" x="194.8" y="-14.3" font-family="Times,serif" font-size="14.00">1</text>
</g>
<!-- R -->
<g id="node2" class="node">
<title>R</title>
<ellipse fill="black" stroke="black" cx="511.8" cy="-1180.17" rx="1.8" ry="1.8"/>
</g>
<!-- 0 -->
<g id="node3" class="node">
<title>0</title>
<ellipse fill="lightgray" stroke="black" cx="511.8" cy="-1107.87" rx="19.5" ry="19.5"/>
<text text-anchor="middle" x="511.8" y="-1104.17" font-family="Times,serif" font-size="14.00">q8</text>
</g>
<!-- R&#45;&gt;0 -->
<g id="edge1" class="edge">
<title>R&#45;&gt;0</title>
<path fill="none" stroke="black" d="M511.8,-1178.18C511.8,-1173.67 511.8,-1154.65 511.8,-1137.67"/>
<polygon fill="black" stroke="black" points="515.3,-1137.51 511.8,-1127.51 508.3,-1137.51 515.3,-1137.51"/>
<text text-anchor="middle" x="537.8" y="-1149.17" font-family="Times,serif" font-size="14.00">(√½(1&#45;i))</text>
</g>
<!-- 0h0 -->
<g id="node4" class="node">
<title>0h0</title>
<ellipse fill="black" stroke="black" cx="474.8" cy="-1049.57" rx="1.8" ry="1.8"/>
</g>
<!-- 0&#45;&gt;0h0 -->
<g id="edge2" class="edge">
<title>0&#45;&gt;0h0</title>
<path fill="none" stroke="darkgreen" d="M501.49,-1091.19C491.91,-1076.61 478.66,-1056.45 475.5,-1051.63"/>
</g>
<!-- 0h1 -->
<g id="node5" class="node">
<title>0h1</title>
<ellipse fill="red" stroke="red" cx="499.8" cy="-1049.57" rx="1.8" ry="1.8"/>
</g>
<!-- 0&#45;&gt;0h1 -->
<g id="edge4" class="edge">
<title>0&#45;&gt;0h1</title>
<path fill="none" stroke="blue" d="M507.94,-1088.75C504.87,-1074.35 500.94,-1055.92 500.01,-1051.54"/>
</g>
<!-- 0h2 -->
<g id="node6" class="node">
<title>0h2</title>
<ellipse fill="red" stroke="red" cx="524.8" cy="-1049.57" rx="1.8" ry="1.8"/>
</g>
<!-- 0&#45;&gt;0h2 -->
<g id="edge5" class="edge">
<title>0&#45;&gt;0h2</title>
<path fill="none" stroke="red" d="M515.98,-1088.75C519.31,-1074.35 523.57,-1055.92 524.58,-1051.54"/>
</g>
<!-- 0h3 -->
<g id="node7" class="node">
<title>0h3</title>
<ellipse fill="red" stroke="red" cx="549.8" cy="-1049.57" rx="1.8" ry="1.8"/>
</g>
<!-- 0&#45;&gt;0h3 -->
<g id="edge6" class="edge">
<title>0&#45;&gt;0h3</title>
<path fill="none" stroke="gold" d="M522.39,-1091.19C532.22,-1076.61 545.83,-1056.45 549.08,-1051.63"/>
</g>
<!-- 1 -->
<g id="node8" class="node">
<title>1</title>
<ellipse fill="lightgray" stroke="black" cx="474.8" cy="-991.27" rx="19.5" ry="19.5"/>
<text text-anchor="middle" x="474.8" y="-987.57" font-family="Times,serif" font-size="14.00">q7</text>
</g>
<!-- 0h0&#45;&gt;1 -->
<g id="edge3" class="edge">
<title>0h0&#45;&gt;1</title>
<path fill="none" stroke="black" d="M474.8,-1047.6C474.8,-1044.23 474.8,-1032.68 474.8,-1021"/>
<polygon fill="black" stroke="black" points="478.3,-1020.91 474.8,-1010.91 471.3,-1020.91 478.3,-1020.91"/>
</g>
<!-- 1h0 -->
<g id="node9" class="node">
<title>1h0</title>
<ellipse fill="black" stroke="black" cx="437.8" cy="-932.98" rx="1.8" ry="1.8"/>
</g>
<!-- 1&#45;&gt;1h0 -->
<g id="edge7" class="edge">
<title>1&#45;&gt;1h0</title>
<path fill="none" stroke="darkgreen" d="M464.49,-974.59C454.91,-960.02 441.66,-939.85 438.5,-935.04"/>
</g>
<!-- 1h1 -->
<g id="node10" class="node">
<title>1h1</title>
<ellipse fill="red" stroke="red" cx="462.8" cy="-932.98" rx="1.8" ry="1.8"/>
</g>
<!-- 1&#45;&gt;1h1 -->
<g id="edge9" class="edge">
<title>1&#45;&gt;1h1</title>
<path fill="none" stroke="blue" d="M470.94,-972.15C467.87,-957.75 463.94,-939.32 463.01,-934.94"/>
</g>
<!-- 1h2 -->
<g id="node11" class="node">
<title>1h2</title>
<ellipse fill="red" stroke="red" cx="487.8" cy="-932.98" rx="1.8" ry="1.8"/>
</g>
<!-- 1&#45;&gt;1h2 -->
<g id="edge10" class="edge">
<title>1&#45;&gt;1h2</title>
<path fill="none" stroke="red" d="M478.98,-972.15C482.31,-957.75 486.57,-939.32 487.58,-934.94"/>
</g>
<!-- 1h3 -->
<g id="node12" class="node">
<title>1h3</title>
<ellipse fill="red" stroke="red" cx="512.8" cy="-932.98" rx="1.8" ry="1.8"/>
</g>
<!-- 1&#45;&gt;1h3 -->
<g id="edge11" class="edge">
<title>1&#45;&gt;1h3</title>
<path fill="none" stroke="gold" d="M485.39,-974.59C495.22,-960.02 508.83,-939.85 512.08,-935.04"/>
</g>
<!-- 2 -->
<g id="node13" class="node">
<title>2</title>
<ellipse fill="lightgray" stroke="black" cx="437.8" cy="-874.68" rx="19.5" ry="19.5"/>
<text text-anchor="middle" x="437.8" y="-870.98" font-family="Times,serif" font-size="14.00">q6</text>
</g>
<!-- 1h0&#45;&gt;2 -->
<g id="edge8" class="edge">
<title>1h0&#45;&gt;2</title>
<path fill="none" stroke="black" d="M437.8,-931C437.8,-927.63 437.8,-916.09 437.8,-904.41"/>
<polygon fill="black" stroke="black" points="441.3,-904.31 437.8,-894.31 434.3,-904.31 441.3,-904.31"/>
</g>
<!-- 2h0 -->
<g id="node14" class="node">
<title>2h0</title>
<ellipse fill="black" stroke="black" cx="400.8" cy="-816.38" rx="1.8" ry="1.8"/>
</g>
<!-- 2&#45;&gt;2h0 -->
<g id="edge12" class="edge">
<title>2&#45;&gt;2h0</title>
<path fill="none" stroke="darkgreen" d="M427.49,-858C417.91,-843.42 404.66,-823.25 401.5,-818.44"/>
</g>
<!-- 2h1 -->
<g id="node15" class="node">
<title>2h1</title>
<ellipse fill="red" stroke="red" cx="425.8" cy="-816.38" rx="1.8" ry="1.8"/>
</g>
<!-- 2&#45;&gt;2h1 -->
<g id="edge14" class="edge">
<title>2&#45;&gt;2h1</title>
<path fill="none" stroke="blue" d="M433.94,-855.55C430.87,-841.15 426.94,-822.73 426.01,-818.34"/>
</g>
<!-- 2h2 -->
<g id="node16" class="node">
<title>2h2</title>
<ellipse fill="red" stroke="red" cx="450.8" cy="-816.38" rx="1.8" ry="1.8"/>
</g>
<!-- 2&#45;&gt;2h2 -->
<g id="edge15" class="edge">
<title>2&#45;&gt;2h2</title>
<path fill="none" stroke="red" d="M441.98,-855.55C445.31,-841.15 449.57,-822.73 450.58,-818.34"/>
</g>
<!-- 2h3 -->
<g id="node17" class="node">
<title>2h3</title>
<ellipse fill="red" stroke="red" cx="475.8" cy="-816.38" rx="1.8" ry="1.8"/>
</g>
<!-- 2&#45;&gt;2h3 -->
<g id="edge16" class="edge">
<title>2&#45;&gt;2h3</title>
<path fill="none" stroke="gold" d="M448.39,-858C458.22,-843.42 471.83,-823.25 475.08,-818.44"/>
</g>
<!-- 3 -->
<g id="node18" class="node">
<title>3</title>
<ellipse fill="lightgray" stroke="black" cx="400.8" cy="-758.08" rx="19.5" ry="19.5"/>
<text text-anchor="middle" x="400.8" y="-754.38" font-family="Times,serif" font-size="14.00">q5</text>
</g>
<!-- 2h0&#45;&gt;3 -->
<g id="edge13" class="edge">
<title>2h0&#45;&gt;3</title>
<path fill="none" stroke="black" d="M400.8,-814.4C400.8,-811.04 400.8,-799.49 400.8,-787.81"/>
<polygon fill="black" stroke="black" points="404.3,-787.72 400.8,-777.72 397.3,-787.72 404.3,-787.72"/>
</g>
<!-- 3h0 -->
<g id="node19" class="node">
<title>3h0</title>
<ellipse fill="black" stroke="black" cx="363.8" cy="-699.78" rx="1.8" ry="1.8"/>
</g>
<!-- 3&#45;&gt;3h0 -->
<g id="edge17" class="edge">
<title>3&#45;&gt;3h0</title>
<path fill="none" stroke="darkgreen" d="M390.49,-741.4C380.91,-726.82 367.66,-706.66 364.5,-701.84"/>
</g>
<!-- 3h1 -->
<g id="node20" class="node">
<title>3h1</title>
<ellipse fill="red" stroke="red" cx="388.8" cy="-699.78" rx="1.8" ry="1.8"/>
</g>
<!-- 3&#45;&gt;3h1 -->
<g id="edge19" class="edge">
<title>3&#45;&gt;3h1</title>
<path fill="none" stroke="blue" d="M396.94,-738.96C393.87,-724.56 389.94,-706.13 389.01,-701.75"/>
</g>
<!-- 3h2 -->
<g id="node21" class="node">
<title>3h2</title>
<ellipse fill="red" stroke="red" cx="413.8" cy="-699.78" rx="1.8" ry="1.8"/>
</g>
<!-- 3&#45;&gt;3h2 -->
<g id="edge20" class="edge">
<title>3&#45;&gt;3h2</title>
<path fill="none" stroke="red" d="M404.98,-738.96C408.31,-724.56 412.57,-706.13 413.58,-701.75"/>
</g>
<!-- 3h3 -->
<g id="node22" class="node">
<title>3h3</title>
<ellipse fill="red" stroke="red" cx="438.8" cy="-699.78" rx="1.8" ry="1.8"/>
</g>
<!-- 3&#45;&gt;3h3 -->
<g id="edge21" class="edge">
<title>3&#45;&gt;3h3</title>
<path fill="none" stroke="gold" d="M411.39,-741.4C421.22,-726.82 434.83,-706.66 438.08,-701.84"/>
</g>
<!-- 4 -->
<g id="node23" class="node">
<title>4</title>
<ellipse fill="lightgray" stroke="black" cx="363.8" cy="-641.48" rx="19.5" ry="19.5"/>
<text text-anchor="middle" x="363.8" y="-637.78" font-family="Times,serif" font-size="14.00">q4</text>
</g>
<!-- 3h0&#45;&gt;4 -->
<g id="edge18" class="edge">
<title>3h0&#45;&gt;4</title>
<path fill="none" stroke="black" d="M363.8,-697.81C363.8,-694.44 363.8,-682.89 363.8,-671.21"/>
<polygon fill="black" stroke="black" points="367.3,-671.12 363.8,-661.12 360.3,-671.12 367.3,-671.12"/>
</g>
<!-- 4h0 -->
<g id="node24" class="node">
<title>4h0</title>
<ellipse fill="black" stroke="black" cx="302.8" cy="-583.19" rx="1.8" ry="1.8"/>
</g>
<!-- 4&#45;&gt;4h0 -->
<g id="edge22" class="edge">
<title>4&#45;&gt;4h0</title>
<path fill="none" stroke="darkgreen" d="M349.96,-627.71C333.65,-612.66 308.17,-589.14 303.54,-584.87"/>
</g>
<!-- 4h1 -->
<g id="node25" class="node">
<title>4h1</title>
<ellipse fill="red" stroke="red" cx="351.8" cy="-583.19" rx="1.8" ry="1.8"/>
</g>
<!-- 4&#45;&gt;4h1 -->
<g id="edge24" class="edge">
<title>4&#45;&gt;4h1</title>
<path fill="none" stroke="blue" d="M359.94,-622.36C356.87,-607.96 352.94,-589.53 352.01,-585.15"/>
</g>
<!-- 4h2 -->
<g id="node26" class="node">
<title>4h2</title>
<ellipse fill="black" stroke="black" cx="377.8" cy="-583.19" rx="1.8" ry="1.8"/>
</g>
<!-- 4&#45;&gt;4h2 -->
<g id="edge25" class="edge">
<title>4&#45;&gt;4h2</title>
<path fill="none" stroke="red" d="M368.31,-622.36C371.89,-607.96 376.47,-589.53 377.56,-585.15"/>
</g>
<!-- 4h3 -->
<g id="node27" class="node">
<title>4h3</title>
<ellipse fill="red" stroke="red" cx="401.8" cy="-583.19" rx="1.8" ry="1.8"/>
</g>
<!-- 4&#45;&gt;4h3 -->
<g id="edge27" class="edge">
<title>4&#45;&gt;4h3</title>
<path fill="none" stroke="gold" d="M374.39,-624.8C384.22,-610.23 397.83,-590.06 401.08,-585.25"/>
</g>
<!-- 5 -->
<g id="node28" class="node">
<title>5</title>
<ellipse fill="lightgray" stroke="black" cx="291.8" cy="-510.89" rx="19.5" ry="19.5"/>
<text text-anchor="middle" x="291.8" y="-507.19" font-family="Times,serif" font-size="14.00">q3</text>
</g>
<!-- 4h0&#45;&gt;5 -->
<g id="edge23" class="edge">
<title>4h0&#45;&gt;5</title>
<path fill="none" stroke="black" d="M302.64,-581.19C301.94,-576.66 298.93,-557.43 296.26,-540.37"/>
<polygon fill="black" stroke="black" points="299.67,-539.52 294.66,-530.19 292.75,-540.61 299.67,-539.52"/>
<text text-anchor="middle" x="332.8" y="-552.19" font-family="Times,serif" font-size="14.00"> (0.866025)</text>
</g>
<!-- 6 -->
<g id="node33" class="node">
<title>6</title>
<ellipse fill="lightgray" stroke="black" cx="385.8" cy="-510.89" rx="19.5" ry="19.5"/>
<text text-anchor="middle" x="385.8" y="-507.19" font-family="Times,serif" font-size="14.00">q3</text>
</g>
<!-- 4h2&#45;&gt;6 -->
<g id="edge26" class="edge">
<title>4h2&#45;&gt;6</title>
<path fill="none" stroke="black" d="M377.91,-581.19C378.43,-576.69 380.59,-557.66 382.52,-540.69"/>
<polygon fill="black" stroke="black" points="386.03,-540.86 383.68,-530.53 379.07,-540.07 386.03,-540.86"/>
<text text-anchor="middle" x="442.3" y="-552.19" font-family="Times,serif" font-size="14.00"> (&#45;0.46194&#45;0.191342i)</text>
</g>
<!-- 5h0 -->
<g id="node29" class="node">
<title>5h0</title>
<ellipse fill="black" stroke="black" cx="210.8" cy="-452.59" rx="1.8" ry="1.8"/>
</g>
<!-- 5&#45;&gt;5h0 -->
<g id="edge28" class="edge">
<title>5&#45;&gt;5h0</title>
<path fill="none" stroke="darkgreen" d="M276.18,-499.03C254.85,-484.21 218.48,-458.93 211.85,-454.32"/>
</g>
<!-- 5h1 -->
<g id="node30" class="node">
<title>5h1</title>
<ellipse fill="red" stroke="red" cx="266.8" cy="-452.59" rx="1.8" ry="1.8"/>
</g>
<!-- 5&#45;&gt;5h1 -->
<g id="edge30" class="edge">
<title>5&#45;&gt;5h1</title>
<path fill="none" stroke="blue" d="M284.16,-492.69C277.73,-478.2 269.26,-459.13 267.24,-454.59"/>
</g>
<!-- 5h2 -->
<g id="node31" class="node">
<title>5h2</title>
<ellipse fill="black" stroke="black" cx="291.8" cy="-452.59" rx="1.8" ry="1.8"/>
</g>
<!-- 5&#45;&gt;5h2 -->
<g id="edge31" class="edge">
<title>5&#45;&gt;5h2</title>
<path fill="none" stroke="red" d="M291.8,-491.14C291.8,-476.81 291.8,-458.81 291.8,-454.53"/>
</g>
<!-- 5h3 -->
<g id="node32" class="node">
<title>5h3</title>
<ellipse fill="red" stroke="red" cx="316.8" cy="-452.59" rx="1.8" ry="1.8"/>
</g>
<!-- 5&#45;&gt;5h3 -->
<g id="edge33" class="edge">
<title>5&#45;&gt;5h3</title>
<path fill="none" stroke="gold" d="M299.44,-492.69C305.87,-478.2 314.34,-459.13 316.36,-454.59"/>
</g>
<!-- 7 -->
<g id="node38" class="node">
<title>7</title>
<ellipse fill="lightgray" stroke="black" cx="191.8" cy="-380.29" rx="19.5" ry="19.5"/>
<text text-anchor="middle" x="191.8" y="-376.59" font-family="Times,serif" font-size="14.00">q2</text>
</g>
<!-- 5h0&#45;&gt;7 -->
<g id="edge29" class="edge">
<title>5h0&#45;&gt;7</title>
<path fill="none" stroke="black" d="M210.59,-450.8C209.46,-446.64 204.1,-426.78 199.38,-409.35"/>
<polygon fill="black" stroke="black" points="202.71,-408.25 196.72,-399.51 195.95,-410.08 202.71,-408.25"/>
<text text-anchor="middle" x="221.3" y="-421.59" font-family="Times,serif" font-size="14.00"> (√½)</text>
</g>
<!-- 8 -->
<g id="node43" class="node">
<title>8</title>
<ellipse fill="lightgray" stroke="black" cx="291.8" cy="-380.29" rx="19.5" ry="19.5"/>
<text text-anchor="middle" x="291.8" y="-376.59" font-family="Times,serif" font-size="14.00">q2</text>
</g>
<!-- 5h2&#45;&gt;8 -->
<g id="edge32" class="edge">
<title>5h2&#45;&gt;8</title>
<path fill="none" stroke="black" d="M291.8,-450.6C291.8,-446.09 291.8,-427.07 291.8,-410.09"/>
<polygon fill="black" stroke="black" points="295.3,-409.93 291.8,-399.93 288.3,-409.93 295.3,-409.93"/>
<text text-anchor="middle" x="317.8" y="-421.59" font-family="Times,serif" font-size="14.00"> (½(1+i))</text>
</g>
<!-- 6h0 -->
<g id="node34" class="node">
<title>6h0</title>
<ellipse fill="black" stroke="black" cx="361.8" cy="-452.59" rx="1.8" ry="1.8"/>
</g>
<!-- 6&#45;&gt;6h0 -->
<g id="edge34" class="edge">
<title>6&#45;&gt;6h0</title>
<path fill="none" stroke="darkgreen" d="M378.47,-492.69C372.29,-478.2 364.16,-459.13 362.23,-454.59"/>
</g>
<!-- 6h1 -->
<g id="node35" class="node">
<title>6h1</title>
<ellipse fill="red" stroke="red" cx="385.8" cy="-452.59" rx="1.8" ry="1.8"/>
</g>
<!-- 6&#45;&gt;6h1 -->
<g id="edge36" class="edge">
<title>6&#45;&gt;6h1</title>
<path fill="none" stroke="blue" d="M385.8,-491.14C385.8,-476.81 385.8,-458.81 385.8,-454.53"/>
</g>
<!-- 6h2 -->
<g id="node36" class="node">
<title>6h2</title>
<ellipse fill="red" stroke="red" cx="410.8" cy="-452.59" rx="1.8" ry="1.8"/>
</g>
<!-- 6&#45;&gt;6h2 -->
<g id="edge37" class="edge">
<title>6&#45;&gt;6h2</title>
<path fill="none" stroke="red" d="M393.44,-492.69C399.87,-478.2 408.34,-459.13 410.36,-454.59"/>
</g>
<!-- 6h3 -->
<g id="node37" class="node">
<title>6h3</title>
<ellipse fill="red" stroke="red" cx="435.8" cy="-452.59" rx="1.8" ry="1.8"/>
</g>
<!-- 6&#45;&gt;6h3 -->
<g id="edge38" class="edge">
<title>6&#45;&gt;6h3</title>
<path fill="none" stroke="gold" d="M398.42,-495.68C411.38,-481.09 430.28,-459.81 434.8,-454.71"/>
</g>
<!-- 9 -->
<g id="node48" class="node">
<title>9</title>
<ellipse fill="lightgray" stroke="black" cx="378.8" cy="-380.29" rx="19.5" ry="19.5"/>
<text text-anchor="middle" x="378.8" y="-376.59" font-family="Times,serif" font-size="14.00">q2</text>
</g>
<!-- 6h0&#45;&gt;9 -->
<g id="edge35" class="edge">
<title>6h0&#45;&gt;9</title>
<path fill="none" stroke="black" d="M362.04,-450.6C363.14,-446.06 367.79,-426.83 371.91,-409.78"/>
<polygon fill="black" stroke="black" points="375.43,-410.13 374.38,-399.59 368.62,-408.49 375.43,-410.13"/>
</g>
<!-- 7h0 -->
<g id="node39" class="node">
<title>7h0</title>
<ellipse fill="red" stroke="red" cx="141.8" cy="-321.99" rx="1.8" ry="1.8"/>
</g>
<!-- 7&#45;&gt;7h0 -->
<g id="edge39" class="edge">
<title>7&#45;&gt;7h0</title>
<path fill="none" stroke="darkgreen" d="M179.18,-365.08C166.22,-350.49 147.32,-329.21 142.8,-324.12"/>
</g>
<!-- 7h1 -->
<g id="node40" class="node">
<title>7h1</title>
<ellipse fill="red" stroke="red" cx="166.8" cy="-321.99" rx="1.8" ry="1.8"/>
</g>
<!-- 7&#45;&gt;7h1 -->
<g id="edge40" class="edge">
<title>7&#45;&gt;7h1</title>
<path fill="none" stroke="blue" d="M184.16,-362.09C177.73,-347.61 169.26,-328.54 167.24,-323.99"/>
</g>
<!-- 7h2 -->
<g id="node41" class="node">
<title>7h2</title>
<ellipse fill="black" stroke="black" cx="190.8" cy="-321.99" rx="1.8" ry="1.8"/>
</g>
<!-- 7&#45;&gt;7h2 -->
<g id="edge41" class="edge">
<title>7&#45;&gt;7h2</title>
<path fill="none" stroke="red" d="M191.47,-360.54C191.21,-346.21 190.89,-328.21 190.82,-323.93"/>
</g>
<!-- 7h3 -->
<g id="node42" class="node">
<title>7h3</title>
<ellipse fill="red" stroke="red" cx="216.8" cy="-321.99" rx="1.8" ry="1.8"/>
</g>
<!-- 7&#45;&gt;7h3 -->
<g id="edge43" class="edge">
<title>7&#45;&gt;7h3</title>
<path fill="none" stroke="gold" d="M199.44,-362.09C205.87,-347.61 214.34,-328.54 216.36,-323.99"/>
</g>
<!-- 10 -->
<g id="node53" class="node">
<title>10</title>
<ellipse fill="lightgray" stroke="black" cx="166.8" cy="-263.69" rx="19.5" ry="19.5"/>
<text text-anchor="middle" x="166.8" y="-259.99" font-family="Times,serif" font-size="14.00">q1</text>
</g>
<!-- 7h2&#45;&gt;10 -->
<g id="edge42" class="edge">
<title>7h2&#45;&gt;10</title>
<path fill="none" stroke="black" d="M190.38,-320.02C188.86,-316.43 183.37,-303.57 178.08,-291.15"/>
<polygon fill="black" stroke="black" points="181.28,-289.73 174.14,-281.9 174.84,-292.47 181.28,-289.73"/>
</g>
<!-- 8h0 -->
<g id="node44" class="node">
<title>8h0</title>
<ellipse fill="black" stroke="black" cx="253.8" cy="-321.99" rx="1.8" ry="1.8"/>
</g>
<!-- 8&#45;&gt;8h0 -->
<g id="edge44" class="edge">
<title>8&#45;&gt;8h0</title>
<path fill="none" stroke="darkgreen" d="M281.21,-363.61C271.38,-349.03 257.77,-328.87 254.52,-324.06"/>
</g>
<!-- 8h1 -->
<g id="node45" class="node">
<title>8h1</title>
<ellipse fill="red" stroke="red" cx="278.8" cy="-321.99" rx="1.8" ry="1.8"/>
</g>
<!-- 8&#45;&gt;8h1 -->
<g id="edge46" class="edge">
<title>8&#45;&gt;8h1</title>
<path fill="none" stroke="blue" d="M287.62,-361.17C284.29,-346.77 280.03,-328.34 279.02,-323.96"/>
</g>
<!-- 8h2 -->
<g id="node46" class="node">
<title>8h2</title>
<ellipse fill="red" stroke="red" cx="303.8" cy="-321.99" rx="1.8" ry="1.8"/>
</g>
<!-- 8&#45;&gt;8h2 -->
<g id="edge47" class="edge">
<title>8&#45;&gt;8h2</title>
<path fill="none" stroke="red" d="M295.66,-361.17C298.73,-346.77 302.66,-328.34 303.59,-323.96"/>
</g>
<!-- 8h3 -->
<g id="node47" class="node">
<title>8h3</title>
<ellipse fill="red" stroke="red" cx="328.8" cy="-321.99" rx="1.8" ry="1.8"/>
</g>
<!-- 8&#45;&gt;8h3 -->
<g id="edge48" class="edge">
<title>8&#45;&gt;8h3</title>
<path fill="none" stroke="gold" d="M302.11,-363.61C311.69,-349.03 324.94,-328.87 328.1,-324.06"/>
</g>
<!-- 11 -->
<g id="node58" class="node">
<title>11</title>
<ellipse fill="lightgray" stroke="black" cx="253.8" cy="-263.69" rx="19.5" ry="19.5"/>
<text text-anchor="middle" x="253.8" y="-259.99" font-family="Times,serif" font-size="14.00">q1</text>
</g>
<!-- 8h0&#45;&gt;11 -->
<g id="edge45" class="edge">
<title>8h0&#45;&gt;11</title>
<path fill="none" stroke="black" d="M253.8,-320.02C253.8,-316.65 253.8,-305.1 253.8,-293.42"/>
<polygon fill="black" stroke="black" points="257.3,-293.33 253.8,-283.33 250.3,-293.33 257.3,-293.33"/>
</g>
<!-- 9h0 -->
<g id="node49" class="node">
<title>9h0</title>
<ellipse fill="black" stroke="black" cx="354.8" cy="-321.99" rx="1.8" ry="1.8"/>
</g>
<!-- 9&#45;&gt;9h0 -->
<g id="edge49" class="edge">
<title>9&#45;&gt;9h0</title>
<path fill="none" stroke="darkgreen" d="M371.47,-362.09C365.29,-347.61 357.16,-328.54 355.23,-323.99"/>
</g>
<!-- 9h1 -->
<g id="node50" class="node">
<title>9h1</title>
<ellipse fill="red" stroke="red" cx="378.8" cy="-321.99" rx="1.8" ry="1.8"/>
</g>
<!-- 9&#45;&gt;9h1 -->
<g id="edge51" class="edge">
<title>9&#45;&gt;9h1</title>
<path fill="none" stroke="blue" d="M378.8,-360.54C378.8,-346.21 378.8,-328.21 378.8,-323.93"/>
</g>
<!-- 9h2 -->
<g id="node51" class="node">
<title>9h2</title>
<ellipse fill="red" stroke="red" cx="403.8" cy="-321.99" rx="1.8" ry="1.8"/>
</g>
<!-- 9&#45;&gt;9h2 -->
<g id="edge52" class="edge">
<title>9&#45;&gt;9h2</title>
<path fill="none" stroke="red" d="M386.44,-362.09C392.87,-347.61 401.34,-328.54 403.36,-323.99"/>
</g>
<!-- 9h3 -->
<g id="node52" class="node">
<title>9h3</title>
<ellipse fill="red" stroke="red" cx="428.8" cy="-321.99" rx="1.8" ry="1.8"/>
</g>
<!-- 9&#45;&gt;9h3 -->
<g id="edge53" class="edge">
<title>9&#45;&gt;9h3</title>
<path fill="none" stroke="gold" d="M391.42,-365.08C404.38,-350.49 423.28,-329.21 427.8,-324.12"/>
</g>
<!-- 12 -->
<g id="node63" class="node">
<title>12</title>
<ellipse fill="lightgray" stroke="black" cx="363.8" cy="-263.69" rx="19.5" ry="19.5"/>
<text text-anchor="middle" x="363.8" y="-259.99" font-family="Times,serif" font-size="14.00">q1</text>
</g>
<!-- 9h0&#45;&gt;12 -->
<g id="edge50" class="edge">
<title>9h0&#45;&gt;12</title>
<path fill="none" stroke="black" d="M354.96,-320.02C355.5,-316.63 357.36,-304.95 359.24,-293.19"/>
<polygon fill="black" stroke="black" points="362.74,-293.47 360.87,-283.04 355.83,-292.36 362.74,-293.47"/>
</g>
<!-- 10h0 -->
<g id="node54" class="node">
<title>10h0</title>
<ellipse fill="black" stroke="black" cx="101.8" cy="-205.4" rx="1.8" ry="1.8"/>
</g>
<!-- 10&#45;&gt;10h0 -->
<g id="edge54" class="edge">
<title>10&#45;&gt;10h0</title>
<path fill="none" stroke="darkgreen" d="M152.37,-250.2C135.02,-235.17 107.58,-211.41 102.59,-207.08"/>
</g>
<!-- 10h1 -->
<g id="node55" class="node">
<title>10h1</title>
<ellipse fill="red" stroke="red" cx="141.8" cy="-205.4" rx="1.8" ry="1.8"/>
</g>
<!-- 10&#45;&gt;10h1 -->
<g id="edge56" class="edge">
<title>10&#45;&gt;10h1</title>
<path fill="none" stroke="blue" d="M159.16,-245.5C152.73,-231.01 144.26,-211.94 142.24,-207.4"/>
</g>
<!-- 10h2 -->
<g id="node56" class="node">
<title>10h2</title>
<ellipse fill="red" stroke="red" cx="166.8" cy="-205.4" rx="1.8" ry="1.8"/>
</g>
<!-- 10&#45;&gt;10h2 -->
<g id="edge57" class="edge">
<title>10&#45;&gt;10h2</title>
<path fill="none" stroke="red" d="M166.8,-243.95C166.8,-229.62 166.8,-211.62 166.8,-207.34"/>
</g>
<!-- 10h3 -->
<g id="node57" class="node">
<title>10h3</title>
<ellipse fill="red" stroke="red" cx="191.8" cy="-205.4" rx="1.8" ry="1.8"/>
</g>
<!-- 10&#45;&gt;10h3 -->
<g id="edge58" class="edge">
<title>10&#45;&gt;10h3</title>
<path fill="none" stroke="gold" d="M174.44,-245.5C180.87,-231.01 189.34,-211.94 191.36,-207.4"/>
</g>
<!-- 13 -->
<g id="node68" class="node">
<title>13</title>
<ellipse fill="lightgray" stroke="black" cx="68.8" cy="-147.1" rx="19.5" ry="19.5"/>
<text text-anchor="middle" x="68.8" y="-143.4" font-family="Times,serif" font-size="14.00">q0</text>
</g>
<!-- 10h0&#45;&gt;13 -->
<g id="edge55" class="edge">
<title>10h0&#45;&gt;13</title>
<path fill="none" stroke="black" d="M101.23,-203.42C99.03,-199.67 90.88,-185.77 83.3,-172.84"/>
<polygon fill="black" stroke="black" points="86.31,-171.04 78.23,-164.18 80.27,-174.58 86.31,-171.04"/>
</g>
<!-- 11h0 -->
<g id="node59" class="node">
<title>11h0</title>
<ellipse fill="black" stroke="black" cx="218.8" cy="-205.4" rx="1.8" ry="1.8"/>
</g>
<!-- 11&#45;&gt;11h0 -->
<g id="edge59" class="edge">
<title>11&#45;&gt;11h0</title>
<path fill="none" stroke="darkgreen" d="M243.86,-246.71C234.81,-232.15 222.41,-212.2 219.45,-207.45"/>
</g>
<!-- 11h1 -->
<g id="node60" class="node">
<title>11h1</title>
<ellipse fill="red" stroke="red" cx="243.8" cy="-205.4" rx="1.8" ry="1.8"/>
</g>
<!-- 11&#45;&gt;11h1 -->
<g id="edge61" class="edge">
<title>11&#45;&gt;11h1</title>
<path fill="none" stroke="blue" d="M250.53,-244.26C247.97,-229.89 244.74,-211.68 243.97,-207.35"/>
</g>
<!-- 11h2 -->
<g id="node61" class="node">
<title>11h2</title>
<ellipse fill="red" stroke="red" cx="268.8" cy="-205.4" rx="1.8" ry="1.8"/>
</g>
<!-- 11&#45;&gt;11h2 -->
<g id="edge62" class="edge">
<title>11&#45;&gt;11h2</title>
<path fill="none" stroke="red" d="M258.63,-244.57C262.47,-230.17 267.38,-211.74 268.54,-207.36"/>
</g>
<!-- 11h3 -->
<g id="node62" class="node">
<title>11h3</title>
<ellipse fill="red" stroke="red" cx="293.8" cy="-205.4" rx="1.8" ry="1.8"/>
</g>
<!-- 11&#45;&gt;11h3 -->
<g id="edge63" class="edge">
<title>11&#45;&gt;11h3</title>
<path fill="none" stroke="gold" d="M264.73,-247.31C275.09,-232.73 289.58,-212.34 293.04,-207.47"/>
</g>
<!-- 14 -->
<g id="node73" class="node">
<title>14</title>
<ellipse fill="lightgray" stroke="black" cx="218.8" cy="-147.1" rx="19.5" ry="19.5"/>
<text text-anchor="middle" x="218.8" y="-143.4" font-family="Times,serif" font-size="14.00">q0</text>
</g>
<!-- 11h0&#45;&gt;14 -->
<g id="edge60" class="edge">
<title>11h0&#45;&gt;14</title>
<path fill="none" stroke="black" d="M218.8,-203.42C218.8,-200.05 218.8,-188.51 218.8,-176.83"/>
<polygon fill="black" stroke="black" points="222.3,-176.73 218.8,-166.73 215.3,-176.73 222.3,-176.73"/>
</g>
<!-- 12h0 -->
<g id="node64" class="node">
<title>12h0</title>
<ellipse fill="black" stroke="black" cx="339.8" cy="-205.4" rx="1.8" ry="1.8"/>
</g>
<!-- 12&#45;&gt;12h0 -->
<g id="edge64" class="edge">
<title>12&#45;&gt;12h0</title>
<path fill="none" stroke="darkgreen" d="M356.47,-245.5C350.29,-231.01 342.16,-211.94 340.23,-207.4"/>
</g>
<!-- 12h1 -->
<g id="node65" class="node">
<title>12h1</title>
<ellipse fill="red" stroke="red" cx="363.8" cy="-205.4" rx="1.8" ry="1.8"/>
</g>
<!-- 12&#45;&gt;12h1 -->
<g id="edge66" class="edge">
<title>12&#45;&gt;12h1</title>
<path fill="none" stroke="blue" d="M363.8,-243.95C363.8,-229.62 363.8,-211.62 363.8,-207.34"/>
</g>
<!-- 12h2 -->
<g id="node66" class="node">
<title>12h2</title>
<ellipse fill="red" stroke="red" cx="388.8" cy="-205.4" rx="1.8" ry="1.8"/>
</g>
<!-- 12&#45;&gt;12h2 -->
<g id="edge67" class="edge">
<title>12&#45;&gt;12h2</title>
<path fill="none" stroke="red" d="M371.44,-245.5C377.87,-231.01 386.34,-211.94 388.36,-207.4"/>
</g>
<!-- 12h3 -->
<g id="node67" class="node">
<title>12h3</title>
<ellipse fill="red" stroke="red" cx="413.8" cy="-205.4" rx="1.8" ry="1.8"/>
</g>
<!-- 12&#45;&gt;12h3 -->
<g id="edge68" class="edge">
<title>12&#45;&gt;12h3</title>
<path fill="none" stroke="gold" d="M376.42,-248.49C389.38,-233.9 408.28,-212.61 412.8,-207.52"/>
</g>
<!-- 15 -->
<g id="node78" class="node">
<title>15</title>
<ellipse fill="lightgray" stroke="black" cx="349.8" cy="-147.1" rx="19.5" ry="19.5"/>
<text text-anchor="middle" x="349.8" y="-143.4" font-family="Times,serif" font-size="14.00">q0</text>
</g>
<!-- 12h0&#45;&gt;15 -->
<g id="edge65" class="edge">
<title>12h0&#45;&gt;15</title>
<path fill="none" stroke="black" d="M339.97,-203.42C340.58,-200.03 342.65,-188.35 344.74,-176.59"/>
<polygon fill="black" stroke="black" points="348.24,-176.9 346.54,-166.44 341.35,-175.68 348.24,-176.9"/>
</g>
<!-- 13h0 -->
<g id="node69" class="node">
<title>13h0</title>
<ellipse fill="black" stroke="black" cx="1.8" cy="-88.8" rx="1.8" ry="1.8"/>
</g>
<!-- 13&#45;&gt;13h0 -->
<g id="edge69" class="edge">
<title>13&#45;&gt;13h0</title>
<path fill="none" stroke="darkgreen" d="M54.26,-133.88C36.4,-118.88 7.83,-94.86 2.63,-90.49"/>
</g>
<!-- 13h1 -->
<g id="node70" class="node">
<title>13h1</title>
<ellipse fill="red" stroke="red" cx="43.8" cy="-88.8" rx="1.8" ry="1.8"/>
</g>
<!-- 13&#45;&gt;13h1 -->
<g id="edge71" class="edge">
<title>13&#45;&gt;13h1</title>
<path fill="none" stroke="blue" d="M61.16,-128.9C54.73,-114.41 46.26,-95.34 44.24,-90.8"/>
</g>
<!-- 13h2 -->
<g id="node71" class="node">
<title>13h2</title>
<ellipse fill="black" stroke="black" cx="68.8" cy="-88.8" rx="1.8" ry="1.8"/>
</g>
<!-- 13&#45;&gt;13h2 -->
<g id="edge72" class="edge">
<title>13&#45;&gt;13h2</title>
<path fill="none" stroke="red" d="M68.8,-127.35C68.8,-113.02 68.8,-95.02 68.8,-90.74"/>
</g>
<!-- 13h3 -->
<g id="node72" class="node">
<title>13h3</title>
<ellipse fill="red" stroke="red" cx="93.8" cy="-88.8" rx="1.8" ry="1.8"/>
</g>
<!-- 13&#45;&gt;13h3 -->
<g id="edge74" class="edge">
<title>13&#45;&gt;13h3</title>
<path fill="none" stroke="gold" d="M76.44,-128.9C82.87,-114.41 91.34,-95.34 93.36,-90.8"/>
</g>
<!-- 13h0&#45;&gt;T -->
<g id="edge70" class="edge">
<title>13h0&#45;&gt;T</title>
<path fill="none" stroke="black" d="M1.75,-86.78C1.6,-82.18 1.64,-63.2 11.8,-54 32.75,-35.02 110.4,-25.64 157.55,-21.6"/>
<polygon fill="black" stroke="black" points="158.01,-25.08 167.69,-20.78 157.44,-18.1 158.01,-25.08"/>
<text text-anchor="middle" x="42.3" y="-57.8" font-family="Times,serif" font-size="14.00">(0.169102)</text>
</g>
<!-- 13h2&#45;&gt;T -->
<g id="edge73" class="edge">
<title>13h2&#45;&gt;T</title>
<path fill="none" stroke="black" d="M69.07,-86.8C70.34,-82.27 76.15,-63.57 87.8,-54 107.62,-37.73 135.24,-28.94 157.45,-24.24"/>
<polygon fill="black" stroke="black" points="158.38,-27.63 167.54,-22.3 157.06,-20.75 158.38,-27.63"/>
<text text-anchor="middle" x="118.3" y="-57.8" font-family="Times,serif" font-size="14.00">(0.985599)</text>
</g>
<!-- 14h0 -->
<g id="node74" class="node">
<title>14h0</title>
<ellipse fill="black" stroke="black" cx="160.8" cy="-88.8" rx="1.8" ry="1.8"/>
</g>
<!-- 14&#45;&gt;14h0 -->
<g id="edge75" class="edge">
<title>14&#45;&gt;14h0</title>
<path fill="none" stroke="darkgreen" d="M205.05,-132.76C190.05,-118.19 167.42,-96.23 162,-90.96"/>
</g>
<!-- 14h1 -->
<g id="node75" class="node">
<title>14h1</title>
<ellipse fill="red" stroke="red" cx="208.8" cy="-88.8" rx="1.8" ry="1.8"/>
</g>
<!-- 14&#45;&gt;14h1 -->
<g id="edge77" class="edge">
<title>14&#45;&gt;14h1</title>
<path fill="none" stroke="blue" d="M215.53,-127.66C212.97,-113.3 209.74,-95.08 208.97,-90.75"/>
</g>
<!-- 14h2 -->
<g id="node76" class="node">
<title>14h2</title>
<ellipse fill="black" stroke="black" cx="235.8" cy="-88.8" rx="1.8" ry="1.8"/>
</g>
<!-- 14&#45;&gt;14h2 -->
<g id="edge78" class="edge">
<title>14&#45;&gt;14h2</title>
<path fill="none" stroke="red" d="M224.18,-128.29C228.54,-113.85 234.17,-95.21 235.5,-90.78"/>
</g>
<!-- 14h3 -->
<g id="node77" class="node">
<title>14h3</title>
<ellipse fill="red" stroke="red" cx="258.8" cy="-88.8" rx="1.8" ry="1.8"/>
</g>
<!-- 14&#45;&gt;14h3 -->
<g id="edge80" class="edge">
<title>14&#45;&gt;14h3</title>
<path fill="none" stroke="gold" d="M229.69,-130.83C234.35,-124.3 239.85,-116.58 244.8,-109.6 250.06,-102.18 256.41,-93.19 258.27,-90.56"/>
</g>
<!-- 14h0&#45;&gt;T -->
<g id="edge76" class="edge">
<title>14h0&#45;&gt;T</title>
<path fill="none" stroke="black" d="M160.24,-86.92C157.75,-82.93 148.18,-66.19 153.8,-54 155.51,-50.28 157.84,-46.81 160.52,-43.61"/>
<polygon fill="black" stroke="black" points="163.25,-45.83 167.76,-36.24 158.25,-40.93 163.25,-45.83"/>
<text text-anchor="middle" x="184.3" y="-57.8" font-family="Times,serif" font-size="14.00">(0.169102)</text>
</g>
<!-- 14h2&#45;&gt;T -->
<g id="edge79" class="edge">
<title>14h2&#45;&gt;T</title>
<path fill="none" stroke="black" d="M235.34,-87.03C232.84,-82.83 220.6,-62.3 210.22,-44.88"/>
<polygon fill="black" stroke="black" points="213.15,-42.96 205.03,-36.16 207.14,-46.54 213.15,-42.96"/>
<text text-anchor="middle" x="256.3" y="-57.8" font-family="Times,serif" font-size="14.00">(&#45;0.985599)</text>
</g>
<!-- 15h0 -->
<g id="node79" class="node">
<title>15h0</title>
<ellipse fill="black" stroke="black" cx="324.8" cy="-88.8" rx="1.8" ry="1.8"/>
</g>
<!-- 15&#45;&gt;15h0 -->
<g id="edge81" class="edge">
<title>15&#45;&gt;15h0</title>
<path fill="none" stroke="darkgreen" d="M342.16,-128.9C335.73,-114.41 327.26,-95.34 325.24,-90.8"/>
</g>
<!-- 15h1 -->
<g id="node80" class="node">
<title>15h1</title>
<ellipse fill="red" stroke="red" cx="349.8" cy="-88.8" rx="1.8" ry="1.8"/>
</g>
<!-- 15&#45;&gt;15h1 -->
<g id="edge83" class="edge">
<title>15&#45;&gt;15h1</title>
<path fill="none" stroke="blue" d="M349.8,-127.35C349.8,-113.02 349.8,-95.02 349.8,-90.74"/>
</g>
<!-- 15h2 -->
<g id="node81" class="node">
<title>15h2</title>
<ellipse fill="black" stroke="black" cx="376.8" cy="-88.8" rx="1.8" ry="1.8"/>
</g>
<!-- 15&#45;&gt;15h2 -->
<g id="edge84" class="edge">
<title>15&#45;&gt;15h2</title>
<path fill="none" stroke="red" d="M357.9,-129.21C364.86,-114.7 374.11,-95.41 376.31,-90.81"/>
</g>
<!-- 15h3 -->
<g id="node82" class="node">
<title>15h3</title>
<ellipse fill="red" stroke="red" cx="399.8" cy="-88.8" rx="1.8" ry="1.8"/>
</g>
<!-- 15&#45;&gt;15h3 -->
<g id="edge86" class="edge">
<title>15&#45;&gt;15h3</title>
<path fill="none" stroke="gold" d="M362.42,-131.89C375.38,-117.3 394.28,-96.02 398.8,-90.92"/>
</g>
<!-- 15h0&#45;&gt;T -->
<g id="edge82" class="edge">
<title>15h0&#45;&gt;T</title>
<path fill="none" stroke="black" d="M324.14,-86.81C321.09,-82.35 307.96,-63.89 292.8,-54 274.33,-41.95 251.19,-33.44 232.04,-27.82"/>
<polygon fill="black" stroke="black" points="232.72,-24.38 222.15,-25.08 230.84,-31.13 232.72,-24.38"/>
<text text-anchor="middle" x="341.3" y="-57.8" font-family="Times,serif" font-size="14.00">(0.382683)</text>
</g>
<!-- 15h2&#45;&gt;T -->
<g id="edge85" class="edge">
<title>15h2&#45;&gt;T</title>
<path fill="none" stroke="black" d="M377.16,-86.82C378.7,-82.38 384.32,-64.02 375.8,-54 357.63,-32.64 279.52,-24.12 232.05,-20.87"/>
<polygon fill="black" stroke="black" points="232.04,-17.37 221.84,-20.22 231.6,-24.35 232.04,-17.37"/>
<text text-anchor="middle" x="411.8" y="-57.8" font-family="Times,serif" font-size="14.00">(&#45;0.92388i)</text>
</g>
</g>
</svg>
