<?xml version="1.0" encoding="UTF-8" standalone="no"?>
<!DOCTYPE svg PUBLIC "-//W3C//DTD SVG 1.1//EN"
 "http://www.w3.org/Graphics/SVG/1.1/DTD/svg11.dtd">
<!-- Generated by graphviz version 2.44.1 (20200629.0846)
 -->
<!-- Title: DD Pages: 1 -->
<svg width="545pt" height="1190pt"
 viewBox="0.00 0.00 544.80 1189.97" xmlns="http://www.w3.org/2000/svg" xmlns:xlink="http://www.w3.org/1999/xlink">
<g id="graph0" class="graph" transform="scale(1 1) rotate(0) translate(4 1185.97)">
<title>DD</title>
<polygon fill="white" stroke="transparent" points="-4,4 -4,-1185.97 540.8,-1185.97 540.8,4 -4,4"/>
<!-- T -->
<g id="node1" class="node">
<title>T</title>
<polygon fill="none" stroke="black" points="167.8,-36 113.8,-36 113.8,0 167.8,0 167.8,-36"/>
<text text-anchor="middle" x="140.8" y="-14.3" font-family="Times,serif" font-size="14.00">1</text>
</g>
<!-- R -->
<g id="node2" class="node">
<title>R</title>
<ellipse fill="black" stroke="black" cx="440.8" cy="-1180.17" rx="1.8" ry="1.8"/>
</g>
<!-- 0 -->
<g id="node3" class="node">
<title>0</title>
<ellipse fill="lightgray" stroke="black" cx="440.8" cy="-1107.87" rx="19.5" ry="19.5"/>
<text text-anchor="middle" x="440.8" y="-1104.17" font-family="Times,serif" font-size="14.00">q8</text>
</g>
<!-- R&#45;&gt;0 -->
<g id="edge1" class="edge">
<title>R&#45;&gt;0</title>
<path fill="none" stroke="black" d="M440.8,-1178.18C440.8,-1173.67 440.8,-1154.65 440.8,-1137.67"/>
<polygon fill="black" stroke="black" points="444.3,-1137.51 440.8,-1127.51 437.3,-1137.51 444.3,-1137.51"/>
<text text-anchor="middle" x="466.8" y="-1149.17" font-family="Times,serif" font-size="14.00">(√½(1&#45;i))</text>
</g>
<!-- 0h0 -->
<g id="node4" class="node">
<title>0h0</title>
<ellipse fill="black" stroke="black" cx="374.8" cy="-1049.57" rx="1.8" ry="1.8"/>
</g>
<!-- 0&#45;&gt;0h0 -->
<g id="edge2" class="edge">
<title>0&#45;&gt;0h0</title>
<path fill="none" stroke="darkgreen" d="M426.15,-1094.38C408.53,-1079.35 380.67,-1055.58 375.6,-1051.26"/>
</g>
<!-- 0h1 -->
<g id="node5" class="node">
<title>0h1</title>
<ellipse fill="red" stroke="red" cx="428.8" cy="-1049.57" rx="1.8" ry="1.8"/>
</g>
<!-- 0&#45;&gt;0h1 -->
<g id="edge4" class="edge">
<title>0&#45;&gt;0h1</title>
<path fill="none" stroke="blue" d="M436.94,-1088.75C433.87,-1074.35 429.94,-1055.92 429.01,-1051.54"/>
</g>
<!-- 0h2 -->
<g id="node6" class="node">
<title>0h2</title>
<ellipse fill="black" stroke="black" cx="454.8" cy="-1049.57" rx="1.8" ry="1.8"/>
</g>
<!-- 0&#45;&gt;0h2 -->
<g id="edge5" class="edge">
<title>0&#45;&gt;0h2</title>
<path fill="none" stroke="red" d="M445.31,-1088.75C448.89,-1074.35 453.47,-1055.92 454.56,-1051.54"/>
</g>
<!-- 0h3 -->
<g id="node7" class="node">
<title>0h3</title>
<ellipse fill="red" stroke="red" cx="478.8" cy="-1049.57" rx="1.8" ry="1.8"/>
</g>
<!-- 0&#45;&gt;0h3 -->
<g id="edge7" class="edge">
<title>0&#45;&gt;0h3</title>
<path fill="none" stroke="gold" d="M451.39,-1091.19C461.22,-1076.61 474.83,-1056.45 478.08,-1051.63"/>
</g>
<!-- 1 -->
<g id="node8" class="node">
<title>1</title>
<ellipse fill="lightgray" stroke="black" cx="340.8" cy="-977.27" rx="19.5" ry="19.5"/>
<text text-anchor="middle" x="340.8" y="-973.57" font-family="Times,serif" font-size="14.00">q7</text>
</g>
<!-- 0h0&#45;&gt;1 -->
<g id="edge3" class="edge">
<title>0h0&#45;&gt;1</title>
<path fill="none" stroke="black" d="M374.42,-1047.78C372.34,-1043.48 362.14,-1022.41 353.52,-1004.58"/>
<polygon fill="black" stroke="black" points="356.46,-1002.61 348.95,-995.13 350.16,-1005.66 356.46,-1002.61"/>
<text text-anchor="middle" x="397.8" y="-1018.57" font-family="Times,serif" font-size="14.00"> (0.866025)</text>
</g>
<!-- 2 -->
<g id="node13" class="node">
<title>2</title>
<ellipse fill="lightgray" stroke="black" cx="470.8" cy="-977.27" rx="19.5" ry="19.5"/>
<text text-anchor="middle" x="470.8" y="-973.57" font-family="Times,serif" font-size="14.00">q7</text>
</g>
<!-- 0h2&#45;&gt;2 -->
<g id="edge6" class="edge">
<title>0h2&#45;&gt;2</title>
<path fill="none" stroke="black" d="M455.03,-1047.58C456.06,-1043.05 460.43,-1023.82 464.32,-1006.76"/>
<polygon fill="black" stroke="black" points="467.83,-1007.1 466.64,-996.57 461,-1005.55 467.83,-1007.1"/>
<text text-anchor="middle" x="499.8" y="-1018.57" font-family="Times,serif" font-size="14.00"> (&#45;√½ ½(1&#45;i))</text>
</g>
<!-- 1h0 -->
<g id="node9" class="node">
<title>1h0</title>
<ellipse fill="black" stroke="black" cx="271.8" cy="-918.98" rx="1.8" ry="1.8"/>
</g>
<!-- 1&#45;&gt;1h0 -->
<g id="edge8" class="edge">
<title>1&#45;&gt;1h0</title>
<path fill="none" stroke="darkgreen" d="M326.17,-964.33C307.81,-949.36 278.07,-925.1 272.66,-920.68"/>
</g>
<!-- 1h1 -->
<g id="node10" class="node">
<title>1h1</title>
<ellipse fill="red" stroke="red" cx="315.8" cy="-918.98" rx="1.8" ry="1.8"/>
</g>
<!-- 1&#45;&gt;1h1 -->
<g id="edge10" class="edge">
<title>1&#45;&gt;1h1</title>
<path fill="none" stroke="blue" d="M333.16,-959.08C326.73,-944.59 318.26,-925.52 316.24,-920.98"/>
</g>
<!-- 1h2 -->
<g id="node11" class="node">
<title>1h2</title>
<ellipse fill="black" stroke="black" cx="340.8" cy="-918.98" rx="1.8" ry="1.8"/>
</g>
<!-- 1&#45;&gt;1h2 -->
<g id="edge11" class="edge">
<title>1&#45;&gt;1h2</title>
<path fill="none" stroke="red" d="M340.8,-957.53C340.8,-943.2 340.8,-925.19 340.8,-920.92"/>
</g>
<!-- 1h3 -->
<g id="node12" class="node">
<title>1h3</title>
<ellipse fill="red" stroke="red" cx="365.8" cy="-918.98" rx="1.8" ry="1.8"/>
</g>
<!-- 1&#45;&gt;1h3 -->
<g id="edge13" class="edge">
<title>1&#45;&gt;1h3</title>
<path fill="none" stroke="gold" d="M348.44,-959.08C354.87,-944.59 363.34,-925.52 365.36,-920.98"/>
</g>
<!-- 3 -->
<g id="node18" class="node">
<title>3</title>
<ellipse fill="lightgray" stroke="black" cx="253.8" cy="-846.68" rx="19.5" ry="19.5"/>
<text text-anchor="middle" x="253.8" y="-842.98" font-family="Times,serif" font-size="14.00">q6</text>
</g>
<!-- 1h0&#45;&gt;3 -->
<g id="edge9" class="edge">
<title>1h0&#45;&gt;3</title>
<path fill="none" stroke="black" d="M271.6,-917.19C270.53,-913.03 265.45,-893.17 260.99,-875.74"/>
<polygon fill="black" stroke="black" points="264.34,-874.71 258.46,-865.9 257.55,-876.45 264.34,-874.71"/>
<text text-anchor="middle" x="299.8" y="-887.98" font-family="Times,serif" font-size="14.00"> (0.816497)</text>
</g>
<!-- 4 -->
<g id="node23" class="node">
<title>4</title>
<ellipse fill="lightgray" stroke="black" cx="341.8" cy="-846.68" rx="19.5" ry="19.5"/>
<text text-anchor="middle" x="341.8" y="-842.98" font-family="Times,serif" font-size="14.00">q6</text>
</g>
<!-- 1h2&#45;&gt;4 -->
<g id="edge12" class="edge">
<title>1h2&#45;&gt;4</title>
<path fill="none" stroke="black" d="M340.81,-916.98C340.88,-912.48 341.15,-893.45 341.39,-876.48"/>
<polygon fill="black" stroke="black" points="344.89,-876.37 341.53,-866.32 337.89,-876.27 344.89,-876.37"/>
<text text-anchor="middle" x="390.3" y="-887.98" font-family="Times,serif" font-size="14.00"> (&#45;0.408248(1+i))</text>
</g>
<!-- 2h0 -->
<g id="node14" class="node">
<title>2h0</title>
<ellipse fill="black" stroke="black" cx="446.8" cy="-918.98" rx="1.8" ry="1.8"/>
</g>
<!-- 2&#45;&gt;2h0 -->
<g id="edge14" class="edge">
<title>2&#45;&gt;2h0</title>
<path fill="none" stroke="darkgreen" d="M463.47,-959.08C457.29,-944.59 449.16,-925.52 447.23,-920.98"/>
</g>
<!-- 2h1 -->
<g id="node15" class="node">
<title>2h1</title>
<ellipse fill="red" stroke="red" cx="470.8" cy="-918.98" rx="1.8" ry="1.8"/>
</g>
<!-- 2&#45;&gt;2h1 -->
<g id="edge16" class="edge">
<title>2&#45;&gt;2h1</title>
<path fill="none" stroke="blue" d="M470.8,-957.53C470.8,-943.2 470.8,-925.19 470.8,-920.92"/>
</g>
<!-- 2h2 -->
<g id="node16" class="node">
<title>2h2</title>
<ellipse fill="red" stroke="red" cx="495.8" cy="-918.98" rx="1.8" ry="1.8"/>
</g>
<!-- 2&#45;&gt;2h2 -->
<g id="edge17" class="edge">
<title>2&#45;&gt;2h2</title>
<path fill="none" stroke="red" d="M478.44,-959.08C484.87,-944.59 493.34,-925.52 495.36,-920.98"/>
</g>
<!-- 2h3 -->
<g id="node17" class="node">
<title>2h3</title>
<ellipse fill="red" stroke="red" cx="520.8" cy="-918.98" rx="1.8" ry="1.8"/>
</g>
<!-- 2&#45;&gt;2h3 -->
<g id="edge18" class="edge">
<title>2&#45;&gt;2h3</title>
<path fill="none" stroke="gold" d="M483.42,-962.07C496.38,-947.47 515.28,-926.19 519.8,-921.1"/>
</g>
<!-- 5 -->
<g id="node28" class="node">
<title>5</title>
<ellipse fill="lightgray" stroke="black" cx="452.8" cy="-846.68" rx="19.5" ry="19.5"/>
<text text-anchor="middle" x="452.8" y="-842.98" font-family="Times,serif" font-size="14.00">q6</text>
</g>
<!-- 2h0&#45;&gt;5 -->
<g id="edge15" class="edge">
<title>2h0&#45;&gt;5</title>
<path fill="none" stroke="black" d="M446.88,-916.98C447.27,-912.48 448.89,-893.45 450.34,-876.48"/>
<polygon fill="black" stroke="black" points="453.85,-876.58 451.21,-866.32 446.87,-875.98 453.85,-876.58"/>
</g>
<!-- 3h0 -->
<g id="node19" class="node">
<title>3h0</title>
<ellipse fill="red" stroke="red" cx="203.8" cy="-788.38" rx="1.8" ry="1.8"/>
</g>
<!-- 3&#45;&gt;3h0 -->
<g id="edge19" class="edge">
<title>3&#45;&gt;3h0</title>
<path fill="none" stroke="darkgreen" d="M241.18,-831.47C228.22,-816.88 209.32,-795.6 204.8,-790.5"/>
</g>
<!-- 3h1 -->
<g id="node20" class="node">
<title>3h1</title>
<ellipse fill="red" stroke="red" cx="228.8" cy="-788.38" rx="1.8" ry="1.8"/>
</g>
<!-- 3&#45;&gt;3h1 -->
<g id="edge20" class="edge">
<title>3&#45;&gt;3h1</title>
<path fill="none" stroke="blue" d="M246.16,-828.48C239.73,-813.99 231.26,-794.92 229.24,-790.38"/>
</g>
<!-- 3h2 -->
<g id="node21" class="node">
<title>3h2</title>
<ellipse fill="black" stroke="black" cx="253.8" cy="-788.38" rx="1.8" ry="1.8"/>
</g>
<!-- 3&#45;&gt;3h2 -->
<g id="edge21" class="edge">
<title>3&#45;&gt;3h2</title>
<path fill="none" stroke="red" d="M253.8,-826.93C253.8,-812.6 253.8,-794.6 253.8,-790.32"/>
</g>
<!-- 3h3 -->
<g id="node22" class="node">
<title>3h3</title>
<ellipse fill="red" stroke="red" cx="278.8" cy="-788.38" rx="1.8" ry="1.8"/>
</g>
<!-- 3&#45;&gt;3h3 -->
<g id="edge23" class="edge">
<title>3&#45;&gt;3h3</title>
<path fill="none" stroke="gold" d="M261.44,-828.48C267.87,-813.99 276.34,-794.92 278.36,-790.38"/>
</g>
<!-- 6 -->
<g id="node33" class="node">
<title>6</title>
<ellipse fill="lightgray" stroke="black" cx="248.8" cy="-730.08" rx="19.5" ry="19.5"/>
<text text-anchor="middle" x="248.8" y="-726.38" font-family="Times,serif" font-size="14.00">q5</text>
</g>
<!-- 3h2&#45;&gt;6 -->
<g id="edge22" class="edge">
<title>3h2&#45;&gt;6</title>
<path fill="none" stroke="black" d="M253.71,-786.4C253.41,-783.04 252.39,-771.49 251.35,-759.81"/>
<polygon fill="black" stroke="black" points="254.83,-759.37 250.45,-749.72 247.85,-759.99 254.83,-759.37"/>
</g>
<!-- 4h0 -->
<g id="node24" class="node">
<title>4h0</title>
<ellipse fill="black" stroke="black" cx="317.8" cy="-788.38" rx="1.8" ry="1.8"/>
</g>
<!-- 4&#45;&gt;4h0 -->
<g id="edge24" class="edge">
<title>4&#45;&gt;4h0</title>
<path fill="none" stroke="darkgreen" d="M334.47,-828.48C328.29,-813.99 320.16,-794.92 318.23,-790.38"/>
</g>
<!-- 4h1 -->
<g id="node25" class="node">
<title>4h1</title>
<ellipse fill="red" stroke="red" cx="341.8" cy="-788.38" rx="1.8" ry="1.8"/>
</g>
<!-- 4&#45;&gt;4h1 -->
<g id="edge26" class="edge">
<title>4&#45;&gt;4h1</title>
<path fill="none" stroke="blue" d="M341.8,-826.93C341.8,-812.6 341.8,-794.6 341.8,-790.32"/>
</g>
<!-- 4h2 -->
<g id="node26" class="node">
<title>4h2</title>
<ellipse fill="red" stroke="red" cx="366.8" cy="-788.38" rx="1.8" ry="1.8"/>
</g>
<!-- 4&#45;&gt;4h2 -->
<g id="edge27" class="edge">
<title>4&#45;&gt;4h2</title>
<path fill="none" stroke="red" d="M349.44,-828.48C355.87,-813.99 364.34,-794.92 366.36,-790.38"/>
</g>
<!-- 4h3 -->
<g id="node27" class="node">
<title>4h3</title>
<ellipse fill="red" stroke="red" cx="391.8" cy="-788.38" rx="1.8" ry="1.8"/>
</g>
<!-- 4&#45;&gt;4h3 -->
<g id="edge28" class="edge">
<title>4&#45;&gt;4h3</title>
<path fill="none" stroke="gold" d="M354.42,-831.47C367.38,-816.88 386.28,-795.6 390.8,-790.5"/>
</g>
<!-- 7 -->
<g id="node38" class="node">
<title>7</title>
<ellipse fill="lightgray" stroke="black" cx="323.8" cy="-730.08" rx="19.5" ry="19.5"/>
<text text-anchor="middle" x="323.8" y="-726.38" font-family="Times,serif" font-size="14.00">q5</text>
</g>
<!-- 4h0&#45;&gt;7 -->
<g id="edge25" class="edge">
<title>4h0&#45;&gt;7</title>
<path fill="none" stroke="black" d="M317.9,-786.4C318.26,-783.04 319.49,-771.49 320.74,-759.81"/>
<polygon fill="black" stroke="black" points="324.23,-760.03 321.81,-749.72 317.27,-759.29 324.23,-760.03"/>
</g>
<!-- 5h0 -->
<g id="node29" class="node">
<title>5h0</title>
<ellipse fill="black" stroke="black" cx="424.8" cy="-788.38" rx="1.8" ry="1.8"/>
</g>
<!-- 5&#45;&gt;5h0 -->
<g id="edge29" class="edge">
<title>5&#45;&gt;5h0</title>
<path fill="none" stroke="darkgreen" d="M444.4,-828.79C437.18,-814.28 427.59,-794.99 425.3,-790.39"/>
</g>
<!-- 5h1 -->
<g id="node30" class="node">
<title>5h1</title>
<ellipse fill="red" stroke="red" cx="449.8" cy="-788.38" rx="1.8" ry="1.8"/>
</g>
<!-- 5&#45;&gt;5h1 -->
<g id="edge31" class="edge">
<title>5&#45;&gt;5h1</title>
<path fill="none" stroke="blue" d="M451.8,-826.93C451.04,-812.6 450.08,-794.6 449.85,-790.32"/>
</g>
<!-- 5h2 -->
<g id="node31" class="node">
<title>5h2</title>
<ellipse fill="red" stroke="red" cx="474.8" cy="-788.38" rx="1.8" ry="1.8"/>
</g>
<!-- 5&#45;&gt;5h2 -->
<g id="edge32" class="edge">
<title>5&#45;&gt;5h2</title>
<path fill="none" stroke="red" d="M459.64,-828.17C465.29,-813.71 472.66,-794.86 474.41,-790.37"/>
</g>
<!-- 5h3 -->
<g id="node32" class="node">
<title>5h3</title>
<ellipse fill="red" stroke="red" cx="499.8" cy="-788.38" rx="1.8" ry="1.8"/>
</g>
<!-- 5&#45;&gt;5h3 -->
<g id="edge33" class="edge">
<title>5&#45;&gt;5h3</title>
<path fill="none" stroke="gold" d="M464.9,-831.18C477.09,-816.58 494.67,-795.53 498.87,-790.49"/>
</g>
<!-- 8 -->
<g id="node43" class="node">
<title>8</title>
<ellipse fill="lightgray" stroke="black" cx="424.8" cy="-730.08" rx="19.5" ry="19.5"/>
<text text-anchor="middle" x="424.8" y="-726.38" font-family="Times,serif" font-size="14.00">q5</text>
</g>
<!-- 5h0&#45;&gt;8 -->
<g id="edge30" class="edge">
<title>5h0&#45;&gt;8</title>
<path fill="none" stroke="black" d="M424.8,-786.4C424.8,-783.04 424.8,-771.49 424.8,-759.81"/>
<polygon fill="black" stroke="black" points="428.3,-759.72 424.8,-749.72 421.3,-759.72 428.3,-759.72"/>
</g>
<!-- 6h0 -->
<g id="node34" class="node">
<title>6h0</title>
<ellipse fill="black" stroke="black" cx="198.8" cy="-671.78" rx="1.8" ry="1.8"/>
</g>
<!-- 6&#45;&gt;6h0 -->
<g id="edge34" class="edge">
<title>6&#45;&gt;6h0</title>
<path fill="none" stroke="darkgreen" d="M236.18,-714.87C223.22,-700.28 204.32,-679 199.8,-673.91"/>
</g>
<!-- 6h1 -->
<g id="node35" class="node">
<title>6h1</title>
<ellipse fill="red" stroke="red" cx="223.8" cy="-671.78" rx="1.8" ry="1.8"/>
</g>
<!-- 6&#45;&gt;6h1 -->
<g id="edge36" class="edge">
<title>6&#45;&gt;6h1</title>
<path fill="none" stroke="blue" d="M241.16,-711.88C234.73,-697.4 226.26,-678.33 224.24,-673.78"/>
</g>
<!-- 6h2 -->
<g id="node36" class="node">
<title>6h2</title>
<ellipse fill="red" stroke="red" cx="248.8" cy="-671.78" rx="1.8" ry="1.8"/>
</g>
<!-- 6&#45;&gt;6h2 -->
<g id="edge37" class="edge">
<title>6&#45;&gt;6h2</title>
<path fill="none" stroke="red" d="M248.8,-710.33C248.8,-696 248.8,-678 248.8,-673.72"/>
</g>
<!-- 6h3 -->
<g id="node37" class="node">
<title>6h3</title>
<ellipse fill="red" stroke="red" cx="273.8" cy="-671.78" rx="1.8" ry="1.8"/>
</g>
<!-- 6&#45;&gt;6h3 -->
<g id="edge38" class="edge">
<title>6&#45;&gt;6h3</title>
<path fill="none" stroke="gold" d="M256.44,-711.88C262.87,-697.4 271.34,-678.33 273.36,-673.78"/>
</g>
<!-- 9 -->
<g id="node48" class="node">
<title>9</title>
<ellipse fill="lightgray" stroke="black" cx="198.8" cy="-613.48" rx="19.5" ry="19.5"/>
<text text-anchor="middle" x="198.8" y="-609.78" font-family="Times,serif" font-size="14.00">q4</text>
</g>
<!-- 6h0&#45;&gt;9 -->
<g id="edge35" class="edge">
<title>6h0&#45;&gt;9</title>
<path fill="none" stroke="black" d="M198.8,-669.81C198.8,-666.44 198.8,-654.89 198.8,-643.21"/>
<polygon fill="black" stroke="black" points="202.3,-643.12 198.8,-633.12 195.3,-643.12 202.3,-643.12"/>
</g>
<!-- 7h0 -->
<g id="node39" class="node">
<title>7h0</title>
<ellipse fill="black" stroke="black" cx="298.8" cy="-671.78" rx="1.8" ry="1.8"/>
</g>
<!-- 7&#45;&gt;7h0 -->
<g id="edge39" class="edge">
<title>7&#45;&gt;7h0</title>
<path fill="none" stroke="darkgreen" d="M316.16,-711.88C309.73,-697.4 301.26,-678.33 299.24,-673.78"/>
</g>
<!-- 7h1 -->
<g id="node40" class="node">
<title>7h1</title>
<ellipse fill="red" stroke="red" cx="323.8" cy="-671.78" rx="1.8" ry="1.8"/>
</g>
<!-- 7&#45;&gt;7h1 -->
<g id="edge41" class="edge">
<title>7&#45;&gt;7h1</title>
<path fill="none" stroke="blue" d="M323.8,-710.33C323.8,-696 323.8,-678 323.8,-673.72"/>
</g>
<!-- 7h2 -->
<g id="node41" class="node">
<title>7h2</title>
<ellipse fill="red" stroke="red" cx="348.8" cy="-671.78" rx="1.8" ry="1.8"/>
</g>
<!-- 7&#45;&gt;7h2 -->
<g id="edge42" class="edge">
<title>7&#45;&gt;7h2</title>
<path fill="none" stroke="red" d="M331.44,-711.88C337.87,-697.4 346.34,-678.33 348.36,-673.78"/>
</g>
<!-- 7h3 -->
<g id="node42" class="node">
<title>7h3</title>
<ellipse fill="red" stroke="red" cx="373.8" cy="-671.78" rx="1.8" ry="1.8"/>
</g>
<!-- 7&#45;&gt;7h3 -->
<g id="edge43" class="edge">
<title>7&#45;&gt;7h3</title>
<path fill="none" stroke="gold" d="M336.42,-714.87C349.38,-700.28 368.28,-679 372.8,-673.91"/>
</g>
<!-- 10 -->
<g id="node53" class="node">
<title>10</title>
<ellipse fill="lightgray" stroke="black" cx="298.8" cy="-613.48" rx="19.5" ry="19.5"/>
<text text-anchor="middle" x="298.8" y="-609.78" font-family="Times,serif" font-size="14.00">q4</text>
</g>
<!-- 7h0&#45;&gt;10 -->
<g id="edge40" class="edge">
<title>7h0&#45;&gt;10</title>
<path fill="none" stroke="black" d="M298.8,-669.81C298.8,-666.44 298.8,-654.89 298.8,-643.21"/>
<polygon fill="black" stroke="black" points="302.3,-643.12 298.8,-633.12 295.3,-643.12 302.3,-643.12"/>
</g>
<!-- 8h0 -->
<g id="node44" class="node">
<title>8h0</title>
<ellipse fill="black" stroke="black" cx="398.8" cy="-671.78" rx="1.8" ry="1.8"/>
</g>
<!-- 8&#45;&gt;8h0 -->
<g id="edge44" class="edge">
<title>8&#45;&gt;8h0</title>
<path fill="none" stroke="darkgreen" d="M417,-712.19C410.3,-697.68 401.39,-678.39 399.27,-673.8"/>
</g>
<!-- 8h1 -->
<g id="node45" class="node">
<title>8h1</title>
<ellipse fill="red" stroke="red" cx="423.8" cy="-671.78" rx="1.8" ry="1.8"/>
</g>
<!-- 8&#45;&gt;8h1 -->
<g id="edge46" class="edge">
<title>8&#45;&gt;8h1</title>
<path fill="none" stroke="blue" d="M424.47,-710.33C424.21,-696 423.89,-678 423.82,-673.72"/>
</g>
<!-- 8h2 -->
<g id="node46" class="node">
<title>8h2</title>
<ellipse fill="red" stroke="red" cx="448.8" cy="-671.78" rx="1.8" ry="1.8"/>
</g>
<!-- 8&#45;&gt;8h2 -->
<g id="edge47" class="edge">
<title>8&#45;&gt;8h2</title>
<path fill="none" stroke="red" d="M432.13,-711.88C438.31,-697.4 446.44,-678.33 448.37,-673.78"/>
</g>
<!-- 8h3 -->
<g id="node47" class="node">
<title>8h3</title>
<ellipse fill="red" stroke="red" cx="473.8" cy="-671.78" rx="1.8" ry="1.8"/>
</g>
<!-- 8&#45;&gt;8h3 -->
<g id="edge48" class="edge">
<title>8&#45;&gt;8h3</title>
<path fill="none" stroke="gold" d="M437.16,-714.87C449.87,-700.28 468.39,-679 472.82,-673.91"/>
</g>
<!-- 11 -->
<g id="node58" class="node">
<title>11</title>
<ellipse fill="lightgray" stroke="black" cx="398.8" cy="-613.48" rx="19.5" ry="19.5"/>
<text text-anchor="middle" x="398.8" y="-609.78" font-family="Times,serif" font-size="14.00">q4</text>
</g>
<!-- 8h0&#45;&gt;11 -->
<g id="edge45" class="edge">
<title>8h0&#45;&gt;11</title>
<path fill="none" stroke="black" d="M398.8,-669.81C398.8,-666.44 398.8,-654.89 398.8,-643.21"/>
<polygon fill="black" stroke="black" points="402.3,-643.12 398.8,-633.12 395.3,-643.12 402.3,-643.12"/>
</g>
<!-- 9h0 -->
<g id="node49" class="node">
<title>9h0</title>
<ellipse fill="black" stroke="black" cx="161.8" cy="-555.19" rx="1.8" ry="1.8"/>
</g>
<!-- 9&#45;&gt;9h0 -->
<g id="edge49" class="edge">
<title>9&#45;&gt;9h0</title>
<path fill="none" stroke="darkgreen" d="M188.49,-596.8C178.91,-582.23 165.66,-562.06 162.5,-557.25"/>
</g>
<!-- 9h1 -->
<g id="node50" class="node">
<title>9h1</title>
<ellipse fill="red" stroke="red" cx="186.8" cy="-555.19" rx="1.8" ry="1.8"/>
</g>
<!-- 9&#45;&gt;9h1 -->
<g id="edge51" class="edge">
<title>9&#45;&gt;9h1</title>
<path fill="none" stroke="blue" d="M194.94,-594.36C191.87,-579.96 187.94,-561.53 187.01,-557.15"/>
</g>
<!-- 9h2 -->
<g id="node51" class="node">
<title>9h2</title>
<ellipse fill="red" stroke="red" cx="211.8" cy="-555.19" rx="1.8" ry="1.8"/>
</g>
<!-- 9&#45;&gt;9h2 -->
<g id="edge52" class="edge">
<title>9&#45;&gt;9h2</title>
<path fill="none" stroke="red" d="M202.98,-594.36C206.31,-579.96 210.57,-561.53 211.58,-557.15"/>
</g>
<!-- 9h3 -->
<g id="node52" class="node">
<title>9h3</title>
<ellipse fill="red" stroke="red" cx="236.8" cy="-555.19" rx="1.8" ry="1.8"/>
</g>
<!-- 9&#45;&gt;9h3 -->
<g id="edge53" class="edge">
<title>9&#45;&gt;9h3</title>
<path fill="none" stroke="gold" d="M209.39,-596.8C219.22,-582.23 232.83,-562.06 236.08,-557.25"/>
</g>
<!-- 12 -->
<g id="node63" class="node">
<title>12</title>
<ellipse fill="lightgray" stroke="black" cx="161.8" cy="-496.89" rx="19.5" ry="19.5"/>
<text text-anchor="middle" x="161.8" y="-493.19" font-family="Times,serif" font-size="14.00">q3</text>
</g>
<!-- 9h0&#45;&gt;12 -->
<g id="edge50" class="edge">
<title>9h0&#45;&gt;12</title>
<path fill="none" stroke="black" d="M161.8,-553.21C161.8,-549.84 161.8,-538.3 161.8,-526.62"/>
<polygon fill="black" stroke="black" points="165.3,-526.52 161.8,-516.52 158.3,-526.52 165.3,-526.52"/>
</g>
<!-- 10h0 -->
<g id="node54" class="node">
<title>10h0</title>
<ellipse fill="black" stroke="black" cx="261.8" cy="-555.19" rx="1.8" ry="1.8"/>
</g>
<!-- 10&#45;&gt;10h0 -->
<g id="edge54" class="edge">
<title>10&#45;&gt;10h0</title>
<path fill="none" stroke="darkgreen" d="M288.49,-596.8C278.91,-582.23 265.66,-562.06 262.5,-557.25"/>
</g>
<!-- 10h1 -->
<g id="node55" class="node">
<title>10h1</title>
<ellipse fill="red" stroke="red" cx="286.8" cy="-555.19" rx="1.8" ry="1.8"/>
</g>
<!-- 10&#45;&gt;10h1 -->
<g id="edge56" class="edge">
<title>10&#45;&gt;10h1</title>
<path fill="none" stroke="blue" d="M294.94,-594.36C291.87,-579.96 287.94,-561.53 287.01,-557.15"/>
</g>
<!-- 10h2 -->
<g id="node56" class="node">
<title>10h2</title>
<ellipse fill="red" stroke="red" cx="311.8" cy="-555.19" rx="1.8" ry="1.8"/>
</g>
<!-- 10&#45;&gt;10h2 -->
<g id="edge57" class="edge">
<title>10&#45;&gt;10h2</title>
<path fill="none" stroke="red" d="M302.98,-594.36C306.31,-579.96 310.57,-561.53 311.58,-557.15"/>
</g>
<!-- 10h3 -->
<g id="node57" class="node">
<title>10h3</title>
<ellipse fill="red" stroke="red" cx="336.8" cy="-555.19" rx="1.8" ry="1.8"/>
</g>
<!-- 10&#45;&gt;10h3 -->
<g id="edge58" class="edge">
<title>10&#45;&gt;10h3</title>
<path fill="none" stroke="gold" d="M309.39,-596.8C319.22,-582.23 332.83,-562.06 336.08,-557.25"/>
</g>
<!-- 13 -->
<g id="node68" class="node">
<title>13</title>
<ellipse fill="lightgray" stroke="black" cx="261.8" cy="-496.89" rx="19.5" ry="19.5"/>
<text text-anchor="middle" x="261.8" y="-493.19" font-family="Times,serif" font-size="14.00">q3</text>
</g>
<!-- 10h0&#45;&gt;13 -->
<g id="edge55" class="edge">
<title>10h0&#45;&gt;13</title>
<path fill="none" stroke="black" d="M261.8,-553.21C261.8,-549.84 261.8,-538.3 261.8,-526.62"/>
<polygon fill="black" stroke="black" points="265.3,-526.52 261.8,-516.52 258.3,-526.52 265.3,-526.52"/>
</g>
<!-- 11h0 -->
<g id="node59" class="node">
<title>11h0</title>
<ellipse fill="black" stroke="black" cx="361.8" cy="-555.19" rx="1.8" ry="1.8"/>
</g>
<!-- 11&#45;&gt;11h0 -->
<g id="edge59" class="edge">
<title>11&#45;&gt;11h0</title>
<path fill="none" stroke="darkgreen" d="M388.49,-596.8C378.91,-582.23 365.66,-562.06 362.5,-557.25"/>
</g>
<!-- 11h1 -->
<g id="node60" class="node">
<title>11h1</title>
<ellipse fill="red" stroke="red" cx="386.8" cy="-555.19" rx="1.8" ry="1.8"/>
</g>
<!-- 11&#45;&gt;11h1 -->
<g id="edge61" class="edge">
<title>11&#45;&gt;11h1</title>
<path fill="none" stroke="blue" d="M394.94,-594.36C391.87,-579.96 387.94,-561.53 387.01,-557.15"/>
</g>
<!-- 11h2 -->
<g id="node61" class="node">
<title>11h2</title>
<ellipse fill="red" stroke="red" cx="411.8" cy="-555.19" rx="1.8" ry="1.8"/>
</g>
<!-- 11&#45;&gt;11h2 -->
<g id="edge62" class="edge">
<title>11&#45;&gt;11h2</title>
<path fill="none" stroke="red" d="M402.98,-594.36C406.31,-579.96 410.57,-561.53 411.58,-557.15"/>
</g>
<!-- 11h3 -->
<g id="node62" class="node">
<title>11h3</title>
<ellipse fill="red" stroke="red" cx="436.8" cy="-555.19" rx="1.8" ry="1.8"/>
</g>
<!-- 11&#45;&gt;11h3 -->
<g id="edge63" class="edge">
<title>11&#45;&gt;11h3</title>
<path fill="none" stroke="gold" d="M409.39,-596.8C419.22,-582.23 432.83,-562.06 436.08,-557.25"/>
</g>
<!-- 14 -->
<g id="node73" class="node">
<title>14</title>
<ellipse fill="lightgray" stroke="black" cx="361.8" cy="-496.89" rx="19.5" ry="19.5"/>
<text text-anchor="middle" x="361.8" y="-493.19" font-family="Times,serif" font-size="14.00">q3</text>
</g>
<!-- 11h0&#45;&gt;14 -->
<g id="edge60" class="edge">
<title>11h0&#45;&gt;14</title>
<path fill="none" stroke="black" d="M361.8,-553.21C361.8,-549.84 361.8,-538.3 361.8,-526.62"/>
<polygon fill="black" stroke="black" points="365.3,-526.52 361.8,-516.52 358.3,-526.52 365.3,-526.52"/>
</g>
<!-- 12h0 -->
<g id="node64" class="node">
<title>12h0</title>
<ellipse fill="black" stroke="black" cx="124.8" cy="-438.59" rx="1.8" ry="1.8"/>
</g>
<!-- 12&#45;&gt;12h0 -->
<g id="edge64" class="edge">
<title>12&#45;&gt;12h0</title>
<path fill="none" stroke="darkgreen" d="M151.49,-480.21C141.91,-465.63 128.66,-445.47 125.5,-440.65"/>
</g>
<!-- 12h1 -->
<g id="node65" class="node">
<title>12h1</title>
<ellipse fill="red" stroke="red" cx="149.8" cy="-438.59" rx="1.8" ry="1.8"/>
</g>
<!-- 12&#45;&gt;12h1 -->
<g id="edge66" class="edge">
<title>12&#45;&gt;12h1</title>
<path fill="none" stroke="blue" d="M157.94,-477.76C154.87,-463.36 150.94,-444.94 150.01,-440.55"/>
</g>
<!-- 12h2 -->
<g id="node66" class="node">
<title>12h2</title>
<ellipse fill="red" stroke="red" cx="174.8" cy="-438.59" rx="1.8" ry="1.8"/>
</g>
<!-- 12&#45;&gt;12h2 -->
<g id="edge67" class="edge">
<title>12&#45;&gt;12h2</title>
<path fill="none" stroke="red" d="M165.98,-477.76C169.31,-463.36 173.57,-444.94 174.58,-440.55"/>
</g>
<!-- 12h3 -->
<g id="node67" class="node">
<title>12h3</title>
<ellipse fill="red" stroke="red" cx="199.8" cy="-438.59" rx="1.8" ry="1.8"/>
</g>
<!-- 12&#45;&gt;12h3 -->
<g id="edge68" class="edge">
<title>12&#45;&gt;12h3</title>
<path fill="none" stroke="gold" d="M172.39,-480.21C182.22,-465.63 195.83,-445.47 199.08,-440.65"/>
</g>
<!-- 15 -->
<g id="node78" class="node">
<title>15</title>
<ellipse fill="lightgray" stroke="black" cx="124.8" cy="-380.29" rx="19.5" ry="19.5"/>
<text text-anchor="middle" x="124.8" y="-376.59" font-family="Times,serif" font-size="14.00">q2</text>
</g>
<!-- 12h0&#45;&gt;15 -->
<g id="edge65" class="edge">
<title>12h0&#45;&gt;15</title>
<path fill="none" stroke="black" d="M124.8,-436.61C124.8,-433.25 124.8,-421.7 124.8,-410.02"/>
<polygon fill="black" stroke="black" points="128.3,-409.93 124.8,-399.93 121.3,-409.93 128.3,-409.93"/>
</g>
<!-- 13h0 -->
<g id="node69" class="node">
<title>13h0</title>
<ellipse fill="black" stroke="black" cx="224.8" cy="-438.59" rx="1.8" ry="1.8"/>
</g>
<!-- 13&#45;&gt;13h0 -->
<g id="edge69" class="edge">
<title>13&#45;&gt;13h0</title>
<path fill="none" stroke="darkgreen" d="M251.49,-480.21C241.91,-465.63 228.66,-445.47 225.5,-440.65"/>
</g>
<!-- 13h1 -->
<g id="node70" class="node">
<title>13h1</title>
<ellipse fill="red" stroke="red" cx="249.8" cy="-438.59" rx="1.8" ry="1.8"/>
</g>
<!-- 13&#45;&gt;13h1 -->
<g id="edge71" class="edge">
<title>13&#45;&gt;13h1</title>
<path fill="none" stroke="blue" d="M257.94,-477.76C254.87,-463.36 250.94,-444.94 250.01,-440.55"/>
</g>
<!-- 13h2 -->
<g id="node71" class="node">
<title>13h2</title>
<ellipse fill="red" stroke="red" cx="274.8" cy="-438.59" rx="1.8" ry="1.8"/>
</g>
<!-- 13&#45;&gt;13h2 -->
<g id="edge72" class="edge">
<title>13&#45;&gt;13h2</title>
<path fill="none" stroke="red" d="M265.98,-477.76C269.31,-463.36 273.57,-444.94 274.58,-440.55"/>
</g>
<!-- 13h3 -->
<g id="node72" class="node">
<title>13h3</title>
<ellipse fill="red" stroke="red" cx="299.8" cy="-438.59" rx="1.8" ry="1.8"/>
</g>
<!-- 13&#45;&gt;13h3 -->
<g id="edge73" class="edge">
<title>13&#45;&gt;13h3</title>
<path fill="none" stroke="gold" d="M272.39,-480.21C282.22,-465.63 295.83,-445.47 299.08,-440.65"/>
</g>
<!-- 16 -->
<g id="node83" class="node">
<title>16</title>
<ellipse fill="lightgray" stroke="black" cx="224.8" cy="-380.29" rx="19.5" ry="19.5"/>
<text text-anchor="middle" x="224.8" y="-376.59" font-family="Times,serif" font-size="14.00">q2</text>
</g>
<!-- 13h0&#45;&gt;16 -->
<g id="edge70" class="edge">
<title>13h0&#45;&gt;16</title>
<path fill="none" stroke="black" d="M224.8,-436.61C224.8,-433.25 224.8,-421.7 224.8,-410.02"/>
<polygon fill="black" stroke="black" points="228.3,-409.93 224.8,-399.93 221.3,-409.93 228.3,-409.93"/>
</g>
<!-- 14h0 -->
<g id="node74" class="node">
<title>14h0</title>
<ellipse fill="black" stroke="black" cx="324.8" cy="-438.59" rx="1.8" ry="1.8"/>
</g>
<!-- 14&#45;&gt;14h0 -->
<g id="edge74" class="edge">
<title>14&#45;&gt;14h0</title>
<path fill="none" stroke="darkgreen" d="M351.49,-480.21C341.91,-465.63 328.66,-445.47 325.5,-440.65"/>
</g>
<!-- 14h1 -->
<g id="node75" class="node">
<title>14h1</title>
<ellipse fill="red" stroke="red" cx="349.8" cy="-438.59" rx="1.8" ry="1.8"/>
</g>
<!-- 14&#45;&gt;14h1 -->
<g id="edge76" class="edge">
<title>14&#45;&gt;14h1</title>
<path fill="none" stroke="blue" d="M357.94,-477.76C354.87,-463.36 350.94,-444.94 350.01,-440.55"/>
</g>
<!-- 14h2 -->
<g id="node76" class="node">
<title>14h2</title>
<ellipse fill="red" stroke="red" cx="374.8" cy="-438.59" rx="1.8" ry="1.8"/>
</g>
<!-- 14&#45;&gt;14h2 -->
<g id="edge77" class="edge">
<title>14&#45;&gt;14h2</title>
<path fill="none" stroke="red" d="M365.98,-477.76C369.31,-463.36 373.57,-444.94 374.58,-440.55"/>
</g>
<!-- 14h3 -->
<g id="node77" class="node">
<title>14h3</title>
<ellipse fill="red" stroke="red" cx="399.8" cy="-438.59" rx="1.8" ry="1.8"/>
</g>
<!-- 14&#45;&gt;14h3 -->
<g id="edge78" class="edge">
<title>14&#45;&gt;14h3</title>
<path fill="none" stroke="gold" d="M372.39,-480.21C382.22,-465.63 395.83,-445.47 399.08,-440.65"/>
</g>
<!-- 17 -->
<g id="node88" class="node">
<title>17</title>
<ellipse fill="lightgray" stroke="black" cx="324.8" cy="-380.29" rx="19.5" ry="19.5"/>
<text text-anchor="middle" x="324.8" y="-376.59" font-family="Times,serif" font-size="14.00">q2</text>
</g>
<!-- 14h0&#45;&gt;17 -->
<g id="edge75" class="edge">
<title>14h0&#45;&gt;17</title>
<path fill="none" stroke="black" d="M324.8,-436.61C324.8,-433.25 324.8,-421.7 324.8,-410.02"/>
<polygon fill="black" stroke="black" points="328.3,-409.93 324.8,-399.93 321.3,-409.93 328.3,-409.93"/>
</g>
<!-- 15h0 -->
<g id="node79" class="node">
<title>15h0</title>
<ellipse fill="black" stroke="black" cx="87.8" cy="-321.99" rx="1.8" ry="1.8"/>
</g>
<!-- 15&#45;&gt;15h0 -->
<g id="edge79" class="edge">
<title>15&#45;&gt;15h0</title>
<path fill="none" stroke="darkgreen" d="M114.49,-363.61C104.91,-349.03 91.66,-328.87 88.5,-324.06"/>
</g>
<!-- 15h1 -->
<g id="node80" class="node">
<title>15h1</title>
<ellipse fill="red" stroke="red" cx="112.8" cy="-321.99" rx="1.8" ry="1.8"/>
</g>
<!-- 15&#45;&gt;15h1 -->
<g id="edge81" class="edge">
<title>15&#45;&gt;15h1</title>
<path fill="none" stroke="blue" d="M120.94,-361.17C117.87,-346.77 113.94,-328.34 113.01,-323.96"/>
</g>
<!-- 15h2 -->
<g id="node81" class="node">
<title>15h2</title>
<ellipse fill="red" stroke="red" cx="137.8" cy="-321.99" rx="1.8" ry="1.8"/>
</g>
<!-- 15&#45;&gt;15h2 -->
<g id="edge82" class="edge">
<title>15&#45;&gt;15h2</title>
<path fill="none" stroke="red" d="M128.98,-361.17C132.31,-346.77 136.57,-328.34 137.58,-323.96"/>
</g>
<!-- 15h3 -->
<g id="node82" class="node">
<title>15h3</title>
<ellipse fill="red" stroke="red" cx="162.8" cy="-321.99" rx="1.8" ry="1.8"/>
</g>
<!-- 15&#45;&gt;15h3 -->
<g id="edge83" class="edge">
<title>15&#45;&gt;15h3</title>
<path fill="none" stroke="gold" d="M135.39,-363.61C145.22,-349.03 158.83,-328.87 162.08,-324.06"/>
</g>
<!-- 18 -->
<g id="node93" class="node">
<title>18</title>
<ellipse fill="lightgray" stroke="black" cx="87.8" cy="-263.69" rx="19.5" ry="19.5"/>
<text text-anchor="middle" x="87.8" y="-259.99" font-family="Times,serif" font-size="14.00">q1</text>
</g>
<!-- 15h0&#45;&gt;18 -->
<g id="edge80" class="edge">
<title>15h0&#45;&gt;18</title>
<path fill="none" stroke="black" d="M87.8,-320.02C87.8,-316.65 87.8,-305.1 87.8,-293.42"/>
<polygon fill="black" stroke="black" points="91.3,-293.33 87.8,-283.33 84.3,-293.33 91.3,-293.33"/>
</g>
<!-- 16h0 -->
<g id="node84" class="node">
<title>16h0</title>
<ellipse fill="black" stroke="black" cx="187.8" cy="-321.99" rx="1.8" ry="1.8"/>
</g>
<!-- 16&#45;&gt;16h0 -->
<g id="edge84" class="edge">
<title>16&#45;&gt;16h0</title>
<path fill="none" stroke="darkgreen" d="M214.49,-363.61C204.91,-349.03 191.66,-328.87 188.5,-324.06"/>
</g>
<!-- 16h1 -->
<g id="node85" class="node">
<title>16h1</title>
<ellipse fill="red" stroke="red" cx="212.8" cy="-321.99" rx="1.8" ry="1.8"/>
</g>
<!-- 16&#45;&gt;16h1 -->
<g id="edge86" class="edge">
<title>16&#45;&gt;16h1</title>
<path fill="none" stroke="blue" d="M220.94,-361.17C217.87,-346.77 213.94,-328.34 213.01,-323.96"/>
</g>
<!-- 16h2 -->
<g id="node86" class="node">
<title>16h2</title>
<ellipse fill="red" stroke="red" cx="237.8" cy="-321.99" rx="1.8" ry="1.8"/>
</g>
<!-- 16&#45;&gt;16h2 -->
<g id="edge87" class="edge">
<title>16&#45;&gt;16h2</title>
<path fill="none" stroke="red" d="M228.98,-361.17C232.31,-346.77 236.57,-328.34 237.58,-323.96"/>
</g>
<!-- 16h3 -->
<g id="node87" class="node">
<title>16h3</title>
<ellipse fill="red" stroke="red" cx="262.8" cy="-321.99" rx="1.8" ry="1.8"/>
</g>
<!-- 16&#45;&gt;16h3 -->
<g id="edge88" class="edge">
<title>16&#45;&gt;16h3</title>
<path fill="none" stroke="gold" d="M235.39,-363.61C245.22,-349.03 258.83,-328.87 262.08,-324.06"/>
</g>
<!-- 19 -->
<g id="node98" class="node">
<title>19</title>
<ellipse fill="lightgray" stroke="black" cx="187.8" cy="-263.69" rx="19.5" ry="19.5"/>
<text text-anchor="middle" x="187.8" y="-259.99" font-family="Times,serif" font-size="14.00">q1</text>
</g>
<!-- 16h0&#45;&gt;19 -->
<g id="edge85" class="edge">
<title>16h0&#45;&gt;19</title>
<path fill="none" stroke="black" d="M187.8,-320.02C187.8,-316.65 187.8,-305.1 187.8,-293.42"/>
<polygon fill="black" stroke="black" points="191.3,-293.33 187.8,-283.33 184.3,-293.33 191.3,-293.33"/>
</g>
<!-- 17h0 -->
<g id="node89" class="node">
<title>17h0</title>
<ellipse fill="black" stroke="black" cx="287.8" cy="-321.99" rx="1.8" ry="1.8"/>
</g>
<!-- 17&#45;&gt;17h0 -->
<g id="edge89" class="edge">
<title>17&#45;&gt;17h0</title>
<path fill="none" stroke="darkgreen" d="M314.49,-363.61C304.91,-349.03 291.66,-328.87 288.5,-324.06"/>
</g>
<!-- 17h1 -->
<g id="node90" class="node">
<title>17h1</title>
<ellipse fill="red" stroke="red" cx="312.8" cy="-321.99" rx="1.8" ry="1.8"/>
</g>
<!-- 17&#45;&gt;17h1 -->
<g id="edge91" class="edge">
<title>17&#45;&gt;17h1</title>
<path fill="none" stroke="blue" d="M320.94,-361.17C317.87,-346.77 313.94,-328.34 313.01,-323.96"/>
</g>
<!-- 17h2 -->
<g id="node91" class="node">
<title>17h2</title>
<ellipse fill="red" stroke="red" cx="337.8" cy="-321.99" rx="1.8" ry="1.8"/>
</g>
<!-- 17&#45;&gt;17h2 -->
<g id="edge92" class="edge">
<title>17&#45;&gt;17h2</title>
<path fill="none" stroke="red" d="M328.98,-361.17C332.31,-346.77 336.57,-328.34 337.58,-323.96"/>
</g>
<!-- 17h3 -->
<g id="node92" class="node">
<title>17h3</title>
<ellipse fill="red" stroke="red" cx="362.8" cy="-321.99" rx="1.8" ry="1.8"/>
</g>
<!-- 17&#45;&gt;17h3 -->
<g id="edge93" class="edge">
<title>17&#45;&gt;17h3</title>
<path fill="none" stroke="gold" d="M335.39,-363.61C345.22,-349.03 358.83,-328.87 362.08,-324.06"/>
</g>
<!-- 20 -->
<g id="node103" class="node">
<title>20</title>
<ellipse fill="lightgray" stroke="black" cx="287.8" cy="-263.69" rx="19.5" ry="19.5"/>
<text text-anchor="middle" x="287.8" y="-259.99" font-family="Times,serif" font-size="14.00">q1</text>
</g>
<!-- 17h0&#45;&gt;20 -->
<g id="edge90" class="edge">
<title>17h0&#45;&gt;20</title>
<path fill="none" stroke="black" d="M287.8,-320.02C287.8,-316.65 287.8,-305.1 287.8,-293.42"/>
<polygon fill="black" stroke="black" points="291.3,-293.33 287.8,-283.33 284.3,-293.33 291.3,-293.33"/>
</g>
<!-- 18h0 -->
<g id="node94" class="node">
<title>18h0</title>
<ellipse fill="black" stroke="black" cx="43.8" cy="-205.4" rx="1.8" ry="1.8"/>
</g>
<!-- 18&#45;&gt;18h0 -->
<g id="edge94" class="edge">
<title>18&#45;&gt;18h0</title>
<path fill="none" stroke="darkgreen" d="M76.24,-247.9C64.83,-233.31 48.55,-212.48 44.66,-207.5"/>
</g>
<!-- 18h1 -->
<g id="node95" class="node">
<title>18h1</title>
<ellipse fill="red" stroke="red" cx="68.8" cy="-205.4" rx="1.8" ry="1.8"/>
</g>
<!-- 18&#45;&gt;18h1 -->
<g id="edge96" class="edge">
<title>18&#45;&gt;18h1</title>
<path fill="none" stroke="blue" d="M81.79,-244.88C76.92,-230.45 70.63,-211.81 69.13,-207.37"/>
</g>
<!-- 18h2 -->
<g id="node96" class="node">
<title>18h2</title>
<ellipse fill="red" stroke="red" cx="93.8" cy="-205.4" rx="1.8" ry="1.8"/>
</g>
<!-- 18&#45;&gt;18h2 -->
<g id="edge97" class="edge">
<title>18&#45;&gt;18h2</title>
<path fill="none" stroke="red" d="M89.76,-244.26C91.3,-229.89 93.24,-211.68 93.7,-207.35"/>
</g>
<!-- 18h3 -->
<g id="node97" class="node">
<title>18h3</title>
<ellipse fill="red" stroke="red" cx="118.8" cy="-205.4" rx="1.8" ry="1.8"/>
</g>
<!-- 18&#45;&gt;18h3 -->
<g id="edge98" class="edge">
<title>18&#45;&gt;18h3</title>
<path fill="none" stroke="gold" d="M96.93,-246.11C104.93,-231.58 115.68,-212.07 118.24,-207.42"/>
</g>
<!-- 21 -->
<g id="node108" class="node">
<title>21</title>
<ellipse fill="lightgray" stroke="black" cx="43.8" cy="-147.1" rx="19.5" ry="19.5"/>
<text text-anchor="middle" x="43.8" y="-143.4" font-family="Times,serif" font-size="14.00">q0</text>
</g>
<!-- 18h0&#45;&gt;21 -->
<g id="edge95" class="edge">
<title>18h0&#45;&gt;21</title>
<path fill="none" stroke="black" d="M43.8,-203.42C43.8,-200.05 43.8,-188.51 43.8,-176.83"/>
<polygon fill="black" stroke="black" points="47.3,-176.73 43.8,-166.73 40.3,-176.73 47.3,-176.73"/>
</g>
<!-- 19h0 -->
<g id="node99" class="node">
<title>19h0</title>
<ellipse fill="black" stroke="black" cx="149.8" cy="-205.4" rx="1.8" ry="1.8"/>
</g>
<!-- 19&#45;&gt;19h0 -->
<g id="edge99" class="edge">
<title>19&#45;&gt;19h0</title>
<path fill="none" stroke="darkgreen" d="M177.21,-247.01C167.38,-232.44 153.77,-212.27 150.52,-207.46"/>
</g>
<!-- 19h1 -->
<g id="node100" class="node">
<title>19h1</title>
<ellipse fill="red" stroke="red" cx="174.8" cy="-205.4" rx="1.8" ry="1.8"/>
</g>
<!-- 19&#45;&gt;19h1 -->
<g id="edge101" class="edge">
<title>19&#45;&gt;19h1</title>
<path fill="none" stroke="blue" d="M183.62,-244.57C180.29,-230.17 176.03,-211.74 175.02,-207.36"/>
</g>
<!-- 19h2 -->
<g id="node101" class="node">
<title>19h2</title>
<ellipse fill="red" stroke="red" cx="199.8" cy="-205.4" rx="1.8" ry="1.8"/>
</g>
<!-- 19&#45;&gt;19h2 -->
<g id="edge102" class="edge">
<title>19&#45;&gt;19h2</title>
<path fill="none" stroke="red" d="M191.66,-244.57C194.73,-230.17 198.66,-211.74 199.59,-207.36"/>
</g>
<!-- 19h3 -->
<g id="node102" class="node">
<title>19h3</title>
<ellipse fill="red" stroke="red" cx="224.8" cy="-205.4" rx="1.8" ry="1.8"/>
</g>
<!-- 19&#45;&gt;19h3 -->
<g id="edge103" class="edge">
<title>19&#45;&gt;19h3</title>
<path fill="none" stroke="gold" d="M198.11,-247.01C207.69,-232.44 220.94,-212.27 224.1,-207.46"/>
</g>
<!-- 22 -->
<g id="node113" class="node">
<title>22</title>
<ellipse fill="lightgray" stroke="black" cx="149.8" cy="-147.1" rx="19.5" ry="19.5"/>
<text text-anchor="middle" x="149.8" y="-143.4" font-family="Times,serif" font-size="14.00">q0</text>
</g>
<!-- 19h0&#45;&gt;22 -->
<g id="edge100" class="edge">
<title>19h0&#45;&gt;22</title>
<path fill="none" stroke="black" d="M149.8,-203.42C149.8,-200.05 149.8,-188.51 149.8,-176.83"/>
<polygon fill="black" stroke="black" points="153.3,-176.73 149.8,-166.73 146.3,-176.73 153.3,-176.73"/>
</g>
<!-- 20h0 -->
<g id="node104" class="node">
<title>20h0</title>
<ellipse fill="black" stroke="black" cx="250.8" cy="-205.4" rx="1.8" ry="1.8"/>
</g>
<!-- 20&#45;&gt;20h0 -->
<g id="edge104" class="edge">
<title>20&#45;&gt;20h0</title>
<path fill="none" stroke="darkgreen" d="M277.49,-247.01C267.91,-232.44 254.66,-212.27 251.5,-207.46"/>
</g>
<!-- 20h1 -->
<g id="node105" class="node">
<title>20h1</title>
<ellipse fill="red" stroke="red" cx="275.8" cy="-205.4" rx="1.8" ry="1.8"/>
</g>
<!-- 20&#45;&gt;20h1 -->
<g id="edge106" class="edge">
<title>20&#45;&gt;20h1</title>
<path fill="none" stroke="blue" d="M283.94,-244.57C280.87,-230.17 276.94,-211.74 276.01,-207.36"/>
</g>
<!-- 20h2 -->
<g id="node106" class="node">
<title>20h2</title>
<ellipse fill="red" stroke="red" cx="300.8" cy="-205.4" rx="1.8" ry="1.8"/>
</g>
<!-- 20&#45;&gt;20h2 -->
<g id="edge107" class="edge">
<title>20&#45;&gt;20h2</title>
<path fill="none" stroke="red" d="M291.98,-244.57C295.31,-230.17 299.57,-211.74 300.58,-207.36"/>
</g>
<!-- 20h3 -->
<g id="node107" class="node">
<title>20h3</title>
<ellipse fill="red" stroke="red" cx="325.8" cy="-205.4" rx="1.8" ry="1.8"/>
</g>
<!-- 20&#45;&gt;20h3 -->
<g id="edge108" class="edge">
<title>20&#45;&gt;20h3</title>
<path fill="none" stroke="gold" d="M298.39,-247.01C308.22,-232.44 321.83,-212.27 325.08,-207.46"/>
</g>
<!-- 23 -->
<g id="node118" class="node">
<title>23</title>
<ellipse fill="lightgray" stroke="black" cx="250.8" cy="-147.1" rx="19.5" ry="19.5"/>
<text text-anchor="middle" x="250.8" y="-143.4" font-family="Times,serif" font-size="14.00">q0</text>
</g>
<!-- 20h0&#45;&gt;23 -->
<g id="edge105" class="edge">
<title>20h0&#45;&gt;23</title>
<path fill="none" stroke="black" d="M250.8,-203.42C250.8,-200.05 250.8,-188.51 250.8,-176.83"/>
<polygon fill="black" stroke="black" points="254.3,-176.73 250.8,-166.73 247.3,-176.73 254.3,-176.73"/>
</g>
<!-- 21h0 -->
<g id="node109" class="node">
<title>21h0</title>
<ellipse fill="black" stroke="black" cx="1.8" cy="-88.8" rx="1.8" ry="1.8"/>
</g>
<!-- 21&#45;&gt;21h0 -->
<g id="edge109" class="edge">
<title>21&#45;&gt;21h0</title>
<path fill="none" stroke="darkgreen" d="M32.54,-131.01C21.66,-116.42 6.28,-95.81 2.61,-90.89"/>
</g>
<!-- 21h1 -->
<g id="node110" class="node">
<title>21h1</title>
<ellipse fill="red" stroke="red" cx="26.8" cy="-88.8" rx="1.8" ry="1.8"/>
</g>
<!-- 21&#45;&gt;21h1 -->
<g id="edge111" class="edge">
<title>21&#45;&gt;21h1</title>
<path fill="none" stroke="blue" d="M38.42,-128.29C34.06,-113.85 28.43,-95.21 27.1,-90.78"/>
</g>
<!-- 21h2 -->
<g id="node111" class="node">
<title>21h2</title>
<ellipse fill="black" stroke="black" cx="52.8" cy="-88.8" rx="1.8" ry="1.8"/>
</g>
<!-- 21&#45;&gt;21h2 -->
<g id="edge112" class="edge">
<title>21&#45;&gt;21h2</title>
<path fill="none" stroke="red" d="M46.75,-127.66C49.04,-113.3 51.96,-95.08 52.65,-90.75"/>
</g>
<!-- 21h3 -->
<g id="node112" class="node">
<title>21h3</title>
<ellipse fill="red" stroke="red" cx="76.8" cy="-88.8" rx="1.8" ry="1.8"/>
</g>
<!-- 21&#45;&gt;21h3 -->
<g id="edge114" class="edge">
<title>21&#45;&gt;21h3</title>
<path fill="none" stroke="gold" d="M53.34,-129.81C61.87,-115.27 73.43,-95.54 76.19,-90.84"/>
</g>
<!-- 21h0&#45;&gt;T -->
<g id="edge110" class="edge">
<title>21h0&#45;&gt;T</title>
<path fill="none" stroke="black" d="M2.31,-86.79C4.66,-82.25 14.91,-63.5 28.8,-54 51.11,-38.74 80.38,-29.9 103.4,-24.92"/>
<polygon fill="black" stroke="black" points="104.38,-28.29 113.49,-22.89 103,-21.43 104.38,-28.29"/>
<text text-anchor="middle" x="42.8" y="-57.8" font-family="Times,serif" font-size="14.00">(√½)</text>
</g>
<!-- 21h2&#45;&gt;T -->
<g id="edge113" class="edge">
<title>21h2&#45;&gt;T</title>
<path fill="none" stroke="black" d="M53.07,-86.83C54.35,-82.48 60.14,-64.39 70.8,-54 80.32,-44.72 92.79,-37.42 104.56,-31.95"/>
<polygon fill="black" stroke="black" points="106.01,-35.13 113.78,-27.94 103.22,-28.71 106.01,-35.13"/>
<text text-anchor="middle" x="90.8" y="-57.8" font-family="Times,serif" font-size="14.00">(+√½i)</text>
</g>
<!-- 22h0 -->
<g id="node114" class="node">
<title>22h0</title>
<ellipse fill="black" stroke="black" cx="115.8" cy="-88.8" rx="1.8" ry="1.8"/>
</g>
<!-- 22&#45;&gt;22h0 -->
<g id="edge115" class="edge">
<title>22&#45;&gt;22h0</title>
<path fill="none" stroke="darkgreen" d="M140.15,-130.12C131.35,-115.55 119.31,-95.61 116.43,-90.85"/>
</g>
<!-- 22h1 -->
<g id="node115" class="node">
<title>22h1</title>
<ellipse fill="red" stroke="red" cx="140.8" cy="-88.8" rx="1.8" ry="1.8"/>
</g>
<!-- 22&#45;&gt;22h1 -->
<g id="edge117" class="edge">
<title>22&#45;&gt;22h1</title>
<path fill="none" stroke="blue" d="M146.85,-127.66C144.56,-113.3 141.64,-95.08 140.95,-90.75"/>
</g>
<!-- 22h2 -->
<g id="node116" class="node">
<title>22h2</title>
<ellipse fill="black" stroke="black" cx="165.8" cy="-88.8" rx="1.8" ry="1.8"/>
</g>
<!-- 22&#45;&gt;22h2 -->
<g id="edge118" class="edge">
<title>22&#45;&gt;22h2</title>
<path fill="none" stroke="red" d="M154.95,-127.98C159.04,-113.57 164.28,-95.15 165.53,-90.77"/>
</g>
<!-- 22h3 -->
<g id="node117" class="node">
<title>22h3</title>
<ellipse fill="red" stroke="red" cx="190.8" cy="-88.8" rx="1.8" ry="1.8"/>
</g>
<!-- 22&#45;&gt;22h3 -->
<g id="edge120" class="edge">
<title>22&#45;&gt;22h3</title>
<path fill="none" stroke="gold" d="M161,-130.71C171.63,-116.13 186.47,-95.74 190.02,-90.87"/>
</g>
<!-- 22h0&#45;&gt;T -->
<g id="edge116" class="edge">
<title>22h0&#45;&gt;T</title>
<path fill="none" stroke="black" d="M115.65,-86.93C115.01,-83 112.72,-66.5 116.8,-54 117.83,-50.85 119.24,-47.72 120.86,-44.71"/>
<polygon fill="black" stroke="black" points="123.9,-46.45 126.21,-36.11 117.95,-42.76 123.9,-46.45"/>
<text text-anchor="middle" x="130.8" y="-57.8" font-family="Times,serif" font-size="14.00">(√½)</text>
</g>
<!-- 22h2&#45;&gt;T -->
<g id="edge119" class="edge">
<title>22h2&#45;&gt;T</title>
<path fill="none" stroke="black" d="M165.45,-86.83C163.8,-82.29 156.7,-62.75 150.54,-45.79"/>
<polygon fill="black" stroke="black" points="153.77,-44.45 147.07,-36.24 147.19,-46.84 153.77,-44.45"/>
<text text-anchor="middle" x="172.8" y="-57.8" font-family="Times,serif" font-size="14.00">(√½)</text>
</g>
<!-- 23h0 -->
<g id="node119" class="node">
<title>23h0</title>
<ellipse fill="black" stroke="black" cx="217.8" cy="-88.8" rx="1.8" ry="1.8"/>
</g>
<!-- 23&#45;&gt;23h0 -->
<g id="edge121" class="edge">
<title>23&#45;&gt;23h0</title>
<path fill="none" stroke="darkgreen" d="M241.26,-129.81C232.73,-115.27 221.17,-95.54 218.41,-90.84"/>
</g>
<!-- 23h1 -->
<g id="node120" class="node">
<title>23h1</title>
<ellipse fill="red" stroke="red" cx="243.8" cy="-88.8" rx="1.8" ry="1.8"/>
</g>
<!-- 23&#45;&gt;23h1 -->
<g id="edge123" class="edge">
<title>23&#45;&gt;23h1</title>
<path fill="none" stroke="blue" d="M248.51,-127.66C246.72,-113.3 244.46,-95.08 243.92,-90.75"/>
</g>
<!-- 23h2 -->
<g id="node121" class="node">
<title>23h2</title>
<ellipse fill="black" stroke="black" cx="268.8" cy="-88.8" rx="1.8" ry="1.8"/>
</g>
<!-- 23&#45;&gt;23h2 -->
<g id="edge124" class="edge">
<title>23&#45;&gt;23h2</title>
<path fill="none" stroke="red" d="M256.5,-128.29C261.11,-113.85 267.07,-95.21 268.49,-90.78"/>
</g>
<!-- 23h3 -->
<g id="node122" class="node">
<title>23h3</title>
<ellipse fill="red" stroke="red" cx="293.8" cy="-88.8" rx="1.8" ry="1.8"/>
</g>
<!-- 23&#45;&gt;23h3 -->
<g id="edge126" class="edge">
<title>23&#45;&gt;23h3</title>
<path fill="none" stroke="gold" d="M262.32,-131.01C273.47,-116.42 289.21,-95.81 292.97,-90.89"/>
</g>
<!-- 23h0&#45;&gt;T -->
<g id="edge122" class="edge">
<title>23h0&#45;&gt;T</title>
<path fill="none" stroke="black" d="M217.21,-86.89C214.54,-82.76 203.07,-65.51 190.8,-54 186.35,-49.82 181.36,-45.75 176.31,-41.94"/>
<polygon fill="black" stroke="black" points="177.99,-38.84 167.83,-35.83 173.9,-44.52 177.99,-38.84"/>
<text text-anchor="middle" x="218.8" y="-57.8" font-family="Times,serif" font-size="14.00">(√½)</text>
</g>
<!-- 23h2&#45;&gt;T -->
<g id="edge125" class="edge">
<title>23h2&#45;&gt;T</title>
<path fill="none" stroke="black" d="M268.13,-86.81C265.08,-82.36 251.93,-63.94 236.8,-54 218.83,-42.19 196.35,-33.72 177.67,-28.07"/>
<polygon fill="black" stroke="black" points="178.59,-24.69 168.01,-25.3 176.65,-31.42 178.59,-24.69"/>
<text text-anchor="middle" x="269.8" y="-57.8" font-family="Times,serif" font-size="14.00">(&#45;√½)</text>
</g>
</g>
</svg>
