<?xml version="1.0" encoding="UTF-8" standalone="no"?>
<!DOCTYPE svg PUBLIC "-//W3C//DTD SVG 1.1//EN"
 "http://www.w3.org/Graphics/SVG/1.1/DTD/svg11.dtd">
<!-- Generated by graphviz version 2.44.1 (20200629.0846)
 -->
<!-- Title: DD Pages: 1 -->
<svg width="385pt" height="1162pt"
 viewBox="0.00 0.00 384.60 1161.97" xmlns="http://www.w3.org/2000/svg" xmlns:xlink="http://www.w3.org/1999/xlink">
<g id="graph0" class="graph" transform="scale(1 1) rotate(0) translate(4 1157.97)">
<title>DD</title>
<polygon fill="white" stroke="transparent" points="-4,4 -4,-1157.97 380.6,-1157.97 380.6,4 -4,4"/>
<!-- T -->
<g id="node1" class="node">
<title>T</title>
<polygon fill="none" stroke="black" points="104.8,-36 50.8,-36 50.8,0 104.8,0 104.8,-36"/>
<text text-anchor="middle" x="77.8" y="-14.3" font-family="Times,serif" font-size="14.00">1</text>
</g>
<!-- R -->
<g id="node2" class="node">
<title>R</title>
<ellipse fill="black" stroke="black" cx="336.8" cy="-1152.17" rx="1.8" ry="1.8"/>
</g>
<!-- 0 -->
<g id="node3" class="node">
<title>0</title>
<ellipse fill="lightgray" stroke="black" cx="336.8" cy="-1093.87" rx="19.5" ry="19.5"/>
<text text-anchor="middle" x="336.8" y="-1090.17" font-family="Times,serif" font-size="14.00">q8</text>
</g>
<!-- R&#45;&gt;0 -->
<g id="edge1" class="edge">
<title>R&#45;&gt;0</title>
<path fill="none" stroke="black" d="M336.8,-1150.19C336.8,-1146.83 336.8,-1135.28 336.8,-1123.6"/>
<polygon fill="black" stroke="black" points="340.3,-1123.5 336.8,-1113.5 333.3,-1123.5 340.3,-1123.5"/>
</g>
<!-- 0h0 -->
<g id="node4" class="node">
<title>0h0</title>
<ellipse fill="black" stroke="black" cx="299.8" cy="-1035.57" rx="1.8" ry="1.8"/>
</g>
<!-- 0&#45;&gt;0h0 -->
<g id="edge2" class="edge">
<title>0&#45;&gt;0h0</title>
<path fill="none" stroke="darkgreen" d="M326.49,-1077.19C316.91,-1062.61 303.66,-1042.45 300.5,-1037.63"/>
</g>
<!-- 0h1 -->
<g id="node5" class="node">
<title>0h1</title>
<ellipse fill="red" stroke="red" cx="324.8" cy="-1035.57" rx="1.8" ry="1.8"/>
</g>
<!-- 0&#45;&gt;0h1 -->
<g id="edge4" class="edge">
<title>0&#45;&gt;0h1</title>
<path fill="none" stroke="blue" d="M332.94,-1074.75C329.87,-1060.35 325.94,-1041.92 325.01,-1037.54"/>
</g>
<!-- 0h2 -->
<g id="node6" class="node">
<title>0h2</title>
<ellipse fill="red" stroke="red" cx="349.8" cy="-1035.57" rx="1.8" ry="1.8"/>
</g>
<!-- 0&#45;&gt;0h2 -->
<g id="edge5" class="edge">
<title>0&#45;&gt;0h2</title>
<path fill="none" stroke="red" d="M340.98,-1074.75C344.31,-1060.35 348.57,-1041.92 349.58,-1037.54"/>
</g>
<!-- 0h3 -->
<g id="node7" class="node">
<title>0h3</title>
<ellipse fill="red" stroke="red" cx="374.8" cy="-1035.57" rx="1.8" ry="1.8"/>
</g>
<!-- 0&#45;&gt;0h3 -->
<g id="edge6" class="edge">
<title>0&#45;&gt;0h3</title>
<path fill="none" stroke="gold" d="M347.39,-1077.19C357.22,-1062.61 370.83,-1042.45 374.08,-1037.63"/>
</g>
<!-- 1 -->
<g id="node8" class="node">
<title>1</title>
<ellipse fill="lightgray" stroke="black" cx="299.8" cy="-977.27" rx="19.5" ry="19.5"/>
<text text-anchor="middle" x="299.8" y="-973.57" font-family="Times,serif" font-size="14.00">q7</text>
</g>
<!-- 0h0&#45;&gt;1 -->
<g id="edge3" class="edge">
<title>0h0&#45;&gt;1</title>
<path fill="none" stroke="black" d="M299.8,-1033.6C299.8,-1030.23 299.8,-1018.68 299.8,-1007"/>
<polygon fill="black" stroke="black" points="303.3,-1006.91 299.8,-996.91 296.3,-1006.91 303.3,-1006.91"/>
</g>
<!-- 1h0 -->
<g id="node9" class="node">
<title>1h0</title>
<ellipse fill="black" stroke="black" cx="262.8" cy="-918.98" rx="1.8" ry="1.8"/>
</g>
<!-- 1&#45;&gt;1h0 -->
<g id="edge7" class="edge">
<title>1&#45;&gt;1h0</title>
<path fill="none" stroke="darkgreen" d="M289.49,-960.59C279.91,-946.02 266.66,-925.85 263.5,-921.04"/>
</g>
<!-- 1h1 -->
<g id="node10" class="node">
<title>1h1</title>
<ellipse fill="red" stroke="red" cx="287.8" cy="-918.98" rx="1.8" ry="1.8"/>
</g>
<!-- 1&#45;&gt;1h1 -->
<g id="edge9" class="edge">
<title>1&#45;&gt;1h1</title>
<path fill="none" stroke="blue" d="M295.94,-958.15C292.87,-943.75 288.94,-925.32 288.01,-920.94"/>
</g>
<!-- 1h2 -->
<g id="node11" class="node">
<title>1h2</title>
<ellipse fill="red" stroke="red" cx="312.8" cy="-918.98" rx="1.8" ry="1.8"/>
</g>
<!-- 1&#45;&gt;1h2 -->
<g id="edge10" class="edge">
<title>1&#45;&gt;1h2</title>
<path fill="none" stroke="red" d="M303.98,-958.15C307.31,-943.75 311.57,-925.32 312.58,-920.94"/>
</g>
<!-- 1h3 -->
<g id="node12" class="node">
<title>1h3</title>
<ellipse fill="red" stroke="red" cx="337.8" cy="-918.98" rx="1.8" ry="1.8"/>
</g>
<!-- 1&#45;&gt;1h3 -->
<g id="edge11" class="edge">
<title>1&#45;&gt;1h3</title>
<path fill="none" stroke="gold" d="M310.39,-960.59C320.22,-946.02 333.83,-925.85 337.08,-921.04"/>
</g>
<!-- 2 -->
<g id="node13" class="node">
<title>2</title>
<ellipse fill="lightgray" stroke="black" cx="262.8" cy="-860.68" rx="19.5" ry="19.5"/>
<text text-anchor="middle" x="262.8" y="-856.98" font-family="Times,serif" font-size="14.00">q6</text>
</g>
<!-- 1h0&#45;&gt;2 -->
<g id="edge8" class="edge">
<title>1h0&#45;&gt;2</title>
<path fill="none" stroke="black" d="M262.8,-917C262.8,-913.63 262.8,-902.09 262.8,-890.41"/>
<polygon fill="black" stroke="black" points="266.3,-890.31 262.8,-880.31 259.3,-890.31 266.3,-890.31"/>
</g>
<!-- 2h0 -->
<g id="node14" class="node">
<title>2h0</title>
<ellipse fill="black" stroke="black" cx="225.8" cy="-802.38" rx="1.8" ry="1.8"/>
</g>
<!-- 2&#45;&gt;2h0 -->
<g id="edge12" class="edge">
<title>2&#45;&gt;2h0</title>
<path fill="none" stroke="darkgreen" d="M252.49,-844C242.91,-829.42 229.66,-809.25 226.5,-804.44"/>
</g>
<!-- 2h1 -->
<g id="node15" class="node">
<title>2h1</title>
<ellipse fill="red" stroke="red" cx="250.8" cy="-802.38" rx="1.8" ry="1.8"/>
</g>
<!-- 2&#45;&gt;2h1 -->
<g id="edge14" class="edge">
<title>2&#45;&gt;2h1</title>
<path fill="none" stroke="blue" d="M258.94,-841.55C255.87,-827.15 251.94,-808.73 251.01,-804.34"/>
</g>
<!-- 2h2 -->
<g id="node16" class="node">
<title>2h2</title>
<ellipse fill="red" stroke="red" cx="275.8" cy="-802.38" rx="1.8" ry="1.8"/>
</g>
<!-- 2&#45;&gt;2h2 -->
<g id="edge15" class="edge">
<title>2&#45;&gt;2h2</title>
<path fill="none" stroke="red" d="M266.98,-841.55C270.31,-827.15 274.57,-808.73 275.58,-804.34"/>
</g>
<!-- 2h3 -->
<g id="node17" class="node">
<title>2h3</title>
<ellipse fill="red" stroke="red" cx="300.8" cy="-802.38" rx="1.8" ry="1.8"/>
</g>
<!-- 2&#45;&gt;2h3 -->
<g id="edge16" class="edge">
<title>2&#45;&gt;2h3</title>
<path fill="none" stroke="gold" d="M273.39,-844C283.22,-829.42 296.83,-809.25 300.08,-804.44"/>
</g>
<!-- 3 -->
<g id="node18" class="node">
<title>3</title>
<ellipse fill="lightgray" stroke="black" cx="225.8" cy="-744.08" rx="19.5" ry="19.5"/>
<text text-anchor="middle" x="225.8" y="-740.38" font-family="Times,serif" font-size="14.00">q5</text>
</g>
<!-- 2h0&#45;&gt;3 -->
<g id="edge13" class="edge">
<title>2h0&#45;&gt;3</title>
<path fill="none" stroke="black" d="M225.8,-800.4C225.8,-797.04 225.8,-785.49 225.8,-773.81"/>
<polygon fill="black" stroke="black" points="229.3,-773.72 225.8,-763.72 222.3,-773.72 229.3,-773.72"/>
</g>
<!-- 3h0 -->
<g id="node19" class="node">
<title>3h0</title>
<ellipse fill="black" stroke="black" cx="188.8" cy="-685.78" rx="1.8" ry="1.8"/>
</g>
<!-- 3&#45;&gt;3h0 -->
<g id="edge17" class="edge">
<title>3&#45;&gt;3h0</title>
<path fill="none" stroke="darkgreen" d="M215.49,-727.4C205.91,-712.82 192.66,-692.66 189.5,-687.84"/>
</g>
<!-- 3h1 -->
<g id="node20" class="node">
<title>3h1</title>
<ellipse fill="red" stroke="red" cx="213.8" cy="-685.78" rx="1.8" ry="1.8"/>
</g>
<!-- 3&#45;&gt;3h1 -->
<g id="edge19" class="edge">
<title>3&#45;&gt;3h1</title>
<path fill="none" stroke="blue" d="M221.94,-724.96C218.87,-710.56 214.94,-692.13 214.01,-687.75"/>
</g>
<!-- 3h2 -->
<g id="node21" class="node">
<title>3h2</title>
<ellipse fill="red" stroke="red" cx="238.8" cy="-685.78" rx="1.8" ry="1.8"/>
</g>
<!-- 3&#45;&gt;3h2 -->
<g id="edge20" class="edge">
<title>3&#45;&gt;3h2</title>
<path fill="none" stroke="red" d="M229.98,-724.96C233.31,-710.56 237.57,-692.13 238.58,-687.75"/>
</g>
<!-- 3h3 -->
<g id="node22" class="node">
<title>3h3</title>
<ellipse fill="red" stroke="red" cx="263.8" cy="-685.78" rx="1.8" ry="1.8"/>
</g>
<!-- 3&#45;&gt;3h3 -->
<g id="edge21" class="edge">
<title>3&#45;&gt;3h3</title>
<path fill="none" stroke="gold" d="M236.39,-727.4C246.22,-712.82 259.83,-692.66 263.08,-687.84"/>
</g>
<!-- 4 -->
<g id="node23" class="node">
<title>4</title>
<ellipse fill="lightgray" stroke="black" cx="188.8" cy="-627.48" rx="19.5" ry="19.5"/>
<text text-anchor="middle" x="188.8" y="-623.78" font-family="Times,serif" font-size="14.00">q4</text>
</g>
<!-- 3h0&#45;&gt;4 -->
<g id="edge18" class="edge">
<title>3h0&#45;&gt;4</title>
<path fill="none" stroke="black" d="M188.8,-683.81C188.8,-680.44 188.8,-668.89 188.8,-657.21"/>
<polygon fill="black" stroke="black" points="192.3,-657.12 188.8,-647.12 185.3,-657.12 192.3,-657.12"/>
</g>
<!-- 4h0 -->
<g id="node24" class="node">
<title>4h0</title>
<ellipse fill="black" stroke="black" cx="151.8" cy="-569.19" rx="1.8" ry="1.8"/>
</g>
<!-- 4&#45;&gt;4h0 -->
<g id="edge22" class="edge">
<title>4&#45;&gt;4h0</title>
<path fill="none" stroke="darkgreen" d="M178.49,-610.8C168.91,-596.23 155.66,-576.06 152.5,-571.25"/>
</g>
<!-- 4h1 -->
<g id="node25" class="node">
<title>4h1</title>
<ellipse fill="red" stroke="red" cx="176.8" cy="-569.19" rx="1.8" ry="1.8"/>
</g>
<!-- 4&#45;&gt;4h1 -->
<g id="edge24" class="edge">
<title>4&#45;&gt;4h1</title>
<path fill="none" stroke="blue" d="M184.94,-608.36C181.87,-593.96 177.94,-575.53 177.01,-571.15"/>
</g>
<!-- 4h2 -->
<g id="node26" class="node">
<title>4h2</title>
<ellipse fill="red" stroke="red" cx="201.8" cy="-569.19" rx="1.8" ry="1.8"/>
</g>
<!-- 4&#45;&gt;4h2 -->
<g id="edge25" class="edge">
<title>4&#45;&gt;4h2</title>
<path fill="none" stroke="red" d="M192.98,-608.36C196.31,-593.96 200.57,-575.53 201.58,-571.15"/>
</g>
<!-- 4h3 -->
<g id="node27" class="node">
<title>4h3</title>
<ellipse fill="red" stroke="red" cx="226.8" cy="-569.19" rx="1.8" ry="1.8"/>
</g>
<!-- 4&#45;&gt;4h3 -->
<g id="edge26" class="edge">
<title>4&#45;&gt;4h3</title>
<path fill="none" stroke="gold" d="M199.39,-610.8C209.22,-596.23 222.83,-576.06 226.08,-571.25"/>
</g>
<!-- 5 -->
<g id="node28" class="node">
<title>5</title>
<ellipse fill="lightgray" stroke="black" cx="151.8" cy="-510.89" rx="19.5" ry="19.5"/>
<text text-anchor="middle" x="151.8" y="-507.19" font-family="Times,serif" font-size="14.00">q3</text>
</g>
<!-- 4h0&#45;&gt;5 -->
<g id="edge23" class="edge">
<title>4h0&#45;&gt;5</title>
<path fill="none" stroke="black" d="M151.8,-567.21C151.8,-563.84 151.8,-552.3 151.8,-540.62"/>
<polygon fill="black" stroke="black" points="155.3,-540.52 151.8,-530.52 148.3,-540.52 155.3,-540.52"/>
</g>
<!-- 5h0 -->
<g id="node29" class="node">
<title>5h0</title>
<ellipse fill="black" stroke="black" cx="108.8" cy="-452.59" rx="1.8" ry="1.8"/>
</g>
<!-- 5&#45;&gt;5h0 -->
<g id="edge27" class="edge">
<title>5&#45;&gt;5h0</title>
<path fill="none" stroke="darkgreen" d="M140.28,-494.8C129.13,-480.21 113.39,-459.6 109.63,-454.68"/>
</g>
<!-- 5h1 -->
<g id="node30" class="node">
<title>5h1</title>
<ellipse fill="red" stroke="red" cx="139.8" cy="-452.59" rx="1.8" ry="1.8"/>
</g>
<!-- 5&#45;&gt;5h1 -->
<g id="edge29" class="edge">
<title>5&#45;&gt;5h1</title>
<path fill="none" stroke="blue" d="M147.94,-491.76C144.87,-477.36 140.94,-458.94 140.01,-454.55"/>
</g>
<!-- 5h2 -->
<g id="node31" class="node">
<title>5h2</title>
<ellipse fill="black" stroke="black" cx="166.8" cy="-452.59" rx="1.8" ry="1.8"/>
</g>
<!-- 5&#45;&gt;5h2 -->
<g id="edge30" class="edge">
<title>5&#45;&gt;5h2</title>
<path fill="none" stroke="red" d="M156.63,-491.76C160.47,-477.36 165.38,-458.94 166.54,-454.55"/>
</g>
<!-- 5h3 -->
<g id="node32" class="node">
<title>5h3</title>
<ellipse fill="red" stroke="red" cx="189.8" cy="-452.59" rx="1.8" ry="1.8"/>
</g>
<!-- 5&#45;&gt;5h3 -->
<g id="edge32" class="edge">
<title>5&#45;&gt;5h3</title>
<path fill="none" stroke="gold" d="M162.39,-494.21C172.22,-479.63 185.83,-459.47 189.08,-454.65"/>
</g>
<!-- 6 -->
<g id="node33" class="node">
<title>6</title>
<ellipse fill="lightgray" stroke="black" cx="98.8" cy="-380.29" rx="19.5" ry="19.5"/>
<text text-anchor="middle" x="98.8" y="-376.59" font-family="Times,serif" font-size="14.00">q2</text>
</g>
<!-- 5h0&#45;&gt;6 -->
<g id="edge28" class="edge">
<title>5h0&#45;&gt;6</title>
<path fill="none" stroke="black" d="M108.66,-450.6C108.02,-446.09 105.31,-427.07 102.9,-410.09"/>
<polygon fill="black" stroke="black" points="106.33,-409.34 101.45,-399.93 99.39,-410.32 106.33,-409.34"/>
<text text-anchor="middle" x="122.3" y="-421.59" font-family="Times,serif" font-size="14.00"> (√½)</text>
</g>
<!-- 7 -->
<g id="node38" class="node">
<title>7</title>
<ellipse fill="lightgray" stroke="black" cx="185.8" cy="-380.29" rx="19.5" ry="19.5"/>
<text text-anchor="middle" x="185.8" y="-376.59" font-family="Times,serif" font-size="14.00">q2</text>
</g>
<!-- 5h2&#45;&gt;7 -->
<g id="edge31" class="edge">
<title>5h2&#45;&gt;7</title>
<path fill="none" stroke="black" d="M167.01,-450.8C168.14,-446.64 173.5,-426.78 178.22,-409.35"/>
<polygon fill="black" stroke="black" points="181.65,-410.08 180.88,-399.51 174.89,-408.25 181.65,-410.08"/>
<text text-anchor="middle" x="191.3" y="-421.59" font-family="Times,serif" font-size="14.00"> (√½)</text>
</g>
<!-- 6h0 -->
<g id="node34" class="node">
<title>6h0</title>
<ellipse fill="red" stroke="red" cx="48.8" cy="-321.99" rx="1.8" ry="1.8"/>
</g>
<!-- 6&#45;&gt;6h0 -->
<g id="edge33" class="edge">
<title>6&#45;&gt;6h0</title>
<path fill="none" stroke="darkgreen" d="M86.18,-365.08C73.22,-350.49 54.32,-329.21 49.8,-324.12"/>
</g>
<!-- 6h1 -->
<g id="node35" class="node">
<title>6h1</title>
<ellipse fill="red" stroke="red" cx="73.8" cy="-321.99" rx="1.8" ry="1.8"/>
</g>
<!-- 6&#45;&gt;6h1 -->
<g id="edge34" class="edge">
<title>6&#45;&gt;6h1</title>
<path fill="none" stroke="blue" d="M91.16,-362.09C84.73,-347.61 76.26,-328.54 74.24,-323.99"/>
</g>
<!-- 6h2 -->
<g id="node36" class="node">
<title>6h2</title>
<ellipse fill="black" stroke="black" cx="97.8" cy="-321.99" rx="1.8" ry="1.8"/>
</g>
<!-- 6&#45;&gt;6h2 -->
<g id="edge35" class="edge">
<title>6&#45;&gt;6h2</title>
<path fill="none" stroke="red" d="M98.47,-360.54C98.21,-346.21 97.89,-328.21 97.82,-323.93"/>
</g>
<!-- 6h3 -->
<g id="node37" class="node">
<title>6h3</title>
<ellipse fill="red" stroke="red" cx="123.8" cy="-321.99" rx="1.8" ry="1.8"/>
</g>
<!-- 6&#45;&gt;6h3 -->
<g id="edge37" class="edge">
<title>6&#45;&gt;6h3</title>
<path fill="none" stroke="gold" d="M106.44,-362.09C112.87,-347.61 121.34,-328.54 123.36,-323.99"/>
</g>
<!-- 8 -->
<g id="node43" class="node">
<title>8</title>
<ellipse fill="lightgray" stroke="black" cx="90.8" cy="-263.69" rx="19.5" ry="19.5"/>
<text text-anchor="middle" x="90.8" y="-259.99" font-family="Times,serif" font-size="14.00">q1</text>
</g>
<!-- 6h2&#45;&gt;8 -->
<g id="edge36" class="edge">
<title>6h2&#45;&gt;8</title>
<path fill="none" stroke="black" d="M97.68,-320.02C97.26,-316.65 95.82,-305.1 94.37,-293.42"/>
<polygon fill="black" stroke="black" points="97.82,-292.82 93.12,-283.33 90.88,-293.68 97.82,-292.82"/>
</g>
<!-- 7h0 -->
<g id="node39" class="node">
<title>7h0</title>
<ellipse fill="black" stroke="black" cx="161.8" cy="-321.99" rx="1.8" ry="1.8"/>
</g>
<!-- 7&#45;&gt;7h0 -->
<g id="edge38" class="edge">
<title>7&#45;&gt;7h0</title>
<path fill="none" stroke="darkgreen" d="M178.47,-362.09C172.29,-347.61 164.16,-328.54 162.23,-323.99"/>
</g>
<!-- 7h1 -->
<g id="node40" class="node">
<title>7h1</title>
<ellipse fill="red" stroke="red" cx="185.8" cy="-321.99" rx="1.8" ry="1.8"/>
</g>
<!-- 7&#45;&gt;7h1 -->
<g id="edge40" class="edge">
<title>7&#45;&gt;7h1</title>
<path fill="none" stroke="blue" d="M185.8,-360.54C185.8,-346.21 185.8,-328.21 185.8,-323.93"/>
</g>
<!-- 7h2 -->
<g id="node41" class="node">
<title>7h2</title>
<ellipse fill="red" stroke="red" cx="210.8" cy="-321.99" rx="1.8" ry="1.8"/>
</g>
<!-- 7&#45;&gt;7h2 -->
<g id="edge41" class="edge">
<title>7&#45;&gt;7h2</title>
<path fill="none" stroke="red" d="M193.44,-362.09C199.87,-347.61 208.34,-328.54 210.36,-323.99"/>
</g>
<!-- 7h3 -->
<g id="node42" class="node">
<title>7h3</title>
<ellipse fill="red" stroke="red" cx="235.8" cy="-321.99" rx="1.8" ry="1.8"/>
</g>
<!-- 7&#45;&gt;7h3 -->
<g id="edge42" class="edge">
<title>7&#45;&gt;7h3</title>
<path fill="none" stroke="gold" d="M198.42,-365.08C211.38,-350.49 230.28,-329.21 234.8,-324.12"/>
</g>
<!-- 9 -->
<g id="node48" class="node">
<title>9</title>
<ellipse fill="lightgray" stroke="black" cx="165.8" cy="-263.69" rx="19.5" ry="19.5"/>
<text text-anchor="middle" x="165.8" y="-259.99" font-family="Times,serif" font-size="14.00">q1</text>
</g>
<!-- 7h0&#45;&gt;9 -->
<g id="edge39" class="edge">
<title>7h0&#45;&gt;9</title>
<path fill="none" stroke="black" d="M161.87,-320.02C162.11,-316.65 162.93,-305.1 163.76,-293.42"/>
<polygon fill="black" stroke="black" points="167.26,-293.55 164.48,-283.33 160.28,-293.06 167.26,-293.55"/>
</g>
<!-- 8h0 -->
<g id="node44" class="node">
<title>8h0</title>
<ellipse fill="black" stroke="black" cx="40.8" cy="-205.4" rx="1.8" ry="1.8"/>
</g>
<!-- 8&#45;&gt;8h0 -->
<g id="edge43" class="edge">
<title>8&#45;&gt;8h0</title>
<path fill="none" stroke="darkgreen" d="M78.18,-248.49C65.22,-233.9 46.32,-212.61 41.8,-207.52"/>
</g>
<!-- 8h1 -->
<g id="node45" class="node">
<title>8h1</title>
<ellipse fill="red" stroke="red" cx="65.8" cy="-205.4" rx="1.8" ry="1.8"/>
</g>
<!-- 8&#45;&gt;8h1 -->
<g id="edge45" class="edge">
<title>8&#45;&gt;8h1</title>
<path fill="none" stroke="blue" d="M83.16,-245.5C76.73,-231.01 68.26,-211.94 66.24,-207.4"/>
</g>
<!-- 8h2 -->
<g id="node46" class="node">
<title>8h2</title>
<ellipse fill="red" stroke="red" cx="90.8" cy="-205.4" rx="1.8" ry="1.8"/>
</g>
<!-- 8&#45;&gt;8h2 -->
<g id="edge46" class="edge">
<title>8&#45;&gt;8h2</title>
<path fill="none" stroke="red" d="M90.8,-243.95C90.8,-229.62 90.8,-211.62 90.8,-207.34"/>
</g>
<!-- 8h3 -->
<g id="node47" class="node">
<title>8h3</title>
<ellipse fill="red" stroke="red" cx="115.8" cy="-205.4" rx="1.8" ry="1.8"/>
</g>
<!-- 8&#45;&gt;8h3 -->
<g id="edge47" class="edge">
<title>8&#45;&gt;8h3</title>
<path fill="none" stroke="gold" d="M98.44,-245.5C104.87,-231.01 113.34,-211.94 115.36,-207.4"/>
</g>
<!-- 10 -->
<g id="node53" class="node">
<title>10</title>
<ellipse fill="lightgray" stroke="black" cx="40.8" cy="-147.1" rx="19.5" ry="19.5"/>
<text text-anchor="middle" x="40.8" y="-143.4" font-family="Times,serif" font-size="14.00">q0</text>
</g>
<!-- 8h0&#45;&gt;10 -->
<g id="edge44" class="edge">
<title>8h0&#45;&gt;10</title>
<path fill="none" stroke="black" d="M40.8,-203.42C40.8,-200.05 40.8,-188.51 40.8,-176.83"/>
<polygon fill="black" stroke="black" points="44.3,-176.73 40.8,-166.73 37.3,-176.73 44.3,-176.73"/>
</g>
<!-- 9h0 -->
<g id="node49" class="node">
<title>9h0</title>
<ellipse fill="black" stroke="black" cx="140.8" cy="-205.4" rx="1.8" ry="1.8"/>
</g>
<!-- 9&#45;&gt;9h0 -->
<g id="edge48" class="edge">
<title>9&#45;&gt;9h0</title>
<path fill="none" stroke="darkgreen" d="M158.16,-245.5C151.73,-231.01 143.26,-211.94 141.24,-207.4"/>
</g>
<!-- 9h1 -->
<g id="node50" class="node">
<title>9h1</title>
<ellipse fill="red" stroke="red" cx="165.8" cy="-205.4" rx="1.8" ry="1.8"/>
</g>
<!-- 9&#45;&gt;9h1 -->
<g id="edge50" class="edge">
<title>9&#45;&gt;9h1</title>
<path fill="none" stroke="blue" d="M165.8,-243.95C165.8,-229.62 165.8,-211.62 165.8,-207.34"/>
</g>
<!-- 9h2 -->
<g id="node51" class="node">
<title>9h2</title>
<ellipse fill="red" stroke="red" cx="190.8" cy="-205.4" rx="1.8" ry="1.8"/>
</g>
<!-- 9&#45;&gt;9h2 -->
<g id="edge51" class="edge">
<title>9&#45;&gt;9h2</title>
<path fill="none" stroke="red" d="M173.44,-245.5C179.87,-231.01 188.34,-211.94 190.36,-207.4"/>
</g>
<!-- 9h3 -->
<g id="node52" class="node">
<title>9h3</title>
<ellipse fill="red" stroke="red" cx="215.8" cy="-205.4" rx="1.8" ry="1.8"/>
</g>
<!-- 9&#45;&gt;9h3 -->
<g id="edge52" class="edge">
<title>9&#45;&gt;9h3</title>
<path fill="none" stroke="gold" d="M178.42,-248.49C191.38,-233.9 210.28,-212.61 214.8,-207.52"/>
</g>
<!-- 11 -->
<g id="node58" class="node">
<title>11</title>
<ellipse fill="lightgray" stroke="black" cx="140.8" cy="-147.1" rx="19.5" ry="19.5"/>
<text text-anchor="middle" x="140.8" y="-143.4" font-family="Times,serif" font-size="14.00">q0</text>
</g>
<!-- 9h0&#45;&gt;11 -->
<g id="edge49" class="edge">
<title>9h0&#45;&gt;11</title>
<path fill="none" stroke="black" d="M140.8,-203.42C140.8,-200.05 140.8,-188.51 140.8,-176.83"/>
<polygon fill="black" stroke="black" points="144.3,-176.73 140.8,-166.73 137.3,-176.73 144.3,-176.73"/>
</g>
<!-- 10h0 -->
<g id="node54" class="node">
<title>10h0</title>
<ellipse fill="black" stroke="black" cx="1.8" cy="-88.8" rx="1.8" ry="1.8"/>
</g>
<!-- 10&#45;&gt;10h0 -->
<g id="edge53" class="edge">
<title>10&#45;&gt;10h0</title>
<path fill="none" stroke="darkgreen" d="M30.14,-130.71C20.04,-116.13 5.92,-95.74 2.54,-90.87"/>
</g>
<!-- 10h1 -->
<g id="node55" class="node">
<title>10h1</title>
<ellipse fill="red" stroke="red" cx="26.8" cy="-88.8" rx="1.8" ry="1.8"/>
</g>
<!-- 10&#45;&gt;10h1 -->
<g id="edge55" class="edge">
<title>10&#45;&gt;10h1</title>
<path fill="none" stroke="blue" d="M36.29,-127.98C32.71,-113.57 28.13,-95.15 27.04,-90.77"/>
</g>
<!-- 10h2 -->
<g id="node56" class="node">
<title>10h2</title>
<ellipse fill="black" stroke="black" cx="51.8" cy="-88.8" rx="1.8" ry="1.8"/>
</g>
<!-- 10&#45;&gt;10h2 -->
<g id="edge56" class="edge">
<title>10&#45;&gt;10h2</title>
<path fill="none" stroke="red" d="M44.4,-127.66C47.21,-113.3 50.77,-95.08 51.61,-90.75"/>
</g>
<!-- 10h3 -->
<g id="node57" class="node">
<title>10h3</title>
<ellipse fill="red" stroke="red" cx="76.8" cy="-88.8" rx="1.8" ry="1.8"/>
</g>
<!-- 10&#45;&gt;10h3 -->
<g id="edge58" class="edge">
<title>10&#45;&gt;10h3</title>
<path fill="none" stroke="gold" d="M51.02,-130.12C60.33,-115.55 73.09,-95.61 76.13,-90.85"/>
</g>
<!-- 10h0&#45;&gt;T -->
<g id="edge54" class="edge">
<title>10h0&#45;&gt;T</title>
<path fill="none" stroke="black" d="M2.09,-86.85C3.46,-82.58 9.56,-64.81 19.8,-54 26.09,-47.36 33.91,-41.53 41.75,-36.62"/>
<polygon fill="black" stroke="black" points="43.66,-39.56 50.52,-31.49 40.13,-33.52 43.66,-39.56"/>
<text text-anchor="middle" x="33.8" y="-57.8" font-family="Times,serif" font-size="14.00">(√½)</text>
</g>
<!-- 10h2&#45;&gt;T -->
<g id="edge57" class="edge">
<title>10h2&#45;&gt;T</title>
<path fill="none" stroke="black" d="M51.69,-86.93C51.2,-82.99 49.53,-66.46 53.8,-54 54.87,-50.86 56.31,-47.75 57.95,-44.74"/>
<polygon fill="black" stroke="black" points="60.99,-46.49 63.32,-36.15 55.06,-42.78 60.99,-46.49"/>
<text text-anchor="middle" x="67.8" y="-57.8" font-family="Times,serif" font-size="14.00">(√½)</text>
</g>
<!-- 11h0 -->
<g id="node59" class="node">
<title>11h0</title>
<ellipse fill="black" stroke="black" cx="103.8" cy="-88.8" rx="1.8" ry="1.8"/>
</g>
<!-- 11&#45;&gt;11h0 -->
<g id="edge59" class="edge">
<title>11&#45;&gt;11h0</title>
<path fill="none" stroke="darkgreen" d="M130.49,-130.42C120.91,-115.84 107.66,-95.68 104.5,-90.86"/>
</g>
<!-- 11h1 -->
<g id="node60" class="node">
<title>11h1</title>
<ellipse fill="red" stroke="red" cx="129.8" cy="-88.8" rx="1.8" ry="1.8"/>
</g>
<!-- 11&#45;&gt;11h1 -->
<g id="edge61" class="edge">
<title>11&#45;&gt;11h1</title>
<path fill="none" stroke="blue" d="M137.2,-127.66C134.39,-113.3 130.83,-95.08 129.99,-90.75"/>
</g>
<!-- 11h2 -->
<g id="node61" class="node">
<title>11h2</title>
<ellipse fill="black" stroke="black" cx="154.8" cy="-88.8" rx="1.8" ry="1.8"/>
</g>
<!-- 11&#45;&gt;11h2 -->
<g id="edge62" class="edge">
<title>11&#45;&gt;11h2</title>
<path fill="none" stroke="red" d="M145.31,-127.98C148.89,-113.57 153.47,-95.15 154.56,-90.77"/>
</g>
<!-- 11h3 -->
<g id="node62" class="node">
<title>11h3</title>
<ellipse fill="red" stroke="red" cx="179.8" cy="-88.8" rx="1.8" ry="1.8"/>
</g>
<!-- 11&#45;&gt;11h3 -->
<g id="edge64" class="edge">
<title>11&#45;&gt;11h3</title>
<path fill="none" stroke="gold" d="M151.46,-130.71C161.56,-116.13 175.68,-95.74 179.06,-90.87"/>
</g>
<!-- 11h0&#45;&gt;T -->
<g id="edge60" class="edge">
<title>11h0&#45;&gt;T</title>
<path fill="none" stroke="black" d="M103.43,-86.83C101.72,-82.29 94.33,-62.75 87.93,-45.79"/>
<polygon fill="black" stroke="black" points="91.13,-44.36 84.32,-36.24 84.58,-46.84 91.13,-44.36"/>
<text text-anchor="middle" x="110.8" y="-57.8" font-family="Times,serif" font-size="14.00">(√½)</text>
</g>
<!-- 11h2&#45;&gt;T -->
<g id="edge63" class="edge">
<title>11h2&#45;&gt;T</title>
<path fill="none" stroke="black" d="M154.25,-86.88C151.72,-82.73 140.84,-65.4 128.8,-54 124.09,-49.54 118.77,-45.24 113.38,-41.27"/>
<polygon fill="black" stroke="black" points="115.13,-38.22 104.94,-35.32 111.1,-43.94 115.13,-38.22"/>
<text text-anchor="middle" x="158.8" y="-57.8" font-family="Times,serif" font-size="14.00">(&#45;√½)</text>
</g>
</g>
</svg>
