<?xml version="1.0" encoding="UTF-8" standalone="no"?>
<!DOCTYPE svg PUBLIC "-//W3C//DTD SVG 1.1//EN"
 "http://www.w3.org/Graphics/SVG/1.1/DTD/svg11.dtd">
<!-- Generated by graphviz version 2.44.1 (20200629.0846)
 -->
<!-- Title: DD Pages: 1 -->
<svg width="671pt" height="1190pt"
 viewBox="0.00 0.00 670.80 1189.97" xmlns="http://www.w3.org/2000/svg" xmlns:xlink="http://www.w3.org/1999/xlink">
<g id="graph0" class="graph" transform="scale(1 1) rotate(0) translate(4 1185.97)">
<title>DD</title>
<polygon fill="white" stroke="transparent" points="-4,4 -4,-1185.97 666.8,-1185.97 666.8,4 -4,4"/>
<!-- T -->
<g id="node1" class="node">
<title>T</title>
<polygon fill="none" stroke="black" points="199.8,-36 145.8,-36 145.8,0 199.8,0 199.8,-36"/>
<text text-anchor="middle" x="172.8" y="-14.3" font-family="Times,serif" font-size="14.00">1</text>
</g>
<!-- R -->
<g id="node2" class="node">
<title>R</title>
<ellipse fill="black" stroke="black" cx="503.8" cy="-1180.17" rx="1.8" ry="1.8"/>
</g>
<!-- 0 -->
<g id="node3" class="node">
<title>0</title>
<ellipse fill="lightgray" stroke="black" cx="503.8" cy="-1107.87" rx="19.5" ry="19.5"/>
<text text-anchor="middle" x="503.8" y="-1104.17" font-family="Times,serif" font-size="14.00">q8</text>
</g>
<!-- R&#45;&gt;0 -->
<g id="edge1" class="edge">
<title>R&#45;&gt;0</title>
<path fill="none" stroke="black" d="M503.8,-1178.18C503.8,-1173.67 503.8,-1154.65 503.8,-1137.67"/>
<polygon fill="black" stroke="black" points="507.3,-1137.51 503.8,-1127.51 500.3,-1137.51 507.3,-1137.51"/>
<text text-anchor="middle" x="556.8" y="-1149.17" font-family="Times,serif" font-size="14.00">(0.55557&#45;0.83147i)</text>
</g>
<!-- 0h0 -->
<g id="node4" class="node">
<title>0h0</title>
<ellipse fill="black" stroke="black" cx="434.8" cy="-1049.57" rx="1.8" ry="1.8"/>
</g>
<!-- 0&#45;&gt;0h0 -->
<g id="edge2" class="edge">
<title>0&#45;&gt;0h0</title>
<path fill="none" stroke="darkgreen" d="M489.17,-1094.93C470.81,-1079.95 441.07,-1055.69 435.66,-1051.27"/>
</g>
<!-- 0h1 -->
<g id="node5" class="node">
<title>0h1</title>
<ellipse fill="red" stroke="red" cx="491.8" cy="-1049.57" rx="1.8" ry="1.8"/>
</g>
<!-- 0&#45;&gt;0h1 -->
<g id="edge4" class="edge">
<title>0&#45;&gt;0h1</title>
<path fill="none" stroke="blue" d="M499.94,-1088.75C496.87,-1074.35 492.94,-1055.92 492.01,-1051.54"/>
</g>
<!-- 0h2 -->
<g id="node6" class="node">
<title>0h2</title>
<ellipse fill="black" stroke="black" cx="518.8" cy="-1049.57" rx="1.8" ry="1.8"/>
</g>
<!-- 0&#45;&gt;0h2 -->
<g id="edge5" class="edge">
<title>0&#45;&gt;0h2</title>
<path fill="none" stroke="red" d="M508.63,-1088.75C512.47,-1074.35 517.38,-1055.92 518.54,-1051.54"/>
</g>
<!-- 0h3 -->
<g id="node7" class="node">
<title>0h3</title>
<ellipse fill="red" stroke="red" cx="541.8" cy="-1049.57" rx="1.8" ry="1.8"/>
</g>
<!-- 0&#45;&gt;0h3 -->
<g id="edge7" class="edge">
<title>0&#45;&gt;0h3</title>
<path fill="none" stroke="gold" d="M514.39,-1091.19C524.22,-1076.61 537.83,-1056.45 541.08,-1051.63"/>
</g>
<!-- 1 -->
<g id="node8" class="node">
<title>1</title>
<ellipse fill="lightgray" stroke="black" cx="386.8" cy="-977.27" rx="19.5" ry="19.5"/>
<text text-anchor="middle" x="386.8" y="-973.57" font-family="Times,serif" font-size="14.00">q7</text>
</g>
<!-- 0h0&#45;&gt;1 -->
<g id="edge3" class="edge">
<title>0h0&#45;&gt;1</title>
<path fill="none" stroke="black" d="M434.26,-1047.78C431.2,-1043.3 415.69,-1020.58 403.22,-1002.32"/>
<polygon fill="black" stroke="black" points="405.94,-1000.09 397.41,-993.81 400.16,-1004.04 405.94,-1000.09"/>
<text text-anchor="middle" x="454.8" y="-1018.57" font-family="Times,serif" font-size="14.00"> (0.832685)</text>
</g>
<!-- 2 -->
<g id="node13" class="node">
<title>2</title>
<ellipse fill="lightgray" stroke="black" cx="543.8" cy="-977.27" rx="19.5" ry="19.5"/>
<text text-anchor="middle" x="543.8" y="-973.57" font-family="Times,serif" font-size="14.00">q7</text>
</g>
<!-- 0h2&#45;&gt;2 -->
<g id="edge6" class="edge">
<title>0h2&#45;&gt;2</title>
<path fill="none" stroke="black" d="M519.08,-1047.78C520.58,-1043.57 527.79,-1023.28 534.05,-1005.7"/>
<polygon fill="black" stroke="black" points="537.51,-1006.4 537.56,-995.81 530.92,-1004.06 537.51,-1006.4"/>
<text text-anchor="middle" x="596.8" y="-1018.57" font-family="Times,serif" font-size="14.00"> (&#45;0.307645+0.460423i)</text>
</g>
<!-- 1h0 -->
<g id="node9" class="node">
<title>1h0</title>
<ellipse fill="black" stroke="black" cx="314.8" cy="-918.98" rx="1.8" ry="1.8"/>
</g>
<!-- 1&#45;&gt;1h0 -->
<g id="edge8" class="edge">
<title>1&#45;&gt;1h0</title>
<path fill="none" stroke="darkgreen" d="M371.88,-964.61C352.77,-949.66 321.42,-925.15 315.71,-920.69"/>
</g>
<!-- 1h1 -->
<g id="node10" class="node">
<title>1h1</title>
<ellipse fill="red" stroke="red" cx="361.8" cy="-918.98" rx="1.8" ry="1.8"/>
</g>
<!-- 1&#45;&gt;1h1 -->
<g id="edge10" class="edge">
<title>1&#45;&gt;1h1</title>
<path fill="none" stroke="blue" d="M379.16,-959.08C372.73,-944.59 364.26,-925.52 362.24,-920.98"/>
</g>
<!-- 1h2 -->
<g id="node11" class="node">
<title>1h2</title>
<ellipse fill="black" stroke="black" cx="386.8" cy="-918.98" rx="1.8" ry="1.8"/>
</g>
<!-- 1&#45;&gt;1h2 -->
<g id="edge11" class="edge">
<title>1&#45;&gt;1h2</title>
<path fill="none" stroke="red" d="M386.8,-957.53C386.8,-943.2 386.8,-925.19 386.8,-920.92"/>
</g>
<!-- 1h3 -->
<g id="node12" class="node">
<title>1h3</title>
<ellipse fill="red" stroke="red" cx="411.8" cy="-918.98" rx="1.8" ry="1.8"/>
</g>
<!-- 1&#45;&gt;1h3 -->
<g id="edge13" class="edge">
<title>1&#45;&gt;1h3</title>
<path fill="none" stroke="gold" d="M394.44,-959.08C400.87,-944.59 409.34,-925.52 411.36,-920.98"/>
</g>
<!-- 3 -->
<g id="node18" class="node">
<title>3</title>
<ellipse fill="lightgray" stroke="black" cx="290.8" cy="-846.68" rx="19.5" ry="19.5"/>
<text text-anchor="middle" x="290.8" y="-842.98" font-family="Times,serif" font-size="14.00">q6</text>
</g>
<!-- 1h0&#45;&gt;3 -->
<g id="edge9" class="edge">
<title>1h0&#45;&gt;3</title>
<path fill="none" stroke="black" d="M314.53,-917.19C313.1,-913 306.25,-892.93 300.27,-875.42"/>
<polygon fill="black" stroke="black" points="303.45,-873.89 296.9,-865.55 296.82,-876.15 303.45,-873.89"/>
<text text-anchor="middle" x="340.8" y="-887.98" font-family="Times,serif" font-size="14.00"> (0.746832)</text>
</g>
<!-- 4 -->
<g id="node23" class="node">
<title>4</title>
<ellipse fill="lightgray" stroke="black" cx="387.8" cy="-846.68" rx="19.5" ry="19.5"/>
<text text-anchor="middle" x="387.8" y="-842.98" font-family="Times,serif" font-size="14.00">q6</text>
</g>
<!-- 1h2&#45;&gt;4 -->
<g id="edge12" class="edge">
<title>1h2&#45;&gt;4</title>
<path fill="none" stroke="black" d="M386.81,-916.98C386.88,-912.48 387.15,-893.45 387.39,-876.48"/>
<polygon fill="black" stroke="black" points="390.89,-876.37 387.53,-866.32 383.89,-876.27 390.89,-876.37"/>
<text text-anchor="middle" x="451.8" y="-887.98" font-family="Times,serif" font-size="14.00"> (&#45;0.369461&#45;0.552938i)</text>
</g>
<!-- 2h0 -->
<g id="node14" class="node">
<title>2h0</title>
<ellipse fill="black" stroke="black" cx="519.8" cy="-918.98" rx="1.8" ry="1.8"/>
</g>
<!-- 2&#45;&gt;2h0 -->
<g id="edge14" class="edge">
<title>2&#45;&gt;2h0</title>
<path fill="none" stroke="darkgreen" d="M536.47,-959.08C530.29,-944.59 522.16,-925.52 520.23,-920.98"/>
</g>
<!-- 2h1 -->
<g id="node15" class="node">
<title>2h1</title>
<ellipse fill="red" stroke="red" cx="543.8" cy="-918.98" rx="1.8" ry="1.8"/>
</g>
<!-- 2&#45;&gt;2h1 -->
<g id="edge16" class="edge">
<title>2&#45;&gt;2h1</title>
<path fill="none" stroke="blue" d="M543.8,-957.53C543.8,-943.2 543.8,-925.19 543.8,-920.92"/>
</g>
<!-- 2h2 -->
<g id="node16" class="node">
<title>2h2</title>
<ellipse fill="red" stroke="red" cx="568.8" cy="-918.98" rx="1.8" ry="1.8"/>
</g>
<!-- 2&#45;&gt;2h2 -->
<g id="edge17" class="edge">
<title>2&#45;&gt;2h2</title>
<path fill="none" stroke="red" d="M551.44,-959.08C557.87,-944.59 566.34,-925.52 568.36,-920.98"/>
</g>
<!-- 2h3 -->
<g id="node17" class="node">
<title>2h3</title>
<ellipse fill="red" stroke="red" cx="593.8" cy="-918.98" rx="1.8" ry="1.8"/>
</g>
<!-- 2&#45;&gt;2h3 -->
<g id="edge18" class="edge">
<title>2&#45;&gt;2h3</title>
<path fill="none" stroke="gold" d="M556.42,-962.07C569.38,-947.47 588.28,-926.19 592.8,-921.1"/>
</g>
<!-- 5 -->
<g id="node28" class="node">
<title>5</title>
<ellipse fill="lightgray" stroke="black" cx="529.8" cy="-846.68" rx="19.5" ry="19.5"/>
<text text-anchor="middle" x="529.8" y="-842.98" font-family="Times,serif" font-size="14.00">q6</text>
</g>
<!-- 2h0&#45;&gt;5 -->
<g id="edge15" class="edge">
<title>2h0&#45;&gt;5</title>
<path fill="none" stroke="black" d="M519.94,-916.98C520.58,-912.48 523.29,-893.45 525.7,-876.48"/>
<polygon fill="black" stroke="black" points="529.21,-876.71 527.15,-866.32 522.27,-875.72 529.21,-876.71"/>
</g>
<!-- 3h0 -->
<g id="node19" class="node">
<title>3h0</title>
<ellipse fill="red" stroke="red" cx="240.8" cy="-788.38" rx="1.8" ry="1.8"/>
</g>
<!-- 3&#45;&gt;3h0 -->
<g id="edge19" class="edge">
<title>3&#45;&gt;3h0</title>
<path fill="none" stroke="darkgreen" d="M278.18,-831.47C265.22,-816.88 246.32,-795.6 241.8,-790.5"/>
</g>
<!-- 3h1 -->
<g id="node20" class="node">
<title>3h1</title>
<ellipse fill="red" stroke="red" cx="265.8" cy="-788.38" rx="1.8" ry="1.8"/>
</g>
<!-- 3&#45;&gt;3h1 -->
<g id="edge20" class="edge">
<title>3&#45;&gt;3h1</title>
<path fill="none" stroke="blue" d="M283.16,-828.48C276.73,-813.99 268.26,-794.92 266.24,-790.38"/>
</g>
<!-- 3h2 -->
<g id="node21" class="node">
<title>3h2</title>
<ellipse fill="black" stroke="black" cx="289.8" cy="-788.38" rx="1.8" ry="1.8"/>
</g>
<!-- 3&#45;&gt;3h2 -->
<g id="edge21" class="edge">
<title>3&#45;&gt;3h2</title>
<path fill="none" stroke="red" d="M290.47,-826.93C290.21,-812.6 289.89,-794.6 289.82,-790.32"/>
</g>
<!-- 3h3 -->
<g id="node22" class="node">
<title>3h3</title>
<ellipse fill="red" stroke="red" cx="315.8" cy="-788.38" rx="1.8" ry="1.8"/>
</g>
<!-- 3&#45;&gt;3h3 -->
<g id="edge23" class="edge">
<title>3&#45;&gt;3h3</title>
<path fill="none" stroke="gold" d="M298.44,-828.48C304.87,-813.99 313.34,-794.92 315.36,-790.38"/>
</g>
<!-- 6 -->
<g id="node33" class="node">
<title>6</title>
<ellipse fill="lightgray" stroke="black" cx="288.8" cy="-730.08" rx="19.5" ry="19.5"/>
<text text-anchor="middle" x="288.8" y="-726.38" font-family="Times,serif" font-size="14.00">q5</text>
</g>
<!-- 3h2&#45;&gt;6 -->
<g id="edge22" class="edge">
<title>3h2&#45;&gt;6</title>
<path fill="none" stroke="black" d="M289.78,-786.4C289.72,-783.04 289.52,-771.49 289.31,-759.81"/>
<polygon fill="black" stroke="black" points="292.81,-759.65 289.13,-749.72 285.81,-759.78 292.81,-759.65"/>
</g>
<!-- 4h0 -->
<g id="node24" class="node">
<title>4h0</title>
<ellipse fill="black" stroke="black" cx="362.8" cy="-788.38" rx="1.8" ry="1.8"/>
</g>
<!-- 4&#45;&gt;4h0 -->
<g id="edge24" class="edge">
<title>4&#45;&gt;4h0</title>
<path fill="none" stroke="darkgreen" d="M380.16,-828.48C373.73,-813.99 365.26,-794.92 363.24,-790.38"/>
</g>
<!-- 4h1 -->
<g id="node25" class="node">
<title>4h1</title>
<ellipse fill="red" stroke="red" cx="387.8" cy="-788.38" rx="1.8" ry="1.8"/>
</g>
<!-- 4&#45;&gt;4h1 -->
<g id="edge26" class="edge">
<title>4&#45;&gt;4h1</title>
<path fill="none" stroke="blue" d="M387.8,-826.93C387.8,-812.6 387.8,-794.6 387.8,-790.32"/>
</g>
<!-- 4h2 -->
<g id="node26" class="node">
<title>4h2</title>
<ellipse fill="red" stroke="red" cx="412.8" cy="-788.38" rx="1.8" ry="1.8"/>
</g>
<!-- 4&#45;&gt;4h2 -->
<g id="edge27" class="edge">
<title>4&#45;&gt;4h2</title>
<path fill="none" stroke="red" d="M395.44,-828.48C401.87,-813.99 410.34,-794.92 412.36,-790.38"/>
</g>
<!-- 4h3 -->
<g id="node27" class="node">
<title>4h3</title>
<ellipse fill="red" stroke="red" cx="437.8" cy="-788.38" rx="1.8" ry="1.8"/>
</g>
<!-- 4&#45;&gt;4h3 -->
<g id="edge28" class="edge">
<title>4&#45;&gt;4h3</title>
<path fill="none" stroke="gold" d="M400.42,-831.47C413.38,-816.88 432.28,-795.6 436.8,-790.5"/>
</g>
<!-- 7 -->
<g id="node38" class="node">
<title>7</title>
<ellipse fill="lightgray" stroke="black" cx="363.8" cy="-730.08" rx="19.5" ry="19.5"/>
<text text-anchor="middle" x="363.8" y="-726.38" font-family="Times,serif" font-size="14.00">q5</text>
</g>
<!-- 4h0&#45;&gt;7 -->
<g id="edge25" class="edge">
<title>4h0&#45;&gt;7</title>
<path fill="none" stroke="black" d="M362.82,-786.4C362.88,-783.04 363.08,-771.49 363.29,-759.81"/>
<polygon fill="black" stroke="black" points="366.79,-759.78 363.47,-749.72 359.79,-759.65 366.79,-759.78"/>
</g>
<!-- 5h0 -->
<g id="node29" class="node">
<title>5h0</title>
<ellipse fill="black" stroke="black" cx="485.8" cy="-788.38" rx="1.8" ry="1.8"/>
</g>
<!-- 5&#45;&gt;5h0 -->
<g id="edge29" class="edge">
<title>5&#45;&gt;5h0</title>
<path fill="none" stroke="darkgreen" d="M518.24,-830.89C506.83,-816.29 490.55,-795.46 486.66,-790.48"/>
</g>
<!-- 5h1 -->
<g id="node30" class="node">
<title>5h1</title>
<ellipse fill="red" stroke="red" cx="510.8" cy="-788.38" rx="1.8" ry="1.8"/>
</g>
<!-- 5&#45;&gt;5h1 -->
<g id="edge31" class="edge">
<title>5&#45;&gt;5h1</title>
<path fill="none" stroke="blue" d="M523.79,-827.86C518.92,-813.43 512.63,-794.79 511.13,-790.36"/>
</g>
<!-- 5h2 -->
<g id="node31" class="node">
<title>5h2</title>
<ellipse fill="red" stroke="red" cx="535.8" cy="-788.38" rx="1.8" ry="1.8"/>
</g>
<!-- 5&#45;&gt;5h2 -->
<g id="edge32" class="edge">
<title>5&#45;&gt;5h2</title>
<path fill="none" stroke="red" d="M531.76,-827.24C533.3,-812.88 535.24,-794.66 535.7,-790.33"/>
</g>
<!-- 5h3 -->
<g id="node32" class="node">
<title>5h3</title>
<ellipse fill="red" stroke="red" cx="560.8" cy="-788.38" rx="1.8" ry="1.8"/>
</g>
<!-- 5&#45;&gt;5h3 -->
<g id="edge33" class="edge">
<title>5&#45;&gt;5h3</title>
<path fill="none" stroke="gold" d="M538.93,-829.09C546.93,-814.56 557.68,-795.05 560.24,-790.4"/>
</g>
<!-- 8 -->
<g id="node43" class="node">
<title>8</title>
<ellipse fill="lightgray" stroke="black" cx="485.8" cy="-730.08" rx="19.5" ry="19.5"/>
<text text-anchor="middle" x="485.8" y="-726.38" font-family="Times,serif" font-size="14.00">q5</text>
</g>
<!-- 5h0&#45;&gt;8 -->
<g id="edge30" class="edge">
<title>5h0&#45;&gt;8</title>
<path fill="none" stroke="black" d="M485.8,-786.4C485.8,-783.04 485.8,-771.49 485.8,-759.81"/>
<polygon fill="black" stroke="black" points="489.3,-759.72 485.8,-749.72 482.3,-759.72 489.3,-759.72"/>
</g>
<!-- 6h0 -->
<g id="node34" class="node">
<title>6h0</title>
<ellipse fill="black" stroke="black" cx="238.8" cy="-671.78" rx="1.8" ry="1.8"/>
</g>
<!-- 6&#45;&gt;6h0 -->
<g id="edge34" class="edge">
<title>6&#45;&gt;6h0</title>
<path fill="none" stroke="darkgreen" d="M276.18,-714.87C263.22,-700.28 244.32,-679 239.8,-673.91"/>
</g>
<!-- 6h1 -->
<g id="node35" class="node">
<title>6h1</title>
<ellipse fill="red" stroke="red" cx="263.8" cy="-671.78" rx="1.8" ry="1.8"/>
</g>
<!-- 6&#45;&gt;6h1 -->
<g id="edge36" class="edge">
<title>6&#45;&gt;6h1</title>
<path fill="none" stroke="blue" d="M281.16,-711.88C274.73,-697.4 266.26,-678.33 264.24,-673.78"/>
</g>
<!-- 6h2 -->
<g id="node36" class="node">
<title>6h2</title>
<ellipse fill="red" stroke="red" cx="288.8" cy="-671.78" rx="1.8" ry="1.8"/>
</g>
<!-- 6&#45;&gt;6h2 -->
<g id="edge37" class="edge">
<title>6&#45;&gt;6h2</title>
<path fill="none" stroke="red" d="M288.8,-710.33C288.8,-696 288.8,-678 288.8,-673.72"/>
</g>
<!-- 6h3 -->
<g id="node37" class="node">
<title>6h3</title>
<ellipse fill="red" stroke="red" cx="313.8" cy="-671.78" rx="1.8" ry="1.8"/>
</g>
<!-- 6&#45;&gt;6h3 -->
<g id="edge38" class="edge">
<title>6&#45;&gt;6h3</title>
<path fill="none" stroke="gold" d="M296.44,-711.88C302.87,-697.4 311.34,-678.33 313.36,-673.78"/>
</g>
<!-- 9 -->
<g id="node48" class="node">
<title>9</title>
<ellipse fill="lightgray" stroke="black" cx="238.8" cy="-613.48" rx="19.5" ry="19.5"/>
<text text-anchor="middle" x="238.8" y="-609.78" font-family="Times,serif" font-size="14.00">q4</text>
</g>
<!-- 6h0&#45;&gt;9 -->
<g id="edge35" class="edge">
<title>6h0&#45;&gt;9</title>
<path fill="none" stroke="black" d="M238.8,-669.81C238.8,-666.44 238.8,-654.89 238.8,-643.21"/>
<polygon fill="black" stroke="black" points="242.3,-643.12 238.8,-633.12 235.3,-643.12 242.3,-643.12"/>
</g>
<!-- 7h0 -->
<g id="node39" class="node">
<title>7h0</title>
<ellipse fill="black" stroke="black" cx="338.8" cy="-671.78" rx="1.8" ry="1.8"/>
</g>
<!-- 7&#45;&gt;7h0 -->
<g id="edge39" class="edge">
<title>7&#45;&gt;7h0</title>
<path fill="none" stroke="darkgreen" d="M356.16,-711.88C349.73,-697.4 341.26,-678.33 339.24,-673.78"/>
</g>
<!-- 7h1 -->
<g id="node40" class="node">
<title>7h1</title>
<ellipse fill="red" stroke="red" cx="363.8" cy="-671.78" rx="1.8" ry="1.8"/>
</g>
<!-- 7&#45;&gt;7h1 -->
<g id="edge41" class="edge">
<title>7&#45;&gt;7h1</title>
<path fill="none" stroke="blue" d="M363.8,-710.33C363.8,-696 363.8,-678 363.8,-673.72"/>
</g>
<!-- 7h2 -->
<g id="node41" class="node">
<title>7h2</title>
<ellipse fill="red" stroke="red" cx="388.8" cy="-671.78" rx="1.8" ry="1.8"/>
</g>
<!-- 7&#45;&gt;7h2 -->
<g id="edge42" class="edge">
<title>7&#45;&gt;7h2</title>
<path fill="none" stroke="red" d="M371.44,-711.88C377.87,-697.4 386.34,-678.33 388.36,-673.78"/>
</g>
<!-- 7h3 -->
<g id="node42" class="node">
<title>7h3</title>
<ellipse fill="red" stroke="red" cx="413.8" cy="-671.78" rx="1.8" ry="1.8"/>
</g>
<!-- 7&#45;&gt;7h3 -->
<g id="edge43" class="edge">
<title>7&#45;&gt;7h3</title>
<path fill="none" stroke="gold" d="M376.42,-714.87C389.38,-700.28 408.28,-679 412.8,-673.91"/>
</g>
<!-- 10 -->
<g id="node53" class="node">
<title>10</title>
<ellipse fill="lightgray" stroke="black" cx="338.8" cy="-613.48" rx="19.5" ry="19.5"/>
<text text-anchor="middle" x="338.8" y="-609.78" font-family="Times,serif" font-size="14.00">q4</text>
</g>
<!-- 7h0&#45;&gt;10 -->
<g id="edge40" class="edge">
<title>7h0&#45;&gt;10</title>
<path fill="none" stroke="black" d="M338.8,-669.81C338.8,-666.44 338.8,-654.89 338.8,-643.21"/>
<polygon fill="black" stroke="black" points="342.3,-643.12 338.8,-633.12 335.3,-643.12 342.3,-643.12"/>
</g>
<!-- 8h0 -->
<g id="node44" class="node">
<title>8h0</title>
<ellipse fill="black" stroke="black" cx="438.8" cy="-671.78" rx="1.8" ry="1.8"/>
</g>
<!-- 8&#45;&gt;8h0 -->
<g id="edge44" class="edge">
<title>8&#45;&gt;8h0</title>
<path fill="none" stroke="darkgreen" d="M473.7,-714.58C461.51,-699.99 443.93,-678.93 439.73,-673.89"/>
</g>
<!-- 8h1 -->
<g id="node45" class="node">
<title>8h1</title>
<ellipse fill="red" stroke="red" cx="463.8" cy="-671.78" rx="1.8" ry="1.8"/>
</g>
<!-- 8&#45;&gt;8h1 -->
<g id="edge46" class="edge">
<title>8&#45;&gt;8h1</title>
<path fill="none" stroke="blue" d="M478.96,-711.58C473.31,-697.12 465.94,-678.26 464.19,-673.77"/>
</g>
<!-- 8h2 -->
<g id="node46" class="node">
<title>8h2</title>
<ellipse fill="red" stroke="red" cx="488.8" cy="-671.78" rx="1.8" ry="1.8"/>
</g>
<!-- 8&#45;&gt;8h2 -->
<g id="edge47" class="edge">
<title>8&#45;&gt;8h2</title>
<path fill="none" stroke="red" d="M486.8,-710.33C487.56,-696 488.52,-678 488.75,-673.72"/>
</g>
<!-- 8h3 -->
<g id="node47" class="node">
<title>8h3</title>
<ellipse fill="red" stroke="red" cx="513.8" cy="-671.78" rx="1.8" ry="1.8"/>
</g>
<!-- 8&#45;&gt;8h3 -->
<g id="edge48" class="edge">
<title>8&#45;&gt;8h3</title>
<path fill="none" stroke="gold" d="M494.2,-712.19C501.42,-697.68 511.01,-678.39 513.3,-673.8"/>
</g>
<!-- 11 -->
<g id="node58" class="node">
<title>11</title>
<ellipse fill="lightgray" stroke="black" cx="438.8" cy="-613.48" rx="19.5" ry="19.5"/>
<text text-anchor="middle" x="438.8" y="-609.78" font-family="Times,serif" font-size="14.00">q4</text>
</g>
<!-- 8h0&#45;&gt;11 -->
<g id="edge45" class="edge">
<title>8h0&#45;&gt;11</title>
<path fill="none" stroke="black" d="M438.8,-669.81C438.8,-666.44 438.8,-654.89 438.8,-643.21"/>
<polygon fill="black" stroke="black" points="442.3,-643.12 438.8,-633.12 435.3,-643.12 442.3,-643.12"/>
</g>
<!-- 9h0 -->
<g id="node49" class="node">
<title>9h0</title>
<ellipse fill="black" stroke="black" cx="192.8" cy="-555.19" rx="1.8" ry="1.8"/>
</g>
<!-- 9&#45;&gt;9h0 -->
<g id="edge49" class="edge">
<title>9&#45;&gt;9h0</title>
<path fill="none" stroke="darkgreen" d="M226.95,-597.99C215.03,-583.39 197.82,-562.33 193.71,-557.3"/>
</g>
<!-- 9h1 -->
<g id="node50" class="node">
<title>9h1</title>
<ellipse fill="red" stroke="red" cx="217.8" cy="-555.19" rx="1.8" ry="1.8"/>
</g>
<!-- 9&#45;&gt;9h1 -->
<g id="edge51" class="edge">
<title>9&#45;&gt;9h1</title>
<path fill="none" stroke="blue" d="M232.27,-594.98C226.88,-580.52 219.84,-561.66 218.17,-557.18"/>
</g>
<!-- 9h2 -->
<g id="node51" class="node">
<title>9h2</title>
<ellipse fill="red" stroke="red" cx="242.8" cy="-555.19" rx="1.8" ry="1.8"/>
</g>
<!-- 9&#45;&gt;9h2 -->
<g id="edge52" class="edge">
<title>9&#45;&gt;9h2</title>
<path fill="none" stroke="red" d="M240.13,-593.74C241.15,-579.41 242.43,-561.4 242.73,-557.13"/>
</g>
<!-- 9h3 -->
<g id="node52" class="node">
<title>9h3</title>
<ellipse fill="red" stroke="red" cx="267.8" cy="-555.19" rx="1.8" ry="1.8"/>
</g>
<!-- 9&#45;&gt;9h3 -->
<g id="edge53" class="edge">
<title>9&#45;&gt;9h3</title>
<path fill="none" stroke="gold" d="M247.34,-595.9C254.83,-581.37 264.88,-561.86 267.27,-557.21"/>
</g>
<!-- 12 -->
<g id="node63" class="node">
<title>12</title>
<ellipse fill="lightgray" stroke="black" cx="192.8" cy="-496.89" rx="19.5" ry="19.5"/>
<text text-anchor="middle" x="192.8" y="-493.19" font-family="Times,serif" font-size="14.00">q3</text>
</g>
<!-- 9h0&#45;&gt;12 -->
<g id="edge50" class="edge">
<title>9h0&#45;&gt;12</title>
<path fill="none" stroke="black" d="M192.8,-553.21C192.8,-549.84 192.8,-538.3 192.8,-526.62"/>
<polygon fill="black" stroke="black" points="196.3,-526.52 192.8,-516.52 189.3,-526.52 196.3,-526.52"/>
</g>
<!-- 10h0 -->
<g id="node54" class="node">
<title>10h0</title>
<ellipse fill="black" stroke="black" cx="310.8" cy="-555.19" rx="1.8" ry="1.8"/>
</g>
<!-- 10&#45;&gt;10h0 -->
<g id="edge54" class="edge">
<title>10&#45;&gt;10h0</title>
<path fill="none" stroke="darkgreen" d="M330.4,-595.59C323.18,-581.08 313.59,-561.79 311.3,-557.2"/>
</g>
<!-- 10h1 -->
<g id="node55" class="node">
<title>10h1</title>
<ellipse fill="red" stroke="red" cx="335.8" cy="-555.19" rx="1.8" ry="1.8"/>
</g>
<!-- 10&#45;&gt;10h1 -->
<g id="edge56" class="edge">
<title>10&#45;&gt;10h1</title>
<path fill="none" stroke="blue" d="M337.8,-593.74C337.04,-579.41 336.08,-561.4 335.85,-557.13"/>
</g>
<!-- 10h2 -->
<g id="node56" class="node">
<title>10h2</title>
<ellipse fill="red" stroke="red" cx="360.8" cy="-555.19" rx="1.8" ry="1.8"/>
</g>
<!-- 10&#45;&gt;10h2 -->
<g id="edge57" class="edge">
<title>10&#45;&gt;10h2</title>
<path fill="none" stroke="red" d="M345.64,-594.98C351.29,-580.52 358.66,-561.66 360.41,-557.18"/>
</g>
<!-- 10h3 -->
<g id="node57" class="node">
<title>10h3</title>
<ellipse fill="red" stroke="red" cx="385.8" cy="-555.19" rx="1.8" ry="1.8"/>
</g>
<!-- 10&#45;&gt;10h3 -->
<g id="edge58" class="edge">
<title>10&#45;&gt;10h3</title>
<path fill="none" stroke="gold" d="M350.9,-597.99C363.09,-583.39 380.67,-562.33 384.87,-557.3"/>
</g>
<!-- 13 -->
<g id="node68" class="node">
<title>13</title>
<ellipse fill="lightgray" stroke="black" cx="310.8" cy="-496.89" rx="19.5" ry="19.5"/>
<text text-anchor="middle" x="310.8" y="-493.19" font-family="Times,serif" font-size="14.00">q3</text>
</g>
<!-- 10h0&#45;&gt;13 -->
<g id="edge55" class="edge">
<title>10h0&#45;&gt;13</title>
<path fill="none" stroke="black" d="M310.8,-553.21C310.8,-549.84 310.8,-538.3 310.8,-526.62"/>
<polygon fill="black" stroke="black" points="314.3,-526.52 310.8,-516.52 307.3,-526.52 314.3,-526.52"/>
</g>
<!-- 11h0 -->
<g id="node59" class="node">
<title>11h0</title>
<ellipse fill="black" stroke="black" cx="410.8" cy="-555.19" rx="1.8" ry="1.8"/>
</g>
<!-- 11&#45;&gt;11h0 -->
<g id="edge59" class="edge">
<title>11&#45;&gt;11h0</title>
<path fill="none" stroke="darkgreen" d="M430.4,-595.59C423.18,-581.08 413.59,-561.79 411.3,-557.2"/>
</g>
<!-- 11h1 -->
<g id="node60" class="node">
<title>11h1</title>
<ellipse fill="red" stroke="red" cx="435.8" cy="-555.19" rx="1.8" ry="1.8"/>
</g>
<!-- 11&#45;&gt;11h1 -->
<g id="edge61" class="edge">
<title>11&#45;&gt;11h1</title>
<path fill="none" stroke="blue" d="M437.8,-593.74C437.04,-579.41 436.08,-561.4 435.85,-557.13"/>
</g>
<!-- 11h2 -->
<g id="node61" class="node">
<title>11h2</title>
<ellipse fill="red" stroke="red" cx="460.8" cy="-555.19" rx="1.8" ry="1.8"/>
</g>
<!-- 11&#45;&gt;11h2 -->
<g id="edge62" class="edge">
<title>11&#45;&gt;11h2</title>
<path fill="none" stroke="red" d="M445.64,-594.98C451.29,-580.52 458.66,-561.66 460.41,-557.18"/>
</g>
<!-- 11h3 -->
<g id="node62" class="node">
<title>11h3</title>
<ellipse fill="red" stroke="red" cx="485.8" cy="-555.19" rx="1.8" ry="1.8"/>
</g>
<!-- 11&#45;&gt;11h3 -->
<g id="edge63" class="edge">
<title>11&#45;&gt;11h3</title>
<path fill="none" stroke="gold" d="M450.9,-597.99C463.09,-583.39 480.67,-562.33 484.87,-557.3"/>
</g>
<!-- 14 -->
<g id="node73" class="node">
<title>14</title>
<ellipse fill="lightgray" stroke="black" cx="410.8" cy="-496.89" rx="19.5" ry="19.5"/>
<text text-anchor="middle" x="410.8" y="-493.19" font-family="Times,serif" font-size="14.00">q3</text>
</g>
<!-- 11h0&#45;&gt;14 -->
<g id="edge60" class="edge">
<title>11h0&#45;&gt;14</title>
<path fill="none" stroke="black" d="M410.8,-553.21C410.8,-549.84 410.8,-538.3 410.8,-526.62"/>
<polygon fill="black" stroke="black" points="414.3,-526.52 410.8,-516.52 407.3,-526.52 414.3,-526.52"/>
</g>
<!-- 12h0 -->
<g id="node64" class="node">
<title>12h0</title>
<ellipse fill="black" stroke="black" cx="154.8" cy="-438.59" rx="1.8" ry="1.8"/>
</g>
<!-- 12&#45;&gt;12h0 -->
<g id="edge64" class="edge">
<title>12&#45;&gt;12h0</title>
<path fill="none" stroke="darkgreen" d="M182.21,-480.21C172.38,-465.63 158.77,-445.47 155.52,-440.65"/>
</g>
<!-- 12h1 -->
<g id="node65" class="node">
<title>12h1</title>
<ellipse fill="red" stroke="red" cx="179.8" cy="-438.59" rx="1.8" ry="1.8"/>
</g>
<!-- 12&#45;&gt;12h1 -->
<g id="edge66" class="edge">
<title>12&#45;&gt;12h1</title>
<path fill="none" stroke="blue" d="M188.62,-477.76C185.29,-463.36 181.03,-444.94 180.02,-440.55"/>
</g>
<!-- 12h2 -->
<g id="node66" class="node">
<title>12h2</title>
<ellipse fill="red" stroke="red" cx="204.8" cy="-438.59" rx="1.8" ry="1.8"/>
</g>
<!-- 12&#45;&gt;12h2 -->
<g id="edge67" class="edge">
<title>12&#45;&gt;12h2</title>
<path fill="none" stroke="red" d="M196.66,-477.76C199.73,-463.36 203.66,-444.94 204.59,-440.55"/>
</g>
<!-- 12h3 -->
<g id="node67" class="node">
<title>12h3</title>
<ellipse fill="red" stroke="red" cx="229.8" cy="-438.59" rx="1.8" ry="1.8"/>
</g>
<!-- 12&#45;&gt;12h3 -->
<g id="edge68" class="edge">
<title>12&#45;&gt;12h3</title>
<path fill="none" stroke="gold" d="M203.11,-480.21C212.69,-465.63 225.94,-445.47 229.1,-440.65"/>
</g>
<!-- 15 -->
<g id="node78" class="node">
<title>15</title>
<ellipse fill="lightgray" stroke="black" cx="154.8" cy="-380.29" rx="19.5" ry="19.5"/>
<text text-anchor="middle" x="154.8" y="-376.59" font-family="Times,serif" font-size="14.00">q2</text>
</g>
<!-- 12h0&#45;&gt;15 -->
<g id="edge65" class="edge">
<title>12h0&#45;&gt;15</title>
<path fill="none" stroke="black" d="M154.8,-436.61C154.8,-433.25 154.8,-421.7 154.8,-410.02"/>
<polygon fill="black" stroke="black" points="158.3,-409.93 154.8,-399.93 151.3,-409.93 158.3,-409.93"/>
</g>
<!-- 13h0 -->
<g id="node69" class="node">
<title>13h0</title>
<ellipse fill="black" stroke="black" cx="260.8" cy="-438.59" rx="1.8" ry="1.8"/>
</g>
<!-- 13&#45;&gt;13h0 -->
<g id="edge69" class="edge">
<title>13&#45;&gt;13h0</title>
<path fill="none" stroke="darkgreen" d="M298.18,-481.68C285.22,-467.09 266.32,-445.81 261.8,-440.71"/>
</g>
<!-- 13h1 -->
<g id="node70" class="node">
<title>13h1</title>
<ellipse fill="red" stroke="red" cx="285.8" cy="-438.59" rx="1.8" ry="1.8"/>
</g>
<!-- 13&#45;&gt;13h1 -->
<g id="edge71" class="edge">
<title>13&#45;&gt;13h1</title>
<path fill="none" stroke="blue" d="M303.16,-478.69C296.73,-464.2 288.26,-445.13 286.24,-440.59"/>
</g>
<!-- 13h2 -->
<g id="node71" class="node">
<title>13h2</title>
<ellipse fill="red" stroke="red" cx="310.8" cy="-438.59" rx="1.8" ry="1.8"/>
</g>
<!-- 13&#45;&gt;13h2 -->
<g id="edge72" class="edge">
<title>13&#45;&gt;13h2</title>
<path fill="none" stroke="red" d="M310.8,-477.14C310.8,-462.81 310.8,-444.81 310.8,-440.53"/>
</g>
<!-- 13h3 -->
<g id="node72" class="node">
<title>13h3</title>
<ellipse fill="red" stroke="red" cx="335.8" cy="-438.59" rx="1.8" ry="1.8"/>
</g>
<!-- 13&#45;&gt;13h3 -->
<g id="edge73" class="edge">
<title>13&#45;&gt;13h3</title>
<path fill="none" stroke="gold" d="M318.44,-478.69C324.87,-464.2 333.34,-445.13 335.36,-440.59"/>
</g>
<!-- 16 -->
<g id="node83" class="node">
<title>16</title>
<ellipse fill="lightgray" stroke="black" cx="260.8" cy="-380.29" rx="19.5" ry="19.5"/>
<text text-anchor="middle" x="260.8" y="-376.59" font-family="Times,serif" font-size="14.00">q2</text>
</g>
<!-- 13h0&#45;&gt;16 -->
<g id="edge70" class="edge">
<title>13h0&#45;&gt;16</title>
<path fill="none" stroke="black" d="M260.8,-436.61C260.8,-433.25 260.8,-421.7 260.8,-410.02"/>
<polygon fill="black" stroke="black" points="264.3,-409.93 260.8,-399.93 257.3,-409.93 264.3,-409.93"/>
</g>
<!-- 14h0 -->
<g id="node74" class="node">
<title>14h0</title>
<ellipse fill="black" stroke="black" cx="360.8" cy="-438.59" rx="1.8" ry="1.8"/>
</g>
<!-- 14&#45;&gt;14h0 -->
<g id="edge74" class="edge">
<title>14&#45;&gt;14h0</title>
<path fill="none" stroke="darkgreen" d="M398.18,-481.68C385.22,-467.09 366.32,-445.81 361.8,-440.71"/>
</g>
<!-- 14h1 -->
<g id="node75" class="node">
<title>14h1</title>
<ellipse fill="red" stroke="red" cx="385.8" cy="-438.59" rx="1.8" ry="1.8"/>
</g>
<!-- 14&#45;&gt;14h1 -->
<g id="edge76" class="edge">
<title>14&#45;&gt;14h1</title>
<path fill="none" stroke="blue" d="M403.16,-478.69C396.73,-464.2 388.26,-445.13 386.24,-440.59"/>
</g>
<!-- 14h2 -->
<g id="node76" class="node">
<title>14h2</title>
<ellipse fill="red" stroke="red" cx="410.8" cy="-438.59" rx="1.8" ry="1.8"/>
</g>
<!-- 14&#45;&gt;14h2 -->
<g id="edge77" class="edge">
<title>14&#45;&gt;14h2</title>
<path fill="none" stroke="red" d="M410.8,-477.14C410.8,-462.81 410.8,-444.81 410.8,-440.53"/>
</g>
<!-- 14h3 -->
<g id="node77" class="node">
<title>14h3</title>
<ellipse fill="red" stroke="red" cx="435.8" cy="-438.59" rx="1.8" ry="1.8"/>
</g>
<!-- 14&#45;&gt;14h3 -->
<g id="edge78" class="edge">
<title>14&#45;&gt;14h3</title>
<path fill="none" stroke="gold" d="M418.44,-478.69C424.87,-464.2 433.34,-445.13 435.36,-440.59"/>
</g>
<!-- 17 -->
<g id="node88" class="node">
<title>17</title>
<ellipse fill="lightgray" stroke="black" cx="360.8" cy="-380.29" rx="19.5" ry="19.5"/>
<text text-anchor="middle" x="360.8" y="-376.59" font-family="Times,serif" font-size="14.00">q2</text>
</g>
<!-- 14h0&#45;&gt;17 -->
<g id="edge75" class="edge">
<title>14h0&#45;&gt;17</title>
<path fill="none" stroke="black" d="M360.8,-436.61C360.8,-433.25 360.8,-421.7 360.8,-410.02"/>
<polygon fill="black" stroke="black" points="364.3,-409.93 360.8,-399.93 357.3,-409.93 364.3,-409.93"/>
</g>
<!-- 15h0 -->
<g id="node79" class="node">
<title>15h0</title>
<ellipse fill="black" stroke="black" cx="110.8" cy="-321.99" rx="1.8" ry="1.8"/>
</g>
<!-- 15&#45;&gt;15h0 -->
<g id="edge79" class="edge">
<title>15&#45;&gt;15h0</title>
<path fill="none" stroke="darkgreen" d="M143.24,-364.5C131.83,-349.9 115.55,-329.07 111.66,-324.09"/>
</g>
<!-- 15h1 -->
<g id="node80" class="node">
<title>15h1</title>
<ellipse fill="red" stroke="red" cx="135.8" cy="-321.99" rx="1.8" ry="1.8"/>
</g>
<!-- 15&#45;&gt;15h1 -->
<g id="edge81" class="edge">
<title>15&#45;&gt;15h1</title>
<path fill="none" stroke="blue" d="M148.79,-361.48C143.92,-347.05 137.63,-328.41 136.13,-323.97"/>
</g>
<!-- 15h2 -->
<g id="node81" class="node">
<title>15h2</title>
<ellipse fill="red" stroke="red" cx="160.8" cy="-321.99" rx="1.8" ry="1.8"/>
</g>
<!-- 15&#45;&gt;15h2 -->
<g id="edge82" class="edge">
<title>15&#45;&gt;15h2</title>
<path fill="none" stroke="red" d="M156.76,-360.86C158.3,-346.49 160.24,-328.28 160.7,-323.95"/>
</g>
<!-- 15h3 -->
<g id="node82" class="node">
<title>15h3</title>
<ellipse fill="red" stroke="red" cx="185.8" cy="-321.99" rx="1.8" ry="1.8"/>
</g>
<!-- 15&#45;&gt;15h3 -->
<g id="edge83" class="edge">
<title>15&#45;&gt;15h3</title>
<path fill="none" stroke="gold" d="M163.93,-362.7C171.93,-348.17 182.68,-328.67 185.24,-324.02"/>
</g>
<!-- 18 -->
<g id="node93" class="node">
<title>18</title>
<ellipse fill="lightgray" stroke="black" cx="110.8" cy="-263.69" rx="19.5" ry="19.5"/>
<text text-anchor="middle" x="110.8" y="-259.99" font-family="Times,serif" font-size="14.00">q1</text>
</g>
<!-- 15h0&#45;&gt;18 -->
<g id="edge80" class="edge">
<title>15h0&#45;&gt;18</title>
<path fill="none" stroke="black" d="M110.8,-320.02C110.8,-316.65 110.8,-305.1 110.8,-293.42"/>
<polygon fill="black" stroke="black" points="114.3,-293.33 110.8,-283.33 107.3,-293.33 114.3,-293.33"/>
</g>
<!-- 16h0 -->
<g id="node84" class="node">
<title>16h0</title>
<ellipse fill="black" stroke="black" cx="210.8" cy="-321.99" rx="1.8" ry="1.8"/>
</g>
<!-- 16&#45;&gt;16h0 -->
<g id="edge84" class="edge">
<title>16&#45;&gt;16h0</title>
<path fill="none" stroke="darkgreen" d="M248.18,-365.08C235.22,-350.49 216.32,-329.21 211.8,-324.12"/>
</g>
<!-- 16h1 -->
<g id="node85" class="node">
<title>16h1</title>
<ellipse fill="red" stroke="red" cx="235.8" cy="-321.99" rx="1.8" ry="1.8"/>
</g>
<!-- 16&#45;&gt;16h1 -->
<g id="edge86" class="edge">
<title>16&#45;&gt;16h1</title>
<path fill="none" stroke="blue" d="M253.16,-362.09C246.73,-347.61 238.26,-328.54 236.24,-323.99"/>
</g>
<!-- 16h2 -->
<g id="node86" class="node">
<title>16h2</title>
<ellipse fill="red" stroke="red" cx="260.8" cy="-321.99" rx="1.8" ry="1.8"/>
</g>
<!-- 16&#45;&gt;16h2 -->
<g id="edge87" class="edge">
<title>16&#45;&gt;16h2</title>
<path fill="none" stroke="red" d="M260.8,-360.54C260.8,-346.21 260.8,-328.21 260.8,-323.93"/>
</g>
<!-- 16h3 -->
<g id="node87" class="node">
<title>16h3</title>
<ellipse fill="red" stroke="red" cx="285.8" cy="-321.99" rx="1.8" ry="1.8"/>
</g>
<!-- 16&#45;&gt;16h3 -->
<g id="edge88" class="edge">
<title>16&#45;&gt;16h3</title>
<path fill="none" stroke="gold" d="M268.44,-362.09C274.87,-347.61 283.34,-328.54 285.36,-323.99"/>
</g>
<!-- 19 -->
<g id="node98" class="node">
<title>19</title>
<ellipse fill="lightgray" stroke="black" cx="210.8" cy="-263.69" rx="19.5" ry="19.5"/>
<text text-anchor="middle" x="210.8" y="-259.99" font-family="Times,serif" font-size="14.00">q1</text>
</g>
<!-- 16h0&#45;&gt;19 -->
<g id="edge85" class="edge">
<title>16h0&#45;&gt;19</title>
<path fill="none" stroke="black" d="M210.8,-320.02C210.8,-316.65 210.8,-305.1 210.8,-293.42"/>
<polygon fill="black" stroke="black" points="214.3,-293.33 210.8,-283.33 207.3,-293.33 214.3,-293.33"/>
</g>
<!-- 17h0 -->
<g id="node89" class="node">
<title>17h0</title>
<ellipse fill="black" stroke="black" cx="310.8" cy="-321.99" rx="1.8" ry="1.8"/>
</g>
<!-- 17&#45;&gt;17h0 -->
<g id="edge89" class="edge">
<title>17&#45;&gt;17h0</title>
<path fill="none" stroke="darkgreen" d="M348.18,-365.08C335.22,-350.49 316.32,-329.21 311.8,-324.12"/>
</g>
<!-- 17h1 -->
<g id="node90" class="node">
<title>17h1</title>
<ellipse fill="red" stroke="red" cx="335.8" cy="-321.99" rx="1.8" ry="1.8"/>
</g>
<!-- 17&#45;&gt;17h1 -->
<g id="edge91" class="edge">
<title>17&#45;&gt;17h1</title>
<path fill="none" stroke="blue" d="M353.16,-362.09C346.73,-347.61 338.26,-328.54 336.24,-323.99"/>
</g>
<!-- 17h2 -->
<g id="node91" class="node">
<title>17h2</title>
<ellipse fill="red" stroke="red" cx="360.8" cy="-321.99" rx="1.8" ry="1.8"/>
</g>
<!-- 17&#45;&gt;17h2 -->
<g id="edge92" class="edge">
<title>17&#45;&gt;17h2</title>
<path fill="none" stroke="red" d="M360.8,-360.54C360.8,-346.21 360.8,-328.21 360.8,-323.93"/>
</g>
<!-- 17h3 -->
<g id="node92" class="node">
<title>17h3</title>
<ellipse fill="red" stroke="red" cx="385.8" cy="-321.99" rx="1.8" ry="1.8"/>
</g>
<!-- 17&#45;&gt;17h3 -->
<g id="edge93" class="edge">
<title>17&#45;&gt;17h3</title>
<path fill="none" stroke="gold" d="M368.44,-362.09C374.87,-347.61 383.34,-328.54 385.36,-323.99"/>
</g>
<!-- 20 -->
<g id="node103" class="node">
<title>20</title>
<ellipse fill="lightgray" stroke="black" cx="310.8" cy="-263.69" rx="19.5" ry="19.5"/>
<text text-anchor="middle" x="310.8" y="-259.99" font-family="Times,serif" font-size="14.00">q1</text>
</g>
<!-- 17h0&#45;&gt;20 -->
<g id="edge90" class="edge">
<title>17h0&#45;&gt;20</title>
<path fill="none" stroke="black" d="M310.8,-320.02C310.8,-316.65 310.8,-305.1 310.8,-293.42"/>
<polygon fill="black" stroke="black" points="314.3,-293.33 310.8,-283.33 307.3,-293.33 314.3,-293.33"/>
</g>
<!-- 18h0 -->
<g id="node94" class="node">
<title>18h0</title>
<ellipse fill="black" stroke="black" cx="67.8" cy="-205.4" rx="1.8" ry="1.8"/>
</g>
<!-- 18&#45;&gt;18h0 -->
<g id="edge94" class="edge">
<title>18&#45;&gt;18h0</title>
<path fill="none" stroke="darkgreen" d="M99.28,-247.61C88.13,-233.02 72.39,-212.41 68.63,-207.48"/>
</g>
<!-- 18h1 -->
<g id="node95" class="node">
<title>18h1</title>
<ellipse fill="red" stroke="red" cx="92.8" cy="-205.4" rx="1.8" ry="1.8"/>
</g>
<!-- 18&#45;&gt;18h1 -->
<g id="edge96" class="edge">
<title>18&#45;&gt;18h1</title>
<path fill="none" stroke="blue" d="M105.1,-244.88C100.49,-230.45 94.53,-211.81 93.11,-207.37"/>
</g>
<!-- 18h2 -->
<g id="node96" class="node">
<title>18h2</title>
<ellipse fill="red" stroke="red" cx="117.8" cy="-205.4" rx="1.8" ry="1.8"/>
</g>
<!-- 18&#45;&gt;18h2 -->
<g id="edge97" class="edge">
<title>18&#45;&gt;18h2</title>
<path fill="none" stroke="red" d="M113.09,-244.26C114.88,-229.89 117.14,-211.68 117.68,-207.35"/>
</g>
<!-- 18h3 -->
<g id="node97" class="node">
<title>18h3</title>
<ellipse fill="red" stroke="red" cx="142.8" cy="-205.4" rx="1.8" ry="1.8"/>
</g>
<!-- 18&#45;&gt;18h3 -->
<g id="edge98" class="edge">
<title>18&#45;&gt;18h3</title>
<path fill="none" stroke="gold" d="M120.06,-246.41C128.33,-231.86 139.54,-212.14 142.21,-207.43"/>
</g>
<!-- 21 -->
<g id="node108" class="node">
<title>21</title>
<ellipse fill="lightgray" stroke="black" cx="67.8" cy="-147.1" rx="19.5" ry="19.5"/>
<text text-anchor="middle" x="67.8" y="-143.4" font-family="Times,serif" font-size="14.00">q0</text>
</g>
<!-- 18h0&#45;&gt;21 -->
<g id="edge95" class="edge">
<title>18h0&#45;&gt;21</title>
<path fill="none" stroke="black" d="M67.8,-203.42C67.8,-200.05 67.8,-188.51 67.8,-176.83"/>
<polygon fill="black" stroke="black" points="71.3,-176.73 67.8,-166.73 64.3,-176.73 71.3,-176.73"/>
</g>
<!-- 19h0 -->
<g id="node99" class="node">
<title>19h0</title>
<ellipse fill="black" stroke="black" cx="173.8" cy="-205.4" rx="1.8" ry="1.8"/>
</g>
<!-- 19&#45;&gt;19h0 -->
<g id="edge99" class="edge">
<title>19&#45;&gt;19h0</title>
<path fill="none" stroke="darkgreen" d="M200.49,-247.01C190.91,-232.44 177.66,-212.27 174.5,-207.46"/>
</g>
<!-- 19h1 -->
<g id="node100" class="node">
<title>19h1</title>
<ellipse fill="red" stroke="red" cx="198.8" cy="-205.4" rx="1.8" ry="1.8"/>
</g>
<!-- 19&#45;&gt;19h1 -->
<g id="edge101" class="edge">
<title>19&#45;&gt;19h1</title>
<path fill="none" stroke="blue" d="M206.94,-244.57C203.87,-230.17 199.94,-211.74 199.01,-207.36"/>
</g>
<!-- 19h2 -->
<g id="node101" class="node">
<title>19h2</title>
<ellipse fill="red" stroke="red" cx="223.8" cy="-205.4" rx="1.8" ry="1.8"/>
</g>
<!-- 19&#45;&gt;19h2 -->
<g id="edge102" class="edge">
<title>19&#45;&gt;19h2</title>
<path fill="none" stroke="red" d="M214.98,-244.57C218.31,-230.17 222.57,-211.74 223.58,-207.36"/>
</g>
<!-- 19h3 -->
<g id="node102" class="node">
<title>19h3</title>
<ellipse fill="red" stroke="red" cx="248.8" cy="-205.4" rx="1.8" ry="1.8"/>
</g>
<!-- 19&#45;&gt;19h3 -->
<g id="edge103" class="edge">
<title>19&#45;&gt;19h3</title>
<path fill="none" stroke="gold" d="M221.39,-247.01C231.22,-232.44 244.83,-212.27 248.08,-207.46"/>
</g>
<!-- 22 -->
<g id="node113" class="node">
<title>22</title>
<ellipse fill="lightgray" stroke="black" cx="173.8" cy="-147.1" rx="19.5" ry="19.5"/>
<text text-anchor="middle" x="173.8" y="-143.4" font-family="Times,serif" font-size="14.00">q0</text>
</g>
<!-- 19h0&#45;&gt;22 -->
<g id="edge100" class="edge">
<title>19h0&#45;&gt;22</title>
<path fill="none" stroke="black" d="M173.8,-203.42C173.8,-200.05 173.8,-188.51 173.8,-176.83"/>
<polygon fill="black" stroke="black" points="177.3,-176.73 173.8,-166.73 170.3,-176.73 177.3,-176.73"/>
</g>
<!-- 20h0 -->
<g id="node104" class="node">
<title>20h0</title>
<ellipse fill="black" stroke="black" cx="273.8" cy="-205.4" rx="1.8" ry="1.8"/>
</g>
<!-- 20&#45;&gt;20h0 -->
<g id="edge104" class="edge">
<title>20&#45;&gt;20h0</title>
<path fill="none" stroke="darkgreen" d="M300.49,-247.01C290.91,-232.44 277.66,-212.27 274.5,-207.46"/>
</g>
<!-- 20h1 -->
<g id="node105" class="node">
<title>20h1</title>
<ellipse fill="red" stroke="red" cx="298.8" cy="-205.4" rx="1.8" ry="1.8"/>
</g>
<!-- 20&#45;&gt;20h1 -->
<g id="edge106" class="edge">
<title>20&#45;&gt;20h1</title>
<path fill="none" stroke="blue" d="M306.94,-244.57C303.87,-230.17 299.94,-211.74 299.01,-207.36"/>
</g>
<!-- 20h2 -->
<g id="node106" class="node">
<title>20h2</title>
<ellipse fill="red" stroke="red" cx="323.8" cy="-205.4" rx="1.8" ry="1.8"/>
</g>
<!-- 20&#45;&gt;20h2 -->
<g id="edge107" class="edge">
<title>20&#45;&gt;20h2</title>
<path fill="none" stroke="red" d="M314.98,-244.57C318.31,-230.17 322.57,-211.74 323.58,-207.36"/>
</g>
<!-- 20h3 -->
<g id="node107" class="node">
<title>20h3</title>
<ellipse fill="red" stroke="red" cx="348.8" cy="-205.4" rx="1.8" ry="1.8"/>
</g>
<!-- 20&#45;&gt;20h3 -->
<g id="edge108" class="edge">
<title>20&#45;&gt;20h3</title>
<path fill="none" stroke="gold" d="M321.39,-247.01C331.22,-232.44 344.83,-212.27 348.08,-207.46"/>
</g>
<!-- 23 -->
<g id="node118" class="node">
<title>23</title>
<ellipse fill="lightgray" stroke="black" cx="273.8" cy="-147.1" rx="19.5" ry="19.5"/>
<text text-anchor="middle" x="273.8" y="-143.4" font-family="Times,serif" font-size="14.00">q0</text>
</g>
<!-- 20h0&#45;&gt;23 -->
<g id="edge105" class="edge">
<title>20h0&#45;&gt;23</title>
<path fill="none" stroke="black" d="M273.8,-203.42C273.8,-200.05 273.8,-188.51 273.8,-176.83"/>
<polygon fill="black" stroke="black" points="277.3,-176.73 273.8,-166.73 270.3,-176.73 277.3,-176.73"/>
</g>
<!-- 21h0 -->
<g id="node109" class="node">
<title>21h0</title>
<ellipse fill="black" stroke="black" cx="1.8" cy="-88.8" rx="1.8" ry="1.8"/>
</g>
<!-- 21&#45;&gt;21h0 -->
<g id="edge109" class="edge">
<title>21&#45;&gt;21h0</title>
<path fill="none" stroke="darkgreen" d="M53.15,-133.6C35.53,-118.57 7.67,-94.81 2.6,-90.49"/>
</g>
<!-- 21h1 -->
<g id="node110" class="node">
<title>21h1</title>
<ellipse fill="red" stroke="red" cx="47.8" cy="-88.8" rx="1.8" ry="1.8"/>
</g>
<!-- 21&#45;&gt;21h1 -->
<g id="edge111" class="edge">
<title>21&#45;&gt;21h1</title>
<path fill="none" stroke="blue" d="M61.58,-128.59C56.44,-114.13 49.75,-95.28 48.15,-90.79"/>
</g>
<!-- 21h2 -->
<g id="node111" class="node">
<title>21h2</title>
<ellipse fill="black" stroke="black" cx="74.8" cy="-88.8" rx="1.8" ry="1.8"/>
</g>
<!-- 21&#45;&gt;21h2 -->
<g id="edge112" class="edge">
<title>21&#45;&gt;21h2</title>
<path fill="none" stroke="red" d="M70.09,-127.66C71.88,-113.3 74.14,-95.08 74.68,-90.75"/>
</g>
<!-- 21h3 -->
<g id="node112" class="node">
<title>21h3</title>
<ellipse fill="red" stroke="red" cx="97.8" cy="-88.8" rx="1.8" ry="1.8"/>
</g>
<!-- 21&#45;&gt;21h3 -->
<g id="edge114" class="edge">
<title>21&#45;&gt;21h3</title>
<path fill="none" stroke="gold" d="M76.64,-129.51C84.38,-114.98 94.78,-95.47 97.25,-90.83"/>
</g>
<!-- 21h0&#45;&gt;T -->
<g id="edge110" class="edge">
<title>21h0&#45;&gt;T</title>
<path fill="none" stroke="black" d="M1.83,-86.78C2,-82.19 3.34,-63.23 13.8,-54 31.63,-38.27 94.69,-28.1 135.84,-22.97"/>
<polygon fill="black" stroke="black" points="136.28,-26.44 145.79,-21.78 135.44,-19.49 136.28,-26.44"/>
<text text-anchor="middle" x="44.3" y="-57.8" font-family="Times,serif" font-size="14.00">(0.980785)</text>
</g>
<!-- 21h2&#45;&gt;T -->
<g id="edge113" class="edge">
<title>21h2&#45;&gt;T</title>
<path fill="none" stroke="black" d="M74.83,-86.82C75.02,-82.4 76.36,-64.1 85.8,-54 98.99,-39.88 118.66,-31.33 135.95,-26.22"/>
<polygon fill="black" stroke="black" points="137.04,-29.55 145.8,-23.59 135.23,-22.79 137.04,-29.55"/>
<text text-anchor="middle" x="117.8" y="-57.8" font-family="Times,serif" font-size="14.00">(+½**4 πi)</text>
</g>
<!-- 22h0 -->
<g id="node114" class="node">
<title>22h0</title>
<ellipse fill="black" stroke="black" cx="144.8" cy="-88.8" rx="1.8" ry="1.8"/>
</g>
<!-- 22&#45;&gt;22h0 -->
<g id="edge115" class="edge">
<title>22&#45;&gt;22h0</title>
<path fill="none" stroke="darkgreen" d="M165.26,-129.51C157.77,-114.98 147.72,-95.47 145.33,-90.83"/>
</g>
<!-- 22h1 -->
<g id="node115" class="node">
<title>22h1</title>
<ellipse fill="red" stroke="red" cx="167.8" cy="-88.8" rx="1.8" ry="1.8"/>
</g>
<!-- 22&#45;&gt;22h1 -->
<g id="edge117" class="edge">
<title>22&#45;&gt;22h1</title>
<path fill="none" stroke="blue" d="M171.84,-127.66C170.3,-113.3 168.36,-95.08 167.9,-90.75"/>
</g>
<!-- 22h2 -->
<g id="node116" class="node">
<title>22h2</title>
<ellipse fill="black" stroke="black" cx="190.8" cy="-88.8" rx="1.8" ry="1.8"/>
</g>
<!-- 22&#45;&gt;22h2 -->
<g id="edge118" class="edge">
<title>22&#45;&gt;22h2</title>
<path fill="none" stroke="red" d="M179.18,-128.29C183.54,-113.85 189.17,-95.21 190.5,-90.78"/>
</g>
<!-- 22h3 -->
<g id="node117" class="node">
<title>22h3</title>
<ellipse fill="red" stroke="red" cx="217.8" cy="-88.8" rx="1.8" ry="1.8"/>
</g>
<!-- 22&#45;&gt;22h3 -->
<g id="edge120" class="edge">
<title>22&#45;&gt;22h3</title>
<path fill="none" stroke="gold" d="M185.36,-131.31C196.77,-116.71 213.05,-95.88 216.94,-90.9"/>
</g>
<!-- 22h0&#45;&gt;T -->
<g id="edge116" class="edge">
<title>22h0&#45;&gt;T</title>
<path fill="none" stroke="black" d="M145.11,-87.03C146.79,-82.91 154.87,-63.05 161.87,-45.85"/>
<polygon fill="black" stroke="black" points="165.29,-46.74 165.82,-36.16 158.8,-44.1 165.29,-46.74"/>
</g>
<!-- 22h2&#45;&gt;T -->
<g id="edge119" class="edge">
<title>22h2&#45;&gt;T</title>
<path fill="none" stroke="black" d="M190.55,-86.83C189.37,-82.34 184.34,-63.11 179.93,-46.27"/>
<polygon fill="black" stroke="black" points="183.23,-45.03 177.31,-36.24 176.46,-46.8 183.23,-45.03"/>
<text text-anchor="middle" x="212.8" y="-57.8" font-family="Times,serif" font-size="14.00">(0.13175)</text>
</g>
<!-- 23h0 -->
<g id="node119" class="node">
<title>23h0</title>
<ellipse fill="black" stroke="black" cx="245.8" cy="-88.8" rx="1.8" ry="1.8"/>
</g>
<!-- 23&#45;&gt;23h0 -->
<g id="edge121" class="edge">
<title>23&#45;&gt;23h0</title>
<path fill="none" stroke="darkgreen" d="M265.4,-129.21C258.18,-114.7 248.59,-95.41 246.3,-90.81"/>
</g>
<!-- 23h1 -->
<g id="node120" class="node">
<title>23h1</title>
<ellipse fill="red" stroke="red" cx="268.8" cy="-88.8" rx="1.8" ry="1.8"/>
</g>
<!-- 23&#45;&gt;23h1 -->
<g id="edge123" class="edge">
<title>23&#45;&gt;23h1</title>
<path fill="none" stroke="blue" d="M272.16,-127.66C270.89,-113.3 269.27,-95.08 268.88,-90.75"/>
</g>
<!-- 23h2 -->
<g id="node121" class="node">
<title>23h2</title>
<ellipse fill="black" stroke="black" cx="292.8" cy="-88.8" rx="1.8" ry="1.8"/>
</g>
<!-- 23&#45;&gt;23h2 -->
<g id="edge124" class="edge">
<title>23&#45;&gt;23h2</title>
<path fill="none" stroke="red" d="M279.81,-128.29C284.68,-113.85 290.97,-95.21 292.47,-90.78"/>
</g>
<!-- 23h3 -->
<g id="node122" class="node">
<title>23h3</title>
<ellipse fill="red" stroke="red" cx="318.8" cy="-88.8" rx="1.8" ry="1.8"/>
</g>
<!-- 23&#45;&gt;23h3 -->
<g id="edge126" class="edge">
<title>23&#45;&gt;23h3</title>
<path fill="none" stroke="gold" d="M285.62,-131.31C297.29,-116.71 313.94,-95.88 317.92,-90.9"/>
</g>
<!-- 23h0&#45;&gt;T -->
<g id="edge122" class="edge">
<title>23h0&#45;&gt;T</title>
<path fill="none" stroke="black" d="M246.06,-86.86C247.15,-82.62 251.08,-64.97 243.8,-54 235.87,-42.05 222.6,-34.02 209.66,-28.71"/>
<polygon fill="black" stroke="black" points="210.53,-25.3 199.93,-25.16 208.12,-31.87 210.53,-25.3"/>
</g>
<!-- 23h2&#45;&gt;T -->
<g id="edge125" class="edge">
<title>23h2&#45;&gt;T</title>
<path fill="none" stroke="black" d="M292.13,-86.82C289.05,-82.42 275.78,-64.16 260.8,-54 245.36,-43.53 226.32,-35.47 209.91,-29.74"/>
<polygon fill="black" stroke="black" points="210.67,-26.3 200.08,-26.47 208.46,-32.94 210.67,-26.3"/>
<text text-anchor="middle" x="306.8" y="-57.8" font-family="Times,serif" font-size="14.00">(&#45;0.13175)</text>
</g>
</g>
</svg>
