<?xml version="1.0" encoding="UTF-8" standalone="no"?>
<!DOCTYPE svg PUBLIC "-//W3C//DTD SVG 1.1//EN"
 "http://www.w3.org/Graphics/SVG/1.1/DTD/svg11.dtd">
<!-- Generated by graphviz version 2.40.1 (20161225.0304)
 -->
<!-- Title: DD Pages: 1 -->
<svg width="79pt" height="334pt"
 viewBox="0.00 0.00 79.15 334.39" xmlns="http://www.w3.org/2000/svg" xmlns:xlink="http://www.w3.org/1999/xlink">
<g id="graph0" class="graph" transform="scale(1 1) rotate(0) translate(4 330.3928)">
<title>DD</title>
<polygon fill="#ffffff" stroke="transparent" points="-4,4 -4,-330.3928 75.1482,-330.3928 75.1482,4 -4,4"/>
<!-- T -->
<g id="node1" class="node">
<title>T</title>
<polygon fill="none" stroke="#000000" points="54.1482,-36 .1482,-36 .1482,0 54.1482,0 54.1482,-36"/>
<text text-anchor="middle" x="27.1482" y="-14.3" font-family="Times,serif" font-size="14.00" fill="#000000">1</text>
</g>
<!-- R -->
<g id="node2" class="node">
<title>R</title>
<ellipse fill="#000000" stroke="#000000" cx="20.1482" cy="-324.5928" rx="1.8" ry="1.8"/>
</g>
<!-- 0 -->
<g id="node3" class="node">
<title>0</title>
<ellipse fill="#d3d3d3" stroke="#000000" cx="20.1482" cy="-265.6446" rx="20.2975" ry="20.2975"/>
<text text-anchor="middle" x="20.1482" y="-261.9446" font-family="Times,serif" font-size="14.00" fill="#000000">q1</text>
</g>
<!-- R&#45;&gt;0 -->
<g id="edge1" class="edge">
<title>R&#45;&gt;0</title>
<path fill="none" stroke="#000000" d="M20.1482,-322.6315C20.1482,-318.2571 20.1482,-307.2012 20.1482,-295.9788"/>
<polygon fill="#000000" stroke="#000000" points="23.6483,-295.8127 20.1482,-285.8127 16.6483,-295.8128 23.6483,-295.8127"/>
</g>
<!-- 0h0 -->
<g id="node4" class="node">
<title>0h0</title>
<ellipse fill="#ff0000" stroke="#ff0000" cx="8.1482" cy="-206.6964" rx="1.8" ry="1.8"/>
</g>
<!-- 0&#45;&gt;0h0 -->
<g id="edge2" class="edge">
<title>0&#45;&gt;0h0</title>
<path fill="none" stroke="#006400" d="M16.0856,-245.6875C13.2026,-231.5254 9.6512,-214.0796 8.5155,-208.5009"/>
</g>
<!-- 0h2 -->
<g id="node5" class="node">
<title>0h2</title>
<ellipse fill="#000000" stroke="#000000" cx="33.1482" cy="-206.6964" rx="1.8" ry="1.8"/>
</g>
<!-- 0&#45;&gt;0h2 -->
<g id="edge3" class="edge">
<title>0&#45;&gt;0h2</title>
<path fill="none" stroke="#ff0000" d="M24.5494,-245.6875C27.6726,-231.5254 31.52,-214.0796 32.7503,-208.5009"/>
</g>
<!-- 1 -->
<g id="node6" class="node">
<title>1</title>
<ellipse fill="#d3d3d3" stroke="#000000" cx="33.1482" cy="-147.7482" rx="20.2975" ry="20.2975"/>
<text text-anchor="middle" x="33.1482" y="-144.0482" font-family="Times,serif" font-size="14.00" fill="#000000">q0</text>
</g>
<!-- 0h2&#45;&gt;1 -->
<g id="edge4" class="edge">
<title>0h2&#45;&gt;1</title>
<path fill="none" stroke="#000000" d="M33.1482,-204.7351C33.1482,-200.3607 33.1482,-189.3048 33.1482,-178.0824"/>
<polygon fill="#000000" stroke="#000000" points="36.6483,-177.9163 33.1482,-167.9163 29.6483,-177.9163 36.6483,-177.9163"/>
</g>
<!-- 1h0 -->
<g id="node7" class="node">
<title>1h0</title>
<ellipse fill="#000000" stroke="#000000" cx="8.1482" cy="-88.8" rx="1.8" ry="1.8"/>
</g>
<!-- 1&#45;&gt;1h0 -->
<g id="edge5" class="edge">
<title>1&#45;&gt;1h0</title>
<path fill="none" stroke="#006400" d="M25.2381,-129.0966C19.1727,-114.7949 11.433,-96.5454 8.9517,-90.6945"/>
</g>
<!-- 1h2 -->
<g id="node8" class="node">
<title>1h2</title>
<ellipse fill="#000000" stroke="#000000" cx="51.1482" cy="-88.8" rx="1.8" ry="1.8"/>
</g>
<!-- 1&#45;&gt;1h2 -->
<g id="edge7" class="edge">
<title>1&#45;&gt;1h2</title>
<path fill="none" stroke="#ff0000" d="M39.0421,-128.4464C43.3894,-114.2094 48.8387,-96.3633 50.5835,-90.6493"/>
</g>
<!-- 1h0&#45;&gt;T -->
<g id="edge6" class="edge">
<title>1h0&#45;&gt;T</title>
<path fill="none" stroke="#000000" d="M7.2988,-86.87C5.0694,-81.53 -.5308,-66.151 3.1482,-54 4.055,-51.0052 5.3021,-48.0319 6.7548,-45.1523"/>
<polygon fill="#000000" stroke="#000000" points="9.8726,-46.7551 11.9305,-36.362 3.8406,-43.2034 9.8726,-46.7551"/>
<text text-anchor="middle" x="17.1482" y="-57.8" font-family="Times,serif" font-size="14.00" fill="#000000">(√½)</text>
</g>
<!-- 1h2&#45;&gt;T -->
<g id="edge8" class="edge">
<title>1h2&#45;&gt;T</title>
<path fill="none" stroke="#000000" d="M50.555,-87.0499C48.6182,-81.3364 42.2832,-62.6483 36.6917,-46.1533"/>
<polygon fill="#000000" stroke="#000000" points="39.8774,-44.6488 33.3522,-36.3018 33.2479,-46.8961 39.8774,-44.6488"/>
<text text-anchor="middle" x="57.1482" y="-57.8" font-family="Times,serif" font-size="14.00" fill="#000000">(√½)</text>
</g>
</g>
</svg>
