<?xml version="1.0" encoding="UTF-8" standalone="no"?>
<!DOCTYPE svg PUBLIC "-//W3C//DTD SVG 1.1//EN"
 "http://www.w3.org/Graphics/SVG/1.1/DTD/svg11.dtd">
<!-- Generated by graphviz version 2.40.1 (20161225.0304)
 -->
<!-- Title: DD Pages: 1 -->
<svg width="342pt" height="315pt"
 viewBox="0.00 0.00 341.60 315.39" xmlns="http://www.w3.org/2000/svg" xmlns:xlink="http://www.w3.org/1999/xlink">
<g id="graph0" class="graph" transform="scale(1 1) rotate(0) translate(4 311.3928)">
<title>DD</title>
<polygon fill="#ffffff" stroke="transparent" points="-4,4 -4,-311.3928 337.6,-311.3928 337.6,4 -4,4"/>
<!-- T -->
<g id="node1" class="node">
<title>T</title>
<polygon fill="none" stroke="#000000" points="193.8,-36 139.8,-36 139.8,0 193.8,0 193.8,-36"/>
<text text-anchor="middle" x="166.8" y="-14.3" font-family="Times,serif" font-size="14.00" fill="#000000">1</text>
</g>
<!-- R -->
<g id="node2" class="node">
<title>R</title>
<ellipse fill="#000000" stroke="#000000" cx="166.8" cy="-305.5928" rx="1.8" ry="1.8"/>
</g>
<!-- 0 -->
<g id="node3" class="node">
<title>0</title>
<ellipse fill="#d3d3d3" stroke="#000000" cx="166.8" cy="-247.6446" rx="20.2975" ry="20.2975"/>
<text text-anchor="middle" x="166.8" y="-243.9446" font-family="Times,serif" font-size="14.00" fill="#000000">q1</text>
</g>
<!-- R&#45;&gt;0 -->
<g id="edge1" class="edge">
<title>R&#45;&gt;0</title>
<path fill="none" stroke="#000000" d="M166.8,-303.6648C166.8,-299.468 166.8,-289.0151 166.8,-278.2598"/>
<polygon fill="#000000" stroke="#000000" points="170.3001,-278.0495 166.8,-268.0495 163.3001,-278.0496 170.3001,-278.0495"/>
</g>
<!-- 0h0 -->
<g id="node4" class="node">
<title>0h0</title>
<ellipse fill="#000000" stroke="#000000" cx="89.8" cy="-189.6964" rx="1.8" ry="1.8"/>
</g>
<!-- 0&#45;&gt;0h0 -->
<g id="edge2" class="edge">
<title>0&#45;&gt;0h0</title>
<path fill="none" stroke="#006400" d="M150.4703,-235.3553C130.693,-220.4714 99.0753,-196.6768 91.4799,-190.9606"/>
</g>
<!-- 0h1 -->
<g id="node5" class="node">
<title>0h1</title>
<ellipse fill="#000000" stroke="#000000" cx="144.8" cy="-189.6964" rx="1.8" ry="1.8"/>
</g>
<!-- 0&#45;&gt;0h1 -->
<g id="edge4" class="edge">
<title>0&#45;&gt;0h1</title>
<path fill="none" stroke="#0000ff" d="M159.5964,-228.6702C154.283,-214.6748 147.6227,-197.1314 145.4902,-191.5143"/>
</g>
<!-- 0h2 -->
<g id="node6" class="node">
<title>0h2</title>
<ellipse fill="#000000" stroke="#000000" cx="188.8" cy="-189.6964" rx="1.8" ry="1.8"/>
</g>
<!-- 0&#45;&gt;0h2 -->
<g id="edge6" class="edge">
<title>0&#45;&gt;0h2</title>
<path fill="none" stroke="#ff0000" d="M174.0036,-228.6702C179.317,-214.6748 185.9773,-197.1314 188.1098,-191.5143"/>
</g>
<!-- 0h3 -->
<g id="node7" class="node">
<title>0h3</title>
<ellipse fill="#000000" stroke="#000000" cx="254.8" cy="-189.6964" rx="1.8" ry="1.8"/>
</g>
<!-- 0&#45;&gt;0h3 -->
<g id="edge8" class="edge">
<title>0&#45;&gt;0h3</title>
<path fill="none" stroke="#ffd700" d="M183.7673,-236.4716C206.5421,-221.4743 245.0934,-196.0883 253.254,-190.7145"/>
</g>
<!-- 1 -->
<g id="node8" class="node">
<title>1</title>
<ellipse fill="#d3d3d3" stroke="#000000" cx="45.8" cy="-131.7482" rx="20.2975" ry="20.2975"/>
<text text-anchor="middle" x="45.8" y="-128.0482" font-family="Times,serif" font-size="14.00" fill="#000000">q0</text>
</g>
<!-- 0h0&#45;&gt;1 -->
<g id="edge3" class="edge">
<title>0h0&#45;&gt;1</title>
<path fill="none" stroke="#000000" d="M88.336,-187.7684C84.5196,-182.7422 73.8899,-168.7427 64.2121,-155.997"/>
<polygon fill="#000000" stroke="#000000" points="66.9059,-153.757 58.0711,-147.9093 61.3309,-157.9902 66.9059,-153.757"/>
</g>
<!-- 2 -->
<g id="node13" class="node">
<title>2</title>
<ellipse fill="#d3d3d3" stroke="#000000" cx="133.8" cy="-131.7482" rx="20.2975" ry="20.2975"/>
<text text-anchor="middle" x="133.8" y="-128.0482" font-family="Times,serif" font-size="14.00" fill="#000000">q0</text>
</g>
<!-- 0h1&#45;&gt;2 -->
<g id="edge5" class="edge">
<title>0h1&#45;&gt;2</title>
<path fill="none" stroke="#000000" d="M144.434,-187.7684C143.6177,-183.4682 141.5546,-172.5998 139.4605,-161.5678"/>
<polygon fill="#000000" stroke="#000000" points="142.8671,-160.746 137.5635,-151.5742 135.9899,-162.0515 142.8671,-160.746"/>
</g>
<!-- 3 -->
<g id="node18" class="node">
<title>3</title>
<ellipse fill="#d3d3d3" stroke="#000000" cx="199.8" cy="-131.7482" rx="20.2975" ry="20.2975"/>
<text text-anchor="middle" x="199.8" y="-128.0482" font-family="Times,serif" font-size="14.00" fill="#000000">q0</text>
</g>
<!-- 0h2&#45;&gt;3 -->
<g id="edge7" class="edge">
<title>0h2&#45;&gt;3</title>
<path fill="none" stroke="#000000" d="M189.166,-187.7684C189.9823,-183.4682 192.0454,-172.5998 194.1395,-161.5678"/>
<polygon fill="#000000" stroke="#000000" points="197.6101,-162.0515 196.0365,-151.5742 190.7329,-160.746 197.6101,-162.0515"/>
</g>
<!-- 4 -->
<g id="node23" class="node">
<title>4</title>
<ellipse fill="#d3d3d3" stroke="#000000" cx="287.8" cy="-131.7482" rx="20.2975" ry="20.2975"/>
<text text-anchor="middle" x="287.8" y="-128.0482" font-family="Times,serif" font-size="14.00" fill="#000000">q0</text>
</g>
<!-- 0h3&#45;&gt;4 -->
<g id="edge9" class="edge">
<title>0h3&#45;&gt;4</title>
<path fill="none" stroke="#000000" d="M255.898,-187.7684C258.5894,-183.0423 265.7988,-170.3825 272.6844,-158.2913"/>
<polygon fill="#000000" stroke="#000000" points="275.8993,-159.7185 277.8066,-149.2968 269.8165,-156.2545 275.8993,-159.7185"/>
</g>
<!-- 1h0 -->
<g id="node9" class="node">
<title>1h0</title>
<ellipse fill="#000000" stroke="#000000" cx="1.8" cy="-73.8" rx="1.8" ry="1.8"/>
</g>
<!-- 1&#45;&gt;1h0 -->
<g id="edge10" class="edge">
<title>1&#45;&gt;1h0</title>
<path fill="none" stroke="#006400" d="M33.5435,-115.6064C22.5586,-101.1391 7.5121,-81.3228 3.0782,-75.4834"/>
</g>
<!-- 1h1 -->
<g id="node10" class="node">
<title>1h1</title>
<ellipse fill="#ff0000" stroke="#ff0000" cx="23.8" cy="-73.8" rx="1.8" ry="1.8"/>
</g>
<!-- 1&#45;&gt;1h1 -->
<g id="edge12" class="edge">
<title>1&#45;&gt;1h1</title>
<path fill="none" stroke="#0000ff" d="M38.5964,-112.7738C33.283,-98.7784 26.6227,-81.235 24.4902,-75.6179"/>
</g>
<!-- 1h2 -->
<g id="node11" class="node">
<title>1h2</title>
<ellipse fill="#ff0000" stroke="#ff0000" cx="45.8" cy="-73.8" rx="1.8" ry="1.8"/>
</g>
<!-- 1&#45;&gt;1h2 -->
<g id="edge13" class="edge">
<title>1&#45;&gt;1h2</title>
<path fill="none" stroke="#ff0000" d="M45.8,-111.4807C45.8,-97.9034 45.8,-81.5141 45.8,-75.8454"/>
</g>
<!-- 1h3 -->
<g id="node12" class="node">
<title>1h3</title>
<ellipse fill="#ff0000" stroke="#ff0000" cx="67.8" cy="-73.8" rx="1.8" ry="1.8"/>
</g>
<!-- 1&#45;&gt;1h3 -->
<g id="edge14" class="edge">
<title>1&#45;&gt;1h3</title>
<path fill="none" stroke="#ffd700" d="M53.0036,-112.7738C58.317,-98.7784 64.9773,-81.235 67.1098,-75.6179"/>
</g>
<!-- 1h0&#45;&gt;T -->
<g id="edge11" class="edge">
<title>1h0&#45;&gt;T</title>
<path fill="none" stroke="#000000" d="M3.653,-73.1733C15.8648,-69.0436 85.6624,-45.4392 129.9174,-30.473"/>
<polygon fill="#000000" stroke="#000000" points="131.1325,-33.7569 139.4842,-27.2377 128.89,-27.1258 131.1325,-33.7569"/>
</g>
<!-- 2h0 -->
<g id="node14" class="node">
<title>2h0</title>
<ellipse fill="#ff0000" stroke="#ff0000" cx="89.8" cy="-73.8" rx="1.8" ry="1.8"/>
</g>
<!-- 2&#45;&gt;2h0 -->
<g id="edge15" class="edge">
<title>2&#45;&gt;2h0</title>
<path fill="none" stroke="#006400" d="M121.5435,-115.6064C110.5586,-101.1391 95.5121,-81.3228 91.0782,-75.4834"/>
</g>
<!-- 2h1 -->
<g id="node15" class="node">
<title>2h1</title>
<ellipse fill="#ff0000" stroke="#ff0000" cx="111.8" cy="-73.8" rx="1.8" ry="1.8"/>
</g>
<!-- 2&#45;&gt;2h1 -->
<g id="edge16" class="edge">
<title>2&#45;&gt;2h1</title>
<path fill="none" stroke="#0000ff" d="M126.5964,-112.7738C121.283,-98.7784 114.6227,-81.235 112.4902,-75.6179"/>
</g>
<!-- 2h2 -->
<g id="node16" class="node">
<title>2h2</title>
<ellipse fill="#000000" stroke="#000000" cx="133.8" cy="-73.8" rx="1.8" ry="1.8"/>
</g>
<!-- 2&#45;&gt;2h2 -->
<g id="edge17" class="edge">
<title>2&#45;&gt;2h2</title>
<path fill="none" stroke="#ff0000" d="M133.8,-111.4807C133.8,-97.9034 133.8,-81.5141 133.8,-75.8454"/>
</g>
<!-- 2h3 -->
<g id="node17" class="node">
<title>2h3</title>
<ellipse fill="#ff0000" stroke="#ff0000" cx="155.8" cy="-73.8" rx="1.8" ry="1.8"/>
</g>
<!-- 2&#45;&gt;2h3 -->
<g id="edge19" class="edge">
<title>2&#45;&gt;2h3</title>
<path fill="none" stroke="#ffd700" d="M141.0036,-112.7738C146.317,-98.7784 152.9773,-81.235 155.1098,-75.6179"/>
</g>
<!-- 2h2&#45;&gt;T -->
<g id="edge18" class="edge">
<title>2h2&#45;&gt;T</title>
<path fill="none" stroke="#000000" d="M134.898,-71.9434C137.4747,-67.5863 144.1929,-56.2266 150.8032,-45.0491"/>
<polygon fill="#000000" stroke="#000000" points="153.9224,-46.6504 156.0003,-36.2614 147.8972,-43.0871 153.9224,-46.6504"/>
</g>
<!-- 3h0 -->
<g id="node19" class="node">
<title>3h0</title>
<ellipse fill="#ff0000" stroke="#ff0000" cx="177.8" cy="-73.8" rx="1.8" ry="1.8"/>
</g>
<!-- 3&#45;&gt;3h0 -->
<g id="edge20" class="edge">
<title>3&#45;&gt;3h0</title>
<path fill="none" stroke="#006400" d="M192.5964,-112.7738C187.283,-98.7784 180.6227,-81.235 178.4902,-75.6179"/>
</g>
<!-- 3h1 -->
<g id="node20" class="node">
<title>3h1</title>
<ellipse fill="#000000" stroke="#000000" cx="199.8" cy="-73.8" rx="1.8" ry="1.8"/>
</g>
<!-- 3&#45;&gt;3h1 -->
<g id="edge21" class="edge">
<title>3&#45;&gt;3h1</title>
<path fill="none" stroke="#0000ff" d="M199.8,-111.4807C199.8,-97.9034 199.8,-81.5141 199.8,-75.8454"/>
</g>
<!-- 3h2 -->
<g id="node21" class="node">
<title>3h2</title>
<ellipse fill="#ff0000" stroke="#ff0000" cx="221.8" cy="-73.8" rx="1.8" ry="1.8"/>
</g>
<!-- 3&#45;&gt;3h2 -->
<g id="edge23" class="edge">
<title>3&#45;&gt;3h2</title>
<path fill="none" stroke="#ff0000" d="M207.0036,-112.7738C212.317,-98.7784 218.9773,-81.235 221.1098,-75.6179"/>
</g>
<!-- 3h3 -->
<g id="node22" class="node">
<title>3h3</title>
<ellipse fill="#ff0000" stroke="#ff0000" cx="243.8" cy="-73.8" rx="1.8" ry="1.8"/>
</g>
<!-- 3&#45;&gt;3h3 -->
<g id="edge24" class="edge">
<title>3&#45;&gt;3h3</title>
<path fill="none" stroke="#ffd700" d="M212.0565,-115.6064C223.0414,-101.1391 238.0879,-81.3228 242.5218,-75.4834"/>
</g>
<!-- 3h1&#45;&gt;T -->
<g id="edge22" class="edge">
<title>3h1&#45;&gt;T</title>
<path fill="none" stroke="#000000" d="M198.702,-71.9434C196.1253,-67.5863 189.4071,-56.2266 182.7968,-45.0491"/>
<polygon fill="#000000" stroke="#000000" points="185.7028,-43.0871 177.5997,-36.2614 179.6776,-46.6504 185.7028,-43.0871"/>
</g>
<!-- 4h0 -->
<g id="node24" class="node">
<title>4h0</title>
<ellipse fill="#ff0000" stroke="#ff0000" cx="265.8" cy="-73.8" rx="1.8" ry="1.8"/>
</g>
<!-- 4&#45;&gt;4h0 -->
<g id="edge25" class="edge">
<title>4&#45;&gt;4h0</title>
<path fill="none" stroke="#006400" d="M280.5964,-112.7738C275.283,-98.7784 268.6227,-81.235 266.4902,-75.6179"/>
</g>
<!-- 4h1 -->
<g id="node25" class="node">
<title>4h1</title>
<ellipse fill="#ff0000" stroke="#ff0000" cx="287.8" cy="-73.8" rx="1.8" ry="1.8"/>
</g>
<!-- 4&#45;&gt;4h1 -->
<g id="edge26" class="edge">
<title>4&#45;&gt;4h1</title>
<path fill="none" stroke="#0000ff" d="M287.8,-111.4807C287.8,-97.9034 287.8,-81.5141 287.8,-75.8454"/>
</g>
<!-- 4h2 -->
<g id="node26" class="node">
<title>4h2</title>
<ellipse fill="#ff0000" stroke="#ff0000" cx="309.8" cy="-73.8" rx="1.8" ry="1.8"/>
</g>
<!-- 4&#45;&gt;4h2 -->
<g id="edge27" class="edge">
<title>4&#45;&gt;4h2</title>
<path fill="none" stroke="#ff0000" d="M295.0036,-112.7738C300.317,-98.7784 306.9773,-81.235 309.1098,-75.6179"/>
</g>
<!-- 4h3 -->
<g id="node27" class="node">
<title>4h3</title>
<ellipse fill="#000000" stroke="#000000" cx="331.8" cy="-73.8" rx="1.8" ry="1.8"/>
</g>
<!-- 4&#45;&gt;4h3 -->
<g id="edge28" class="edge">
<title>4&#45;&gt;4h3</title>
<path fill="none" stroke="#ffd700" d="M300.0565,-115.6064C311.0414,-101.1391 326.0879,-81.3228 330.5218,-75.4834"/>
</g>
<!-- 4h3&#45;&gt;T -->
<g id="edge29" class="edge">
<title>4h3&#45;&gt;T</title>
<path fill="none" stroke="#000000" d="M329.947,-73.1733C317.7352,-69.0436 247.9376,-45.4392 203.6826,-30.473"/>
<polygon fill="#000000" stroke="#000000" points="204.71,-27.1258 194.1158,-27.2377 202.4675,-33.7569 204.71,-27.1258"/>
</g>
</g>
</svg>
