<?xml version="1.0" encoding="UTF-8" standalone="no"?>
<!DOCTYPE svg PUBLIC "-//W3C//DTD SVG 1.1//EN"
 "http://www.w3.org/Graphics/SVG/1.1/DTD/svg11.dtd">
<!-- Generated by graphviz version 2.40.1 (20161225.0304)
 -->
<!-- Title: DD Pages: 1 -->
<svg width="367pt" height="431pt"
 viewBox="0.00 0.00 366.60 431.29" xmlns="http://www.w3.org/2000/svg" xmlns:xlink="http://www.w3.org/1999/xlink">
<g id="graph0" class="graph" transform="scale(1 1) rotate(0) translate(4 427.2893)">
<title>DD</title>
<polygon fill="#ffffff" stroke="transparent" points="-4,4 -4,-427.2893 362.6,-427.2893 362.6,4 -4,4"/>
<!-- T -->
<g id="node1" class="node">
<title>T</title>
<polygon fill="none" stroke="#000000" points="193.8,-36 139.8,-36 139.8,0 193.8,0 193.8,-36"/>
<text text-anchor="middle" x="166.8" y="-14.3" font-family="Times,serif" font-size="14.00" fill="#000000">1</text>
</g>
<!-- R -->
<g id="node2" class="node">
<title>R</title>
<ellipse fill="#000000" stroke="#000000" cx="191.8" cy="-421.4893" rx="1.8" ry="1.8"/>
</g>
<!-- 0 -->
<g id="node3" class="node">
<title>0</title>
<ellipse fill="#d3d3d3" stroke="#000000" cx="191.8" cy="-363.5411" rx="20.2975" ry="20.2975"/>
<text text-anchor="middle" x="191.8" y="-359.8411" font-family="Times,serif" font-size="14.00" fill="#000000">q2</text>
</g>
<!-- R&#45;&gt;0 -->
<g id="edge1" class="edge">
<title>R&#45;&gt;0</title>
<path fill="none" stroke="#000000" d="M191.8,-419.5612C191.8,-415.3644 191.8,-404.9116 191.8,-394.1562"/>
<polygon fill="#000000" stroke="#000000" points="195.3001,-393.9459 191.8,-383.946 188.3001,-393.946 195.3001,-393.9459"/>
</g>
<!-- 0h0 -->
<g id="node4" class="node">
<title>0h0</title>
<ellipse fill="#000000" stroke="#000000" cx="114.8" cy="-305.5928" rx="1.8" ry="1.8"/>
</g>
<!-- 0&#45;&gt;0h0 -->
<g id="edge2" class="edge">
<title>0&#45;&gt;0h0</title>
<path fill="none" stroke="#006400" d="M175.4703,-351.2517C155.693,-336.3678 124.0753,-312.5732 116.4799,-306.8571"/>
</g>
<!-- 0h1 -->
<g id="node5" class="node">
<title>0h1</title>
<ellipse fill="#000000" stroke="#000000" cx="169.8" cy="-305.5928" rx="1.8" ry="1.8"/>
</g>
<!-- 0&#45;&gt;0h1 -->
<g id="edge4" class="edge">
<title>0&#45;&gt;0h1</title>
<path fill="none" stroke="#0000ff" d="M184.5964,-344.5666C179.283,-330.5712 172.6227,-313.0278 170.4902,-307.4107"/>
</g>
<!-- 0h2 -->
<g id="node6" class="node">
<title>0h2</title>
<ellipse fill="#000000" stroke="#000000" cx="213.8" cy="-305.5928" rx="1.8" ry="1.8"/>
</g>
<!-- 0&#45;&gt;0h2 -->
<g id="edge6" class="edge">
<title>0&#45;&gt;0h2</title>
<path fill="none" stroke="#ff0000" d="M199.0036,-344.5666C204.317,-330.5712 210.9773,-313.0278 213.1098,-307.4107"/>
</g>
<!-- 0h3 -->
<g id="node7" class="node">
<title>0h3</title>
<ellipse fill="#000000" stroke="#000000" cx="279.8" cy="-305.5928" rx="1.8" ry="1.8"/>
</g>
<!-- 0&#45;&gt;0h3 -->
<g id="edge8" class="edge">
<title>0&#45;&gt;0h3</title>
<path fill="none" stroke="#ffd700" d="M208.7673,-352.3681C231.5421,-337.3708 270.0934,-311.9847 278.254,-306.6109"/>
</g>
<!-- 1 -->
<g id="node8" class="node">
<title>1</title>
<ellipse fill="#d3d3d3" stroke="#000000" cx="70.8" cy="-247.6446" rx="20.2975" ry="20.2975"/>
<text text-anchor="middle" x="70.8" y="-243.9446" font-family="Times,serif" font-size="14.00" fill="#000000">q1</text>
</g>
<!-- 0h0&#45;&gt;1 -->
<g id="edge3" class="edge">
<title>0h0&#45;&gt;1</title>
<path fill="none" stroke="#000000" d="M113.336,-303.6648C109.5196,-298.6386 98.8899,-284.6392 89.2121,-271.8935"/>
<polygon fill="#000000" stroke="#000000" points="91.9059,-269.6535 83.0711,-263.8057 86.3309,-273.8866 91.9059,-269.6535"/>
</g>
<!-- 2 -->
<g id="node13" class="node">
<title>2</title>
<ellipse fill="#d3d3d3" stroke="#000000" cx="158.8" cy="-247.6446" rx="20.2975" ry="20.2975"/>
<text text-anchor="middle" x="158.8" y="-243.9446" font-family="Times,serif" font-size="14.00" fill="#000000">q1</text>
</g>
<!-- 0h1&#45;&gt;2 -->
<g id="edge5" class="edge">
<title>0h1&#45;&gt;2</title>
<path fill="none" stroke="#000000" d="M169.434,-303.6648C168.6177,-299.3646 166.5546,-288.4962 164.4605,-277.4643"/>
<polygon fill="#000000" stroke="#000000" points="167.8671,-276.6424 162.5635,-267.4706 160.9899,-277.9479 167.8671,-276.6424"/>
</g>
<!-- 3 -->
<g id="node18" class="node">
<title>3</title>
<ellipse fill="#d3d3d3" stroke="#000000" cx="224.8" cy="-247.6446" rx="20.2975" ry="20.2975"/>
<text text-anchor="middle" x="224.8" y="-243.9446" font-family="Times,serif" font-size="14.00" fill="#000000">q1</text>
</g>
<!-- 0h2&#45;&gt;3 -->
<g id="edge7" class="edge">
<title>0h2&#45;&gt;3</title>
<path fill="none" stroke="#000000" d="M214.166,-303.6648C214.9823,-299.3646 217.0454,-288.4962 219.1395,-277.4643"/>
<polygon fill="#000000" stroke="#000000" points="222.6101,-277.9479 221.0365,-267.4706 215.7329,-276.6424 222.6101,-277.9479"/>
</g>
<!-- 4 -->
<g id="node23" class="node">
<title>4</title>
<ellipse fill="#d3d3d3" stroke="#000000" cx="312.8" cy="-247.6446" rx="20.2975" ry="20.2975"/>
<text text-anchor="middle" x="312.8" y="-243.9446" font-family="Times,serif" font-size="14.00" fill="#000000">q1</text>
</g>
<!-- 0h3&#45;&gt;4 -->
<g id="edge9" class="edge">
<title>0h3&#45;&gt;4</title>
<path fill="none" stroke="#000000" d="M280.898,-303.6648C283.5894,-298.9387 290.7988,-286.2789 297.6844,-274.1877"/>
<polygon fill="#000000" stroke="#000000" points="300.8993,-275.615 302.8066,-265.1932 294.8165,-272.1509 300.8993,-275.615"/>
</g>
<!-- 1h0 -->
<g id="node9" class="node">
<title>1h0</title>
<ellipse fill="#000000" stroke="#000000" cx="26.8" cy="-189.6964" rx="1.8" ry="1.8"/>
</g>
<!-- 1&#45;&gt;1h0 -->
<g id="edge10" class="edge">
<title>1&#45;&gt;1h0</title>
<path fill="none" stroke="#006400" d="M58.5435,-231.5028C47.5586,-217.0355 32.5121,-197.2192 28.0782,-191.3798"/>
</g>
<!-- 1h1 -->
<g id="node10" class="node">
<title>1h1</title>
<ellipse fill="#ff0000" stroke="#ff0000" cx="48.8" cy="-189.6964" rx="1.8" ry="1.8"/>
</g>
<!-- 1&#45;&gt;1h1 -->
<g id="edge12" class="edge">
<title>1&#45;&gt;1h1</title>
<path fill="none" stroke="#0000ff" d="M63.5964,-228.6702C58.283,-214.6748 51.6227,-197.1314 49.4902,-191.5143"/>
</g>
<!-- 1h2 -->
<g id="node11" class="node">
<title>1h2</title>
<ellipse fill="#ff0000" stroke="#ff0000" cx="70.8" cy="-189.6964" rx="1.8" ry="1.8"/>
</g>
<!-- 1&#45;&gt;1h2 -->
<g id="edge13" class="edge">
<title>1&#45;&gt;1h2</title>
<path fill="none" stroke="#ff0000" d="M70.8,-227.3772C70.8,-213.7998 70.8,-197.4105 70.8,-191.7418"/>
</g>
<!-- 1h3 -->
<g id="node12" class="node">
<title>1h3</title>
<ellipse fill="#000000" stroke="#000000" cx="92.8" cy="-189.6964" rx="1.8" ry="1.8"/>
</g>
<!-- 1&#45;&gt;1h3 -->
<g id="edge14" class="edge">
<title>1&#45;&gt;1h3</title>
<path fill="none" stroke="#ffd700" d="M78.0036,-228.6702C83.317,-214.6748 89.9773,-197.1314 92.1098,-191.5143"/>
</g>
<!-- 5 -->
<g id="node28" class="node">
<title>5</title>
<ellipse fill="#d3d3d3" stroke="#000000" cx="37.8" cy="-131.7482" rx="20.2975" ry="20.2975"/>
<text text-anchor="middle" x="37.8" y="-128.0482" font-family="Times,serif" font-size="14.00" fill="#000000">q0</text>
</g>
<!-- 1h0&#45;&gt;5 -->
<g id="edge11" class="edge">
<title>1h0&#45;&gt;5</title>
<path fill="none" stroke="#000000" d="M27.166,-187.7684C27.9823,-183.4682 30.0454,-172.5998 32.1395,-161.5678"/>
<polygon fill="#000000" stroke="#000000" points="35.6101,-162.0515 34.0365,-151.5742 28.7329,-160.746 35.6101,-162.0515"/>
</g>
<!-- 1h3&#45;&gt;5 -->
<g id="edge15" class="edge">
<title>1h3&#45;&gt;5</title>
<path fill="none" stroke="#000000" d="M91.4404,-188.264C86.8903,-183.47 71.7476,-167.5155 58.7068,-153.7757"/>
<polygon fill="#000000" stroke="#000000" points="61.1816,-151.299 51.7588,-146.4553 56.1044,-156.1179 61.1816,-151.299"/>
</g>
<!-- 2h0 -->
<g id="node14" class="node">
<title>2h0</title>
<ellipse fill="#000000" stroke="#000000" cx="114.8" cy="-189.6964" rx="1.8" ry="1.8"/>
</g>
<!-- 2&#45;&gt;2h0 -->
<g id="edge16" class="edge">
<title>2&#45;&gt;2h0</title>
<path fill="none" stroke="#006400" d="M146.5435,-231.5028C135.5586,-217.0355 120.5121,-197.2192 116.0782,-191.3798"/>
</g>
<!-- 2h1 -->
<g id="node15" class="node">
<title>2h1</title>
<ellipse fill="#ff0000" stroke="#ff0000" cx="136.8" cy="-189.6964" rx="1.8" ry="1.8"/>
</g>
<!-- 2&#45;&gt;2h1 -->
<g id="edge18" class="edge">
<title>2&#45;&gt;2h1</title>
<path fill="none" stroke="#0000ff" d="M151.5964,-228.6702C146.283,-214.6748 139.6227,-197.1314 137.4902,-191.5143"/>
</g>
<!-- 2h2 -->
<g id="node16" class="node">
<title>2h2</title>
<ellipse fill="#ff0000" stroke="#ff0000" cx="158.8" cy="-189.6964" rx="1.8" ry="1.8"/>
</g>
<!-- 2&#45;&gt;2h2 -->
<g id="edge19" class="edge">
<title>2&#45;&gt;2h2</title>
<path fill="none" stroke="#ff0000" d="M158.8,-227.3772C158.8,-213.7998 158.8,-197.4105 158.8,-191.7418"/>
</g>
<!-- 2h3 -->
<g id="node17" class="node">
<title>2h3</title>
<ellipse fill="#000000" stroke="#000000" cx="180.8" cy="-189.6964" rx="1.8" ry="1.8"/>
</g>
<!-- 2&#45;&gt;2h3 -->
<g id="edge20" class="edge">
<title>2&#45;&gt;2h3</title>
<path fill="none" stroke="#ffd700" d="M166.0036,-228.6702C171.317,-214.6748 177.9773,-197.1314 180.1098,-191.5143"/>
</g>
<!-- 6 -->
<g id="node33" class="node">
<title>6</title>
<ellipse fill="#d3d3d3" stroke="#000000" cx="125.8" cy="-131.7482" rx="20.2975" ry="20.2975"/>
<text text-anchor="middle" x="125.8" y="-128.0482" font-family="Times,serif" font-size="14.00" fill="#000000">q0</text>
</g>
<!-- 2h0&#45;&gt;6 -->
<g id="edge17" class="edge">
<title>2h0&#45;&gt;6</title>
<path fill="none" stroke="#000000" d="M115.166,-187.7684C115.9823,-183.4682 118.0454,-172.5998 120.1395,-161.5678"/>
<polygon fill="#000000" stroke="#000000" points="123.6101,-162.0515 122.0365,-151.5742 116.7329,-160.746 123.6101,-162.0515"/>
</g>
<!-- 2h3&#45;&gt;6 -->
<g id="edge21" class="edge">
<title>2h3&#45;&gt;6</title>
<path fill="none" stroke="#000000" d="M179.4404,-188.264C174.8903,-183.47 159.7476,-167.5155 146.7068,-153.7757"/>
<polygon fill="#000000" stroke="#000000" points="149.1816,-151.299 139.7588,-146.4553 144.1044,-156.1179 149.1816,-151.299"/>
</g>
<!-- 3h0 -->
<g id="node19" class="node">
<title>3h0</title>
<ellipse fill="#000000" stroke="#000000" cx="202.8" cy="-189.6964" rx="1.8" ry="1.8"/>
</g>
<!-- 3&#45;&gt;3h0 -->
<g id="edge22" class="edge">
<title>3&#45;&gt;3h0</title>
<path fill="none" stroke="#006400" d="M217.5964,-228.6702C212.283,-214.6748 205.6227,-197.1314 203.4902,-191.5143"/>
</g>
<!-- 3h1 -->
<g id="node20" class="node">
<title>3h1</title>
<ellipse fill="#ff0000" stroke="#ff0000" cx="224.8" cy="-189.6964" rx="1.8" ry="1.8"/>
</g>
<!-- 3&#45;&gt;3h1 -->
<g id="edge24" class="edge">
<title>3&#45;&gt;3h1</title>
<path fill="none" stroke="#0000ff" d="M224.8,-227.3772C224.8,-213.7998 224.8,-197.4105 224.8,-191.7418"/>
</g>
<!-- 3h2 -->
<g id="node21" class="node">
<title>3h2</title>
<ellipse fill="#ff0000" stroke="#ff0000" cx="246.8" cy="-189.6964" rx="1.8" ry="1.8"/>
</g>
<!-- 3&#45;&gt;3h2 -->
<g id="edge25" class="edge">
<title>3&#45;&gt;3h2</title>
<path fill="none" stroke="#ff0000" d="M232.0036,-228.6702C237.317,-214.6748 243.9773,-197.1314 246.1098,-191.5143"/>
</g>
<!-- 3h3 -->
<g id="node22" class="node">
<title>3h3</title>
<ellipse fill="#000000" stroke="#000000" cx="268.8" cy="-189.6964" rx="1.8" ry="1.8"/>
</g>
<!-- 3&#45;&gt;3h3 -->
<g id="edge26" class="edge">
<title>3&#45;&gt;3h3</title>
<path fill="none" stroke="#ffd700" d="M237.0565,-231.5028C248.0414,-217.0355 263.0879,-197.2192 267.5218,-191.3798"/>
</g>
<!-- 7 -->
<g id="node38" class="node">
<title>7</title>
<ellipse fill="#d3d3d3" stroke="#000000" cx="213.8" cy="-131.7482" rx="20.2975" ry="20.2975"/>
<text text-anchor="middle" x="213.8" y="-128.0482" font-family="Times,serif" font-size="14.00" fill="#000000">q0</text>
</g>
<!-- 3h0&#45;&gt;7 -->
<g id="edge23" class="edge">
<title>3h0&#45;&gt;7</title>
<path fill="none" stroke="#000000" d="M203.166,-187.7684C203.9823,-183.4682 206.0454,-172.5998 208.1395,-161.5678"/>
<polygon fill="#000000" stroke="#000000" points="211.6101,-162.0515 210.0365,-151.5742 204.7329,-160.746 211.6101,-162.0515"/>
</g>
<!-- 3h3&#45;&gt;7 -->
<g id="edge27" class="edge">
<title>3h3&#45;&gt;7</title>
<path fill="none" stroke="#000000" d="M267.4404,-188.264C262.8903,-183.47 247.7476,-167.5155 234.7068,-153.7757"/>
<polygon fill="#000000" stroke="#000000" points="237.1816,-151.299 227.7588,-146.4553 232.1044,-156.1179 237.1816,-151.299"/>
</g>
<!-- 4h0 -->
<g id="node24" class="node">
<title>4h0</title>
<ellipse fill="#000000" stroke="#000000" cx="290.8" cy="-189.6964" rx="1.8" ry="1.8"/>
</g>
<!-- 4&#45;&gt;4h0 -->
<g id="edge28" class="edge">
<title>4&#45;&gt;4h0</title>
<path fill="none" stroke="#006400" d="M305.5964,-228.6702C300.283,-214.6748 293.6227,-197.1314 291.4902,-191.5143"/>
</g>
<!-- 4h1 -->
<g id="node25" class="node">
<title>4h1</title>
<ellipse fill="#ff0000" stroke="#ff0000" cx="312.8" cy="-189.6964" rx="1.8" ry="1.8"/>
</g>
<!-- 4&#45;&gt;4h1 -->
<g id="edge30" class="edge">
<title>4&#45;&gt;4h1</title>
<path fill="none" stroke="#0000ff" d="M312.8,-227.3772C312.8,-213.7998 312.8,-197.4105 312.8,-191.7418"/>
</g>
<!-- 4h2 -->
<g id="node26" class="node">
<title>4h2</title>
<ellipse fill="#ff0000" stroke="#ff0000" cx="334.8" cy="-189.6964" rx="1.8" ry="1.8"/>
</g>
<!-- 4&#45;&gt;4h2 -->
<g id="edge31" class="edge">
<title>4&#45;&gt;4h2</title>
<path fill="none" stroke="#ff0000" d="M320.0036,-228.6702C325.317,-214.6748 331.9773,-197.1314 334.1098,-191.5143"/>
</g>
<!-- 4h3 -->
<g id="node27" class="node">
<title>4h3</title>
<ellipse fill="#000000" stroke="#000000" cx="356.8" cy="-189.6964" rx="1.8" ry="1.8"/>
</g>
<!-- 4&#45;&gt;4h3 -->
<g id="edge32" class="edge">
<title>4&#45;&gt;4h3</title>
<path fill="none" stroke="#ffd700" d="M325.0565,-231.5028C336.0414,-217.0355 351.0879,-197.2192 355.5218,-191.3798"/>
</g>
<!-- 8 -->
<g id="node43" class="node">
<title>8</title>
<ellipse fill="#d3d3d3" stroke="#000000" cx="295.8" cy="-131.7482" rx="20.2975" ry="20.2975"/>
<text text-anchor="middle" x="295.8" y="-128.0482" font-family="Times,serif" font-size="14.00" fill="#000000">q0</text>
</g>
<!-- 4h0&#45;&gt;8 -->
<g id="edge29" class="edge">
<title>4h0&#45;&gt;8</title>
<path fill="none" stroke="#000000" d="M290.9664,-187.7684C291.331,-183.5418 292.2432,-172.9701 293.1782,-162.1344"/>
<polygon fill="#000000" stroke="#000000" points="296.6917,-162.1271 294.0644,-151.8632 289.7176,-161.5253 296.6917,-162.1271"/>
</g>
<!-- 4h3&#45;&gt;8 -->
<g id="edge33" class="edge">
<title>4h3&#45;&gt;8</title>
<path fill="none" stroke="#000000" d="M355.2921,-188.264C350.1052,-183.3365 332.5069,-166.6187 317.7855,-152.6338"/>
<polygon fill="#000000" stroke="#000000" points="320.0911,-149.9965 310.4304,-145.6467 315.2699,-155.0716 320.0911,-149.9965"/>
</g>
<!-- 5h0 -->
<g id="node29" class="node">
<title>5h0</title>
<ellipse fill="#000000" stroke="#000000" cx="1.8" cy="-73.8" rx="1.8" ry="1.8"/>
</g>
<!-- 5&#45;&gt;5h0 -->
<g id="edge34" class="edge">
<title>5&#45;&gt;5h0</title>
<path fill="none" stroke="#006400" d="M26.9988,-114.3618C18.0517,-99.9599 6.2634,-80.9847 2.7981,-75.4065"/>
</g>
<!-- 5h1 -->
<g id="node30" class="node">
<title>5h1</title>
<ellipse fill="#ff0000" stroke="#ff0000" cx="23.8" cy="-73.8" rx="1.8" ry="1.8"/>
</g>
<!-- 5&#45;&gt;5h1 -->
<g id="edge36" class="edge">
<title>5&#45;&gt;5h1</title>
<path fill="none" stroke="#0000ff" d="M33.0602,-112.1296C29.6968,-98.2078 25.5535,-81.0579 24.2286,-75.5739"/>
</g>
<!-- 5h2 -->
<g id="node31" class="node">
<title>5h2</title>
<ellipse fill="#ff0000" stroke="#ff0000" cx="45.8" cy="-73.8" rx="1.8" ry="1.8"/>
</g>
<!-- 5&#45;&gt;5h2 -->
<g id="edge37" class="edge">
<title>5&#45;&gt;5h2</title>
<path fill="none" stroke="#ff0000" d="M40.598,-111.4807C42.4724,-97.9034 44.735,-81.5141 45.5176,-75.8454"/>
</g>
<!-- 5h3 -->
<g id="node32" class="node">
<title>5h3</title>
<ellipse fill="#ff0000" stroke="#ff0000" cx="67.8" cy="-73.8" rx="1.8" ry="1.8"/>
</g>
<!-- 5&#45;&gt;5h3 -->
<g id="edge38" class="edge">
<title>5&#45;&gt;5h3</title>
<path fill="none" stroke="#ffd700" d="M47.1277,-113.7307C54.4207,-99.6436 63.8115,-81.5041 66.8242,-75.6849"/>
</g>
<!-- 5h0&#45;&gt;T -->
<g id="edge35" class="edge">
<title>5h0&#45;&gt;T</title>
<path fill="none" stroke="#000000" d="M3.653,-73.1733C15.8648,-69.0436 85.6624,-45.4392 129.9174,-30.473"/>
<polygon fill="#000000" stroke="#000000" points="131.1325,-33.7569 139.4842,-27.2377 128.89,-27.1258 131.1325,-33.7569"/>
</g>
<!-- 6h0 -->
<g id="node34" class="node">
<title>6h0</title>
<ellipse fill="#ff0000" stroke="#ff0000" cx="89.8" cy="-73.8" rx="1.8" ry="1.8"/>
</g>
<!-- 6&#45;&gt;6h0 -->
<g id="edge39" class="edge">
<title>6&#45;&gt;6h0</title>
<path fill="none" stroke="#006400" d="M114.9988,-114.3618C106.0517,-99.9599 94.2634,-80.9847 90.7981,-75.4065"/>
</g>
<!-- 6h1 -->
<g id="node35" class="node">
<title>6h1</title>
<ellipse fill="#ff0000" stroke="#ff0000" cx="111.8" cy="-73.8" rx="1.8" ry="1.8"/>
</g>
<!-- 6&#45;&gt;6h1 -->
<g id="edge40" class="edge">
<title>6&#45;&gt;6h1</title>
<path fill="none" stroke="#0000ff" d="M121.0602,-112.1296C117.6968,-98.2078 113.5535,-81.0579 112.2286,-75.5739"/>
</g>
<!-- 6h2 -->
<g id="node36" class="node">
<title>6h2</title>
<ellipse fill="#000000" stroke="#000000" cx="133.8" cy="-73.8" rx="1.8" ry="1.8"/>
</g>
<!-- 6&#45;&gt;6h2 -->
<g id="edge41" class="edge">
<title>6&#45;&gt;6h2</title>
<path fill="none" stroke="#ff0000" d="M128.598,-111.4807C130.4724,-97.9034 132.735,-81.5141 133.5176,-75.8454"/>
</g>
<!-- 6h3 -->
<g id="node37" class="node">
<title>6h3</title>
<ellipse fill="#ff0000" stroke="#ff0000" cx="155.8" cy="-73.8" rx="1.8" ry="1.8"/>
</g>
<!-- 6&#45;&gt;6h3 -->
<g id="edge43" class="edge">
<title>6&#45;&gt;6h3</title>
<path fill="none" stroke="#ffd700" d="M135.1277,-113.7307C142.4207,-99.6436 151.8115,-81.5041 154.8242,-75.6849"/>
</g>
<!-- 6h2&#45;&gt;T -->
<g id="edge42" class="edge">
<title>6h2&#45;&gt;T</title>
<path fill="none" stroke="#000000" d="M134.898,-71.9434C137.4747,-67.5863 144.1929,-56.2266 150.8032,-45.0491"/>
<polygon fill="#000000" stroke="#000000" points="153.9224,-46.6504 156.0003,-36.2614 147.8972,-43.0871 153.9224,-46.6504"/>
</g>
<!-- 7h0 -->
<g id="node39" class="node">
<title>7h0</title>
<ellipse fill="#ff0000" stroke="#ff0000" cx="177.8" cy="-73.8" rx="1.8" ry="1.8"/>
</g>
<!-- 7&#45;&gt;7h0 -->
<g id="edge44" class="edge">
<title>7&#45;&gt;7h0</title>
<path fill="none" stroke="#006400" d="M202.9988,-114.3618C194.0517,-99.9599 182.2634,-80.9847 178.7981,-75.4065"/>
</g>
<!-- 7h1 -->
<g id="node40" class="node">
<title>7h1</title>
<ellipse fill="#000000" stroke="#000000" cx="199.8" cy="-73.8" rx="1.8" ry="1.8"/>
</g>
<!-- 7&#45;&gt;7h1 -->
<g id="edge45" class="edge">
<title>7&#45;&gt;7h1</title>
<path fill="none" stroke="#0000ff" d="M209.0602,-112.1296C205.6968,-98.2078 201.5535,-81.0579 200.2286,-75.5739"/>
</g>
<!-- 7h2 -->
<g id="node41" class="node">
<title>7h2</title>
<ellipse fill="#ff0000" stroke="#ff0000" cx="221.8" cy="-73.8" rx="1.8" ry="1.8"/>
</g>
<!-- 7&#45;&gt;7h2 -->
<g id="edge47" class="edge">
<title>7&#45;&gt;7h2</title>
<path fill="none" stroke="#ff0000" d="M216.598,-111.4807C218.4724,-97.9034 220.735,-81.5141 221.5176,-75.8454"/>
</g>
<!-- 7h3 -->
<g id="node42" class="node">
<title>7h3</title>
<ellipse fill="#ff0000" stroke="#ff0000" cx="243.8" cy="-73.8" rx="1.8" ry="1.8"/>
</g>
<!-- 7&#45;&gt;7h3 -->
<g id="edge48" class="edge">
<title>7&#45;&gt;7h3</title>
<path fill="none" stroke="#ffd700" d="M223.1277,-113.7307C230.4207,-99.6436 239.8115,-81.5041 242.8242,-75.6849"/>
</g>
<!-- 7h1&#45;&gt;T -->
<g id="edge46" class="edge">
<title>7h1&#45;&gt;T</title>
<path fill="none" stroke="#000000" d="M198.702,-71.9434C196.1253,-67.5863 189.4071,-56.2266 182.7968,-45.0491"/>
<polygon fill="#000000" stroke="#000000" points="185.7028,-43.0871 177.5997,-36.2614 179.6776,-46.6504 185.7028,-43.0871"/>
</g>
<!-- 8h0 -->
<g id="node44" class="node">
<title>8h0</title>
<ellipse fill="#ff0000" stroke="#ff0000" cx="265.8" cy="-73.8" rx="1.8" ry="1.8"/>
</g>
<!-- 8&#45;&gt;8h0 -->
<g id="edge49" class="edge">
<title>8&#45;&gt;8h0</title>
<path fill="none" stroke="#006400" d="M286.4723,-113.7307C279.1793,-99.6436 269.7885,-81.5041 266.7758,-75.6849"/>
</g>
<!-- 8h1 -->
<g id="node45" class="node">
<title>8h1</title>
<ellipse fill="#ff0000" stroke="#ff0000" cx="287.8" cy="-73.8" rx="1.8" ry="1.8"/>
</g>
<!-- 8&#45;&gt;8h1 -->
<g id="edge50" class="edge">
<title>8&#45;&gt;8h1</title>
<path fill="none" stroke="#0000ff" d="M293.002,-111.4807C291.1276,-97.9034 288.865,-81.5141 288.0824,-75.8454"/>
</g>
<!-- 8h2 -->
<g id="node46" class="node">
<title>8h2</title>
<ellipse fill="#ff0000" stroke="#ff0000" cx="309.8" cy="-73.8" rx="1.8" ry="1.8"/>
</g>
<!-- 8&#45;&gt;8h2 -->
<g id="edge51" class="edge">
<title>8&#45;&gt;8h2</title>
<path fill="none" stroke="#ff0000" d="M300.5398,-112.1296C303.9032,-98.2078 308.0465,-81.0579 309.3714,-75.5739"/>
</g>
<!-- 8h3 -->
<g id="node47" class="node">
<title>8h3</title>
<ellipse fill="#000000" stroke="#000000" cx="331.8" cy="-73.8" rx="1.8" ry="1.8"/>
</g>
<!-- 8&#45;&gt;8h3 -->
<g id="edge52" class="edge">
<title>8&#45;&gt;8h3</title>
<path fill="none" stroke="#ffd700" d="M306.6012,-114.3618C315.5483,-99.9599 327.3366,-80.9847 330.8019,-75.4065"/>
</g>
<!-- 8h3&#45;&gt;T -->
<g id="edge53" class="edge">
<title>8h3&#45;&gt;T</title>
<path fill="none" stroke="#000000" d="M329.947,-73.1733C317.7352,-69.0436 247.9376,-45.4392 203.6826,-30.473"/>
<polygon fill="#000000" stroke="#000000" points="204.71,-27.1258 194.1158,-27.2377 202.4675,-33.7569 204.71,-27.1258"/>
</g>
</g>
</svg>
