<?xml version="1.0" encoding="UTF-8" standalone="no"?>
<!DOCTYPE svg PUBLIC "-//W3C//DTD SVG 1.1//EN"
 "http://www.w3.org/Graphics/SVG/1.1/DTD/svg11.dtd">
<!-- Generated by graphviz version 2.40.1 (20161225.0304)
 -->
<!-- Title: DD Pages: 1 -->
<svg width="181pt" height="480pt"
 viewBox="0.00 0.00 180.80 480.29" xmlns="http://www.w3.org/2000/svg" xmlns:xlink="http://www.w3.org/1999/xlink">
<g id="graph0" class="graph" transform="scale(1 1) rotate(0) translate(4 476.2893)">
<title>DD</title>
<polygon fill="#ffffff" stroke="transparent" points="-4,4 -4,-476.2893 176.8,-476.2893 176.8,4 -4,4"/>
<!-- T -->
<g id="node1" class="node">
<title>T</title>
<polygon fill="none" stroke="#000000" points="76.8,-36 22.8,-36 22.8,0 76.8,0 76.8,-36"/>
<text text-anchor="middle" x="49.8" y="-14.3" font-family="Times,serif" font-size="14.00" fill="#000000">1</text>
</g>
<!-- R -->
<g id="node2" class="node">
<title>R</title>
<ellipse fill="#000000" stroke="#000000" cx="86.8" cy="-470.4893" rx="1.8" ry="1.8"/>
</g>
<!-- 0 -->
<g id="node3" class="node">
<title>0</title>
<ellipse fill="#d3d3d3" stroke="#000000" cx="86.8" cy="-397.5411" rx="20.2975" ry="20.2975"/>
<text text-anchor="middle" x="86.8" y="-393.8411" font-family="Times,serif" font-size="14.00" fill="#000000">q2</text>
</g>
<!-- R&#45;&gt;0 -->
<g id="edge1" class="edge">
<title>R&#45;&gt;0</title>
<path fill="none" stroke="#000000" d="M86.8,-468.686C86.8,-462.9446 86.8,-444.4868 86.8,-427.8114"/>
<polygon fill="#000000" stroke="#000000" points="90.3001,-427.7885 86.8,-417.7885 83.3001,-427.7886 90.3001,-427.7885"/>
<text text-anchor="middle" x="95.3" y="-439.4893" font-family="Times,serif" font-size="14.00" fill="#000000">(1)</text>
</g>
<!-- 0h0 -->
<g id="node4" class="node">
<title>0h0</title>
<ellipse fill="#000000" stroke="#000000" cx="42.8" cy="-338.5928" rx="1.8" ry="1.8"/>
</g>
<!-- 0&#45;&gt;0h0 -->
<g id="edge2" class="edge">
<title>0&#45;&gt;0h0</title>
<path fill="none" stroke="#006400" d="M74.5435,-381.1207C63.5586,-366.4038 48.5121,-346.2455 44.0782,-340.3053"/>
</g>
<!-- 0h2 -->
<g id="node5" class="node">
<title>0h2</title>
<ellipse fill="#000000" stroke="#000000" cx="111.8" cy="-338.5928" rx="1.8" ry="1.8"/>
</g>
<!-- 0&#45;&gt;0h2 -->
<g id="edge4" class="edge">
<title>0&#45;&gt;0h2</title>
<path fill="none" stroke="#ff0000" d="M94.7102,-378.8895C100.7755,-364.5878 108.5152,-346.3382 110.9965,-340.4874"/>
</g>
<!-- 1 -->
<g id="node6" class="node">
<title>1</title>
<ellipse fill="#d3d3d3" stroke="#000000" cx="26.8" cy="-265.6446" rx="20.2975" ry="20.2975"/>
<text text-anchor="middle" x="26.8" y="-261.9446" font-family="Times,serif" font-size="14.00" fill="#000000">q1</text>
</g>
<!-- 0h0&#45;&gt;1 -->
<g id="edge3" class="edge">
<title>0h0&#45;&gt;1</title>
<path fill="none" stroke="#000000" d="M42.4045,-336.7896C41.1372,-331.0118 37.0454,-312.3562 33.3699,-295.5986"/>
<polygon fill="#000000" stroke="#000000" points="36.7254,-294.5598 31.1641,-285.5419 29.8879,-296.0596 36.7254,-294.5598"/>
<text text-anchor="middle" x="71.8" y="-307.5928" font-family="Times,serif" font-size="14.00" fill="#000000"> (0.816497)</text>
</g>
<!-- 2 -->
<g id="node9" class="node">
<title>2</title>
<ellipse fill="#d3d3d3" stroke="#000000" cx="115.8" cy="-265.6446" rx="20.2975" ry="20.2975"/>
<text text-anchor="middle" x="115.8" y="-261.9446" font-family="Times,serif" font-size="14.00" fill="#000000">q1</text>
</g>
<!-- 0h2&#45;&gt;2 -->
<g id="edge5" class="edge">
<title>0h2&#45;&gt;2</title>
<path fill="none" stroke="#000000" d="M111.8989,-336.7896C112.2137,-331.0481 113.2258,-312.5904 114.1402,-295.915"/>
<polygon fill="#000000" stroke="#000000" points="117.6369,-296.0688 114.6898,-285.8921 110.6474,-295.6855 117.6369,-296.0688"/>
<text text-anchor="middle" x="143.3" y="-307.5928" font-family="Times,serif" font-size="14.00" fill="#000000"> (0.57735)</text>
</g>
<!-- 1h0 -->
<g id="node7" class="node">
<title>1h0</title>
<ellipse fill="#ff0000" stroke="#ff0000" cx="9.8" cy="-206.6964" rx="1.8" ry="1.8"/>
</g>
<!-- 1&#45;&gt;1h0 -->
<g id="edge6" class="edge">
<title>1&#45;&gt;1h0</title>
<path fill="none" stroke="#006400" d="M21.1392,-246.0157C17.0439,-231.815 11.9551,-214.1694 10.3268,-208.5232"/>
</g>
<!-- 1h2 -->
<g id="node8" class="node">
<title>1h2</title>
<ellipse fill="#000000" stroke="#000000" cx="34.8" cy="-206.6964" rx="1.8" ry="1.8"/>
</g>
<!-- 1&#45;&gt;1h2 -->
<g id="edge7" class="edge">
<title>1&#45;&gt;1h2</title>
<path fill="none" stroke="#ff0000" d="M29.5531,-245.358C31.4334,-231.5036 33.722,-214.6399 34.5141,-208.8031"/>
</g>
<!-- 3 -->
<g id="node12" class="node">
<title>3</title>
<ellipse fill="#d3d3d3" stroke="#000000" cx="34.8" cy="-147.7482" rx="20.2975" ry="20.2975"/>
<text text-anchor="middle" x="34.8" y="-144.0482" font-family="Times,serif" font-size="14.00" fill="#000000">q0</text>
</g>
<!-- 1h2&#45;&gt;3 -->
<g id="edge8" class="edge">
<title>1h2&#45;&gt;3</title>
<path fill="none" stroke="#000000" d="M34.8,-204.7351C34.8,-200.3607 34.8,-189.3048 34.8,-178.0824"/>
<polygon fill="#000000" stroke="#000000" points="38.3001,-177.9163 34.8,-167.9163 31.3001,-177.9163 38.3001,-177.9163"/>
</g>
<!-- 2h0 -->
<g id="node10" class="node">
<title>2h0</title>
<ellipse fill="#000000" stroke="#000000" cx="99.8" cy="-206.6964" rx="1.8" ry="1.8"/>
</g>
<!-- 2&#45;&gt;2h0 -->
<g id="edge9" class="edge">
<title>2&#45;&gt;2h0</title>
<path fill="none" stroke="#006400" d="M110.4722,-246.0157C106.6178,-231.815 101.8283,-214.1694 100.2958,-208.5232"/>
</g>
<!-- 2h2 -->
<g id="node11" class="node">
<title>2h2</title>
<ellipse fill="#ff0000" stroke="#ff0000" cx="124.8" cy="-206.6964" rx="1.8" ry="1.8"/>
</g>
<!-- 2&#45;&gt;2h2 -->
<g id="edge11" class="edge">
<title>2&#45;&gt;2h2</title>
<path fill="none" stroke="#ff0000" d="M118.847,-245.6875C121.0092,-231.5254 123.6728,-214.0796 124.5245,-208.5009"/>
</g>
<!-- 4 -->
<g id="node15" class="node">
<title>4</title>
<ellipse fill="#d3d3d3" stroke="#000000" cx="99.8" cy="-147.7482" rx="20.2975" ry="20.2975"/>
<text text-anchor="middle" x="99.8" y="-144.0482" font-family="Times,serif" font-size="14.00" fill="#000000">q0</text>
</g>
<!-- 2h0&#45;&gt;4 -->
<g id="edge10" class="edge">
<title>2h0&#45;&gt;4</title>
<path fill="none" stroke="#000000" d="M99.8,-204.7351C99.8,-200.3607 99.8,-189.3048 99.8,-178.0824"/>
<polygon fill="#000000" stroke="#000000" points="103.3001,-177.9163 99.8,-167.9163 96.3001,-177.9163 103.3001,-177.9163"/>
</g>
<!-- 3h0 -->
<g id="node13" class="node">
<title>3h0</title>
<ellipse fill="#000000" stroke="#000000" cx="1.8" cy="-88.8" rx="1.8" ry="1.8"/>
</g>
<!-- 3&#45;&gt;3h0 -->
<g id="edge12" class="edge">
<title>3&#45;&gt;3h0</title>
<path fill="none" stroke="#006400" d="M24.8989,-130.0618C16.6974,-115.4113 5.8915,-96.1087 2.7149,-90.4343"/>
</g>
<!-- 3h2 -->
<g id="node14" class="node">
<title>3h2</title>
<ellipse fill="#000000" stroke="#000000" cx="42.8" cy="-88.8" rx="1.8" ry="1.8"/>
</g>
<!-- 3&#45;&gt;3h2 -->
<g id="edge14" class="edge">
<title>3&#45;&gt;3h2</title>
<path fill="none" stroke="#ff0000" d="M37.5531,-127.4616C39.4334,-113.6071 41.722,-96.7435 42.5141,-90.9067"/>
</g>
<!-- 3h0&#45;&gt;T -->
<g id="edge13" class="edge">
<title>3h0&#45;&gt;T</title>
<path fill="none" stroke="#000000" d="M2.1642,-86.7773C3.2356,-81.2002 6.7534,-65.2714 13.8,-54 16.0666,-50.3744 18.7621,-46.8336 21.6434,-43.4749"/>
<polygon fill="#000000" stroke="#000000" points="24.3368,-45.7184 28.5894,-36.0145 19.2136,-40.9484 24.3368,-45.7184"/>
<text text-anchor="middle" x="27.8" y="-57.8" font-family="Times,serif" font-size="14.00" fill="#000000">(√½)</text>
</g>
<!-- 3h2&#45;&gt;T -->
<g id="edge15" class="edge">
<title>3h2&#45;&gt;T</title>
<path fill="none" stroke="#000000" d="M43.0019,-86.7574C43.5977,-80.7315 45.4068,-62.4337 47.009,-46.2287"/>
<polygon fill="#000000" stroke="#000000" points="50.5162,-46.3277 48.0172,-36.0318 43.5502,-45.6389 50.5162,-46.3277"/>
<text text-anchor="middle" x="60.8" y="-57.8" font-family="Times,serif" font-size="14.00" fill="#000000">(√½)</text>
</g>
<!-- 4h0 -->
<g id="node16" class="node">
<title>4h0</title>
<ellipse fill="#000000" stroke="#000000" cx="92.8" cy="-88.8" rx="1.8" ry="1.8"/>
</g>
<!-- 4&#45;&gt;4h0 -->
<g id="edge16" class="edge">
<title>4&#45;&gt;4h0</title>
<path fill="none" stroke="#006400" d="M97.391,-127.4616C95.7458,-113.6071 93.7433,-96.7435 93.0502,-90.9067"/>
</g>
<!-- 4h2 -->
<g id="node17" class="node">
<title>4h2</title>
<ellipse fill="#ff0000" stroke="#ff0000" cx="117.8" cy="-88.8" rx="1.8" ry="1.8"/>
</g>
<!-- 4&#45;&gt;4h2 -->
<g id="edge18" class="edge">
<title>4&#45;&gt;4h2</title>
<path fill="none" stroke="#ff0000" d="M105.6939,-128.4464C110.0412,-114.2094 115.4905,-96.3633 117.2353,-90.6493"/>
</g>
<!-- 4h0&#45;&gt;T -->
<g id="edge17" class="edge">
<title>4h0&#45;&gt;T</title>
<path fill="none" stroke="#000000" d="M92.2306,-86.8209C90.6114,-81.3553 85.6512,-65.6851 78.8,-54 76.9023,-50.7633 74.7305,-47.5082 72.4481,-44.3494"/>
<polygon fill="#000000" stroke="#000000" points="75.1268,-42.091 66.2604,-36.2913 69.5749,-46.3544 75.1268,-42.091"/>
</g>
</g>
</svg>
