<?xml version="1.0" encoding="UTF-8" standalone="no"?>
<!DOCTYPE svg PUBLIC "-//W3C//DTD SVG 1.1//EN"
 "http://www.w3.org/Graphics/SVG/1.1/DTD/svg11.dtd">
<!-- Generated by graphviz version 2.40.1 (20161225.0304)
 -->
<!-- Title: DD Pages: 1 -->
<svg width="173pt" height="466pt"
 viewBox="0.00 0.00 173.15 466.29" xmlns="http://www.w3.org/2000/svg" xmlns:xlink="http://www.w3.org/1999/xlink">
<g id="graph0" class="graph" transform="scale(1 1) rotate(0) translate(4 462.2893)">
<title>DD</title>
<polygon fill="#ffffff" stroke="transparent" points="-4,4 -4,-462.2893 169.1482,-462.2893 169.1482,4 -4,4"/>
<!-- T -->
<g id="node1" class="node">
<title>T</title>
<polygon fill="none" stroke="#000000" points="111.1482,-36 57.1482,-36 57.1482,0 111.1482,0 111.1482,-36"/>
<text text-anchor="middle" x="84.1482" y="-14.3" font-family="Times,serif" font-size="14.00" fill="#000000">1</text>
</g>
<!-- R -->
<g id="node2" class="node">
<title>R</title>
<ellipse fill="#000000" stroke="#000000" cx="80.1482" cy="-456.4893" rx="1.8" ry="1.8"/>
</g>
<!-- 0 -->
<g id="node3" class="node">
<title>0</title>
<ellipse fill="#d3d3d3" stroke="#000000" cx="80.1482" cy="-397.5411" rx="20.2975" ry="20.2975"/>
<text text-anchor="middle" x="80.1482" y="-393.8411" font-family="Times,serif" font-size="14.00" fill="#000000">q2</text>
</g>
<!-- R&#45;&gt;0 -->
<g id="edge1" class="edge">
<title>R&#45;&gt;0</title>
<path fill="none" stroke="#000000" d="M80.1482,-454.528C80.1482,-450.1535 80.1482,-439.0976 80.1482,-427.8753"/>
<polygon fill="#000000" stroke="#000000" points="83.6483,-427.7091 80.1482,-417.7092 76.6483,-427.7092 83.6483,-427.7091"/>
</g>
<!-- 0h0 -->
<g id="node4" class="node">
<title>0h0</title>
<ellipse fill="#000000" stroke="#000000" cx="36.1482" cy="-338.5928" rx="1.8" ry="1.8"/>
</g>
<!-- 0&#45;&gt;0h0 -->
<g id="edge2" class="edge">
<title>0&#45;&gt;0h0</title>
<path fill="none" stroke="#006400" d="M67.8918,-381.1207C56.9068,-366.4038 41.8603,-346.2455 37.4264,-340.3053"/>
</g>
<!-- 0h2 -->
<g id="node5" class="node">
<title>0h2</title>
<ellipse fill="#000000" stroke="#000000" cx="105.1482" cy="-338.5928" rx="1.8" ry="1.8"/>
</g>
<!-- 0&#45;&gt;0h2 -->
<g id="edge4" class="edge">
<title>0&#45;&gt;0h2</title>
<path fill="none" stroke="#ff0000" d="M88.0584,-378.8895C94.1237,-364.5878 101.8634,-346.3382 104.3447,-340.4874"/>
</g>
<!-- 1 -->
<g id="node6" class="node">
<title>1</title>
<ellipse fill="#d3d3d3" stroke="#000000" cx="20.1482" cy="-265.6446" rx="20.2975" ry="20.2975"/>
<text text-anchor="middle" x="20.1482" y="-261.9446" font-family="Times,serif" font-size="14.00" fill="#000000">q1</text>
</g>
<!-- 0h0&#45;&gt;1 -->
<g id="edge3" class="edge">
<title>0h0&#45;&gt;1</title>
<path fill="none" stroke="#000000" d="M35.7527,-336.7896C34.4854,-331.0118 30.3936,-312.3562 26.7181,-295.5986"/>
<polygon fill="#000000" stroke="#000000" points="30.0736,-294.5598 24.5124,-285.5419 23.2361,-296.0596 30.0736,-294.5598"/>
<text text-anchor="middle" x="65.1482" y="-307.5928" font-family="Times,serif" font-size="14.00" fill="#000000"> (0.816497)</text>
</g>
<!-- 2 -->
<g id="node9" class="node">
<title>2</title>
<ellipse fill="#d3d3d3" stroke="#000000" cx="109.1482" cy="-265.6446" rx="20.2975" ry="20.2975"/>
<text text-anchor="middle" x="109.1482" y="-261.9446" font-family="Times,serif" font-size="14.00" fill="#000000">q1</text>
</g>
<!-- 0h2&#45;&gt;2 -->
<g id="edge5" class="edge">
<title>0h2&#45;&gt;2</title>
<path fill="none" stroke="#000000" d="M105.2471,-336.7896C105.5619,-331.0481 106.574,-312.5904 107.4884,-295.915"/>
<polygon fill="#000000" stroke="#000000" points="110.9851,-296.0688 108.038,-285.8921 103.9956,-295.6855 110.9851,-296.0688"/>
<text text-anchor="middle" x="135.6482" y="-307.5928" font-family="Times,serif" font-size="14.00" fill="#000000"> (0.57735)</text>
</g>
<!-- 1h0 -->
<g id="node7" class="node">
<title>1h0</title>
<ellipse fill="#ff0000" stroke="#ff0000" cx="8.1482" cy="-206.6964" rx="1.8" ry="1.8"/>
</g>
<!-- 1&#45;&gt;1h0 -->
<g id="edge6" class="edge">
<title>1&#45;&gt;1h0</title>
<path fill="none" stroke="#006400" d="M16.0856,-245.6875C13.2026,-231.5254 9.6512,-214.0796 8.5155,-208.5009"/>
</g>
<!-- 1h2 -->
<g id="node8" class="node">
<title>1h2</title>
<ellipse fill="#ff0000" stroke="#ff0000" cx="33.1482" cy="-206.6964" rx="1.8" ry="1.8"/>
</g>
<!-- 1&#45;&gt;1h2 -->
<g id="edge7" class="edge">
<title>1&#45;&gt;1h2</title>
<path fill="none" stroke="#ff0000" d="M24.5494,-245.6875C27.6726,-231.5254 31.52,-214.0796 32.7503,-208.5009"/>
</g>
<!-- 2h0 -->
<g id="node10" class="node">
<title>2h0</title>
<ellipse fill="#000000" stroke="#000000" cx="96.1482" cy="-206.6964" rx="1.8" ry="1.8"/>
</g>
<!-- 2&#45;&gt;2h0 -->
<g id="edge8" class="edge">
<title>2&#45;&gt;2h0</title>
<path fill="none" stroke="#006400" d="M104.747,-245.6875C101.6238,-231.5254 97.7764,-214.0796 96.5462,-208.5009"/>
</g>
<!-- 2h2 -->
<g id="node11" class="node">
<title>2h2</title>
<ellipse fill="#ff0000" stroke="#ff0000" cx="121.1482" cy="-206.6964" rx="1.8" ry="1.8"/>
</g>
<!-- 2&#45;&gt;2h2 -->
<g id="edge10" class="edge">
<title>2&#45;&gt;2h2</title>
<path fill="none" stroke="#ff0000" d="M113.2109,-245.6875C116.0938,-231.5254 119.6452,-214.0796 120.7809,-208.5009"/>
</g>
<!-- 3 -->
<g id="node12" class="node">
<title>3</title>
<ellipse fill="#d3d3d3" stroke="#000000" cx="96.1482" cy="-133.7482" rx="20.2975" ry="20.2975"/>
<text text-anchor="middle" x="96.1482" y="-130.0482" font-family="Times,serif" font-size="14.00" fill="#000000">q0</text>
</g>
<!-- 2h0&#45;&gt;3 -->
<g id="edge9" class="edge">
<title>2h0&#45;&gt;3</title>
<path fill="none" stroke="#000000" d="M96.1482,-204.8932C96.1482,-199.1517 96.1482,-180.6939 96.1482,-164.0185"/>
<polygon fill="#000000" stroke="#000000" points="99.6483,-163.9957 96.1482,-153.9957 92.6483,-163.9957 99.6483,-163.9957"/>
<text text-anchor="middle" x="106.1482" y="-175.6964" font-family="Times,serif" font-size="14.00" fill="#000000"> (0)</text>
</g>
<!-- 3h0 -->
<g id="node13" class="node">
<title>3h0</title>
<ellipse fill="#000000" stroke="#000000" cx="84.1482" cy="-74.8" rx="1.8" ry="1.8"/>
</g>
<!-- 3&#45;&gt;3h0 -->
<g id="edge11" class="edge">
<title>3&#45;&gt;3h0</title>
<path fill="none" stroke="#006400" d="M92.0856,-113.791C89.2026,-99.629 85.6512,-82.1831 84.5155,-76.6045"/>
</g>
<!-- 3h2 -->
<g id="node14" class="node">
<title>3h2</title>
<ellipse fill="#ff0000" stroke="#ff0000" cx="109.1482" cy="-74.8" rx="1.8" ry="1.8"/>
</g>
<!-- 3&#45;&gt;3h2 -->
<g id="edge13" class="edge">
<title>3&#45;&gt;3h2</title>
<path fill="none" stroke="#ff0000" d="M100.5494,-113.791C103.6726,-99.629 107.52,-82.1831 108.7503,-76.6045"/>
</g>
<!-- 3h0&#45;&gt;T -->
<g id="edge12" class="edge">
<title>3h0&#45;&gt;T</title>
<path fill="none" stroke="#000000" d="M84.1482,-72.9102C84.1482,-68.5478 84.1482,-57.2893 84.1482,-46.0942"/>
<polygon fill="#000000" stroke="#000000" points="87.6483,-46.0304 84.1482,-36.0304 80.6483,-46.0304 87.6483,-46.0304"/>
</g>
</g>
</svg>
