<?xml version="1.0" encoding="UTF-8" standalone="no"?>
<!DOCTYPE svg PUBLIC "-//W3C//DTD SVG 1.1//EN"
 "http://www.w3.org/Graphics/SVG/1.1/DTD/svg11.dtd">
<!-- Generated by graphviz version 2.40.1 (20161225.0304)
 -->
<!-- Title: DD Pages: 1 -->
<svg width="174pt" height="480pt"
 viewBox="0.00 0.00 174.15 480.29" xmlns="http://www.w3.org/2000/svg" xmlns:xlink="http://www.w3.org/1999/xlink">
<g id="graph0" class="graph" transform="scale(1 1) rotate(0) translate(4 476.2893)">
<title>DD</title>
<polygon fill="#ffffff" stroke="transparent" points="-4,4 -4,-476.2893 170.1482,-476.2893 170.1482,4 -4,4"/>
<!-- T -->
<g id="node1" class="node">
<title>T</title>
<polygon fill="none" stroke="#000000" points="54.1482,-36 .1482,-36 .1482,0 54.1482,0 54.1482,-36"/>
<text text-anchor="middle" x="27.1482" y="-14.3" font-family="Times,serif" font-size="14.00" fill="#000000">1</text>
</g>
<!-- R -->
<g id="node2" class="node">
<title>R</title>
<ellipse fill="#000000" stroke="#000000" cx="80.1482" cy="-470.4893" rx="1.8" ry="1.8"/>
</g>
<!-- 0 -->
<g id="node3" class="node">
<title>0</title>
<ellipse fill="#d3d3d3" stroke="#000000" cx="80.1482" cy="-411.5411" rx="20.2975" ry="20.2975"/>
<text text-anchor="middle" x="80.1482" y="-407.8411" font-family="Times,serif" font-size="14.00" fill="#000000">q2</text>
</g>
<!-- R&#45;&gt;0 -->
<g id="edge1" class="edge">
<title>R&#45;&gt;0</title>
<path fill="none" stroke="#000000" d="M80.1482,-468.528C80.1482,-464.1535 80.1482,-453.0976 80.1482,-441.8753"/>
<polygon fill="#000000" stroke="#000000" points="83.6483,-441.7091 80.1482,-431.7092 76.6483,-441.7092 83.6483,-441.7091"/>
</g>
<!-- 0h0 -->
<g id="node4" class="node">
<title>0h0</title>
<ellipse fill="#000000" stroke="#000000" cx="36.1482" cy="-352.5928" rx="1.8" ry="1.8"/>
</g>
<!-- 0&#45;&gt;0h0 -->
<g id="edge2" class="edge">
<title>0&#45;&gt;0h0</title>
<path fill="none" stroke="#006400" d="M67.8918,-395.1207C56.9068,-380.4038 41.8603,-360.2455 37.4264,-354.3053"/>
</g>
<!-- 0h2 -->
<g id="node5" class="node">
<title>0h2</title>
<ellipse fill="#000000" stroke="#000000" cx="105.1482" cy="-352.5928" rx="1.8" ry="1.8"/>
</g>
<!-- 0&#45;&gt;0h2 -->
<g id="edge4" class="edge">
<title>0&#45;&gt;0h2</title>
<path fill="none" stroke="#ff0000" d="M88.0584,-392.8895C94.1237,-378.5878 101.8634,-360.3382 104.3447,-354.4874"/>
</g>
<!-- 1 -->
<g id="node6" class="node">
<title>1</title>
<ellipse fill="#d3d3d3" stroke="#000000" cx="20.1482" cy="-279.6446" rx="20.2975" ry="20.2975"/>
<text text-anchor="middle" x="20.1482" y="-275.9446" font-family="Times,serif" font-size="14.00" fill="#000000">q1</text>
</g>
<!-- 0h0&#45;&gt;1 -->
<g id="edge3" class="edge">
<title>0h0&#45;&gt;1</title>
<path fill="none" stroke="#000000" d="M35.7527,-350.7896C34.4854,-345.0118 30.3936,-326.3562 26.7181,-309.5986"/>
<polygon fill="#000000" stroke="#000000" points="30.0736,-308.5598 24.5124,-299.5419 23.2361,-310.0596 30.0736,-308.5598"/>
<text text-anchor="middle" x="65.1482" y="-321.5928" font-family="Times,serif" font-size="14.00" fill="#000000"> (0.816497)</text>
</g>
<!-- 2 -->
<g id="node9" class="node">
<title>2</title>
<ellipse fill="#d3d3d3" stroke="#000000" cx="109.1482" cy="-279.6446" rx="20.2975" ry="20.2975"/>
<text text-anchor="middle" x="109.1482" y="-275.9446" font-family="Times,serif" font-size="14.00" fill="#000000">q1</text>
</g>
<!-- 0h2&#45;&gt;2 -->
<g id="edge5" class="edge">
<title>0h2&#45;&gt;2</title>
<path fill="none" stroke="#000000" d="M105.2471,-350.7896C105.5619,-345.0481 106.574,-326.5904 107.4884,-309.915"/>
<polygon fill="#000000" stroke="#000000" points="110.9851,-310.0688 108.038,-299.8921 103.9956,-309.6855 110.9851,-310.0688"/>
<text text-anchor="middle" x="136.6482" y="-321.5928" font-family="Times,serif" font-size="14.00" fill="#000000"> (0.57735)</text>
</g>
<!-- 1h0 -->
<g id="node7" class="node">
<title>1h0</title>
<ellipse fill="#ff0000" stroke="#ff0000" cx="8.1482" cy="-220.6964" rx="1.8" ry="1.8"/>
</g>
<!-- 1&#45;&gt;1h0 -->
<g id="edge6" class="edge">
<title>1&#45;&gt;1h0</title>
<path fill="none" stroke="#006400" d="M16.0856,-259.6875C13.2026,-245.5254 9.6512,-228.0796 8.5155,-222.5009"/>
</g>
<!-- 1h2 -->
<g id="node8" class="node">
<title>1h2</title>
<ellipse fill="#000000" stroke="#000000" cx="33.1482" cy="-220.6964" rx="1.8" ry="1.8"/>
</g>
<!-- 1&#45;&gt;1h2 -->
<g id="edge7" class="edge">
<title>1&#45;&gt;1h2</title>
<path fill="none" stroke="#ff0000" d="M24.5494,-259.6875C27.6726,-245.5254 31.52,-228.0796 32.7503,-222.5009"/>
</g>
<!-- 3 -->
<g id="node12" class="node">
<title>3</title>
<ellipse fill="#d3d3d3" stroke="#000000" cx="33.1482" cy="-147.7482" rx="20.2975" ry="20.2975"/>
<text text-anchor="middle" x="33.1482" y="-144.0482" font-family="Times,serif" font-size="14.00" fill="#000000">q0</text>
</g>
<!-- 1h2&#45;&gt;3 -->
<g id="edge8" class="edge">
<title>1h2&#45;&gt;3</title>
<path fill="none" stroke="#000000" d="M33.1482,-218.8932C33.1482,-213.1517 33.1482,-194.6939 33.1482,-178.0185"/>
<polygon fill="#000000" stroke="#000000" points="36.6483,-177.9957 33.1482,-167.9957 29.6483,-177.9957 36.6483,-177.9957"/>
<text text-anchor="middle" x="62.6482" y="-189.6964" font-family="Times,serif" font-size="14.00" fill="#000000"> (1.22475)</text>
</g>
<!-- 2h0 -->
<g id="node10" class="node">
<title>2h0</title>
<ellipse fill="#ff0000" stroke="#ff0000" cx="96.1482" cy="-220.6964" rx="1.8" ry="1.8"/>
</g>
<!-- 2&#45;&gt;2h0 -->
<g id="edge9" class="edge">
<title>2&#45;&gt;2h0</title>
<path fill="none" stroke="#006400" d="M104.747,-259.6875C101.6238,-245.5254 97.7764,-228.0796 96.5462,-222.5009"/>
</g>
<!-- 2h2 -->
<g id="node11" class="node">
<title>2h2</title>
<ellipse fill="#ff0000" stroke="#ff0000" cx="121.1482" cy="-220.6964" rx="1.8" ry="1.8"/>
</g>
<!-- 2&#45;&gt;2h2 -->
<g id="edge10" class="edge">
<title>2&#45;&gt;2h2</title>
<path fill="none" stroke="#ff0000" d="M113.2109,-259.6875C116.0938,-245.5254 119.6452,-228.0796 120.7809,-222.5009"/>
</g>
<!-- 3h0 -->
<g id="node13" class="node">
<title>3h0</title>
<ellipse fill="#000000" stroke="#000000" cx="8.1482" cy="-88.8" rx="1.8" ry="1.8"/>
</g>
<!-- 3&#45;&gt;3h0 -->
<g id="edge11" class="edge">
<title>3&#45;&gt;3h0</title>
<path fill="none" stroke="#006400" d="M25.2381,-129.0966C19.1727,-114.7949 11.433,-96.5454 8.9517,-90.6945"/>
</g>
<!-- 3h2 -->
<g id="node14" class="node">
<title>3h2</title>
<ellipse fill="#000000" stroke="#000000" cx="51.1482" cy="-88.8" rx="1.8" ry="1.8"/>
</g>
<!-- 3&#45;&gt;3h2 -->
<g id="edge13" class="edge">
<title>3&#45;&gt;3h2</title>
<path fill="none" stroke="#ff0000" d="M39.0421,-128.4464C43.3894,-114.2094 48.8387,-96.3633 50.5835,-90.6493"/>
</g>
<!-- 3h0&#45;&gt;T -->
<g id="edge12" class="edge">
<title>3h0&#45;&gt;T</title>
<path fill="none" stroke="#000000" d="M7.2988,-86.87C5.0694,-81.53 -.5308,-66.151 3.1482,-54 4.055,-51.0052 5.3021,-48.0319 6.7548,-45.1523"/>
<polygon fill="#000000" stroke="#000000" points="9.8726,-46.7551 11.9305,-36.362 3.8406,-43.2034 9.8726,-46.7551"/>
<text text-anchor="middle" x="17.1482" y="-57.8" font-family="Times,serif" font-size="14.00" fill="#000000">(√½)</text>
</g>
<!-- 3h2&#45;&gt;T -->
<g id="edge14" class="edge">
<title>3h2&#45;&gt;T</title>
<path fill="none" stroke="#000000" d="M50.555,-87.0499C48.6182,-81.3364 42.2832,-62.6483 36.6917,-46.1533"/>
<polygon fill="#000000" stroke="#000000" points="39.8774,-44.6488 33.3522,-36.3018 33.2479,-46.8961 39.8774,-44.6488"/>
<text text-anchor="middle" x="58.1482" y="-57.8" font-family="Times,serif" font-size="14.00" fill="#000000">(√½)</text>
</g>
</g>
</svg>
