<?xml version="1.0" encoding="UTF-8" standalone="no"?>
<!DOCTYPE svg PUBLIC "-//W3C//DTD SVG 1.1//EN"
 "http://www.w3.org/Graphics/SVG/1.1/DTD/svg11.dtd">
<!-- Generated by graphviz version 2.40.1 (20161225.0304)
 -->
<!-- Title: DD Pages: 1 -->
<svg width="386pt" height="779pt"
 viewBox="0.00 0.00 385.60 778.98" xmlns="http://www.w3.org/2000/svg" xmlns:xlink="http://www.w3.org/1999/xlink">
<g id="graph0" class="graph" transform="scale(1 1) rotate(0) translate(4 774.9785)">
<title>DD</title>
<polygon fill="#ffffff" stroke="transparent" points="-4,4 -4,-774.9785 381.6,-774.9785 381.6,4 -4,4"/>
<!-- T -->
<g id="node1" class="node">
<title>T</title>
<polygon fill="none" stroke="#000000" points="193.8,-36 139.8,-36 139.8,0 193.8,0 193.8,-36"/>
<text text-anchor="middle" x="166.8" y="-14.3" font-family="Times,serif" font-size="14.00" fill="#000000">1</text>
</g>
<!-- R -->
<g id="node2" class="node">
<title>R</title>
<ellipse fill="#000000" stroke="#000000" cx="210.8" cy="-769.1785" rx="1.8" ry="1.8"/>
</g>
<!-- 0 -->
<g id="node3" class="node">
<title>0</title>
<ellipse fill="#d3d3d3" stroke="#000000" cx="210.8" cy="-711.2303" rx="20.2975" ry="20.2975"/>
<text text-anchor="middle" x="210.8" y="-707.5303" font-family="Times,serif" font-size="14.00" fill="#000000">q5</text>
</g>
<!-- R&#45;&gt;0 -->
<g id="edge1" class="edge">
<title>R&#45;&gt;0</title>
<path fill="none" stroke="#000000" d="M210.8,-767.2505C210.8,-763.0537 210.8,-752.6008 210.8,-741.8454"/>
<polygon fill="#000000" stroke="#000000" points="214.3001,-741.6352 210.8,-731.6352 207.3001,-741.6353 214.3001,-741.6352"/>
</g>
<!-- 0h0 -->
<g id="node4" class="node">
<title>0h0</title>
<ellipse fill="#000000" stroke="#000000" cx="177.8" cy="-653.2821" rx="1.8" ry="1.8"/>
</g>
<!-- 0&#45;&gt;0h0 -->
<g id="edge2" class="edge">
<title>0&#45;&gt;0h0</title>
<path fill="none" stroke="#006400" d="M200.7196,-693.5291C192.5313,-679.1503 181.844,-660.3833 178.7041,-654.8697"/>
</g>
<!-- 0h1 -->
<g id="node5" class="node">
<title>0h1</title>
<ellipse fill="#ff0000" stroke="#ff0000" cx="199.8" cy="-653.2821" rx="1.8" ry="1.8"/>
</g>
<!-- 0&#45;&gt;0h1 -->
<g id="edge4" class="edge">
<title>0&#45;&gt;0h1</title>
<path fill="none" stroke="#0000ff" d="M207.0144,-691.2878C204.4291,-677.6684 201.2823,-661.0909 200.1931,-655.3531"/>
</g>
<!-- 0h2 -->
<g id="node6" class="node">
<title>0h2</title>
<ellipse fill="#ff0000" stroke="#ff0000" cx="221.8" cy="-653.2821" rx="1.8" ry="1.8"/>
</g>
<!-- 0&#45;&gt;0h2 -->
<g id="edge5" class="edge">
<title>0&#45;&gt;0h2</title>
<path fill="none" stroke="#ff0000" d="M214.5856,-691.2878C217.1709,-677.6684 220.3177,-661.0909 221.4069,-655.3531"/>
</g>
<!-- 0h3 -->
<g id="node7" class="node">
<title>0h3</title>
<ellipse fill="#000000" stroke="#000000" cx="243.8" cy="-653.2821" rx="1.8" ry="1.8"/>
</g>
<!-- 0&#45;&gt;0h3 -->
<g id="edge6" class="edge">
<title>0&#45;&gt;0h3</title>
<path fill="none" stroke="#ffd700" d="M220.8804,-693.5291C229.0687,-679.1503 239.756,-660.3833 242.8959,-654.8697"/>
</g>
<!-- 1 -->
<g id="node8" class="node">
<title>1</title>
<ellipse fill="#d3d3d3" stroke="#000000" cx="210.8" cy="-595.3339" rx="20.2975" ry="20.2975"/>
<text text-anchor="middle" x="210.8" y="-591.6339" font-family="Times,serif" font-size="14.00" fill="#000000">q4</text>
</g>
<!-- 0h0&#45;&gt;1 -->
<g id="edge3" class="edge">
<title>0h0&#45;&gt;1</title>
<path fill="none" stroke="#000000" d="M178.898,-651.3541C181.5894,-646.628 188.7988,-633.9682 195.6844,-621.877"/>
<polygon fill="#000000" stroke="#000000" points="198.8993,-623.3042 200.8066,-612.8825 192.8165,-619.8402 198.8993,-623.3042"/>
</g>
<!-- 0h3&#45;&gt;1 -->
<g id="edge7" class="edge">
<title>0h3&#45;&gt;1</title>
<path fill="none" stroke="#000000" d="M242.702,-651.3541C240.0106,-646.628 232.8012,-633.9682 225.9156,-621.877"/>
<polygon fill="#000000" stroke="#000000" points="228.7835,-619.8402 220.7934,-612.8825 222.7007,-623.3042 228.7835,-619.8402"/>
</g>
<!-- 1h0 -->
<g id="node9" class="node">
<title>1h0</title>
<ellipse fill="#000000" stroke="#000000" cx="133.8" cy="-537.3857" rx="1.8" ry="1.8"/>
</g>
<!-- 1&#45;&gt;1h0 -->
<g id="edge8" class="edge">
<title>1&#45;&gt;1h0</title>
<path fill="none" stroke="#006400" d="M194.4703,-583.0446C174.693,-568.1607 143.0753,-544.366 135.4799,-538.6499"/>
</g>
<!-- 1h1 -->
<g id="node10" class="node">
<title>1h1</title>
<ellipse fill="#000000" stroke="#000000" cx="188.8" cy="-537.3857" rx="1.8" ry="1.8"/>
</g>
<!-- 1&#45;&gt;1h1 -->
<g id="edge10" class="edge">
<title>1&#45;&gt;1h1</title>
<path fill="none" stroke="#0000ff" d="M203.5964,-576.3595C198.283,-562.3641 191.6227,-544.8207 189.4902,-539.2036"/>
</g>
<!-- 1h2 -->
<g id="node11" class="node">
<title>1h2</title>
<ellipse fill="#000000" stroke="#000000" cx="232.8" cy="-537.3857" rx="1.8" ry="1.8"/>
</g>
<!-- 1&#45;&gt;1h2 -->
<g id="edge12" class="edge">
<title>1&#45;&gt;1h2</title>
<path fill="none" stroke="#ff0000" d="M218.0036,-576.3595C223.317,-562.3641 229.9773,-544.8207 232.1098,-539.2036"/>
</g>
<!-- 1h3 -->
<g id="node12" class="node">
<title>1h3</title>
<ellipse fill="#000000" stroke="#000000" cx="298.8" cy="-537.3857" rx="1.8" ry="1.8"/>
</g>
<!-- 1&#45;&gt;1h3 -->
<g id="edge14" class="edge">
<title>1&#45;&gt;1h3</title>
<path fill="none" stroke="#ffd700" d="M227.7673,-584.1609C250.5421,-569.1636 289.0934,-543.7775 297.254,-538.4038"/>
</g>
<!-- 2 -->
<g id="node13" class="node">
<title>2</title>
<ellipse fill="#d3d3d3" stroke="#000000" cx="89.8" cy="-479.4375" rx="20.2975" ry="20.2975"/>
<text text-anchor="middle" x="89.8" y="-475.7375" font-family="Times,serif" font-size="14.00" fill="#000000">q3</text>
</g>
<!-- 1h0&#45;&gt;2 -->
<g id="edge9" class="edge">
<title>1h0&#45;&gt;2</title>
<path fill="none" stroke="#000000" d="M132.336,-535.4577C128.5196,-530.4314 117.8899,-516.432 108.2121,-503.6863"/>
<polygon fill="#000000" stroke="#000000" points="110.9059,-501.4463 102.0711,-495.5985 105.3309,-505.6794 110.9059,-501.4463"/>
</g>
<!-- 3 -->
<g id="node18" class="node">
<title>3</title>
<ellipse fill="#d3d3d3" stroke="#000000" cx="177.8" cy="-479.4375" rx="20.2975" ry="20.2975"/>
<text text-anchor="middle" x="177.8" y="-475.7375" font-family="Times,serif" font-size="14.00" fill="#000000">q3</text>
</g>
<!-- 1h1&#45;&gt;3 -->
<g id="edge11" class="edge">
<title>1h1&#45;&gt;3</title>
<path fill="none" stroke="#000000" d="M188.434,-535.4577C187.6177,-531.1574 185.5546,-520.2891 183.4605,-509.2571"/>
<polygon fill="#000000" stroke="#000000" points="186.8671,-508.4353 181.5635,-499.2635 179.9899,-509.7408 186.8671,-508.4353"/>
</g>
<!-- 4 -->
<g id="node23" class="node">
<title>4</title>
<ellipse fill="#d3d3d3" stroke="#000000" cx="243.8" cy="-479.4375" rx="20.2975" ry="20.2975"/>
<text text-anchor="middle" x="243.8" y="-475.7375" font-family="Times,serif" font-size="14.00" fill="#000000">q3</text>
</g>
<!-- 1h2&#45;&gt;4 -->
<g id="edge13" class="edge">
<title>1h2&#45;&gt;4</title>
<path fill="none" stroke="#000000" d="M233.166,-535.4577C233.9823,-531.1574 236.0454,-520.2891 238.1395,-509.2571"/>
<polygon fill="#000000" stroke="#000000" points="241.6101,-509.7408 240.0365,-499.2635 234.7329,-508.4353 241.6101,-509.7408"/>
</g>
<!-- 5 -->
<g id="node28" class="node">
<title>5</title>
<ellipse fill="#d3d3d3" stroke="#000000" cx="331.8" cy="-479.4375" rx="20.2975" ry="20.2975"/>
<text text-anchor="middle" x="331.8" y="-475.7375" font-family="Times,serif" font-size="14.00" fill="#000000">q3</text>
</g>
<!-- 1h3&#45;&gt;5 -->
<g id="edge15" class="edge">
<title>1h3&#45;&gt;5</title>
<path fill="none" stroke="#000000" d="M299.898,-535.4577C302.5894,-530.7315 309.7988,-518.0717 316.6844,-505.9806"/>
<polygon fill="#000000" stroke="#000000" points="319.8993,-507.4078 321.8066,-496.986 313.8165,-503.9438 319.8993,-507.4078"/>
</g>
<!-- 2h0 -->
<g id="node14" class="node">
<title>2h0</title>
<ellipse fill="#000000" stroke="#000000" cx="45.8" cy="-421.4893" rx="1.8" ry="1.8"/>
</g>
<!-- 2&#45;&gt;2h0 -->
<g id="edge16" class="edge">
<title>2&#45;&gt;2h0</title>
<path fill="none" stroke="#006400" d="M77.5435,-463.2957C66.5586,-448.8284 51.5121,-429.0121 47.0782,-423.1727"/>
</g>
<!-- 2h1 -->
<g id="node15" class="node">
<title>2h1</title>
<ellipse fill="#ff0000" stroke="#ff0000" cx="67.8" cy="-421.4893" rx="1.8" ry="1.8"/>
</g>
<!-- 2&#45;&gt;2h1 -->
<g id="edge18" class="edge">
<title>2&#45;&gt;2h1</title>
<path fill="none" stroke="#0000ff" d="M82.5964,-460.4631C77.283,-446.4676 70.6227,-428.9243 68.4902,-423.3072"/>
</g>
<!-- 2h2 -->
<g id="node16" class="node">
<title>2h2</title>
<ellipse fill="#ff0000" stroke="#ff0000" cx="89.8" cy="-421.4893" rx="1.8" ry="1.8"/>
</g>
<!-- 2&#45;&gt;2h2 -->
<g id="edge19" class="edge">
<title>2&#45;&gt;2h2</title>
<path fill="none" stroke="#ff0000" d="M89.8,-459.17C89.8,-445.5927 89.8,-429.2033 89.8,-423.5347"/>
</g>
<!-- 2h3 -->
<g id="node17" class="node">
<title>2h3</title>
<ellipse fill="#000000" stroke="#000000" cx="111.8" cy="-421.4893" rx="1.8" ry="1.8"/>
</g>
<!-- 2&#45;&gt;2h3 -->
<g id="edge20" class="edge">
<title>2&#45;&gt;2h3</title>
<path fill="none" stroke="#ffd700" d="M97.0036,-460.4631C102.317,-446.4676 108.9773,-428.9243 111.1098,-423.3072"/>
</g>
<!-- 6 -->
<g id="node33" class="node">
<title>6</title>
<ellipse fill="#d3d3d3" stroke="#000000" cx="56.8" cy="-363.5411" rx="20.2975" ry="20.2975"/>
<text text-anchor="middle" x="56.8" y="-359.8411" font-family="Times,serif" font-size="14.00" fill="#000000">q2</text>
</g>
<!-- 2h0&#45;&gt;6 -->
<g id="edge17" class="edge">
<title>2h0&#45;&gt;6</title>
<path fill="none" stroke="#000000" d="M46.166,-419.5612C46.9823,-415.261 49.0454,-404.3926 51.1395,-393.3607"/>
<polygon fill="#000000" stroke="#000000" points="54.6101,-393.8443 53.0365,-383.367 47.7329,-392.5388 54.6101,-393.8443"/>
</g>
<!-- 2h3&#45;&gt;6 -->
<g id="edge21" class="edge">
<title>2h3&#45;&gt;6</title>
<path fill="none" stroke="#000000" d="M110.4404,-420.0568C105.8903,-415.2628 90.7476,-399.3084 77.7068,-385.5686"/>
<polygon fill="#000000" stroke="#000000" points="80.1816,-383.0919 70.7588,-378.2481 75.1044,-387.9108 80.1816,-383.0919"/>
</g>
<!-- 3h0 -->
<g id="node19" class="node">
<title>3h0</title>
<ellipse fill="#000000" stroke="#000000" cx="133.8" cy="-421.4893" rx="1.8" ry="1.8"/>
</g>
<!-- 3&#45;&gt;3h0 -->
<g id="edge22" class="edge">
<title>3&#45;&gt;3h0</title>
<path fill="none" stroke="#006400" d="M165.5435,-463.2957C154.5586,-448.8284 139.5121,-429.0121 135.0782,-423.1727"/>
</g>
<!-- 3h1 -->
<g id="node20" class="node">
<title>3h1</title>
<ellipse fill="#ff0000" stroke="#ff0000" cx="155.8" cy="-421.4893" rx="1.8" ry="1.8"/>
</g>
<!-- 3&#45;&gt;3h1 -->
<g id="edge24" class="edge">
<title>3&#45;&gt;3h1</title>
<path fill="none" stroke="#0000ff" d="M170.5964,-460.4631C165.283,-446.4676 158.6227,-428.9243 156.4902,-423.3072"/>
</g>
<!-- 3h2 -->
<g id="node21" class="node">
<title>3h2</title>
<ellipse fill="#ff0000" stroke="#ff0000" cx="177.8" cy="-421.4893" rx="1.8" ry="1.8"/>
</g>
<!-- 3&#45;&gt;3h2 -->
<g id="edge25" class="edge">
<title>3&#45;&gt;3h2</title>
<path fill="none" stroke="#ff0000" d="M177.8,-459.17C177.8,-445.5927 177.8,-429.2033 177.8,-423.5347"/>
</g>
<!-- 3h3 -->
<g id="node22" class="node">
<title>3h3</title>
<ellipse fill="#000000" stroke="#000000" cx="199.8" cy="-421.4893" rx="1.8" ry="1.8"/>
</g>
<!-- 3&#45;&gt;3h3 -->
<g id="edge26" class="edge">
<title>3&#45;&gt;3h3</title>
<path fill="none" stroke="#ffd700" d="M185.0036,-460.4631C190.317,-446.4676 196.9773,-428.9243 199.1098,-423.3072"/>
</g>
<!-- 7 -->
<g id="node38" class="node">
<title>7</title>
<ellipse fill="#d3d3d3" stroke="#000000" cx="144.8" cy="-363.5411" rx="20.2975" ry="20.2975"/>
<text text-anchor="middle" x="144.8" y="-359.8411" font-family="Times,serif" font-size="14.00" fill="#000000">q2</text>
</g>
<!-- 3h0&#45;&gt;7 -->
<g id="edge23" class="edge">
<title>3h0&#45;&gt;7</title>
<path fill="none" stroke="#000000" d="M134.166,-419.5612C134.9823,-415.261 137.0454,-404.3926 139.1395,-393.3607"/>
<polygon fill="#000000" stroke="#000000" points="142.6101,-393.8443 141.0365,-383.367 135.7329,-392.5388 142.6101,-393.8443"/>
</g>
<!-- 3h3&#45;&gt;7 -->
<g id="edge27" class="edge">
<title>3h3&#45;&gt;7</title>
<path fill="none" stroke="#000000" d="M198.4404,-420.0568C193.8903,-415.2628 178.7476,-399.3084 165.7068,-385.5686"/>
<polygon fill="#000000" stroke="#000000" points="168.1816,-383.0919 158.7588,-378.2481 163.1044,-387.9108 168.1816,-383.0919"/>
</g>
<!-- 4h0 -->
<g id="node24" class="node">
<title>4h0</title>
<ellipse fill="#000000" stroke="#000000" cx="221.8" cy="-421.4893" rx="1.8" ry="1.8"/>
</g>
<!-- 4&#45;&gt;4h0 -->
<g id="edge28" class="edge">
<title>4&#45;&gt;4h0</title>
<path fill="none" stroke="#006400" d="M236.5964,-460.4631C231.283,-446.4676 224.6227,-428.9243 222.4902,-423.3072"/>
</g>
<!-- 4h1 -->
<g id="node25" class="node">
<title>4h1</title>
<ellipse fill="#ff0000" stroke="#ff0000" cx="243.8" cy="-421.4893" rx="1.8" ry="1.8"/>
</g>
<!-- 4&#45;&gt;4h1 -->
<g id="edge30" class="edge">
<title>4&#45;&gt;4h1</title>
<path fill="none" stroke="#0000ff" d="M243.8,-459.17C243.8,-445.5927 243.8,-429.2033 243.8,-423.5347"/>
</g>
<!-- 4h2 -->
<g id="node26" class="node">
<title>4h2</title>
<ellipse fill="#ff0000" stroke="#ff0000" cx="265.8" cy="-421.4893" rx="1.8" ry="1.8"/>
</g>
<!-- 4&#45;&gt;4h2 -->
<g id="edge31" class="edge">
<title>4&#45;&gt;4h2</title>
<path fill="none" stroke="#ff0000" d="M251.0036,-460.4631C256.317,-446.4676 262.9773,-428.9243 265.1098,-423.3072"/>
</g>
<!-- 4h3 -->
<g id="node27" class="node">
<title>4h3</title>
<ellipse fill="#000000" stroke="#000000" cx="287.8" cy="-421.4893" rx="1.8" ry="1.8"/>
</g>
<!-- 4&#45;&gt;4h3 -->
<g id="edge32" class="edge">
<title>4&#45;&gt;4h3</title>
<path fill="none" stroke="#ffd700" d="M256.0565,-463.2957C267.0414,-448.8284 282.0879,-429.0121 286.5218,-423.1727"/>
</g>
<!-- 8 -->
<g id="node43" class="node">
<title>8</title>
<ellipse fill="#d3d3d3" stroke="#000000" cx="232.8" cy="-363.5411" rx="20.2975" ry="20.2975"/>
<text text-anchor="middle" x="232.8" y="-359.8411" font-family="Times,serif" font-size="14.00" fill="#000000">q2</text>
</g>
<!-- 4h0&#45;&gt;8 -->
<g id="edge29" class="edge">
<title>4h0&#45;&gt;8</title>
<path fill="none" stroke="#000000" d="M222.166,-419.5612C222.9823,-415.261 225.0454,-404.3926 227.1395,-393.3607"/>
<polygon fill="#000000" stroke="#000000" points="230.6101,-393.8443 229.0365,-383.367 223.7329,-392.5388 230.6101,-393.8443"/>
</g>
<!-- 4h3&#45;&gt;8 -->
<g id="edge33" class="edge">
<title>4h3&#45;&gt;8</title>
<path fill="none" stroke="#000000" d="M286.4404,-420.0568C281.8903,-415.2628 266.7476,-399.3084 253.7068,-385.5686"/>
<polygon fill="#000000" stroke="#000000" points="256.1816,-383.0919 246.7588,-378.2481 251.1044,-387.9108 256.1816,-383.0919"/>
</g>
<!-- 5h0 -->
<g id="node29" class="node">
<title>5h0</title>
<ellipse fill="#000000" stroke="#000000" cx="309.8" cy="-421.4893" rx="1.8" ry="1.8"/>
</g>
<!-- 5&#45;&gt;5h0 -->
<g id="edge34" class="edge">
<title>5&#45;&gt;5h0</title>
<path fill="none" stroke="#006400" d="M324.5964,-460.4631C319.283,-446.4676 312.6227,-428.9243 310.4902,-423.3072"/>
</g>
<!-- 5h1 -->
<g id="node30" class="node">
<title>5h1</title>
<ellipse fill="#ff0000" stroke="#ff0000" cx="331.8" cy="-421.4893" rx="1.8" ry="1.8"/>
</g>
<!-- 5&#45;&gt;5h1 -->
<g id="edge36" class="edge">
<title>5&#45;&gt;5h1</title>
<path fill="none" stroke="#0000ff" d="M331.8,-459.17C331.8,-445.5927 331.8,-429.2033 331.8,-423.5347"/>
</g>
<!-- 5h2 -->
<g id="node31" class="node">
<title>5h2</title>
<ellipse fill="#ff0000" stroke="#ff0000" cx="353.8" cy="-421.4893" rx="1.8" ry="1.8"/>
</g>
<!-- 5&#45;&gt;5h2 -->
<g id="edge37" class="edge">
<title>5&#45;&gt;5h2</title>
<path fill="none" stroke="#ff0000" d="M339.0036,-460.4631C344.317,-446.4676 350.9773,-428.9243 353.1098,-423.3072"/>
</g>
<!-- 5h3 -->
<g id="node32" class="node">
<title>5h3</title>
<ellipse fill="#000000" stroke="#000000" cx="375.8" cy="-421.4893" rx="1.8" ry="1.8"/>
</g>
<!-- 5&#45;&gt;5h3 -->
<g id="edge38" class="edge">
<title>5&#45;&gt;5h3</title>
<path fill="none" stroke="#ffd700" d="M344.0565,-463.2957C355.0414,-448.8284 370.0879,-429.0121 374.5218,-423.1727"/>
</g>
<!-- 9 -->
<g id="node48" class="node">
<title>9</title>
<ellipse fill="#d3d3d3" stroke="#000000" cx="315.8" cy="-363.5411" rx="20.2975" ry="20.2975"/>
<text text-anchor="middle" x="315.8" y="-359.8411" font-family="Times,serif" font-size="14.00" fill="#000000">q2</text>
</g>
<!-- 5h0&#45;&gt;9 -->
<g id="edge35" class="edge">
<title>5h0&#45;&gt;9</title>
<path fill="none" stroke="#000000" d="M309.9996,-419.5612C310.4373,-415.3347 311.5319,-404.763 312.6538,-393.9273"/>
<polygon fill="#000000" stroke="#000000" points="316.1687,-393.9634 313.7173,-383.6561 309.2059,-393.2424 316.1687,-393.9634"/>
</g>
<!-- 5h3&#45;&gt;9 -->
<g id="edge39" class="edge">
<title>5h3&#45;&gt;9</title>
<path fill="none" stroke="#000000" d="M374.3168,-420.0568C369.2457,-415.1591 352.1133,-398.6125 337.6871,-384.6797"/>
<polygon fill="#000000" stroke="#000000" points="340.0925,-382.137 330.4681,-377.7075 335.2296,-387.1721 340.0925,-382.137"/>
</g>
<!-- 6h0 -->
<g id="node34" class="node">
<title>6h0</title>
<ellipse fill="#000000" stroke="#000000" cx="15.8" cy="-305.5928" rx="1.8" ry="1.8"/>
</g>
<!-- 6&#45;&gt;6h0 -->
<g id="edge40" class="edge">
<title>6&#45;&gt;6h0</title>
<path fill="none" stroke="#006400" d="M45.1607,-347.0904C34.9333,-332.6353 21.0623,-313.0305 16.9774,-307.2569"/>
</g>
<!-- 6h1 -->
<g id="node35" class="node">
<title>6h1</title>
<ellipse fill="#ff0000" stroke="#ff0000" cx="37.8" cy="-305.5928" rx="1.8" ry="1.8"/>
</g>
<!-- 6&#45;&gt;6h1 -->
<g id="edge42" class="edge">
<title>6&#45;&gt;6h1</title>
<path fill="none" stroke="#0000ff" d="M50.4733,-344.2451C45.8961,-330.2853 40.2087,-312.9391 38.3888,-307.3887"/>
</g>
<!-- 6h2 -->
<g id="node36" class="node">
<title>6h2</title>
<ellipse fill="#ff0000" stroke="#ff0000" cx="59.8" cy="-305.5928" rx="1.8" ry="1.8"/>
</g>
<!-- 6&#45;&gt;6h2 -->
<g id="edge43" class="edge">
<title>6&#45;&gt;6h2</title>
<path fill="none" stroke="#ff0000" d="M57.8493,-343.2736C58.5522,-329.6962 59.4006,-313.3069 59.6941,-307.6382"/>
</g>
<!-- 6h3 -->
<g id="node37" class="node">
<title>6h3</title>
<ellipse fill="#000000" stroke="#000000" cx="81.8" cy="-305.5928" rx="1.8" ry="1.8"/>
</g>
<!-- 6&#45;&gt;6h3 -->
<g id="edge44" class="edge">
<title>6&#45;&gt;6h3</title>
<path fill="none" stroke="#ffd700" d="M64.8478,-344.8869C70.9,-330.8584 78.5539,-313.1171 81.0061,-307.4329"/>
</g>
<!-- 10 -->
<g id="node53" class="node">
<title>10</title>
<ellipse fill="#d3d3d3" stroke="#000000" cx="26.8" cy="-247.6446" rx="20.2975" ry="20.2975"/>
<text text-anchor="middle" x="26.8" y="-243.9446" font-family="Times,serif" font-size="14.00" fill="#000000">q1</text>
</g>
<!-- 6h0&#45;&gt;10 -->
<g id="edge41" class="edge">
<title>6h0&#45;&gt;10</title>
<path fill="none" stroke="#000000" d="M16.166,-303.6648C16.9823,-299.3646 19.0454,-288.4962 21.1395,-277.4643"/>
<polygon fill="#000000" stroke="#000000" points="24.6101,-277.9479 23.0365,-267.4706 17.7329,-276.6424 24.6101,-277.9479"/>
</g>
<!-- 6h3&#45;&gt;10 -->
<g id="edge45" class="edge">
<title>6h3&#45;&gt;10</title>
<path fill="none" stroke="#000000" d="M80.4404,-304.1604C75.8903,-299.3664 60.7476,-283.4119 47.7068,-269.6721"/>
<polygon fill="#000000" stroke="#000000" points="50.1816,-267.1954 40.7588,-262.3517 45.1044,-272.0144 50.1816,-267.1954"/>
</g>
<!-- 7h0 -->
<g id="node39" class="node">
<title>7h0</title>
<ellipse fill="#000000" stroke="#000000" cx="108.8" cy="-305.5928" rx="1.8" ry="1.8"/>
</g>
<!-- 7&#45;&gt;7h0 -->
<g id="edge46" class="edge">
<title>7&#45;&gt;7h0</title>
<path fill="none" stroke="#006400" d="M133.9988,-346.1547C125.0517,-331.7527 113.2634,-312.7775 109.7981,-307.1994"/>
</g>
<!-- 7h1 -->
<g id="node40" class="node">
<title>7h1</title>
<ellipse fill="#ff0000" stroke="#ff0000" cx="130.8" cy="-305.5928" rx="1.8" ry="1.8"/>
</g>
<!-- 7&#45;&gt;7h1 -->
<g id="edge48" class="edge">
<title>7&#45;&gt;7h1</title>
<path fill="none" stroke="#0000ff" d="M140.0602,-343.9224C136.6968,-330.0006 132.5535,-312.8507 131.2286,-307.3667"/>
</g>
<!-- 7h2 -->
<g id="node41" class="node">
<title>7h2</title>
<ellipse fill="#ff0000" stroke="#ff0000" cx="152.8" cy="-305.5928" rx="1.8" ry="1.8"/>
</g>
<!-- 7&#45;&gt;7h2 -->
<g id="edge49" class="edge">
<title>7&#45;&gt;7h2</title>
<path fill="none" stroke="#ff0000" d="M147.598,-343.2736C149.4724,-329.6962 151.735,-313.3069 152.5176,-307.6382"/>
</g>
<!-- 7h3 -->
<g id="node42" class="node">
<title>7h3</title>
<ellipse fill="#000000" stroke="#000000" cx="174.8" cy="-305.5928" rx="1.8" ry="1.8"/>
</g>
<!-- 7&#45;&gt;7h3 -->
<g id="edge50" class="edge">
<title>7&#45;&gt;7h3</title>
<path fill="none" stroke="#ffd700" d="M154.1277,-345.5235C161.4207,-331.4364 170.8115,-313.297 173.8242,-307.4777"/>
</g>
<!-- 11 -->
<g id="node58" class="node">
<title>11</title>
<ellipse fill="#d3d3d3" stroke="#000000" cx="119.8" cy="-247.6446" rx="20.2975" ry="20.2975"/>
<text text-anchor="middle" x="119.8" y="-243.9446" font-family="Times,serif" font-size="14.00" fill="#000000">q1</text>
</g>
<!-- 7h0&#45;&gt;11 -->
<g id="edge47" class="edge">
<title>7h0&#45;&gt;11</title>
<path fill="none" stroke="#000000" d="M109.166,-303.6648C109.9823,-299.3646 112.0454,-288.4962 114.1395,-277.4643"/>
<polygon fill="#000000" stroke="#000000" points="117.6101,-277.9479 116.0365,-267.4706 110.7329,-276.6424 117.6101,-277.9479"/>
</g>
<!-- 7h3&#45;&gt;11 -->
<g id="edge51" class="edge">
<title>7h3&#45;&gt;11</title>
<path fill="none" stroke="#000000" d="M173.4404,-304.1604C168.8903,-299.3664 153.7476,-283.4119 140.7068,-269.6721"/>
<polygon fill="#000000" stroke="#000000" points="143.1816,-267.1954 133.7588,-262.3517 138.1044,-272.0144 143.1816,-267.1954"/>
</g>
<!-- 8h0 -->
<g id="node44" class="node">
<title>8h0</title>
<ellipse fill="#000000" stroke="#000000" cx="197.8" cy="-305.5928" rx="1.8" ry="1.8"/>
</g>
<!-- 8&#45;&gt;8h0 -->
<g id="edge52" class="edge">
<title>8&#45;&gt;8h0</title>
<path fill="none" stroke="#006400" d="M222.2988,-346.1547C213.6002,-331.7527 202.1395,-312.7775 198.7703,-307.1994"/>
</g>
<!-- 8h1 -->
<g id="node45" class="node">
<title>8h1</title>
<ellipse fill="#ff0000" stroke="#ff0000" cx="219.8" cy="-305.5928" rx="1.8" ry="1.8"/>
</g>
<!-- 8&#45;&gt;8h1 -->
<g id="edge54" class="edge">
<title>8&#45;&gt;8h1</title>
<path fill="none" stroke="#0000ff" d="M228.3261,-343.5986C225.2708,-329.9792 221.5518,-313.4016 220.2646,-307.6638"/>
</g>
<!-- 8h2 -->
<g id="node46" class="node">
<title>8h2</title>
<ellipse fill="#ff0000" stroke="#ff0000" cx="241.8" cy="-305.5928" rx="1.8" ry="1.8"/>
</g>
<!-- 8&#45;&gt;8h2 -->
<g id="edge55" class="edge">
<title>8&#45;&gt;8h2</title>
<path fill="none" stroke="#ff0000" d="M235.8973,-343.5986C238.0125,-329.9792 240.5872,-313.4016 241.4784,-307.6638"/>
</g>
<!-- 8h3 -->
<g id="node47" class="node">
<title>8h3</title>
<ellipse fill="#000000" stroke="#000000" cx="263.8" cy="-305.5928" rx="1.8" ry="1.8"/>
</g>
<!-- 8&#45;&gt;8h3 -->
<g id="edge56" class="edge">
<title>8&#45;&gt;8h3</title>
<path fill="none" stroke="#ffd700" d="M242.4387,-345.5235C249.9747,-331.4364 259.6786,-313.297 262.7917,-307.4777"/>
</g>
<!-- 12 -->
<g id="node63" class="node">
<title>12</title>
<ellipse fill="#d3d3d3" stroke="#000000" cx="200.8" cy="-247.6446" rx="20.2975" ry="20.2975"/>
<text text-anchor="middle" x="200.8" y="-243.9446" font-family="Times,serif" font-size="14.00" fill="#000000">q1</text>
</g>
<!-- 8h0&#45;&gt;12 -->
<g id="edge53" class="edge">
<title>8h0&#45;&gt;12</title>
<path fill="none" stroke="#000000" d="M197.8998,-303.6648C198.1171,-299.468 198.6582,-289.0151 199.215,-278.2598"/>
<polygon fill="#000000" stroke="#000000" points="202.7218,-278.2172 199.7436,-268.0495 195.7312,-277.8552 202.7218,-278.2172"/>
</g>
<!-- 8h3&#45;&gt;12 -->
<g id="edge57" class="edge">
<title>8h3&#45;&gt;12</title>
<path fill="none" stroke="#000000" d="M262.2427,-304.1604C256.8857,-299.233 238.7104,-282.5151 223.5064,-268.5302"/>
<polygon fill="#000000" stroke="#000000" points="225.6396,-265.7369 215.9101,-261.5431 220.9007,-270.889 225.6396,-265.7369"/>
</g>
<!-- 9h0 -->
<g id="node49" class="node">
<title>9h0</title>
<ellipse fill="#000000" stroke="#000000" cx="288.8" cy="-305.5928" rx="1.8" ry="1.8"/>
</g>
<!-- 9&#45;&gt;9h0 -->
<g id="edge58" class="edge">
<title>9&#45;&gt;9h0</title>
<path fill="none" stroke="#006400" d="M307.257,-345.2059C300.7064,-331.1468 292.3476,-313.2068 289.6678,-307.4553"/>
</g>
<!-- 9h1 -->
<g id="node50" class="node">
<title>9h1</title>
<ellipse fill="#ff0000" stroke="#ff0000" cx="310.8" cy="-305.5928" rx="1.8" ry="1.8"/>
</g>
<!-- 9&#45;&gt;9h1 -->
<g id="edge60" class="edge">
<title>9&#45;&gt;9h1</title>
<path fill="none" stroke="#0000ff" d="M314.0512,-343.2736C312.8797,-329.6962 311.4656,-313.3069 310.9765,-307.6382"/>
</g>
<!-- 9h2 -->
<g id="node51" class="node">
<title>9h2</title>
<ellipse fill="#ff0000" stroke="#ff0000" cx="332.8" cy="-305.5928" rx="1.8" ry="1.8"/>
</g>
<!-- 9&#45;&gt;9h2 -->
<g id="edge61" class="edge">
<title>9&#45;&gt;9h2</title>
<path fill="none" stroke="#ff0000" d="M321.5554,-343.9224C325.6396,-330.0006 330.6708,-312.8507 332.2796,-307.3667"/>
</g>
<!-- 9h3 -->
<g id="node52" class="node">
<title>9h3</title>
<ellipse fill="#000000" stroke="#000000" cx="354.8" cy="-305.5928" rx="1.8" ry="1.8"/>
</g>
<!-- 9&#45;&gt;9h3 -->
<g id="edge62" class="edge">
<title>9&#45;&gt;9h3</title>
<path fill="none" stroke="#ffd700" d="M327.0804,-346.78C336.7989,-332.3398 349.8514,-312.9457 353.693,-307.2376"/>
</g>
<!-- 13 -->
<g id="node68" class="node">
<title>13</title>
<ellipse fill="#d3d3d3" stroke="#000000" cx="289.8" cy="-247.6446" rx="20.2975" ry="20.2975"/>
<text text-anchor="middle" x="289.8" y="-243.9446" font-family="Times,serif" font-size="14.00" fill="#000000">q1</text>
</g>
<!-- 9h0&#45;&gt;13 -->
<g id="edge59" class="edge">
<title>9h0&#45;&gt;13</title>
<path fill="none" stroke="#000000" d="M288.8333,-303.6648C288.9057,-299.468 289.0861,-289.0151 289.2717,-278.2598"/>
<polygon fill="#000000" stroke="#000000" points="292.7747,-278.1085 289.4479,-268.0495 285.7758,-277.9876 292.7747,-278.1085"/>
</g>
<!-- 9h3&#45;&gt;13 -->
<g id="edge63" class="edge">
<title>9h3&#45;&gt;13</title>
<path fill="none" stroke="#000000" d="M353.1932,-304.1604C347.6329,-299.2033 328.6875,-282.3133 312.944,-268.2778"/>
<polygon fill="#000000" stroke="#000000" points="314.8845,-265.3187 305.091,-261.2767 310.2262,-270.5438 314.8845,-265.3187"/>
</g>
<!-- 10h0 -->
<g id="node54" class="node">
<title>10h0</title>
<ellipse fill="#000000" stroke="#000000" cx="1.8" cy="-189.6964" rx="1.8" ry="1.8"/>
</g>
<!-- 10&#45;&gt;10h0 -->
<g id="edge64" class="edge">
<title>10&#45;&gt;10h0</title>
<path fill="none" stroke="#006400" d="M18.7522,-228.9905C12.7,-214.962 5.0461,-197.2207 2.5939,-191.5365"/>
</g>
<!-- 10h1 -->
<g id="node55" class="node">
<title>10h1</title>
<ellipse fill="#ff0000" stroke="#ff0000" cx="23.8" cy="-189.6964" rx="1.8" ry="1.8"/>
</g>
<!-- 10&#45;&gt;10h1 -->
<g id="edge66" class="edge">
<title>10&#45;&gt;10h1</title>
<path fill="none" stroke="#0000ff" d="M25.7507,-227.3772C25.0478,-213.7998 24.1994,-197.4105 23.9059,-191.7418"/>
</g>
<!-- 10h2 -->
<g id="node56" class="node">
<title>10h2</title>
<ellipse fill="#ff0000" stroke="#ff0000" cx="45.8" cy="-189.6964" rx="1.8" ry="1.8"/>
</g>
<!-- 10&#45;&gt;10h2 -->
<g id="edge67" class="edge">
<title>10&#45;&gt;10h2</title>
<path fill="none" stroke="#ff0000" d="M33.1267,-228.3487C37.7039,-214.3889 43.3913,-197.0426 45.2112,-191.4922"/>
</g>
<!-- 10h3 -->
<g id="node57" class="node">
<title>10h3</title>
<ellipse fill="#ff0000" stroke="#ff0000" cx="67.8" cy="-189.6964" rx="1.8" ry="1.8"/>
</g>
<!-- 10&#45;&gt;10h3 -->
<g id="edge68" class="edge">
<title>10&#45;&gt;10h3</title>
<path fill="none" stroke="#ffd700" d="M38.4393,-231.194C48.6667,-216.7389 62.5377,-197.1341 66.6226,-191.3605"/>
</g>
<!-- 14 -->
<g id="node73" class="node">
<title>14</title>
<ellipse fill="#d3d3d3" stroke="#000000" cx="166.8" cy="-131.7482" rx="20.2975" ry="20.2975"/>
<text text-anchor="middle" x="166.8" y="-128.0482" font-family="Times,serif" font-size="14.00" fill="#000000">q0</text>
</g>
<!-- 10h0&#45;&gt;14 -->
<g id="edge65" class="edge">
<title>10h0&#45;&gt;14</title>
<path fill="none" stroke="#000000" d="M3.653,-189.0456C16.6329,-184.4871 94.6709,-157.08 137.9446,-141.8823"/>
<polygon fill="#000000" stroke="#000000" points="139.3551,-145.0965 147.6304,-138.4806 137.0356,-138.492 139.3551,-145.0965"/>
</g>
<!-- 11h0 -->
<g id="node59" class="node">
<title>11h0</title>
<ellipse fill="#ff0000" stroke="#ff0000" cx="89.8" cy="-189.6964" rx="1.8" ry="1.8"/>
</g>
<!-- 11&#45;&gt;11h0 -->
<g id="edge69" class="edge">
<title>11&#45;&gt;11h0</title>
<path fill="none" stroke="#006400" d="M110.4723,-229.6271C103.1793,-215.54 93.7885,-197.4006 90.7758,-191.5813"/>
</g>
<!-- 11h1 -->
<g id="node60" class="node">
<title>11h1</title>
<ellipse fill="#ff0000" stroke="#ff0000" cx="111.8" cy="-189.6964" rx="1.8" ry="1.8"/>
</g>
<!-- 11&#45;&gt;11h1 -->
<g id="edge70" class="edge">
<title>11&#45;&gt;11h1</title>
<path fill="none" stroke="#0000ff" d="M117.002,-227.3772C115.1276,-213.7998 112.865,-197.4105 112.0824,-191.7418"/>
</g>
<!-- 11h2 -->
<g id="node61" class="node">
<title>11h2</title>
<ellipse fill="#000000" stroke="#000000" cx="133.8" cy="-189.6964" rx="1.8" ry="1.8"/>
</g>
<!-- 11&#45;&gt;11h2 -->
<g id="edge71" class="edge">
<title>11&#45;&gt;11h2</title>
<path fill="none" stroke="#ff0000" d="M124.5398,-228.026C127.9032,-214.1042 132.0465,-196.9543 133.3714,-191.4703"/>
</g>
<!-- 11h3 -->
<g id="node62" class="node">
<title>11h3</title>
<ellipse fill="#ff0000" stroke="#ff0000" cx="155.8" cy="-189.6964" rx="1.8" ry="1.8"/>
</g>
<!-- 11&#45;&gt;11h3 -->
<g id="edge73" class="edge">
<title>11&#45;&gt;11h3</title>
<path fill="none" stroke="#ffd700" d="M130.6012,-230.2583C139.5483,-215.8563 151.3366,-196.8811 154.8019,-191.303"/>
</g>
<!-- 11h2&#45;&gt;14 -->
<g id="edge72" class="edge">
<title>11h2&#45;&gt;14</title>
<path fill="none" stroke="#000000" d="M134.898,-187.7684C137.5894,-183.0423 144.7988,-170.3825 151.6844,-158.2913"/>
<polygon fill="#000000" stroke="#000000" points="154.8993,-159.7185 156.8066,-149.2968 148.8165,-156.2545 154.8993,-159.7185"/>
</g>
<!-- 12h0 -->
<g id="node64" class="node">
<title>12h0</title>
<ellipse fill="#ff0000" stroke="#ff0000" cx="177.8" cy="-189.6964" rx="1.8" ry="1.8"/>
</g>
<!-- 12&#45;&gt;12h0 -->
<g id="edge74" class="edge">
<title>12&#45;&gt;12h0</title>
<path fill="none" stroke="#006400" d="M193.2689,-228.6702C187.7141,-214.6748 180.751,-197.1314 178.5215,-191.5143"/>
</g>
<!-- 12h1 -->
<g id="node65" class="node">
<title>12h1</title>
<ellipse fill="#000000" stroke="#000000" cx="199.8" cy="-189.6964" rx="1.8" ry="1.8"/>
</g>
<!-- 12&#45;&gt;12h1 -->
<g id="edge75" class="edge">
<title>12&#45;&gt;12h1</title>
<path fill="none" stroke="#0000ff" d="M200.4502,-227.3772C200.2159,-213.7998 199.9331,-197.4105 199.8353,-191.7418"/>
</g>
<!-- 12h2 -->
<g id="node66" class="node">
<title>12h2</title>
<ellipse fill="#ff0000" stroke="#ff0000" cx="221.8" cy="-189.6964" rx="1.8" ry="1.8"/>
</g>
<!-- 12&#45;&gt;12h2 -->
<g id="edge77" class="edge">
<title>12&#45;&gt;12h2</title>
<path fill="none" stroke="#ff0000" d="M207.6762,-228.6702C212.748,-214.6748 219.1056,-197.1314 221.1412,-191.5143"/>
</g>
<!-- 12h3 -->
<g id="node67" class="node">
<title>12h3</title>
<ellipse fill="#ff0000" stroke="#ff0000" cx="243.8" cy="-189.6964" rx="1.8" ry="1.8"/>
</g>
<!-- 12&#45;&gt;12h3 -->
<g id="edge78" class="edge">
<title>12&#45;&gt;12h3</title>
<path fill="none" stroke="#ffd700" d="M213.0071,-231.194C223.7334,-216.7389 238.281,-197.1341 242.5652,-191.3605"/>
</g>
<!-- 12h1&#45;&gt;14 -->
<g id="edge76" class="edge">
<title>12h1&#45;&gt;14</title>
<path fill="none" stroke="#000000" d="M198.702,-187.7684C196.0106,-183.0423 188.8012,-170.3825 181.9156,-158.2913"/>
<polygon fill="#000000" stroke="#000000" points="184.7835,-156.2545 176.7934,-149.2968 178.7007,-159.7185 184.7835,-156.2545"/>
</g>
<!-- 13h0 -->
<g id="node69" class="node">
<title>13h0</title>
<ellipse fill="#ff0000" stroke="#ff0000" cx="265.8" cy="-189.6964" rx="1.8" ry="1.8"/>
</g>
<!-- 13&#45;&gt;13h0 -->
<g id="edge79" class="edge">
<title>13&#45;&gt;13h0</title>
<path fill="none" stroke="#006400" d="M282.0741,-228.9905C276.264,-214.962 268.9163,-197.2207 266.5621,-191.5365"/>
</g>
<!-- 13h1 -->
<g id="node70" class="node">
<title>13h1</title>
<ellipse fill="#ff0000" stroke="#ff0000" cx="287.8" cy="-189.6964" rx="1.8" ry="1.8"/>
</g>
<!-- 13&#45;&gt;13h1 -->
<g id="edge80" class="edge">
<title>13&#45;&gt;13h1</title>
<path fill="none" stroke="#0000ff" d="M289.1005,-227.3772C288.6319,-213.7998 288.0662,-197.4105 287.8706,-191.7418"/>
</g>
<!-- 13h2 -->
<g id="node71" class="node">
<title>13h2</title>
<ellipse fill="#ff0000" stroke="#ff0000" cx="309.8" cy="-189.6964" rx="1.8" ry="1.8"/>
</g>
<!-- 13&#45;&gt;13h2 -->
<g id="edge81" class="edge">
<title>13&#45;&gt;13h2</title>
<path fill="none" stroke="#ff0000" d="M296.4597,-228.3487C301.2778,-214.3889 307.2646,-197.0426 309.1802,-191.4922"/>
</g>
<!-- 13h3 -->
<g id="node72" class="node">
<title>13h3</title>
<ellipse fill="#000000" stroke="#000000" cx="331.8" cy="-189.6964" rx="1.8" ry="1.8"/>
</g>
<!-- 13&#45;&gt;13h3 -->
<g id="edge82" class="edge">
<title>13&#45;&gt;13h3</title>
<path fill="none" stroke="#ffd700" d="M301.7232,-231.194C312.2,-216.7389 326.4093,-197.1341 330.5939,-191.3605"/>
</g>
<!-- 13h3&#45;&gt;14 -->
<g id="edge83" class="edge">
<title>13h3&#45;&gt;14</title>
<path fill="none" stroke="#000000" d="M329.947,-189.0456C316.9671,-184.4871 238.9291,-157.08 195.6554,-141.8823"/>
<polygon fill="#000000" stroke="#000000" points="196.5644,-138.492 185.9696,-138.4806 194.2449,-145.0965 196.5644,-138.492"/>
</g>
<!-- 14h0 -->
<g id="node74" class="node">
<title>14h0</title>
<ellipse fill="#000000" stroke="#000000" cx="133.8" cy="-73.8" rx="1.8" ry="1.8"/>
</g>
<!-- 14&#45;&gt;14h0 -->
<g id="edge84" class="edge">
<title>14&#45;&gt;14h0</title>
<path fill="none" stroke="#006400" d="M156.7196,-114.047C148.5313,-99.6682 137.844,-80.9012 134.7041,-75.3876"/>
</g>
<!-- 14h1 -->
<g id="node75" class="node">
<title>14h1</title>
<ellipse fill="#ff0000" stroke="#ff0000" cx="155.8" cy="-73.8" rx="1.8" ry="1.8"/>
</g>
<!-- 14&#45;&gt;14h1 -->
<g id="edge86" class="edge">
<title>14&#45;&gt;14h1</title>
<path fill="none" stroke="#0000ff" d="M163.0144,-111.8057C160.4291,-98.1863 157.2823,-81.6087 156.1931,-75.8709"/>
</g>
<!-- 14h2 -->
<g id="node76" class="node">
<title>14h2</title>
<ellipse fill="#ff0000" stroke="#ff0000" cx="177.8" cy="-73.8" rx="1.8" ry="1.8"/>
</g>
<!-- 14&#45;&gt;14h2 -->
<g id="edge87" class="edge">
<title>14&#45;&gt;14h2</title>
<path fill="none" stroke="#ff0000" d="M170.5856,-111.8057C173.1709,-98.1863 176.3177,-81.6087 177.4069,-75.8709"/>
</g>
<!-- 14h3 -->
<g id="node77" class="node">
<title>14h3</title>
<ellipse fill="#000000" stroke="#000000" cx="199.8" cy="-73.8" rx="1.8" ry="1.8"/>
</g>
<!-- 14&#45;&gt;14h3 -->
<g id="edge88" class="edge">
<title>14&#45;&gt;14h3</title>
<path fill="none" stroke="#ffd700" d="M176.8804,-114.047C185.0687,-99.6682 195.756,-80.9012 198.8959,-75.3876"/>
</g>
<!-- 14h0&#45;&gt;T -->
<g id="edge85" class="edge">
<title>14h0&#45;&gt;T</title>
<path fill="none" stroke="#000000" d="M134.898,-71.9434C137.4747,-67.5863 144.1929,-56.2266 150.8032,-45.0491"/>
<polygon fill="#000000" stroke="#000000" points="153.9224,-46.6504 156.0003,-36.2614 147.8972,-43.0871 153.9224,-46.6504"/>
</g>
<!-- 14h3&#45;&gt;T -->
<g id="edge89" class="edge">
<title>14h3&#45;&gt;T</title>
<path fill="none" stroke="#000000" d="M198.702,-71.9434C196.1253,-67.5863 189.4071,-56.2266 182.7968,-45.0491"/>
<polygon fill="#000000" stroke="#000000" points="185.7028,-43.0871 177.5997,-36.2614 179.6776,-46.6504 185.7028,-43.0871"/>
</g>
</g>
</svg>
