<?xml version="1.0" encoding="UTF-8" standalone="no"?>
<!DOCTYPE svg PUBLIC "-//W3C//DTD SVG 1.1//EN"
 "http://www.w3.org/Graphics/SVG/1.1/DTD/svg11.dtd">
<!-- Generated by graphviz version 2.40.1 (20161225.0304)
 -->
<!-- Title: DD Pages: 1 -->
<svg width="342pt" height="779pt"
 viewBox="0.00 0.00 341.60 778.98" xmlns="http://www.w3.org/2000/svg" xmlns:xlink="http://www.w3.org/1999/xlink">
<g id="graph0" class="graph" transform="scale(1 1) rotate(0) translate(4 774.9785)">
<title>DD</title>
<polygon fill="#ffffff" stroke="transparent" points="-4,4 -4,-774.9785 337.6,-774.9785 337.6,4 -4,4"/>
<!-- T -->
<g id="node1" class="node">
<title>T</title>
<polygon fill="none" stroke="#000000" points="193.8,-36 139.8,-36 139.8,0 193.8,0 193.8,-36"/>
<text text-anchor="middle" x="166.8" y="-14.3" font-family="Times,serif" font-size="14.00" fill="#000000">1</text>
</g>
<!-- R -->
<g id="node2" class="node">
<title>R</title>
<ellipse fill="#000000" stroke="#000000" cx="166.8" cy="-769.1785" rx="1.8" ry="1.8"/>
</g>
<!-- 0 -->
<g id="node3" class="node">
<title>0</title>
<ellipse fill="#d3d3d3" stroke="#000000" cx="166.8" cy="-711.2303" rx="20.2975" ry="20.2975"/>
<text text-anchor="middle" x="166.8" y="-707.5303" font-family="Times,serif" font-size="14.00" fill="#000000">q5</text>
</g>
<!-- R&#45;&gt;0 -->
<g id="edge1" class="edge">
<title>R&#45;&gt;0</title>
<path fill="none" stroke="#000000" d="M166.8,-767.2505C166.8,-763.0537 166.8,-752.6008 166.8,-741.8454"/>
<polygon fill="#000000" stroke="#000000" points="170.3001,-741.6352 166.8,-731.6352 163.3001,-741.6353 170.3001,-741.6352"/>
</g>
<!-- 0h0 -->
<g id="node4" class="node">
<title>0h0</title>
<ellipse fill="#000000" stroke="#000000" cx="133.8" cy="-653.2821" rx="1.8" ry="1.8"/>
</g>
<!-- 0&#45;&gt;0h0 -->
<g id="edge2" class="edge">
<title>0&#45;&gt;0h0</title>
<path fill="none" stroke="#006400" d="M156.7196,-693.5291C148.5313,-679.1503 137.844,-660.3833 134.7041,-654.8697"/>
</g>
<!-- 0h1 -->
<g id="node5" class="node">
<title>0h1</title>
<ellipse fill="#ff0000" stroke="#ff0000" cx="155.8" cy="-653.2821" rx="1.8" ry="1.8"/>
</g>
<!-- 0&#45;&gt;0h1 -->
<g id="edge4" class="edge">
<title>0&#45;&gt;0h1</title>
<path fill="none" stroke="#0000ff" d="M163.0144,-691.2878C160.4291,-677.6684 157.2823,-661.0909 156.1931,-655.3531"/>
</g>
<!-- 0h2 -->
<g id="node6" class="node">
<title>0h2</title>
<ellipse fill="#ff0000" stroke="#ff0000" cx="177.8" cy="-653.2821" rx="1.8" ry="1.8"/>
</g>
<!-- 0&#45;&gt;0h2 -->
<g id="edge5" class="edge">
<title>0&#45;&gt;0h2</title>
<path fill="none" stroke="#ff0000" d="M170.5856,-691.2878C173.1709,-677.6684 176.3177,-661.0909 177.4069,-655.3531"/>
</g>
<!-- 0h3 -->
<g id="node7" class="node">
<title>0h3</title>
<ellipse fill="#000000" stroke="#000000" cx="199.8" cy="-653.2821" rx="1.8" ry="1.8"/>
</g>
<!-- 0&#45;&gt;0h3 -->
<g id="edge6" class="edge">
<title>0&#45;&gt;0h3</title>
<path fill="none" stroke="#ffd700" d="M176.8804,-693.5291C185.0687,-679.1503 195.756,-660.3833 198.8959,-654.8697"/>
</g>
<!-- 1 -->
<g id="node8" class="node">
<title>1</title>
<ellipse fill="#d3d3d3" stroke="#000000" cx="166.8" cy="-595.3339" rx="20.2975" ry="20.2975"/>
<text text-anchor="middle" x="166.8" y="-591.6339" font-family="Times,serif" font-size="14.00" fill="#000000">q4</text>
</g>
<!-- 0h0&#45;&gt;1 -->
<g id="edge3" class="edge">
<title>0h0&#45;&gt;1</title>
<path fill="none" stroke="#000000" d="M134.898,-651.3541C137.5894,-646.628 144.7988,-633.9682 151.6844,-621.877"/>
<polygon fill="#000000" stroke="#000000" points="154.8993,-623.3042 156.8066,-612.8825 148.8165,-619.8402 154.8993,-623.3042"/>
</g>
<!-- 0h3&#45;&gt;1 -->
<g id="edge7" class="edge">
<title>0h3&#45;&gt;1</title>
<path fill="none" stroke="#000000" d="M198.702,-651.3541C196.0106,-646.628 188.8012,-633.9682 181.9156,-621.877"/>
<polygon fill="#000000" stroke="#000000" points="184.7835,-619.8402 176.7934,-612.8825 178.7007,-623.3042 184.7835,-619.8402"/>
</g>
<!-- 1h0 -->
<g id="node9" class="node">
<title>1h0</title>
<ellipse fill="#000000" stroke="#000000" cx="133.8" cy="-537.3857" rx="1.8" ry="1.8"/>
</g>
<!-- 1&#45;&gt;1h0 -->
<g id="edge8" class="edge">
<title>1&#45;&gt;1h0</title>
<path fill="none" stroke="#006400" d="M156.7196,-577.6327C148.5313,-563.2539 137.844,-544.4869 134.7041,-538.9733"/>
</g>
<!-- 1h1 -->
<g id="node10" class="node">
<title>1h1</title>
<ellipse fill="#ff0000" stroke="#ff0000" cx="155.8" cy="-537.3857" rx="1.8" ry="1.8"/>
</g>
<!-- 1&#45;&gt;1h1 -->
<g id="edge10" class="edge">
<title>1&#45;&gt;1h1</title>
<path fill="none" stroke="#0000ff" d="M163.0144,-575.3914C160.4291,-561.772 157.2823,-545.1944 156.1931,-539.4566"/>
</g>
<!-- 1h2 -->
<g id="node11" class="node">
<title>1h2</title>
<ellipse fill="#ff0000" stroke="#ff0000" cx="177.8" cy="-537.3857" rx="1.8" ry="1.8"/>
</g>
<!-- 1&#45;&gt;1h2 -->
<g id="edge11" class="edge">
<title>1&#45;&gt;1h2</title>
<path fill="none" stroke="#ff0000" d="M170.5856,-575.3914C173.1709,-561.772 176.3177,-545.1944 177.4069,-539.4566"/>
</g>
<!-- 1h3 -->
<g id="node12" class="node">
<title>1h3</title>
<ellipse fill="#000000" stroke="#000000" cx="199.8" cy="-537.3857" rx="1.8" ry="1.8"/>
</g>
<!-- 1&#45;&gt;1h3 -->
<g id="edge12" class="edge">
<title>1&#45;&gt;1h3</title>
<path fill="none" stroke="#ffd700" d="M176.8804,-577.6327C185.0687,-563.2539 195.756,-544.4869 198.8959,-538.9733"/>
</g>
<!-- 2 -->
<g id="node13" class="node">
<title>2</title>
<ellipse fill="#d3d3d3" stroke="#000000" cx="166.8" cy="-479.4375" rx="20.2975" ry="20.2975"/>
<text text-anchor="middle" x="166.8" y="-475.7375" font-family="Times,serif" font-size="14.00" fill="#000000">q3</text>
</g>
<!-- 1h0&#45;&gt;2 -->
<g id="edge9" class="edge">
<title>1h0&#45;&gt;2</title>
<path fill="none" stroke="#000000" d="M134.898,-535.4577C137.5894,-530.7315 144.7988,-518.0717 151.6844,-505.9806"/>
<polygon fill="#000000" stroke="#000000" points="154.8993,-507.4078 156.8066,-496.986 148.8165,-503.9438 154.8993,-507.4078"/>
</g>
<!-- 1h3&#45;&gt;2 -->
<g id="edge13" class="edge">
<title>1h3&#45;&gt;2</title>
<path fill="none" stroke="#000000" d="M198.702,-535.4577C196.0106,-530.7315 188.8012,-518.0717 181.9156,-505.9806"/>
<polygon fill="#000000" stroke="#000000" points="184.7835,-503.9438 176.7934,-496.986 178.7007,-507.4078 184.7835,-503.9438"/>
</g>
<!-- 2h0 -->
<g id="node14" class="node">
<title>2h0</title>
<ellipse fill="#000000" stroke="#000000" cx="89.8" cy="-421.4893" rx="1.8" ry="1.8"/>
</g>
<!-- 2&#45;&gt;2h0 -->
<g id="edge14" class="edge">
<title>2&#45;&gt;2h0</title>
<path fill="none" stroke="#006400" d="M150.4703,-467.1482C130.693,-452.2643 99.0753,-428.4696 91.4799,-422.7535"/>
</g>
<!-- 2h1 -->
<g id="node15" class="node">
<title>2h1</title>
<ellipse fill="#000000" stroke="#000000" cx="144.8" cy="-421.4893" rx="1.8" ry="1.8"/>
</g>
<!-- 2&#45;&gt;2h1 -->
<g id="edge16" class="edge">
<title>2&#45;&gt;2h1</title>
<path fill="none" stroke="#0000ff" d="M159.5964,-460.4631C154.283,-446.4676 147.6227,-428.9243 145.4902,-423.3072"/>
</g>
<!-- 2h2 -->
<g id="node16" class="node">
<title>2h2</title>
<ellipse fill="#000000" stroke="#000000" cx="188.8" cy="-421.4893" rx="1.8" ry="1.8"/>
</g>
<!-- 2&#45;&gt;2h2 -->
<g id="edge18" class="edge">
<title>2&#45;&gt;2h2</title>
<path fill="none" stroke="#ff0000" d="M174.0036,-460.4631C179.317,-446.4676 185.9773,-428.9243 188.1098,-423.3072"/>
</g>
<!-- 2h3 -->
<g id="node17" class="node">
<title>2h3</title>
<ellipse fill="#000000" stroke="#000000" cx="254.8" cy="-421.4893" rx="1.8" ry="1.8"/>
</g>
<!-- 2&#45;&gt;2h3 -->
<g id="edge20" class="edge">
<title>2&#45;&gt;2h3</title>
<path fill="none" stroke="#ffd700" d="M183.7673,-468.2645C206.5421,-453.2672 245.0934,-427.8811 253.254,-422.5073"/>
</g>
<!-- 3 -->
<g id="node18" class="node">
<title>3</title>
<ellipse fill="#d3d3d3" stroke="#000000" cx="45.8" cy="-363.5411" rx="20.2975" ry="20.2975"/>
<text text-anchor="middle" x="45.8" y="-359.8411" font-family="Times,serif" font-size="14.00" fill="#000000">q2</text>
</g>
<!-- 2h0&#45;&gt;3 -->
<g id="edge15" class="edge">
<title>2h0&#45;&gt;3</title>
<path fill="none" stroke="#000000" d="M88.336,-419.5612C84.5196,-414.535 73.8899,-400.5356 64.2121,-387.7899"/>
<polygon fill="#000000" stroke="#000000" points="66.9059,-385.5499 58.0711,-379.7021 61.3309,-389.783 66.9059,-385.5499"/>
</g>
<!-- 4 -->
<g id="node23" class="node">
<title>4</title>
<ellipse fill="#d3d3d3" stroke="#000000" cx="133.8" cy="-363.5411" rx="20.2975" ry="20.2975"/>
<text text-anchor="middle" x="133.8" y="-359.8411" font-family="Times,serif" font-size="14.00" fill="#000000">q2</text>
</g>
<!-- 2h1&#45;&gt;4 -->
<g id="edge17" class="edge">
<title>2h1&#45;&gt;4</title>
<path fill="none" stroke="#000000" d="M144.434,-419.5612C143.6177,-415.261 141.5546,-404.3926 139.4605,-393.3607"/>
<polygon fill="#000000" stroke="#000000" points="142.8671,-392.5388 137.5635,-383.367 135.9899,-393.8443 142.8671,-392.5388"/>
</g>
<!-- 5 -->
<g id="node28" class="node">
<title>5</title>
<ellipse fill="#d3d3d3" stroke="#000000" cx="199.8" cy="-363.5411" rx="20.2975" ry="20.2975"/>
<text text-anchor="middle" x="199.8" y="-359.8411" font-family="Times,serif" font-size="14.00" fill="#000000">q2</text>
</g>
<!-- 2h2&#45;&gt;5 -->
<g id="edge19" class="edge">
<title>2h2&#45;&gt;5</title>
<path fill="none" stroke="#000000" d="M189.166,-419.5612C189.9823,-415.261 192.0454,-404.3926 194.1395,-393.3607"/>
<polygon fill="#000000" stroke="#000000" points="197.6101,-393.8443 196.0365,-383.367 190.7329,-392.5388 197.6101,-393.8443"/>
</g>
<!-- 6 -->
<g id="node33" class="node">
<title>6</title>
<ellipse fill="#d3d3d3" stroke="#000000" cx="287.8" cy="-363.5411" rx="20.2975" ry="20.2975"/>
<text text-anchor="middle" x="287.8" y="-359.8411" font-family="Times,serif" font-size="14.00" fill="#000000">q2</text>
</g>
<!-- 2h3&#45;&gt;6 -->
<g id="edge21" class="edge">
<title>2h3&#45;&gt;6</title>
<path fill="none" stroke="#000000" d="M255.898,-419.5612C258.5894,-414.8351 265.7988,-402.1753 272.6844,-390.0841"/>
<polygon fill="#000000" stroke="#000000" points="275.8993,-391.5114 277.8066,-381.0896 269.8165,-388.0473 275.8993,-391.5114"/>
</g>
<!-- 3h0 -->
<g id="node19" class="node">
<title>3h0</title>
<ellipse fill="#000000" stroke="#000000" cx="1.8" cy="-305.5928" rx="1.8" ry="1.8"/>
</g>
<!-- 3&#45;&gt;3h0 -->
<g id="edge22" class="edge">
<title>3&#45;&gt;3h0</title>
<path fill="none" stroke="#006400" d="M33.5435,-347.3993C22.5586,-332.932 7.5121,-313.1157 3.0782,-307.2763"/>
</g>
<!-- 3h1 -->
<g id="node20" class="node">
<title>3h1</title>
<ellipse fill="#ff0000" stroke="#ff0000" cx="23.8" cy="-305.5928" rx="1.8" ry="1.8"/>
</g>
<!-- 3&#45;&gt;3h1 -->
<g id="edge24" class="edge">
<title>3&#45;&gt;3h1</title>
<path fill="none" stroke="#0000ff" d="M38.5964,-344.5666C33.283,-330.5712 26.6227,-313.0278 24.4902,-307.4107"/>
</g>
<!-- 3h2 -->
<g id="node21" class="node">
<title>3h2</title>
<ellipse fill="#ff0000" stroke="#ff0000" cx="45.8" cy="-305.5928" rx="1.8" ry="1.8"/>
</g>
<!-- 3&#45;&gt;3h2 -->
<g id="edge25" class="edge">
<title>3&#45;&gt;3h2</title>
<path fill="none" stroke="#ff0000" d="M45.8,-343.2736C45.8,-329.6962 45.8,-313.3069 45.8,-307.6382"/>
</g>
<!-- 3h3 -->
<g id="node22" class="node">
<title>3h3</title>
<ellipse fill="#ff0000" stroke="#ff0000" cx="67.8" cy="-305.5928" rx="1.8" ry="1.8"/>
</g>
<!-- 3&#45;&gt;3h3 -->
<g id="edge26" class="edge">
<title>3&#45;&gt;3h3</title>
<path fill="none" stroke="#ffd700" d="M53.0036,-344.5666C58.317,-330.5712 64.9773,-313.0278 67.1098,-307.4107"/>
</g>
<!-- 7 -->
<g id="node38" class="node">
<title>7</title>
<ellipse fill="#d3d3d3" stroke="#000000" cx="166.8" cy="-247.6446" rx="20.2975" ry="20.2975"/>
<text text-anchor="middle" x="166.8" y="-243.9446" font-family="Times,serif" font-size="14.00" fill="#000000">q1</text>
</g>
<!-- 3h0&#45;&gt;7 -->
<g id="edge23" class="edge">
<title>3h0&#45;&gt;7</title>
<path fill="none" stroke="#000000" d="M3.653,-304.9421C16.6329,-300.3835 94.6709,-272.9765 137.9446,-257.7787"/>
<polygon fill="#000000" stroke="#000000" points="139.3551,-260.993 147.6304,-254.377 137.0356,-254.3884 139.3551,-260.993"/>
</g>
<!-- 4h0 -->
<g id="node24" class="node">
<title>4h0</title>
<ellipse fill="#ff0000" stroke="#ff0000" cx="89.8" cy="-305.5928" rx="1.8" ry="1.8"/>
</g>
<!-- 4&#45;&gt;4h0 -->
<g id="edge27" class="edge">
<title>4&#45;&gt;4h0</title>
<path fill="none" stroke="#006400" d="M121.5435,-347.3993C110.5586,-332.932 95.5121,-313.1157 91.0782,-307.2763"/>
</g>
<!-- 4h1 -->
<g id="node25" class="node">
<title>4h1</title>
<ellipse fill="#ff0000" stroke="#ff0000" cx="111.8" cy="-305.5928" rx="1.8" ry="1.8"/>
</g>
<!-- 4&#45;&gt;4h1 -->
<g id="edge28" class="edge">
<title>4&#45;&gt;4h1</title>
<path fill="none" stroke="#0000ff" d="M126.5964,-344.5666C121.283,-330.5712 114.6227,-313.0278 112.4902,-307.4107"/>
</g>
<!-- 4h2 -->
<g id="node26" class="node">
<title>4h2</title>
<ellipse fill="#000000" stroke="#000000" cx="133.8" cy="-305.5928" rx="1.8" ry="1.8"/>
</g>
<!-- 4&#45;&gt;4h2 -->
<g id="edge29" class="edge">
<title>4&#45;&gt;4h2</title>
<path fill="none" stroke="#ff0000" d="M133.8,-343.2736C133.8,-329.6962 133.8,-313.3069 133.8,-307.6382"/>
</g>
<!-- 4h3 -->
<g id="node27" class="node">
<title>4h3</title>
<ellipse fill="#ff0000" stroke="#ff0000" cx="155.8" cy="-305.5928" rx="1.8" ry="1.8"/>
</g>
<!-- 4&#45;&gt;4h3 -->
<g id="edge31" class="edge">
<title>4&#45;&gt;4h3</title>
<path fill="none" stroke="#ffd700" d="M141.0036,-344.5666C146.317,-330.5712 152.9773,-313.0278 155.1098,-307.4107"/>
</g>
<!-- 4h2&#45;&gt;7 -->
<g id="edge30" class="edge">
<title>4h2&#45;&gt;7</title>
<path fill="none" stroke="#000000" d="M134.898,-303.6648C137.5894,-298.9387 144.7988,-286.2789 151.6844,-274.1877"/>
<polygon fill="#000000" stroke="#000000" points="154.8993,-275.615 156.8066,-265.1932 148.8165,-272.1509 154.8993,-275.615"/>
</g>
<!-- 5h0 -->
<g id="node29" class="node">
<title>5h0</title>
<ellipse fill="#ff0000" stroke="#ff0000" cx="177.8" cy="-305.5928" rx="1.8" ry="1.8"/>
</g>
<!-- 5&#45;&gt;5h0 -->
<g id="edge32" class="edge">
<title>5&#45;&gt;5h0</title>
<path fill="none" stroke="#006400" d="M192.5964,-344.5666C187.283,-330.5712 180.6227,-313.0278 178.4902,-307.4107"/>
</g>
<!-- 5h1 -->
<g id="node30" class="node">
<title>5h1</title>
<ellipse fill="#000000" stroke="#000000" cx="199.8" cy="-305.5928" rx="1.8" ry="1.8"/>
</g>
<!-- 5&#45;&gt;5h1 -->
<g id="edge33" class="edge">
<title>5&#45;&gt;5h1</title>
<path fill="none" stroke="#0000ff" d="M199.8,-343.2736C199.8,-329.6962 199.8,-313.3069 199.8,-307.6382"/>
</g>
<!-- 5h2 -->
<g id="node31" class="node">
<title>5h2</title>
<ellipse fill="#ff0000" stroke="#ff0000" cx="221.8" cy="-305.5928" rx="1.8" ry="1.8"/>
</g>
<!-- 5&#45;&gt;5h2 -->
<g id="edge35" class="edge">
<title>5&#45;&gt;5h2</title>
<path fill="none" stroke="#ff0000" d="M207.0036,-344.5666C212.317,-330.5712 218.9773,-313.0278 221.1098,-307.4107"/>
</g>
<!-- 5h3 -->
<g id="node32" class="node">
<title>5h3</title>
<ellipse fill="#ff0000" stroke="#ff0000" cx="243.8" cy="-305.5928" rx="1.8" ry="1.8"/>
</g>
<!-- 5&#45;&gt;5h3 -->
<g id="edge36" class="edge">
<title>5&#45;&gt;5h3</title>
<path fill="none" stroke="#ffd700" d="M212.0565,-347.3993C223.0414,-332.932 238.0879,-313.1157 242.5218,-307.2763"/>
</g>
<!-- 5h1&#45;&gt;7 -->
<g id="edge34" class="edge">
<title>5h1&#45;&gt;7</title>
<path fill="none" stroke="#000000" d="M198.702,-303.6648C196.0106,-298.9387 188.8012,-286.2789 181.9156,-274.1877"/>
<polygon fill="#000000" stroke="#000000" points="184.7835,-272.1509 176.7934,-265.1932 178.7007,-275.615 184.7835,-272.1509"/>
</g>
<!-- 6h0 -->
<g id="node34" class="node">
<title>6h0</title>
<ellipse fill="#ff0000" stroke="#ff0000" cx="265.8" cy="-305.5928" rx="1.8" ry="1.8"/>
</g>
<!-- 6&#45;&gt;6h0 -->
<g id="edge37" class="edge">
<title>6&#45;&gt;6h0</title>
<path fill="none" stroke="#006400" d="M280.5964,-344.5666C275.283,-330.5712 268.6227,-313.0278 266.4902,-307.4107"/>
</g>
<!-- 6h1 -->
<g id="node35" class="node">
<title>6h1</title>
<ellipse fill="#ff0000" stroke="#ff0000" cx="287.8" cy="-305.5928" rx="1.8" ry="1.8"/>
</g>
<!-- 6&#45;&gt;6h1 -->
<g id="edge38" class="edge">
<title>6&#45;&gt;6h1</title>
<path fill="none" stroke="#0000ff" d="M287.8,-343.2736C287.8,-329.6962 287.8,-313.3069 287.8,-307.6382"/>
</g>
<!-- 6h2 -->
<g id="node36" class="node">
<title>6h2</title>
<ellipse fill="#ff0000" stroke="#ff0000" cx="309.8" cy="-305.5928" rx="1.8" ry="1.8"/>
</g>
<!-- 6&#45;&gt;6h2 -->
<g id="edge39" class="edge">
<title>6&#45;&gt;6h2</title>
<path fill="none" stroke="#ff0000" d="M295.0036,-344.5666C300.317,-330.5712 306.9773,-313.0278 309.1098,-307.4107"/>
</g>
<!-- 6h3 -->
<g id="node37" class="node">
<title>6h3</title>
<ellipse fill="#000000" stroke="#000000" cx="331.8" cy="-305.5928" rx="1.8" ry="1.8"/>
</g>
<!-- 6&#45;&gt;6h3 -->
<g id="edge40" class="edge">
<title>6&#45;&gt;6h3</title>
<path fill="none" stroke="#ffd700" d="M300.0565,-347.3993C311.0414,-332.932 326.0879,-313.1157 330.5218,-307.2763"/>
</g>
<!-- 6h3&#45;&gt;7 -->
<g id="edge41" class="edge">
<title>6h3&#45;&gt;7</title>
<path fill="none" stroke="#000000" d="M329.947,-304.9421C316.9671,-300.3835 238.9291,-272.9765 195.6554,-257.7787"/>
<polygon fill="#000000" stroke="#000000" points="196.5644,-254.3884 185.9696,-254.377 194.2449,-260.993 196.5644,-254.3884"/>
</g>
<!-- 7h0 -->
<g id="node39" class="node">
<title>7h0</title>
<ellipse fill="#000000" stroke="#000000" cx="133.8" cy="-189.6964" rx="1.8" ry="1.8"/>
</g>
<!-- 7&#45;&gt;7h0 -->
<g id="edge42" class="edge">
<title>7&#45;&gt;7h0</title>
<path fill="none" stroke="#006400" d="M156.7196,-229.9434C148.5313,-215.5646 137.844,-196.7976 134.7041,-191.284"/>
</g>
<!-- 7h1 -->
<g id="node40" class="node">
<title>7h1</title>
<ellipse fill="#ff0000" stroke="#ff0000" cx="155.8" cy="-189.6964" rx="1.8" ry="1.8"/>
</g>
<!-- 7&#45;&gt;7h1 -->
<g id="edge44" class="edge">
<title>7&#45;&gt;7h1</title>
<path fill="none" stroke="#0000ff" d="M163.0144,-227.7021C160.4291,-214.0827 157.2823,-197.5052 156.1931,-191.7674"/>
</g>
<!-- 7h2 -->
<g id="node41" class="node">
<title>7h2</title>
<ellipse fill="#ff0000" stroke="#ff0000" cx="177.8" cy="-189.6964" rx="1.8" ry="1.8"/>
</g>
<!-- 7&#45;&gt;7h2 -->
<g id="edge45" class="edge">
<title>7&#45;&gt;7h2</title>
<path fill="none" stroke="#ff0000" d="M170.5856,-227.7021C173.1709,-214.0827 176.3177,-197.5052 177.4069,-191.7674"/>
</g>
<!-- 7h3 -->
<g id="node42" class="node">
<title>7h3</title>
<ellipse fill="#000000" stroke="#000000" cx="199.8" cy="-189.6964" rx="1.8" ry="1.8"/>
</g>
<!-- 7&#45;&gt;7h3 -->
<g id="edge46" class="edge">
<title>7&#45;&gt;7h3</title>
<path fill="none" stroke="#ffd700" d="M176.8804,-229.9434C185.0687,-215.5646 195.756,-196.7976 198.8959,-191.284"/>
</g>
<!-- 8 -->
<g id="node43" class="node">
<title>8</title>
<ellipse fill="#d3d3d3" stroke="#000000" cx="166.8" cy="-131.7482" rx="20.2975" ry="20.2975"/>
<text text-anchor="middle" x="166.8" y="-128.0482" font-family="Times,serif" font-size="14.00" fill="#000000">q0</text>
</g>
<!-- 7h0&#45;&gt;8 -->
<g id="edge43" class="edge">
<title>7h0&#45;&gt;8</title>
<path fill="none" stroke="#000000" d="M134.898,-187.7684C137.5894,-183.0423 144.7988,-170.3825 151.6844,-158.2913"/>
<polygon fill="#000000" stroke="#000000" points="154.8993,-159.7185 156.8066,-149.2968 148.8165,-156.2545 154.8993,-159.7185"/>
</g>
<!-- 7h3&#45;&gt;8 -->
<g id="edge47" class="edge">
<title>7h3&#45;&gt;8</title>
<path fill="none" stroke="#000000" d="M198.702,-187.7684C196.0106,-183.0423 188.8012,-170.3825 181.9156,-158.2913"/>
<polygon fill="#000000" stroke="#000000" points="184.7835,-156.2545 176.7934,-149.2968 178.7007,-159.7185 184.7835,-156.2545"/>
</g>
<!-- 8h0 -->
<g id="node44" class="node">
<title>8h0</title>
<ellipse fill="#000000" stroke="#000000" cx="133.8" cy="-73.8" rx="1.8" ry="1.8"/>
</g>
<!-- 8&#45;&gt;8h0 -->
<g id="edge48" class="edge">
<title>8&#45;&gt;8h0</title>
<path fill="none" stroke="#006400" d="M156.7196,-114.047C148.5313,-99.6682 137.844,-80.9012 134.7041,-75.3876"/>
</g>
<!-- 8h1 -->
<g id="node45" class="node">
<title>8h1</title>
<ellipse fill="#ff0000" stroke="#ff0000" cx="155.8" cy="-73.8" rx="1.8" ry="1.8"/>
</g>
<!-- 8&#45;&gt;8h1 -->
<g id="edge50" class="edge">
<title>8&#45;&gt;8h1</title>
<path fill="none" stroke="#0000ff" d="M163.0144,-111.8057C160.4291,-98.1863 157.2823,-81.6087 156.1931,-75.8709"/>
</g>
<!-- 8h2 -->
<g id="node46" class="node">
<title>8h2</title>
<ellipse fill="#ff0000" stroke="#ff0000" cx="177.8" cy="-73.8" rx="1.8" ry="1.8"/>
</g>
<!-- 8&#45;&gt;8h2 -->
<g id="edge51" class="edge">
<title>8&#45;&gt;8h2</title>
<path fill="none" stroke="#ff0000" d="M170.5856,-111.8057C173.1709,-98.1863 176.3177,-81.6087 177.4069,-75.8709"/>
</g>
<!-- 8h3 -->
<g id="node47" class="node">
<title>8h3</title>
<ellipse fill="#000000" stroke="#000000" cx="199.8" cy="-73.8" rx="1.8" ry="1.8"/>
</g>
<!-- 8&#45;&gt;8h3 -->
<g id="edge52" class="edge">
<title>8&#45;&gt;8h3</title>
<path fill="none" stroke="#ffd700" d="M176.8804,-114.047C185.0687,-99.6682 195.756,-80.9012 198.8959,-75.3876"/>
</g>
<!-- 8h0&#45;&gt;T -->
<g id="edge49" class="edge">
<title>8h0&#45;&gt;T</title>
<path fill="none" stroke="#000000" d="M134.898,-71.9434C137.4747,-67.5863 144.1929,-56.2266 150.8032,-45.0491"/>
<polygon fill="#000000" stroke="#000000" points="153.9224,-46.6504 156.0003,-36.2614 147.8972,-43.0871 153.9224,-46.6504"/>
</g>
<!-- 8h3&#45;&gt;T -->
<g id="edge53" class="edge">
<title>8h3&#45;&gt;T</title>
<path fill="none" stroke="#000000" d="M198.702,-71.9434C196.1253,-67.5863 189.4071,-56.2266 182.7968,-45.0491"/>
<polygon fill="#000000" stroke="#000000" points="185.7028,-43.0871 177.5997,-36.2614 179.6776,-46.6504 185.7028,-43.0871"/>
</g>
</g>
</svg>
